<svg width="25" height="25" viewBox="0 0 25 25" fill="none" xmlns="http://www.w3.org/2000/svg">
<path d="M9.5057 11.2157C8.69412 10.4041 8.28832 9.42849 8.28832 8.28881C8.28832 7.14913 8.69412 6.1735 9.5057 5.36191C10.3173 4.55033 11.2929 4.14453 12.4326 4.14453C13.5723 4.14453 14.5479 4.55033 15.3595 5.36191C16.1711 6.1735 16.5769 7.14913 16.5769 8.28881C16.5769 9.42849 16.1711 10.4041 15.3595 11.2157C14.5479 12.0273 13.5723 12.4331 12.4326 12.4331C11.2929 12.4331 10.3173 12.0273 9.5057 11.2157ZM4.14404 18.6495V17.8207C4.14404 17.2335 4.29531 16.6941 4.59784 16.2023C4.90037 15.7105 5.30168 15.3348 5.80175 15.0751C6.87236 14.5398 7.96023 14.1385 9.06537 13.8712C10.1705 13.6038 11.2929 13.4698 12.4326 13.4692C13.5723 13.4685 14.6947 13.6025 15.7998 13.8712C16.905 14.1398 17.9928 14.5411 19.0634 15.0751C19.5642 15.3341 19.9659 15.7098 20.2684 16.2023C20.5709 16.6948 20.7218 17.2342 20.7212 17.8207V18.6495C20.7212 19.2193 20.5184 19.7073 20.113 20.1135C19.7075 20.5196 19.2195 20.7223 18.649 20.7216H6.21618C5.64634 20.7216 5.1587 20.5189 4.75325 20.1135C4.3478 19.708 4.14473 19.22 4.14404 18.6495ZM6.21618 18.6495H18.649V17.8207C18.649 17.6307 18.6017 17.458 18.5071 17.3026C18.4124 17.1472 18.2871 17.0263 18.131 16.94C17.1985 16.4738 16.2574 16.1243 15.3077 15.8915C14.358 15.6587 13.3996 15.542 12.4326 15.5413C11.4656 15.5406 10.5072 15.6573 9.55751 15.8915C8.60778 16.1256 7.66668 16.4751 6.73422 16.94C6.57881 17.0263 6.45344 17.1472 6.35812 17.3026C6.26281 17.458 6.21549 17.6307 6.21618 17.8207V18.6495ZM13.8966 9.75278C14.302 9.34664 14.5047 8.85865 14.5047 8.28881C14.5047 7.71897 14.302 7.23133 13.8966 6.82588C13.4911 6.42043 13.0031 6.21736 12.4326 6.21667C11.8621 6.21598 11.3744 6.41905 10.9697 6.82588C10.5649 7.23271 10.3618 7.72035 10.3605 8.28881C10.3591 8.85727 10.5621 9.34526 10.9697 9.75278C11.3772 10.1603 11.8648 10.363 12.4326 10.3609C13.0004 10.3589 13.4884 10.1562 13.8966 9.75278Z" fill="#6964ED"/>
</svg>
