<svg width="20" height="20" viewBox="0 0 20 20" fill="none" xmlns="http://www.w3.org/2000/svg">
<g clip-path="url(#clip0_609_371)">
<path d="M10.1916 0.999981C10.1808 0.939265 10.151 0.883553 10.1064 0.840851C10.0619 0.79815 10.005 0.770656 9.94393 0.762323C9.88281 0.753989 9.82063 0.765244 9.76631 0.79447C9.712 0.823696 9.66835 0.869388 9.64163 0.924981C9.52496 1.14165 9.74996 7.34998 9.29996 12.2C9.2083 13.175 8.64163 17.15 8.19163 18.0333C7.44163 19.4583 3.8083 19.575 2.54996 17.675C1.51663 16.1083 1.4333 12 1.5333 10.125C1.66663 7.66665 1.17496 4.05831 1.76663 2.28331C1.89834 1.8636 2.1515 1.49234 2.49413 1.21646C2.83676 0.940577 3.25348 0.772446 3.69163 0.733314C4.95223 0.547356 6.22989 0.50542 7.49996 0.608314C7.93967 0.627578 8.3647 0.772148 8.72496 1.02498C8.78795 1.04045 8.85451 1.03027 8.90999 0.996667C8.96547 0.963067 9.00533 0.908803 9.0208 0.845814C9.03627 0.782826 9.02608 0.716271 8.99248 0.660791C8.95888 0.605312 8.90462 0.565452 8.84163 0.549981C8.47488 0.267879 8.02905 0.107613 7.56663 0.0916477C6.23577 -0.0446342 4.89367 -0.0278579 3.56663 0.141648C-0.333368 0.908314 1.02496 5.05831 0.666631 10.05C0.516631 12.2333 0.566631 16.3583 1.76663 18.175C2.04502 18.6005 2.4048 18.9669 2.82526 19.2529C3.24572 19.5389 3.71857 19.739 4.21663 19.8416C5.22147 20.0842 6.2718 20.0641 7.26663 19.7833C9.4333 19.1 9.27496 17.2833 9.61663 15.675C9.84019 14.5526 9.99051 13.4169 10.0666 12.275C10.15 11.1416 10.4583 2.01665 10.1916 0.999981Z" fill="#1C1C35"/>
<path d="M3.39995 3.22493C3.59995 2.87493 2.89995 2.54993 2.74162 3.16659C2.63452 3.86434 2.57881 4.56902 2.57495 5.27493C2.64162 5.62493 2.91662 5.77493 3.25828 5.87493C4.06478 6.04402 4.88463 6.14162 5.70828 6.16659C6.46677 6.14976 7.22362 6.08855 7.97495 5.98326C8.90828 5.78326 8.66662 4.81659 8.64995 3.81659C8.67629 3.4504 8.67629 3.08279 8.64995 2.71659C8.62293 2.60013 8.55869 2.49564 8.46697 2.41895C8.37524 2.34227 8.26103 2.29756 8.14162 2.29159C6.5548 2.2005 4.96314 2.24231 3.38328 2.41659C3.32235 2.45994 3.2798 2.52448 3.26398 2.59757C3.24816 2.67066 3.2602 2.74702 3.29775 2.81169C3.3353 2.87636 3.39565 2.92467 3.46697 2.94716C3.53828 2.96965 3.61543 2.96469 3.68328 2.93326C3.76662 2.99993 4.04162 2.93326 4.09995 2.93326C8.96662 3.04159 6.31662 3.09159 7.76662 3.05826C7.54995 5.83326 8.19162 4.99993 7.05828 5.14993C5.93191 5.31072 4.7901 5.33311 3.65828 5.21659C3.48328 5.21659 3.29995 5.21659 3.22495 5.13326C3.24162 3.00826 3.20828 3.53326 3.39995 3.22493Z" fill="#1C1C35"/>
<path d="M3.39998 7.95836C3.54165 7.70836 3.19998 7.43336 2.91665 7.61669C2.63332 7.80003 2.71665 8.20003 2.70832 8.31669C2.54165 9.71669 2.27498 10.3334 3.25832 10.6084C4.99998 11.1 7.97498 10.8584 8.34165 10.6084C8.4858 10.4946 8.58833 10.3364 8.63332 10.1584C8.63332 10.0834 8.67498 7.74169 8.67498 7.90836C8.67498 7.64169 8.76665 7.37503 8.49998 7.18336C8.19953 7.04844 7.87001 6.99113 7.54165 7.01669C6.16695 6.96348 4.7902 7.02201 3.42498 7.19169C3.36405 7.23504 3.3215 7.29958 3.30568 7.37267C3.28985 7.44576 3.3019 7.52212 3.33945 7.58679C3.377 7.65146 3.43735 7.69977 3.50866 7.72226C3.57998 7.74475 3.65713 7.73979 3.72498 7.70836C3.80832 7.76669 4.08332 7.70836 4.14165 7.70836C7.77498 7.78336 6.90832 7.85003 7.80832 7.83336C7.73883 8.43627 7.71932 9.0439 7.74998 9.65003C7.74998 10.1917 7.88332 9.85003 7.05832 9.95003C5.78774 10.1419 4.49555 10.1419 3.22498 9.95003C3.24165 7.75003 3.20832 8.27503 3.39998 7.95836Z" fill="#1C1C35"/>
<path d="M3.375 12.4166C3.525 12.175 3.18334 11.9083 2.90834 12.0833C2.63334 12.2583 2.70834 12.6583 2.7 12.7666C2.55834 14.1666 2.275 14.7333 3.24167 15C4.02892 15.1651 4.82929 15.2599 5.63334 15.2833C6.10946 15.2802 6.5851 15.2524 7.05834 15.2C7.74167 15.125 8.30834 15.2 8.49167 14.525C8.49167 14.4666 8.55 11.925 8.55 11.9166C8.50661 11.8121 8.43061 11.7245 8.33334 11.6666C7.86667 11.3416 3.53334 11.5666 3.38334 11.6666C3.31593 11.7053 3.26664 11.7692 3.24633 11.8442C3.22601 11.9192 3.23633 11.9992 3.275 12.0666C3.31368 12.1341 3.37755 12.1833 3.45257 12.2037C3.52758 12.224 3.60759 12.2137 3.675 12.175C3.75834 12.2333 4.025 12.175 4.08334 12.175C8.6 12.3166 6.64167 12.3166 7.65834 12.2916L7.59167 13.0166C7.59167 14.8416 7.80834 14.2583 6.925 14.3583C5.68466 14.5435 4.42368 14.5435 3.18334 14.3583C3.225 12.2083 3.19167 12.725 3.375 12.4166Z" fill="#1C1C35"/>
<path d="M4.99996 16.8083C4.49996 17.2333 4.9083 17.9166 5.62496 17.9166C5.7466 17.9092 5.86466 17.8727 5.96916 17.81C6.07366 17.7473 6.16151 17.6604 6.22528 17.5565C6.28906 17.4527 6.32687 17.335 6.33552 17.2135C6.34416 17.0919 6.32339 16.9701 6.27496 16.8583C5.8333 16.3583 5.49996 16.3916 4.99996 16.8083Z" fill="#1C1C35"/>
<path d="M10.9583 13.0166C11.2499 13.0583 11.2249 12.8583 11.6749 12.1833C12.7817 10.7032 13.7497 9.12433 14.5666 7.46663C14.9421 6.7127 15.222 5.91487 15.3999 5.09163C15.8416 2.59163 15.4 2.59163 13.9083 2.15829C13.1576 1.85552 12.359 1.68903 11.5499 1.66663C11.1833 1.66663 11.1083 1.78329 11.1749 1.91663C11.2416 2.04996 14.6833 3.26663 14.6999 3.25829C14.8833 3.82496 14.2916 5.75829 13.9583 6.51663C13.4249 7.80829 12.6999 9.09163 12.1166 10.2833C11.1166 11.9166 10.3416 12.9416 10.9583 13.0166Z" fill="#1C1C35"/>
<path d="M19.1667 7.96664C18.8667 7.43331 16.9417 5.19164 16.4583 5.19997C16.3854 5.19997 16.3154 5.22895 16.2639 5.28052C16.2123 5.33209 16.1833 5.40204 16.1833 5.47497C16.1833 5.85831 16.1833 5.34164 17.325 6.72497C17.695 7.15156 18.0321 7.60565 18.3333 8.08331C18.7417 8.76664 18.6583 8.96664 18.1667 9.55831C18.0333 9.72497 15.3917 12.5416 14.2083 13.675C13.025 14.8083 13.1083 14.7083 10.7583 16.6666C10.625 16.7833 10.1833 16.975 10.2917 17.2666C10.302 17.2968 10.3181 17.3246 10.3392 17.3485C10.3603 17.3724 10.386 17.3919 10.4146 17.4058C10.4433 17.4197 10.4744 17.4279 10.5062 17.4297C10.538 17.4316 10.5699 17.4271 10.6 17.4166C10.675 17.4166 11.9583 16.4333 12.4667 16.0583C14.4758 14.6814 16.2968 13.0481 17.8833 11.2C19.0667 9.89164 19.8167 9.16664 19.1667 7.96664Z" fill="#1C1C35"/>
</g>
<defs>
<clipPath id="clip0_609_371">
<rect width="20" height="20" fill="white"/>
</clipPath>
</defs>
</svg>
