<svg width="1440" height="141" viewBox="0 0 1440 141" fill="none" xmlns="http://www.w3.org/2000/svg">
<g clip-path="url(#clip0_31_343)">
<g clip-path="url(#clip1_31_343)">
<rect x="71.5" width="72" height="72" fill="#F7F6F2"/>
<rect x="215.5" width="72" height="72" fill="#F7F6F2"/>
<rect x="359.5" width="72" height="72" fill="#F7F6F2"/>
<rect x="503.5" width="72" height="72" fill="#F7F6F2"/>
<rect x="647.5" width="72" height="72" fill="#F7F6F2"/>
<rect x="791.5" width="72" height="72" fill="#F7F6F2"/>
<rect x="935.5" width="72" height="72" fill="#F7F6F2"/>
<rect x="1079.5" width="72" height="72" fill="#F7F6F2"/>
<rect x="1223.5" width="72" height="72" fill="#F7F6F2"/>
<rect x="1367.5" width="72" height="72" fill="#F7F6F2"/>
<rect x="-1" y="72" width="72" height="72" fill="#F7F6F2"/>
<rect x="143" y="72" width="72" height="72" fill="#F7F6F2"/>
<rect x="287" y="72" width="72" height="72" fill="#F7F6F2"/>
<rect x="431" y="72" width="72" height="72" fill="#F7F6F2"/>
<rect x="575" y="72" width="72" height="72" fill="#F7F6F2"/>
<rect x="719" y="72" width="72" height="72" fill="#F7F6F2"/>
<rect x="863" y="72" width="72" height="72" fill="#F7F6F2"/>
<rect x="1007" y="72" width="72" height="72" fill="#F7F6F2"/>
<rect x="1151" y="72" width="72" height="72" fill="#F7F6F2"/>
<rect x="1295" y="72" width="72" height="72" fill="#F7F6F2"/>
<rect x="1439" y="72" width="72" height="72" fill="#F7F6F2"/>
</g>
</g>
<defs>
<clipPath id="clip0_31_343">
<rect width="1440" height="141" fill="white"/>
</clipPath>
<clipPath id="clip1_31_343">
<rect width="1506" height="141" fill="white" transform="translate(-1)"/>
</clipPath>
</defs>
</svg>
