<svg width="20" height="21" viewBox="0 0 20 21" fill="none" xmlns="http://www.w3.org/2000/svg">
<path d="M10.9313 0.251831C11.3822 0.211415 11.8336 0.302632 12.2321 0.511597L12.4001 0.608276L12.4079 0.613159H12.4069C12.7883 0.889099 13.1075 1.24277 13.3415 1.65125H13.3405L13.3415 1.6532C13.3437 1.65704 13.3456 1.66044 13.3464 1.66199C13.3479 1.66512 13.3494 1.66789 13.3503 1.6698C13.3521 1.674 13.354 1.67939 13.3561 1.68445C13.3605 1.695 13.3667 1.70977 13.3737 1.72742C13.3879 1.76308 13.4081 1.81335 13.4313 1.87292C13.4779 1.99229 13.5393 2.15065 13.6003 2.30847C13.6612 2.46628 13.7218 2.62395 13.7673 2.74207C13.7841 2.78576 13.7984 2.82443 13.8102 2.85535C14.6423 2.96243 15.461 3.15621 16.2526 3.43445C16.4075 3.48803 16.5497 3.57374 16.6696 3.68542C16.7896 3.79721 16.8845 3.93307 16.9489 4.08386L16.9518 4.0907L17.0309 4.33582C17.1007 4.58292 17.1423 4.83748 17.153 5.0946H17.1511C17.1572 5.14627 17.1557 5.19829 17.1432 5.2489C17.1295 5.30488 17.1054 5.3579 17.071 5.40417C17.0366 5.45047 16.9927 5.4891 16.9431 5.51843C16.8934 5.54776 16.8381 5.5673 16.7809 5.57507L16.7761 5.57605V5.57507C16.6644 5.5864 16.5527 5.55599 16.4626 5.48914C16.3724 5.42205 16.31 5.32317 16.2888 5.21277L16.2868 5.20105C16.2629 4.98458 16.2173 4.77084 16.1511 4.56335C16.1354 4.51502 16.1098 4.47038 16.0749 4.43347C16.0408 4.39743 15.9989 4.3698 15.9528 4.35144C15.2039 4.14739 14.4358 4.022 13.6608 3.97644L13.6589 3.97546C12.4702 3.89264 11.2772 3.89265 10.0886 3.97546L10.0807 3.97644C9.04631 4.00007 8.01461 4.09529 6.99384 4.26453L6.99481 4.2655C6.32302 4.3816 5.65994 4.54366 5.01044 4.75085C4.88588 4.79614 4.77755 4.87729 4.69794 4.98328L4.69696 4.98425C4.5943 5.11849 4.51309 5.26771 4.45575 5.42664C4.45547 5.42873 4.45519 5.43162 4.45477 5.43542C4.45324 5.4493 4.4509 5.46766 4.44891 5.49109C4.44508 5.53633 4.44014 5.59683 4.43231 5.65613C4.42475 5.71342 4.41321 5.78022 4.39325 5.83582C4.38653 5.85452 4.37558 5.87609 4.362 5.89832L7.92548 5.66003L8.90887 5.60339C9.89648 5.5587 10.897 5.54944 11.9059 5.56824C13.2527 5.59335 14.5901 5.69307 15.8835 5.81824L16.3903 5.88367C16.5673 5.91056 16.7505 5.94139 16.9343 5.97253C17.3041 6.03521 17.6785 6.09872 18.027 6.13562H18.03C18.2938 6.16946 18.5611 6.16943 18.8249 6.13562C18.8869 6.12573 18.9508 6.12977 19.0114 6.14636C19.0739 6.16353 19.132 6.19413 19.1813 6.23621C19.2305 6.27825 19.2698 6.33059 19.2966 6.38953C19.3198 6.44082 19.3312 6.49653 19.3337 6.55261L19.3395 6.63757C19.3364 6.72217 19.3086 6.8051 19.2585 6.87488C19.1916 6.96792 19.0903 7.03095 18.9772 7.04968L18.9704 7.05066C18.6266 7.09154 18.2791 7.09153 17.9352 7.05066V7.04968C17.5778 7.02821 17.1939 6.97855 16.8298 6.93445C16.4591 6.88954 16.1091 6.85145 15.8112 6.85144H15.8015C15.0321 6.8018 14.2948 6.80164 13.4606 6.80164H11.2624L9.61005 6.83386C9.05784 6.84742 8.5077 6.85925 7.96942 6.85925H2.70868C2.52215 6.89298 2.33349 6.91505 2.14423 6.92566L2.1413 6.92664C2.09062 6.92845 2.03234 6.91688 1.98114 6.90222C1.92715 6.88673 1.86714 6.86306 1.81317 6.83289C1.7619 6.80417 1.70183 6.7618 1.6618 6.70203C1.61624 6.63386 1.59723 6.54004 1.64618 6.44617C1.68735 6.36755 1.76552 6.31155 1.85321 6.26843C1.94514 6.22328 2.06956 6.18102 2.23114 6.14246C2.51512 6.07469 2.93216 6.01427 3.52997 5.96472C3.52076 5.92039 3.51628 5.87524 3.5202 5.82996V5.82214H3.52118C3.54953 5.61985 3.58966 5.4192 3.6413 5.22156C3.72386 4.90172 3.86815 4.60124 4.0661 4.33679L4.07098 4.32996L4.19794 4.19421C4.33208 4.0659 4.48676 3.96013 4.65594 3.88171L4.65887 3.88074C5.50767 3.50504 6.39468 3.22244 7.30438 3.03796L7.66669 2.95984C7.75451 2.94328 7.84446 2.93164 7.93329 2.92468C8.05299 2.41884 8.23192 1.9284 8.46942 1.4657L8.47626 1.453L8.48505 1.44226C8.78402 1.06008 9.1732 0.757586 9.61786 0.563354L9.62079 0.562378C10.039 0.392294 10.4813 0.288487 10.9313 0.252808V0.251831ZM11.7145 1.61218C11.5082 1.52867 11.282 1.50384 11.0612 1.54089L11.0475 1.54285C10.6508 1.57352 10.2608 1.66527 9.89227 1.81531L9.88934 1.81628C9.6717 1.89972 9.47051 2.0215 9.29657 2.17664C9.30278 2.16977 9.30225 2.16842 9.29559 2.18054C9.28874 2.19306 9.27908 2.21316 9.26727 2.24207C9.24355 2.30018 9.21631 2.37656 9.18329 2.46765C9.14866 2.56316 9.10704 2.67323 9.06024 2.78113C9.39717 2.75208 9.72252 2.75085 10.0358 2.75085C10.9386 2.70742 11.8428 2.71546 12.7448 2.77039C12.705 2.68346 12.6642 2.59631 12.6286 2.51746C12.5942 2.44127 12.5634 2.3732 12.5388 2.32117C12.5266 2.29542 12.5166 2.2744 12.5085 2.25867C12.5048 2.25152 12.5015 2.24633 12.4997 2.24304C12.3032 2.00714 12.0677 1.80675 11.8024 1.65222L11.7145 1.61218Z" fill="#DC4649" stroke="#DC4649" stroke-width="0.3"/>
<path d="M17.4991 7.37866C17.5782 7.37874 17.6553 7.40172 17.7208 7.44409L17.7823 7.49292L17.794 7.50659C17.869 7.59802 17.9235 7.70387 17.9542 7.81714L17.9766 7.93335L17.9776 7.94019V7.948C17.9984 8.78885 17.956 9.62999 17.8516 10.4646C17.6559 12.5768 17.3469 14.6778 16.9249 16.7566L16.9239 16.7605C16.8182 17.2078 16.7388 17.638 16.6036 18.0613L16.6046 18.0623C16.5019 18.3967 16.3531 18.7154 16.1622 19.0085L16.1544 19.0193C15.676 19.6279 15.008 20.0588 14.2569 20.2458C13.3881 20.4733 12.4896 20.5619 11.5948 20.5076L11.212 20.4753C10.6005 20.4097 9.9784 20.4142 9.34674 20.4089C8.72021 20.4037 8.08587 20.3877 7.46588 20.282V20.283C6.86014 20.1999 6.27601 20.0014 5.74518 19.698L5.73737 19.6941L5.73053 19.6882C5.31687 19.3821 5.00387 18.96 4.83112 18.4753C4.58462 17.8873 4.41008 17.2715 4.31256 16.6414V16.6404C4.20388 15.963 4.08734 15.0783 3.97076 14.1375C3.67903 11.9369 3.38717 9.40247 3.25397 8.30347L3.25104 8.21851C3.25655 8.13422 3.28685 8.05288 3.33795 7.98413C3.40621 7.89234 3.50732 7.82995 3.62018 7.81128L3.62994 7.8103H3.7149C3.79906 7.81809 3.88041 7.8489 3.9483 7.90112C4.03876 7.97074 4.09874 8.07266 4.11725 8.1853L4.11823 8.18726C4.28539 9.27388 4.65102 11.8025 5.00104 14.0193C5.15085 14.9598 5.301 15.8256 5.42584 16.5164C5.49771 16.9126 5.60598 17.3011 5.75006 17.6765L5.90631 18.0476L5.91022 18.0564L5.76959 18.1091L5.91022 18.0574C6.00388 18.3072 6.16806 18.5244 6.38287 18.6824C6.77931 18.8946 7.21064 19.0343 7.65631 19.0945C8.24137 19.1722 8.85961 19.1802 9.48639 19.1843C9.95395 19.1874 10.4271 19.1886 10.8878 19.2156L11.3438 19.2517C12.2048 19.3457 13.0761 19.2883 13.9171 19.0808L13.9239 19.0789C14.4098 18.9824 14.8477 18.7229 15.1661 18.3435C15.3011 18.1595 15.4062 17.9552 15.4766 17.738L15.4776 17.7341H15.4786C15.6188 17.338 15.6946 16.9373 15.8165 16.5105L15.8174 16.5095C16.073 15.6273 16.413 13.8853 16.6964 12.1687L16.6973 12.1658C16.9365 10.8608 17.0943 9.54205 17.17 8.21753V7.95972C17.1363 7.89849 17.1172 7.82998 17.1172 7.75952C17.1173 7.67051 17.1464 7.58408 17.1993 7.51245L17.2061 7.50171L17.2159 7.49292C17.2919 7.41989 17.3936 7.37866 17.4991 7.37866Z" fill="#DC4649" stroke="#DC4649" stroke-width="0.3"/>
<path d="M8.24768 9.32898C8.29859 9.34253 8.34643 9.36636 8.38831 9.39832C8.43026 9.4304 8.46631 9.47078 8.4928 9.51648C8.51704 9.5584 8.53274 9.60452 8.54065 9.65222L8.77893 10.6815C8.86957 11.0806 8.96596 11.5273 9.04944 11.994L9.11194 12.2928C9.12947 12.3913 9.14156 12.4937 9.14319 12.5966L9.23206 13.1962C9.25781 13.3924 9.27578 13.5894 9.27698 13.7821L9.33069 14.3046C9.36992 14.8095 9.36975 15.2551 9.36975 15.5927V16.2968L9.34436 16.3348C9.3175 16.375 9.28181 16.4088 9.24084 16.4344C9.20959 16.4539 9.17496 16.4659 9.13928 16.4745C9.05102 16.5149 8.92874 16.5534 8.80823 16.5331C8.74142 16.5218 8.67397 16.4924 8.61877 16.4354C8.56443 16.3792 8.53097 16.3058 8.51428 16.2225L8.51331 16.2177L8.39709 15.6317C8.30625 15.194 8.16377 14.5723 8.04651 13.869L7.95569 13.287C7.93005 13.1013 7.90897 12.922 7.89612 12.7596C7.8372 12.5475 7.83654 12.3455 7.83655 12.1571L7.78381 11.4608C7.74481 10.7832 7.74475 10.1758 7.74475 9.75085C7.74097 9.70504 7.74364 9.65865 7.75549 9.61414C7.76909 9.56318 7.79279 9.51541 7.82483 9.47351C7.85691 9.43155 7.8973 9.39648 7.94299 9.37C7.98865 9.34356 8.03913 9.32619 8.09143 9.31921C8.14365 9.31227 8.19677 9.31546 8.24768 9.32898Z" fill="#DC4649" stroke="#DC4649" stroke-width="0.3"/>
<path d="M13.3732 9.51392C13.4493 9.53387 13.5189 9.57588 13.5724 9.63501C13.6426 9.71248 13.6803 9.81387 13.6779 9.91821L13.6965 10.8284C13.7027 11.256 13.703 11.7857 13.6779 12.3499C13.661 12.8224 13.6104 13.3183 13.5519 13.7864C13.5058 14.2134 13.4466 14.6212 13.3947 14.9836C13.3424 15.3487 13.2979 15.6647 13.2775 15.9133L13.2756 15.9124C13.2727 16.0232 13.2292 16.1287 13.1506 16.2073C13.0694 16.2884 12.9597 16.3341 12.8449 16.3342H12.8312L12.8176 16.3323C12.7165 16.3141 12.625 16.2602 12.5598 16.1809C12.499 16.1071 12.4663 16.0153 12.4631 15.9202C12.3949 15.3997 12.3947 14.5962 12.3947 13.7678C12.3947 13.4854 12.3691 13.1542 12.3947 12.8469C12.4196 12.5485 12.445 12.2353 12.4875 11.9465C12.5581 11.4563 12.6426 11.0029 12.715 10.6379L12.8713 9.85962C12.8761 9.81243 12.8893 9.7665 12.9103 9.72388C12.9336 9.67663 12.9664 9.63454 13.006 9.59985C13.0455 9.56533 13.0911 9.53854 13.1408 9.52173C13.1906 9.50495 13.2437 9.49766 13.2961 9.50122L13.3732 9.51392Z" fill="#DC4649" stroke="#DC4649" stroke-width="0.3"/>
</svg>
