<svg width="32" height="32" viewBox="0 0 32 32" fill="none" xmlns="http://www.w3.org/2000/svg">
<g clip-path="url(#clip0_277_450)">
<path d="M10.4444 26C9.83331 26 9.31035 25.7826 8.87553 25.3478C8.44072 24.913 8.22294 24.3896 8.2222 23.7778V9.33333C7.90738 9.33333 7.64368 9.22667 7.43109 9.01333C7.2185 8.8 7.11183 8.5363 7.11109 8.22222C7.11035 7.90815 7.21701 7.64444 7.43109 7.43111C7.64516 7.21778 7.90887 7.11111 8.2222 7.11111H12.6666C12.6666 6.7963 12.7733 6.53259 12.9866 6.32C13.2 6.10741 13.4637 6.00074 13.7778 6H18.2222C18.537 6 18.8011 6.10667 19.0144 6.32C19.2278 6.53333 19.3341 6.79704 19.3333 7.11111H23.7778C24.0926 7.11111 24.3566 7.21778 24.57 7.43111C24.7833 7.64444 24.8896 7.90815 24.8889 8.22222C24.8881 8.5363 24.7815 8.80037 24.5689 9.01444C24.3563 9.22852 24.0926 9.33481 23.7778 9.33333V23.7778C23.7778 24.3889 23.5603 24.9122 23.1255 25.3478C22.6907 25.7833 22.1674 26.0007 21.5555 26H10.4444ZM21.5555 9.33333H10.4444V23.7778H21.5555V9.33333ZM13.7778 21.5556C14.0926 21.5556 14.3566 21.4489 14.57 21.2356C14.7833 21.0222 14.8896 20.7585 14.8889 20.4444V12.6667C14.8889 12.3519 14.7822 12.0881 14.5689 11.8756C14.3555 11.663 14.0918 11.5563 13.7778 11.5556C13.4637 11.5548 13.2 11.6615 12.9866 11.8756C12.7733 12.0896 12.6666 12.3533 12.6666 12.6667V20.4444C12.6666 20.7593 12.7733 21.0233 12.9866 21.2367C13.2 21.45 13.4637 21.5563 13.7778 21.5556ZM18.2222 21.5556C18.537 21.5556 18.8011 21.4489 19.0144 21.2356C19.2278 21.0222 19.3341 20.7585 19.3333 20.4444V12.6667C19.3333 12.3519 19.2266 12.0881 19.0133 11.8756C18.8 11.663 18.5363 11.5563 18.2222 11.5556C17.9081 11.5548 17.6444 11.6615 17.4311 11.8756C17.2178 12.0896 17.1111 12.3533 17.1111 12.6667V20.4444C17.1111 20.7593 17.2178 21.0233 17.4311 21.2367C17.6444 21.45 17.9081 21.5563 18.2222 21.5556Z" fill="#E2209E"/>
</g>
<defs>
<clipPath id="clip0_277_450">
<rect width="20" height="20" fill="white" transform="translate(6 6)"/>
</clipPath>
</defs>
</svg>
