<svg width="21" height="20" viewBox="0 0 21 20" fill="none" xmlns="http://www.w3.org/2000/svg">
<g clip-path="url(#clip0_605_227)">
<path d="M16.7167 0.625854C17.4286 0.456703 18.1791 0.521001 18.8554 0.814331C19.2701 0.971535 19.6423 1.2253 19.9394 1.55457C20.1993 1.84258 20.3951 2.18155 20.5165 2.54871L20.5644 2.70789L20.5663 2.71667L20.5683 2.72644C20.6452 3.28539 20.6039 3.85436 20.4472 4.39636L20.4453 4.40027C20.2306 5.07153 19.9696 5.72758 19.663 6.36218C19.6021 6.52499 19.4964 6.76776 19.3564 7.07019L18.829 8.17078C18.1408 9.58893 17.1699 11.5046 16.3447 13.0946C15.932 13.8898 15.555 14.6042 15.2685 15.1346C15.1253 15.3998 15.0041 15.6198 14.912 15.7811C14.8661 15.8615 14.8272 15.9285 14.7958 15.9794C14.767 16.0261 14.7381 16.0704 14.7148 16.0966L14.7089 16.1034L14.7021 16.1093C13.9232 16.7946 13.049 17.3641 12.1074 17.7997C11.7439 17.974 11.3541 18.0873 10.954 18.1366L10.9453 18.1385V18.1376C10.7415 18.1503 10.5383 18.1035 10.3613 18.0018L10.3437 17.9921L10.33 17.9774C10.1213 17.7675 9.98206 17.4984 9.93158 17.2069C9.6882 16.2081 9.31967 13.7221 9.26263 13.3798L9.2597 13.3573L9.26263 13.3348C9.3156 12.9342 9.44612 12.5476 9.6474 12.1971C10.4788 10.4366 12.6426 6.60773 13.6464 4.79089C13.8045 4.44935 13.9907 4.12148 14.204 3.8114L14.2119 3.80066L14.2216 3.79089C14.2538 3.75876 14.2908 3.75081 14.2949 3.74988C14.3062 3.74727 14.3157 3.74627 14.3203 3.74597C14.3297 3.74536 14.338 3.74572 14.3427 3.74597C14.353 3.74654 14.3644 3.74848 14.374 3.74988C14.3938 3.75279 14.4189 3.75768 14.4462 3.76453C14.5002 3.77808 14.5721 3.80186 14.6406 3.83972C14.7071 3.87656 14.7865 3.93595 14.83 4.02917C14.8768 4.12948 14.8689 4.24065 14.8124 4.35144L14.8134 4.35242C14.7451 4.49757 14.5933 4.79267 14.3857 5.19128C13.4674 7.0028 11.4716 10.9087 10.707 12.6786C10.6897 12.7198 10.6745 12.7623 10.6601 12.8046C11.0609 12.8809 11.455 12.9891 11.8378 13.1307L12.1894 13.2733L12.5312 13.4393L12.5341 13.4403C12.7459 13.5589 12.966 13.6947 13.1689 13.83L13.1738 13.8329C13.5297 14.0885 13.8662 14.3698 14.1835 14.6718C15.1197 13.023 17.4217 8.73216 18.4023 6.78699V6.78601C18.5241 6.54872 18.6237 6.34729 18.6972 6.19324L15.123 4.245L15.122 4.24402C15.0208 4.18804 14.9451 4.09509 14.912 3.98425C14.8952 3.92778 14.8903 3.8689 14.8964 3.8114C14.8746 3.81584 14.8524 3.82042 14.83 3.82117C14.7786 3.82283 14.7278 3.81348 14.6796 3.79578V3.79675L14.6777 3.79578C14.6765 3.79536 14.6749 3.79523 14.6738 3.7948V3.79382C14.5724 3.7579 14.4875 3.68653 14.4365 3.59167C14.3856 3.49693 14.3716 3.38629 14.3974 3.2821L14.4453 3.09167C14.4985 2.90376 14.5705 2.72163 14.6601 2.54773C14.8705 2.08787 15.1623 1.66948 15.5224 1.31433C15.7725 1.05749 16.0723 0.854407 16.4033 0.716675L16.413 0.712769L16.7167 0.625854ZM10.5244 13.786C10.6084 14.2235 10.7416 14.8937 10.8661 15.5077C10.9452 15.8974 11.0209 16.2638 11.0761 16.5331C11.1026 16.6623 11.1239 16.7695 11.1396 16.8456C11.5409 16.7087 11.9278 16.5331 12.2929 16.3173L12.2997 16.3134C12.7695 16.0661 13.213 15.7734 13.6298 15.4452L13.1718 15.1698C12.9013 15.0306 12.648 14.9166 12.3466 14.7743C12.0466 14.6326 11.7671 14.4961 11.5029 14.3427H11.5019C11.1729 14.1491 10.8376 13.9523 10.5244 13.786ZM18.3261 1.97156C17.8443 1.7256 17.2924 1.65376 16.7636 1.76746C16.4928 1.84182 16.2442 1.98091 16.039 2.17273L16.038 2.17175C15.8052 2.4064 15.6066 2.67275 15.4462 2.96179L15.246 3.43152C15.3174 3.41713 15.3906 3.41857 15.4599 3.43933L15.54 3.47253L15.5429 3.47351C16.1741 3.82599 18.2287 4.86235 19.1318 5.32214C19.2926 4.97223 19.4144 4.60574 19.4882 4.22742L19.5126 4.07117C19.5583 3.70824 19.5291 3.33947 19.4267 2.98718C19.3355 2.74985 19.1924 2.53602 19.0068 2.36218C18.8198 2.18718 18.5953 2.05652 18.3505 1.98132L18.3378 1.97742L18.3261 1.97156Z" fill="#18466F" stroke="#18466F" stroke-width="0.3"/>
<path d="M5.95667 13.5298V13.5308C6.37778 13.5664 6.78688 13.691 7.15588 13.897C7.4314 14.0431 7.66033 14.2631 7.81702 14.5308L7.87952 14.6479L7.88342 14.6567L7.88635 14.6655C8.06623 15.2075 8.06623 15.7935 7.88635 16.3354L7.88538 16.3403C7.7664 16.6617 7.71513 17.0042 7.73499 17.3462C7.79283 17.5345 7.91139 17.6976 8.07092 17.811L8.14417 17.8579L8.14612 17.8589C8.41944 18.0201 8.70881 18.1528 9.0094 18.2544L9.37756 18.3745C9.74719 18.4888 10.122 18.5863 10.5006 18.6665H10.5016C10.5606 18.6796 10.6167 18.7052 10.6656 18.7407C10.7145 18.7762 10.756 18.8215 10.7867 18.8735C10.8174 18.9255 10.8369 18.9836 10.8444 19.0435C10.8512 19.0982 10.8453 19.1531 10.8317 19.2065L10.8336 19.2075C10.8121 19.3205 10.7471 19.4208 10.653 19.4868C10.5595 19.5523 10.4443 19.5786 10.3317 19.561C9.78147 19.4834 9.23631 19.3739 8.69885 19.2329C8.31086 19.134 7.93441 18.994 7.57678 18.814V18.813C7.3424 18.6984 7.13365 18.537 6.96448 18.3384C6.7949 18.1392 6.66813 17.9071 6.59241 17.6567L6.59045 17.6489L6.5885 17.6421C6.48624 17.1232 6.51068 16.5873 6.65881 16.0796L6.65979 16.0767C6.75212 15.7831 6.75247 15.4683 6.66174 15.1743C6.65214 15.1529 6.62886 15.1246 6.57678 15.0894C6.52242 15.0526 6.456 15.0202 6.37756 14.981L6.37659 14.98C6.20769 14.8948 6.02462 14.8411 5.83655 14.8208V14.8198C5.0162 14.7454 4.18983 14.768 3.37463 14.8862L3.3717 14.8872C2.47023 15.003 1.64214 15.1769 0.808228 15.3521L0.807251 15.3501C0.758394 15.3621 0.707731 15.3667 0.657837 15.3599C0.604996 15.3526 0.554283 15.3344 0.508423 15.3071C0.462441 15.2798 0.421969 15.2438 0.390259 15.2007C0.358541 15.1576 0.336274 15.1082 0.323853 15.0562L0.324829 15.0552C0.310255 14.9983 0.306519 14.9392 0.317017 14.8813C0.327837 14.8218 0.352053 14.7655 0.387329 14.7163C0.422585 14.6672 0.468236 14.6265 0.521118 14.5972C0.564717 14.5731 0.612594 14.5582 0.661743 14.5513C1.68049 14.2088 2.71984 13.9305 3.77307 13.7163L3.77502 13.7153C4.49069 13.5792 5.21851 13.5172 5.9469 13.5298H5.95667Z" fill="#18466F" stroke="#18466F" stroke-width="0.3"/>
</g>
<defs>
<clipPath id="clip0_605_227">
<rect width="21" height="20" fill="white"/>
</clipPath>
</defs>
</svg>
