<svg width="20" height="20" viewBox="0 0 20 20" fill="none" xmlns="http://www.w3.org/2000/svg">
<g clip-path="url(#clip0_301_470)">
<path d="M18.125 8.125H7.5V18.125H17.5C17.6658 18.125 17.8247 18.0592 17.9419 17.9419C18.0592 17.8247 18.125 17.6658 18.125 17.5V8.125ZM5.625 8.125H1.875V17.5C1.875 17.6658 1.94085 17.8247 2.05806 17.9419C2.17527 18.0592 2.33424 18.125 2.5 18.125H5.625V8.125ZM2.5 0H17.5C18.163 0 18.7989 0.263392 19.2678 0.732233C19.7366 1.20107 20 1.83696 20 2.5V17.5C20 18.163 19.7366 18.7989 19.2678 19.2678C18.7989 19.7366 18.163 20 17.5 20H2.5C1.83696 20 1.20107 19.7366 0.732233 19.2678C0.263392 18.7989 0 18.163 0 17.5V2.5C0 1.83696 0.263392 1.20107 0.732233 0.732233C1.20107 0.263392 1.83696 0 2.5 0Z" fill="#F7F6F2"/>
</g>
<defs>
<clipPath id="clip0_301_470">
<rect width="20" height="20" fill="white"/>
</clipPath>
</defs>
</svg>
