<svg width="20" height="20" viewBox="0 0 20 20" fill="none" xmlns="http://www.w3.org/2000/svg">
<g clip-path="url(#clip0_605_301)">
<path d="M13.0732 1.78455C13.4883 1.63148 13.9392 1.61219 14.3633 1.72693L14.5439 1.78455L14.5469 1.78552L14.7266 1.86755C14.9021 1.95833 15.0632 2.07549 15.2041 2.21521C15.3917 2.40132 15.5396 2.62352 15.6387 2.86853L15.6396 2.87048C15.8212 3.33521 15.8522 3.84514 15.7285 4.32849L15.7266 4.33728C15.6475 4.58694 15.5183 4.81836 15.3477 5.01697C15.1771 5.21533 14.968 5.37692 14.7334 5.49255L14.7227 5.49841V5.49744L13.9297 5.81384C13.919 5.8309 13.9103 5.84923 13.9043 5.86853C13.8911 5.9315 13.8845 5.9956 13.8838 6.05994C13.8834 6.17417 13.8376 6.28375 13.7568 6.36462C13.6756 6.44585 13.5651 6.49153 13.4502 6.49158C13.3353 6.49158 13.2248 6.44589 13.1436 6.36462C13.0674 6.28836 13.0238 6.18665 13.0186 6.07947L13.0059 5.9613C12.9973 5.84214 13.0016 5.72237 13.0186 5.60388L13.0195 5.59607L13.0215 5.58826C13.0568 5.44888 13.1193 5.31793 13.2051 5.20251L13.2109 5.1947C13.2877 5.1046 13.3764 5.02545 13.4746 4.95935L13.4756 4.95837C13.5998 4.87563 13.7503 4.80605 13.8818 4.74646C14.0206 4.68358 14.1333 4.63313 14.208 4.58337C14.2994 4.52222 14.378 4.44377 14.4385 4.35193C14.499 4.26001 14.5405 4.15641 14.5605 4.04822C14.5995 3.81035 14.5634 3.56633 14.457 3.34998L14.4541 3.34412C14.3734 3.16119 14.2263 3.01546 14.042 2.93787L14.0322 2.93396C13.8177 2.82519 13.5699 2.80178 13.3389 2.86853C13.1079 2.93529 12.9105 3.08702 12.7871 3.29333L12.7822 3.30212L12.7812 3.30115C12.7053 3.41187 12.6572 3.53927 12.6387 3.67224C12.6202 3.8054 12.6328 3.94134 12.6758 4.06873H12.6748C12.693 4.11256 12.7042 4.1589 12.7061 4.20642C12.708 4.25938 12.6993 4.31305 12.6807 4.36267C12.6621 4.41204 12.6338 4.45705 12.5977 4.49548C12.5614 4.53404 12.5181 4.56569 12.4697 4.58728L12.4668 4.58826C12.3705 4.62908 12.262 4.63177 12.1641 4.59509C12.0662 4.55838 11.9862 4.48498 11.9404 4.39099L11.9395 4.38806C11.8275 4.14774 11.7686 3.88562 11.7686 3.62048C11.7686 3.35543 11.8275 3.09314 11.9395 2.85291C12.1617 2.36211 12.5683 1.97887 13.0713 1.78552L13.0732 1.78455Z" fill="#1C1C35" stroke="#1C1C35" stroke-width="0.3"/>
<path d="M6.74182 10.183C6.84765 10.183 6.94912 10.2254 7.02405 10.3002C7.09114 10.3673 7.12946 10.4563 7.13733 10.5502C7.20614 10.804 7.26004 11.0616 7.29846 11.3217L7.33264 11.5844L7.33362 11.5912H7.33264C7.34131 11.7413 7.34131 11.8923 7.33264 12.0424C7.32435 12.1933 7.30721 12.3437 7.28088 12.4926C7.2045 12.9254 7.10239 13.2826 7.04456 13.4974C7.03859 13.5436 7.02778 13.5892 7.00745 13.6312C6.98262 13.6825 6.94749 13.7281 6.90491 13.766C6.86228 13.8039 6.81232 13.8333 6.75842 13.8519C6.70463 13.8705 6.64725 13.8778 6.59045 13.8744H6.58752C6.47257 13.8647 6.36611 13.8103 6.29065 13.723C6.21968 13.641 6.18265 13.5361 6.1842 13.4281C6.16889 13.2291 6.10959 12.8465 6.11682 12.4252L6.10999 12.2045C6.10998 12.1335 6.11281 12.0625 6.11682 11.9916C6.10877 11.8472 6.10844 11.7024 6.11682 11.558L6.1178 11.5492L6.11877 11.5414C6.15316 11.3437 6.19805 11.1615 6.23987 10.9984C6.2823 10.8329 6.32052 10.691 6.34436 10.5638C6.35091 10.4681 6.38952 10.3774 6.45667 10.308C6.53042 10.2318 6.63094 10.1864 6.73694 10.183H6.74182Z" fill="#1C1C35" stroke="#1C1C35" stroke-width="0.3"/>
<path d="M13.3384 6.80811C13.4416 6.81176 13.5431 6.83764 13.6362 6.88232C13.7294 6.927 13.8129 6.98966 13.8804 7.06787C13.9478 7.14609 13.9983 7.23774 14.0288 7.33643C14.0593 7.43514 14.0687 7.53941 14.0571 7.64209L14.0552 7.65967L14.0493 7.67725C13.9879 7.84421 13.8764 7.98796 13.731 8.09033C13.5855 8.19266 13.4127 8.24905 13.2349 8.25049H13.2231V8.24951C13.1217 8.24268 13.0225 8.21393 12.9331 8.16553C12.8439 8.11712 12.7657 8.05033 12.7046 7.96924C12.6435 7.88802 12.6004 7.79412 12.5786 7.69482C12.5569 7.59559 12.5572 7.49237 12.5786 7.39307L12.5806 7.38428L12.5835 7.37451C12.6391 7.21945 12.7389 7.08318 12.8696 6.98291C13.0002 6.88288 13.1569 6.82267 13.3208 6.80908L13.3296 6.80811H13.3384Z" fill="#1C1C35" stroke="#1C1C35" stroke-width="0.3"/>
<path d="M6.37567 14.2178C6.54524 14.1465 6.74057 14.1307 6.92548 14.2139L7.0036 14.2559L7.00946 14.2588C7.17555 14.3712 7.29546 14.5407 7.34735 14.7344C7.39908 14.928 7.37933 15.1342 7.29169 15.3145C7.20398 15.4946 7.05404 15.637 6.86981 15.7158C6.68548 15.7946 6.47866 15.8043 6.28778 15.7432L6.27704 15.7393C6.0067 15.6305 5.84727 15.4483 5.79657 15.2305C5.74772 15.02 5.807 14.8033 5.91376 14.627C6.02081 14.4501 6.18519 14.2979 6.37567 14.2178Z" fill="#1C1C35" stroke="#1C1C35" stroke-width="0.3"/>
<path d="M12.6003 -0.0910645C13.0279 -0.0910905 16.2476 -0.150504 18.1492 0.0505371H18.1482C18.6396 0.0536836 19.1253 0.150597 19.5789 0.33667L19.7732 0.422607L19.7986 0.435303L19.8191 0.456787C19.9607 0.610324 20.0444 0.808103 20.0574 1.01636L20.114 1.57788C20.1615 2.13929 20.1813 2.70277 20.1746 3.26636C20.1746 5.02707 20.1081 7.3221 20.0496 8.36694V8.37671L20.0476 8.38647C20.0004 8.63059 19.9998 8.80321 19.9998 8.89136V8.90112L19.9988 8.90991C19.9852 9.02312 19.9381 9.12972 19.863 9.21558L19.8494 9.2312L19.8308 9.24292C19.5382 9.43009 19.1964 9.52495 18.8494 9.51636C17.671 9.57924 16.9542 9.51191 16.5339 9.50171C16.3154 9.49641 16.2036 9.50907 16.1384 9.53882C16.0953 9.55852 16.0599 9.59118 16.031 9.70386L15.991 9.97827C15.9646 10.2538 15.9783 10.5327 16.031 10.8054C16.1205 11.2695 16.3118 11.707 16.5906 12.0867L16.7156 12.2458L16.7175 12.2488C16.7579 12.2998 16.7877 12.3588 16.8044 12.4216C16.8211 12.4843 16.8248 12.5498 16.8152 12.614L16.8142 12.6208L16.8123 12.6287C16.7865 12.7312 16.7281 12.8225 16.6462 12.8894C16.5641 12.9564 16.4621 12.9952 16.3562 12.9998H16.199C16.0478 12.9955 15.8973 12.9785 15.7488 12.949L15.4324 12.8982C14.7014 12.7527 14.0185 12.4202 13.4519 11.9304L13.4412 11.9216L13.4421 11.9207C13.1551 11.6221 12.8974 11.2965 12.6736 10.948V10.947C12.4942 10.6899 12.3497 10.42 12.2283 10.1843C12.1222 9.97858 12.0368 9.80796 11.9597 9.68335H11.8416C11.4543 9.68336 10.8254 9.7145 10.1482 9.74585C9.47577 9.77698 8.7577 9.80721 8.19604 9.80737L8.19702 9.80835C7.84273 9.82135 7.48803 9.79565 7.1394 9.7312L7.12769 9.72827C6.9978 9.69321 6.87894 9.62617 6.78101 9.53394L6.77222 9.5271L6.76538 9.51831C6.62878 9.34501 6.54277 9.13691 6.51733 8.91772V8.91675C6.39029 7.91972 6.33489 6.91488 6.35034 5.90991C6.3337 4.22875 6.384 2.32899 6.45093 1.48608H6.44995C6.45693 1.30319 6.48058 1.12082 6.52026 0.942139C6.53841 0.80725 6.59725 0.680629 6.69019 0.580811L6.71265 0.557373L6.74292 0.544678C7.35786 0.29083 8.01361 0.14837 8.67847 0.124756C9.89809 -0.000125723 11.5141 -0.0910645 12.6003 -0.0910645ZM16.6697 1.24194C14.9157 1.18377 12.9112 1.24087 12.5759 1.24097C11.6729 1.24928 10.394 1.32526 9.30444 1.41675L9.30347 1.41577C8.65901 1.48105 8.06591 1.54621 7.68335 1.62476V1.97437C7.6251 3.15393 7.56655 5.41573 7.59741 7.07495L7.61694 7.7439V7.74487C7.62476 7.95488 7.6672 8.17027 7.71069 8.36499C7.73193 8.46006 7.75401 8.55457 7.77026 8.63452C7.7755 8.6603 7.77964 8.68625 7.78394 8.71167C7.89464 8.71467 8.00538 8.71534 8.11597 8.70874L8.12573 8.70776L8.13452 8.70874C9.19186 8.77481 10.9017 8.70919 11.7498 8.70874L12.0212 8.70093L12.2917 8.70874L12.3025 8.70972C12.441 8.72717 12.5678 8.7966 12.657 8.90405L12.6599 8.90796C12.7717 9.05237 12.8867 9.28917 13.0154 9.55151C13.1475 9.82103 13.3019 10.1364 13.5017 10.4626H13.5027C13.6816 10.7496 13.8877 11.0186 14.1189 11.2654C14.5222 11.6219 15.0053 11.8725 15.5251 12.0007C15.3227 11.5433 15.1983 11.0546 15.1589 10.5544L15.1453 10.2429C15.1445 9.92902 15.186 9.61408 15.2996 9.34741C15.4553 8.98175 15.7479 8.70693 16.2263 8.65894C16.5622 8.61629 17.0354 8.61217 17.5076 8.61011C17.9842 8.60803 18.4627 8.60787 18.8289 8.57593C18.9096 8.56081 18.9887 8.53882 19.0671 8.5144V8.38452C19.1086 7.53939 19.1247 5.71161 19.0251 4.19312V4.18628C19.0085 3.17685 18.9831 2.24145 18.9255 1.65698L18.9246 1.64526L18.9255 1.63354C18.9292 1.56231 18.9289 1.49098 18.9275 1.41968C18.8808 1.40229 18.8337 1.38583 18.7859 1.37183C18.0845 1.29271 17.3794 1.24997 16.6736 1.24194H16.6697Z" fill="#1C1C35" stroke="#1C1C35" stroke-width="0.3"/>
<path d="M5.33325 7.36511C5.38797 7.38178 5.4388 7.41027 5.48169 7.44812C5.52454 7.486 5.55897 7.5326 5.58228 7.58484C5.60166 7.62832 5.6105 7.67518 5.61353 7.72253C5.63304 7.82719 5.61105 7.93571 5.552 8.02429C5.49295 8.11265 5.40204 8.17494 5.2981 8.19714H5.29614C4.17156 8.42507 3.14332 8.9913 2.34985 9.82019L2.34888 9.82117C1.56889 10.6214 1.08977 11.667 0.991455 12.7802C0.918301 14.0987 1.10102 14.8164 1.55591 15.2938C2.20921 15.8141 2.95852 16.1984 3.76001 16.4247L4.11548 16.5135L4.12329 16.5165C4.27558 16.5679 4.41046 16.6583 4.51587 16.7772L4.61157 16.9052L4.61646 16.9139C4.8105 17.2833 4.88889 17.7026 4.84106 18.1171C4.82155 18.3284 4.77871 18.5365 4.71704 18.7391C5.02524 18.6732 5.32299 18.5654 5.60083 18.4149C5.7883 18.2758 5.95548 18.1114 6.09692 17.9257L6.10278 17.9188L6.35962 17.6024C6.44047 17.4972 6.51646 17.3934 6.58716 17.2968C6.72299 17.111 6.84609 16.9389 6.93774 16.8417C6.98962 16.7837 7.05414 16.7375 7.12524 16.7059C7.19625 16.6744 7.27315 16.6577 7.35083 16.6581H7.35376C7.35489 16.6581 7.35651 16.659 7.35864 16.6591H7.46313C7.53499 16.6589 7.63895 16.6577 7.76392 16.6552C8.01398 16.65 8.34997 16.638 8.69556 16.6093L9.12524 16.5575C9.26796 16.5358 9.40993 16.5093 9.55103 16.4784C10.2449 16.3092 10.8776 15.9488 11.3762 15.4374C11.8759 14.9136 12.209 14.2537 12.3352 13.5409L12.3362 13.5389C12.3577 13.4259 12.4226 13.3256 12.5168 13.2596C12.6111 13.1937 12.7275 13.167 12.8411 13.1854H12.8401C12.8963 13.188 12.9517 13.1995 13.0032 13.2225C13.0623 13.249 13.1148 13.2881 13.1575 13.3368C13.2002 13.3854 13.2317 13.4427 13.2502 13.5048C13.2688 13.5668 13.2739 13.6321 13.2649 13.6962V13.6971C13.1325 14.5891 12.7396 15.4227 12.136 16.0927L12.135 16.0936C11.5224 16.7594 10.7366 17.2416 9.86548 17.4862L9.86353 17.4872C9.53923 17.5739 9.20877 17.6357 8.87524 17.6737C8.42055 17.7267 7.97995 17.7655 7.70239 17.7723C7.60291 17.905 7.49217 18.0635 7.36841 18.2372C7.29847 18.3353 7.22456 18.4374 7.14771 18.5399L6.90747 18.8456C6.73409 19.0567 6.53402 19.2449 6.31274 19.4052L6.30591 19.41L6.2981 19.4149C5.5798 19.8163 4.78117 20.053 3.96021 20.1083L3.95923 20.1073C3.84207 20.1212 3.72379 20.1219 3.60669 20.1073L3.60181 20.1063C3.50858 20.0918 3.41957 20.0571 3.34106 20.0048C3.26259 19.9524 3.19593 19.8841 3.14673 19.8036V19.8026C3.07342 19.6893 3.04089 19.5542 3.05493 19.4198C3.06831 19.2921 3.12311 19.1727 3.21021 19.079C3.35137 18.8704 3.44634 18.6335 3.4856 18.3846L3.48657 18.3759L3.4895 18.3671C3.55346 18.1447 3.57431 17.9117 3.55103 17.6815L3.54907 17.6669L3.55103 17.6522C3.55231 17.6394 3.55046 17.626 3.55103 17.6132C2.49846 17.3339 1.52072 16.824 0.693604 16.1141L0.686768 16.1083L0.680908 16.1014C0.0238606 15.3822 -0.259971 14.34 -0.108154 12.6532L-0.107178 12.6483L-0.0690918 12.3954C0.145674 11.1414 0.76014 9.98761 1.68677 9.10925L1.86841 8.93933C2.79049 8.10936 3.93157 7.55825 5.15845 7.35242L5.16333 7.35144L5.24927 7.34949C5.27752 7.3518 5.30597 7.35683 5.33325 7.36511Z" fill="#1C1C35" stroke="#1C1C35" stroke-width="0.3"/>
</g>
<defs>
<clipPath id="clip0_605_301">
<rect width="20" height="20" fill="white"/>
</clipPath>
</defs>
</svg>
