<svg width="20" height="20" viewBox="0 0 20 20" fill="none" xmlns="http://www.w3.org/2000/svg">
<g clip-path="url(#clip0_605_282)">
<path d="M12.7261 -0.148682C13.4464 -0.222133 14.1734 -0.0998387 14.8297 0.205811L15.0142 0.297607C15.3785 0.489856 15.7104 0.737755 15.9976 1.03296L16.1382 1.18433L16.1412 1.18823L16.3834 1.50171C16.9261 2.24728 17.3097 3.09784 17.5103 4.00073C17.5431 4.0899 17.6314 4.32023 17.7281 4.59253L17.8257 4.64136L17.8326 4.64526C17.9369 4.70499 18.0139 4.80301 18.0464 4.9187C18.0789 5.03457 18.0646 5.15908 18.0064 5.2644L18.0005 5.27515L17.9927 5.28491C17.9775 5.30416 17.9589 5.32013 17.941 5.33667C17.957 5.4127 17.9715 5.48901 17.981 5.56616C18.0046 5.70213 17.9992 5.84156 17.9654 5.97534C17.9315 6.10918 17.8702 6.23508 17.7847 6.34351L17.7798 6.34937L17.774 6.35425C17.5132 6.62269 17.183 6.81345 16.8199 6.90405L16.8189 6.90308C16.1703 7.08213 15.5084 7.20867 14.8394 7.28101C13.8893 7.43291 12.9286 7.50952 11.9664 7.50854H11.9625C11.3089 7.49209 10.6573 7.42468 10.0142 7.3064L10.0123 7.30542C9.57252 7.21741 9.15518 7.04208 8.78375 6.79077V6.79175C8.62442 6.68603 8.48839 6.5485 8.38531 6.38745C8.28227 6.22641 8.21437 6.04514 8.18512 5.8562L8.18317 5.84253C8.16739 5.5888 8.21523 5.33504 8.32184 5.10425L8.44586 4.8562C8.55469 4.64837 8.67433 4.44644 8.80231 4.24976C8.77596 4.20635 8.75747 4.15851 8.74567 4.11304C8.71983 4.0133 8.71267 3.89191 8.72028 3.75952C8.7356 3.49318 8.81303 3.15378 8.95758 2.78784C9.24687 2.05549 9.81583 1.19527 10.7496 0.58374C11.341 0.188723 12.0173 -0.0621044 12.7232 -0.148682H12.7261ZM14.6959 4.64038C13.895 4.53093 13.0845 4.50918 12.2789 4.57495H12.2759C11.3232 4.63167 10.3889 4.86444 9.52106 5.26147L9.52008 5.25952C9.46482 5.28883 9.40406 5.3064 9.34137 5.3064C9.33216 5.30639 9.32318 5.30316 9.31403 5.30249L9.29645 5.33374C9.23222 5.44413 9.19455 5.56788 9.18512 5.69507C9.19543 5.7312 9.22033 5.76625 9.27301 5.80542C9.33495 5.85146 9.41723 5.89152 9.5191 5.93823L9.6861 6.00366C9.85643 6.06272 10.0335 6.10139 10.2134 6.11792H10.2154C10.9544 6.19623 11.6992 6.21215 12.441 6.16675H12.4429C13.1984 6.13354 13.9694 6.07551 14.6968 5.97632L14.7095 5.97437C15.2428 5.95029 15.7746 5.89848 16.3023 5.81812C16.5611 5.77878 16.7314 5.74226 16.8414 5.70288C16.9522 5.66315 16.9741 5.63044 16.9791 5.62085C16.9847 5.60964 16.9918 5.58215 16.9722 5.49585C16.963 5.45499 16.9497 5.40969 16.9341 5.35327C16.9248 5.31943 16.9157 5.2824 16.9058 5.24292C16.2888 4.98796 15.646 4.80103 14.9888 4.68628L14.6959 4.64038ZM13.0894 1.13745L12.9029 1.15698C12.4046 1.22116 11.9216 1.37467 11.4781 1.61011L11.4634 1.64233L11.4224 1.66479C10.303 2.28354 9.92038 2.8986 9.78375 3.37769C9.71438 3.62097 9.70567 3.83847 9.70465 4.02222C9.70442 4.06408 9.70286 4.10639 9.7027 4.14722C10.4376 3.72669 11.2389 3.43279 12.0728 3.27808L12.0738 3.2771C12.5409 3.19438 13.0158 3.16299 13.4898 3.18335H13.4888C13.8341 3.18627 14.1786 3.21302 14.5201 3.26245L14.8619 3.31909L14.8677 3.32104C15.4371 3.45673 15.991 3.65021 16.5211 3.89722C16.3531 3.23706 16.0314 2.62457 15.5806 2.11011L15.4537 1.97827C15.1476 1.68235 14.7793 1.45671 14.3755 1.31714L14.3736 1.31616C13.9622 1.16669 13.5245 1.10572 13.0894 1.13745Z" fill="#1C1C35" stroke="#1C1C35" stroke-width="0.3"/>
<path fill-rule="evenodd" clip-rule="evenodd" d="M15.8332 9.07507C15.9352 8.85453 16.0188 8.62598 16.0832 8.39174C16.141 8.1672 16.1828 7.93885 16.2082 7.70841C16.2154 7.66895 16.2145 7.62846 16.2058 7.58933C16.197 7.55021 16.1805 7.51324 16.1572 7.48061C16.1339 7.44798 16.1042 7.42035 16.0701 7.39936C16.0359 7.37837 15.9979 7.36445 15.9582 7.35841C15.9193 7.3513 15.8793 7.3522 15.8406 7.36106C15.802 7.36992 15.7656 7.38656 15.7337 7.40995C15.7017 7.43335 15.6748 7.46301 15.6547 7.49713C15.6346 7.53125 15.6216 7.56911 15.6166 7.60841C15.5666 7.80841 15.5082 8.00007 15.4416 8.19174C15.3695 8.37478 15.2802 8.55057 15.1749 8.71674C14.9209 9.1323 14.5588 9.47115 14.1273 9.69715C13.6959 9.92315 13.2112 10.0278 12.7249 10.0001C12.3441 9.99257 11.9681 9.91341 11.6166 9.76674C11.0781 9.54763 10.6311 9.15056 10.3499 8.64174L9.90824 7.41674C9.89867 7.38264 9.8824 7.3508 9.86038 7.32306C9.83837 7.29532 9.81105 7.27224 9.78002 7.25518C9.74899 7.23811 9.71487 7.2274 9.67965 7.22366C9.64444 7.21992 9.60883 7.22323 9.57491 7.23341C9.50728 7.25463 9.45046 7.30115 9.4163 7.36326C9.38215 7.42536 9.37329 7.49826 9.39158 7.56674L9.69991 8.92507C9.96811 9.66185 10.4994 10.2733 11.1916 10.6417C11.6603 10.8851 12.1801 11.0137 12.7082 11.0167C13.1023 11.0271 13.495 10.965 13.8666 10.8334C14.2946 10.6853 14.6888 10.4536 15.0265 10.1517C15.3641 9.84985 15.6383 9.48387 15.8332 9.07507Z" fill="#1C1C35"/>
<path fill-rule="evenodd" clip-rule="evenodd" d="M13.4 9.45019C13.5087 9.34555 13.5964 9.22109 13.6583 9.08352C13.7225 8.91318 13.7536 8.73217 13.75 8.55019C13.7643 8.50817 13.7694 8.46355 13.7649 8.41938C13.7605 8.37521 13.7465 8.33253 13.724 8.29426C13.7015 8.25599 13.671 8.22303 13.6346 8.19763C13.5981 8.17224 13.5567 8.15501 13.513 8.14712C13.4693 8.13923 13.4244 8.14087 13.3814 8.15193C13.3384 8.16298 13.2983 8.18319 13.2638 8.21118C13.2294 8.23916 13.2013 8.27426 13.1817 8.31408C13.162 8.35389 13.1512 8.39747 13.15 8.44185C13.1154 8.51716 13.0706 8.58727 13.0166 8.65019C12.925 8.75019 12.4833 8.65019 12.4583 8.65019C12.4333 8.65019 12.2666 8.55019 12.2166 8.45019C12.2138 8.41345 12.2035 8.37769 12.1861 8.34517C12.1688 8.31265 12.145 8.28406 12.1161 8.26122C12.0871 8.23838 12.0538 8.22178 12.0182 8.21247C11.9825 8.20315 11.9453 8.20133 11.9089 8.2071C11.8726 8.21288 11.8378 8.22613 11.8067 8.24603C11.7757 8.26592 11.7492 8.29203 11.7288 8.3227C11.7084 8.35337 11.6945 8.38793 11.6881 8.42422C11.6817 8.4605 11.6829 8.49772 11.6916 8.53352C11.677 8.72625 11.7122 8.91951 11.7939 9.09467C11.8757 9.26983 12.0012 9.42097 12.1583 9.53352C12.2959 9.64432 12.4652 9.70852 12.6416 9.71685C12.7794 9.72532 12.9176 9.70608 13.0478 9.66028C13.1781 9.61448 13.2978 9.54304 13.4 9.45019Z" fill="#1C1C35"/>
<path fill-rule="evenodd" clip-rule="evenodd" d="M13.3749 14.8585C13.2085 14.871 13.0414 14.871 12.8749 14.8585L12.0833 14.7085C11.9048 14.6667 11.7416 14.5759 11.6121 14.4463C11.4825 14.3167 11.3917 14.1535 11.3499 13.9751C11.1638 13.2342 11.0741 12.4723 11.0833 11.7085C11.0902 11.6689 11.0884 11.6283 11.078 11.5895C11.0677 11.5508 11.0489 11.5147 11.0231 11.484C10.9973 11.4532 10.965 11.4285 10.9286 11.4115C10.8922 11.3946 10.8526 11.3858 10.8124 11.3858C10.7723 11.3858 10.7326 11.3946 10.6962 11.4115C10.6598 11.4285 10.6276 11.4532 10.6018 11.484C10.576 11.5147 10.5572 11.5508 10.5468 11.5895C10.5364 11.6283 10.5346 11.6689 10.5416 11.7085C10.3343 12.5531 10.2807 13.4281 10.3833 14.2918C10.4647 14.648 10.654 14.9704 10.9254 15.215C11.1969 15.4596 11.5372 15.6145 11.8999 15.6585H12.8916C13.0941 15.6421 13.2948 15.6086 13.4916 15.5585C13.684 15.5087 13.8732 15.4474 14.0583 15.3751C14.0999 15.3751 14.1249 15.3251 14.1583 15.2918C14.2032 15.2907 14.2467 15.2762 14.2833 15.2501C14.4869 15.0961 14.6476 14.8924 14.7499 14.6585C14.8584 14.3496 14.923 14.027 14.9416 13.7001C14.9416 13.4668 14.9833 13.2335 14.9833 12.9918C14.9833 12.7501 14.9833 12.6668 14.9416 12.5085C14.8852 12.0898 14.7818 11.6789 14.6333 11.2835C14.6263 11.2489 14.6126 11.2161 14.5929 11.1868C14.5732 11.1576 14.5478 11.1326 14.5184 11.1132C14.4889 11.0939 14.4559 11.0805 14.4213 11.074C14.3867 11.0674 14.3511 11.0678 14.3166 11.0751C14.2815 11.081 14.248 11.094 14.2181 11.1134C14.1883 11.1328 14.1628 11.1582 14.1433 11.1879C14.1237 11.2177 14.1105 11.2511 14.1045 11.2862C14.0985 11.3213 14.0997 11.3572 14.1083 11.3918C14.091 11.9222 14.0409 12.4509 13.9583 12.9751V13.6835C14.0191 13.9314 14.0444 14.1867 14.0333 14.4418C14.0174 14.5703 13.9654 14.6917 13.8833 14.7918C13.7167 14.832 13.5463 14.8544 13.3749 14.8585Z" fill="#1C1C35"/>
<mask id="path-5-outside-1_605_282" maskUnits="userSpaceOnUse" x="-0.965393" y="6.07983" width="22" height="15" fill="black">
<rect fill="white" x="-0.965393" y="6.07983" width="22" height="15"/>
<path d="M19.85 15.0002C19.7416 14.1699 19.4787 13.3671 19.075 12.6335C18.7332 12.015 18.2674 11.4737 17.7067 11.0435C17.146 10.6133 16.5026 10.3035 15.8166 10.1335C15.7838 10.1219 15.749 10.1169 15.7143 10.119C15.6795 10.1212 15.6456 10.1303 15.6144 10.1458C15.5833 10.1614 15.5557 10.1831 15.5331 10.2096C15.5106 10.2362 15.4936 10.267 15.4833 10.3002C15.4715 10.3336 15.4665 10.3689 15.4685 10.4043C15.4705 10.4396 15.4795 10.4742 15.4951 10.506C15.5106 10.5377 15.5323 10.5661 15.5589 10.5895C15.5854 10.6128 15.6164 10.6306 15.65 10.6419C16.772 11.1253 17.6665 12.0198 18.15 13.1419C18.4713 13.7985 18.7093 14.4928 18.8583 15.2085C19.097 16.3285 19.2088 17.4718 19.1916 18.6169C19.1903 18.6712 19.208 18.7242 19.2416 18.7669C17.75 18.7002 16.05 18.5752 14.5666 18.5669H13.1083C12.175 18.6085 11.25 18.6835 10.3166 18.7502C10.3136 18.2685 10.2857 17.7874 10.2333 17.3085C10.1817 17.0032 10.0526 16.7163 9.8583 16.4752C9.627 16.2084 9.31315 16.0265 8.96663 15.9585C8.32934 15.8641 7.68296 15.8473 7.04163 15.9085C6.6333 15.9085 6.2083 15.9669 5.79996 16.0002C5.83491 15.963 5.85947 15.9172 5.87117 15.8674C5.88287 15.8177 5.8813 15.7658 5.86663 15.7169C5.81663 15.5419 5.7833 15.3502 5.74163 15.1669C5.77759 15.1716 5.81401 15.1716 5.84996 15.1669C6.1704 15.2362 6.49711 15.2725 6.82496 15.2752C6.96292 15.2722 7.10001 15.2526 7.2333 15.2169C7.37074 15.1822 7.50465 15.1347 7.6333 15.0752C7.92665 14.9459 8.2059 14.7867 8.46663 14.6002C8.46663 14.6002 8.51663 14.6002 8.5583 14.6002C8.63786 14.6002 8.71417 14.5686 8.77043 14.5123C8.82669 14.4561 8.8583 14.3798 8.8583 14.3002C8.92911 13.4016 8.92911 12.4988 8.8583 11.6002C8.8583 11.0669 8.76663 10.5419 8.69996 10.0252C8.3333 7.41687 8.5583 7.35854 7.6833 7.30854L5.9333 7.1502C5.5583 7.1502 5.1833 7.09187 4.79996 7.08354C4.41663 7.0752 4.04996 7.08354 3.67496 7.08354C0.833296 7.3252 0.899962 7.5502 0.558296 8.0252C0.503159 8.10085 0.455702 8.18181 0.416629 8.26687C0.380133 8.3528 0.352219 8.44212 0.333296 8.53354C0.333296 8.53354 0.333296 8.6002 0.333296 8.60854V11.7252C0.328588 12.1879 0.378942 12.6494 0.483296 13.1002C0.612522 13.6318 0.796852 14.1485 1.0333 14.6419C1.05457 14.7099 1.1007 14.7674 1.16247 14.8029C1.22425 14.8384 1.29715 14.8494 1.36663 14.8335C1.40737 14.866 1.4565 14.8862 1.5083 14.8919C1.70141 14.9841 1.90217 15.0594 2.1083 15.1169C2.19394 15.1295 2.28098 15.1295 2.36663 15.1169H2.62496L3.02496 15.0002L3.3333 16.0419C3.35227 16.089 3.38432 16.1297 3.42565 16.1592C3.46699 16.1888 3.5159 16.2059 3.56663 16.2085C2.97496 16.2835 2.3833 16.3585 1.79163 16.4002C1.34996 16.4002 0.958296 16.4502 0.474962 16.4585C0.439662 16.4563 0.404269 16.4612 0.370977 16.4732C0.337685 16.4852 0.307203 16.5038 0.28142 16.528C0.255638 16.5523 0.235105 16.5815 0.221093 16.614C0.207081 16.6465 0.199888 16.6815 0.199962 16.7169V16.8169C0.163935 16.841 0.133929 16.8731 0.112258 16.9107C0.0905859 16.9482 0.0778265 16.9903 0.0749622 17.0335C0.0368515 17.4658 0.0257188 17.8999 0.0416288 18.3335C0.0590149 18.5712 0.136431 18.8006 0.266629 19.0002C0.453836 19.2647 0.710506 19.4724 1.0083 19.6002C1.39313 19.7765 1.80403 19.889 2.22496 19.9335C2.88372 20.0018 3.54644 20.0241 4.2083 20.0002C5.17496 20.0002 6.14163 19.8252 7.09163 19.7585L9.04163 19.5419C9.12196 19.5355 9.19659 19.4979 9.24955 19.4371C9.3025 19.3764 9.32957 19.2973 9.32496 19.2169C9.32181 19.1763 9.31067 19.1368 9.29218 19.1006C9.2737 19.0644 9.24823 19.0322 9.21725 19.0058C9.18627 18.9795 9.15038 18.9596 9.11166 18.9472C9.07294 18.9347 9.03215 18.9301 8.99163 18.9335H7.06663H2.3083C1.97783 18.9385 1.6487 18.8906 1.3333 18.7919C1.14625 18.7578 0.972807 18.671 0.833296 18.5419C0.728807 18.4071 0.665181 18.2451 0.649962 18.0752C0.599962 17.7085 0.649962 17.3085 0.649962 17.0252C1.70857 17.1144 2.77131 17.145 3.8333 17.1169H5.16663C5.82496 17.1169 6.49163 17.0252 7.14163 17.0002C7.63518 16.9236 8.13384 16.8846 8.6333 16.8835C8.87411 16.8641 9.11308 16.9388 9.29996 17.0919C9.46671 17.2743 9.57169 17.5047 9.59996 17.7502C9.67496 18.1252 9.69163 18.5169 9.74996 18.8752C9.68507 18.8813 9.62465 18.9109 9.58013 18.9585C9.5356 19.0061 9.51005 19.0684 9.5083 19.1335C9.5083 19.2043 9.53639 19.2721 9.5864 19.3221C9.63641 19.3721 9.70424 19.4002 9.77496 19.4002H10.1H10.1666C11.1666 19.4669 12.1583 19.5502 13.1583 19.5919H14.6166H16.0666C17.2 19.5919 18.3333 19.4752 19.4666 19.4169C19.547 19.4147 19.6233 19.3813 19.6793 19.3237C19.7353 19.2661 19.7667 19.1889 19.7666 19.1085C19.7656 19.0336 19.7357 18.962 19.6833 18.9085C19.7279 18.8861 19.7664 18.8531 19.7954 18.8124C19.8244 18.7718 19.8432 18.7247 19.85 18.6752C20.0221 17.4563 20.0221 16.2192 19.85 15.0002ZM7.76663 9.16687C7.74163 9.6054 7.74163 10.045 7.76663 10.4835C7.76663 11.0169 7.87496 11.5419 7.94996 12.0669C8.04996 12.7502 8.1583 13.4252 8.2333 14.1002C7.94996 14.1669 7.6833 14.1835 7.39996 14.2252L7.1833 14.2669C7.1833 13.8169 7.2583 13.3669 7.27496 12.9169C7.28751 12.6726 7.28751 12.4278 7.27496 12.1835C7.26001 11.9378 7.23219 11.693 7.19163 11.4502C7.0999 10.9581 6.97177 10.4734 6.8083 10.0002C6.88769 9.9836 6.95858 9.93929 7.0083 9.8752C7.24163 9.66687 7.44996 9.49187 7.64996 9.2752C7.69163 9.24187 7.72496 9.16687 7.76663 9.16687ZM0.833296 9.38354C0.986079 9.2296 1.12808 9.06532 1.2583 8.89187C1.30796 8.8216 1.34987 8.74616 1.3833 8.66687C1.3833 8.58354 1.4333 8.50854 1.44996 8.4252C1.46663 8.34187 1.5083 8.1002 1.54163 7.94187C2.26663 7.99187 2.97496 8.0752 3.7083 8.10854H4.8083C5.1833 8.10854 5.5583 8.06687 5.9333 8.04187L7.44996 7.93354L7.2583 8.13354C7.17324 8.21744 7.10031 8.3128 7.04163 8.41687C6.97255 8.51761 6.91126 8.62347 6.8583 8.73354C6.7583 8.9502 6.67496 9.16687 6.5833 9.38354C5.90346 9.22887 5.21239 9.12856 4.51663 9.08354C4.21964 9.06701 3.92195 9.06701 3.62496 9.08354C3.32496 9.08354 3.0333 9.08354 2.7333 9.14187C2.07496 9.21687 1.4333 9.35854 0.791629 9.4752C0.783296 9.41687 0.833296 9.40854 0.833296 9.38354ZM4.41663 16.1169L3.69163 16.1919C3.75122 16.1693 3.79994 16.1248 3.82782 16.0675C3.8557 16.0102 3.86064 15.9444 3.84163 15.8835C3.78437 15.6304 3.73987 15.3745 3.7083 15.1169C3.7083 14.8585 3.64996 14.6002 3.6333 14.3419C3.59318 13.9877 3.57093 13.6317 3.56663 13.2752C3.56037 13.0856 3.58861 12.8964 3.64996 12.7169C3.64996 12.6169 3.69996 12.5419 3.7583 12.5419C3.82196 12.5545 3.88197 12.5813 3.93389 12.6202C3.98582 12.6592 4.02833 12.7093 4.0583 12.7669C4.30508 13.1183 4.50143 13.5026 4.64163 13.9085C4.89163 14.5835 5.07496 15.3085 5.3333 15.9335C5.3333 15.9835 5.39996 16.0085 5.4333 16.0419C5.09163 16.0669 4.74996 16.0835 4.41663 16.1169ZM5.3583 13.3335C5.25113 12.9535 5.09422 12.5892 4.89163 12.2502C4.77571 12.0529 4.61344 11.8867 4.41887 11.7662C4.2243 11.6457 4.00329 11.5744 3.77496 11.5585C3.51501 11.5565 3.26274 11.6467 3.06291 11.8129C2.86307 11.9792 2.72858 12.2109 2.6833 12.4669C2.61985 12.7512 2.60296 13.0438 2.6333 13.3335C2.6787 13.6372 2.74271 13.9377 2.82496 14.2335C2.74019 14.2064 2.65394 14.1841 2.56663 14.1669C2.48349 14.1587 2.39976 14.1587 2.31663 14.1669C2.23073 14.1582 2.14419 14.1582 2.0583 14.1669C1.88007 14.2132 1.70698 14.2775 1.54163 14.3585C1.46283 13.8868 1.40997 13.4111 1.3833 12.9335C1.3833 12.5919 1.3833 12.2419 1.29163 11.9002C1.2083 11.2919 1.06663 10.7169 0.974962 10.1419C0.970952 10.0911 0.953713 10.0423 0.924962 10.0002C1.62496 10.0002 2.32496 10.0835 3.04996 10.0835H4.42496C4.99996 10.0002 5.61663 10.0002 6.2083 10.0002V11.5252V12.2335C6.2083 12.4669 6.2083 12.7085 6.27496 12.9502C6.34163 13.4502 6.41663 13.9419 6.49163 14.4419C6.27496 14.5252 6.06663 14.6252 5.82496 14.7002C5.76212 14.7041 5.70286 14.7307 5.6583 14.7752C5.58298 14.2898 5.48285 13.8087 5.3583 13.3335Z"/>
</mask>
<path d="M19.85 15.0002C19.7416 14.1699 19.4787 13.3671 19.075 12.6335C18.7332 12.015 18.2674 11.4737 17.7067 11.0435C17.146 10.6133 16.5026 10.3035 15.8166 10.1335C15.7838 10.1219 15.749 10.1169 15.7143 10.119C15.6795 10.1212 15.6456 10.1303 15.6144 10.1458C15.5833 10.1614 15.5557 10.1831 15.5331 10.2096C15.5106 10.2362 15.4936 10.267 15.4833 10.3002C15.4715 10.3336 15.4665 10.3689 15.4685 10.4043C15.4705 10.4396 15.4795 10.4742 15.4951 10.506C15.5106 10.5377 15.5323 10.5661 15.5589 10.5895C15.5854 10.6128 15.6164 10.6306 15.65 10.6419C16.772 11.1253 17.6665 12.0198 18.15 13.1419C18.4713 13.7985 18.7093 14.4928 18.8583 15.2085C19.097 16.3285 19.2088 17.4718 19.1916 18.6169C19.1903 18.6712 19.208 18.7242 19.2416 18.7669C17.75 18.7002 16.05 18.5752 14.5666 18.5669H13.1083C12.175 18.6085 11.25 18.6835 10.3166 18.7502C10.3136 18.2685 10.2857 17.7874 10.2333 17.3085C10.1817 17.0032 10.0526 16.7163 9.8583 16.4752C9.627 16.2084 9.31315 16.0265 8.96663 15.9585C8.32934 15.8641 7.68296 15.8473 7.04163 15.9085C6.6333 15.9085 6.2083 15.9669 5.79996 16.0002C5.83491 15.963 5.85947 15.9172 5.87117 15.8674C5.88287 15.8177 5.8813 15.7658 5.86663 15.7169C5.81663 15.5419 5.7833 15.3502 5.74163 15.1669C5.77759 15.1716 5.81401 15.1716 5.84996 15.1669C6.1704 15.2362 6.49711 15.2725 6.82496 15.2752C6.96292 15.2722 7.10001 15.2526 7.2333 15.2169C7.37074 15.1822 7.50465 15.1347 7.6333 15.0752C7.92665 14.9459 8.2059 14.7867 8.46663 14.6002C8.46663 14.6002 8.51663 14.6002 8.5583 14.6002C8.63786 14.6002 8.71417 14.5686 8.77043 14.5123C8.82669 14.4561 8.8583 14.3798 8.8583 14.3002C8.92911 13.4016 8.92911 12.4988 8.8583 11.6002C8.8583 11.0669 8.76663 10.5419 8.69996 10.0252C8.3333 7.41687 8.5583 7.35854 7.6833 7.30854L5.9333 7.1502C5.5583 7.1502 5.1833 7.09187 4.79996 7.08354C4.41663 7.0752 4.04996 7.08354 3.67496 7.08354C0.833296 7.3252 0.899962 7.5502 0.558296 8.0252C0.503159 8.10085 0.455702 8.18181 0.416629 8.26687C0.380133 8.3528 0.352219 8.44212 0.333296 8.53354C0.333296 8.53354 0.333296 8.6002 0.333296 8.60854V11.7252C0.328588 12.1879 0.378942 12.6494 0.483296 13.1002C0.612522 13.6318 0.796852 14.1485 1.0333 14.6419C1.05457 14.7099 1.1007 14.7674 1.16247 14.8029C1.22425 14.8384 1.29715 14.8494 1.36663 14.8335C1.40737 14.866 1.4565 14.8862 1.5083 14.8919C1.70141 14.9841 1.90217 15.0594 2.1083 15.1169C2.19394 15.1295 2.28098 15.1295 2.36663 15.1169H2.62496L3.02496 15.0002L3.3333 16.0419C3.35227 16.089 3.38432 16.1297 3.42565 16.1592C3.46699 16.1888 3.5159 16.2059 3.56663 16.2085C2.97496 16.2835 2.3833 16.3585 1.79163 16.4002C1.34996 16.4002 0.958296 16.4502 0.474962 16.4585C0.439662 16.4563 0.404269 16.4612 0.370977 16.4732C0.337685 16.4852 0.307203 16.5038 0.28142 16.528C0.255638 16.5523 0.235105 16.5815 0.221093 16.614C0.207081 16.6465 0.199888 16.6815 0.199962 16.7169V16.8169C0.163935 16.841 0.133929 16.8731 0.112258 16.9107C0.0905859 16.9482 0.0778265 16.9903 0.0749622 17.0335C0.0368515 17.4658 0.0257188 17.8999 0.0416288 18.3335C0.0590149 18.5712 0.136431 18.8006 0.266629 19.0002C0.453836 19.2647 0.710506 19.4724 1.0083 19.6002C1.39313 19.7765 1.80403 19.889 2.22496 19.9335C2.88372 20.0018 3.54644 20.0241 4.2083 20.0002C5.17496 20.0002 6.14163 19.8252 7.09163 19.7585L9.04163 19.5419C9.12196 19.5355 9.19659 19.4979 9.24955 19.4371C9.3025 19.3764 9.32957 19.2973 9.32496 19.2169C9.32181 19.1763 9.31067 19.1368 9.29218 19.1006C9.2737 19.0644 9.24823 19.0322 9.21725 19.0058C9.18627 18.9795 9.15038 18.9596 9.11166 18.9472C9.07294 18.9347 9.03215 18.9301 8.99163 18.9335H7.06663H2.3083C1.97783 18.9385 1.6487 18.8906 1.3333 18.7919C1.14625 18.7578 0.972807 18.671 0.833296 18.5419C0.728807 18.4071 0.665181 18.2451 0.649962 18.0752C0.599962 17.7085 0.649962 17.3085 0.649962 17.0252C1.70857 17.1144 2.77131 17.145 3.8333 17.1169H5.16663C5.82496 17.1169 6.49163 17.0252 7.14163 17.0002C7.63518 16.9236 8.13384 16.8846 8.6333 16.8835C8.87411 16.8641 9.11308 16.9388 9.29996 17.0919C9.46671 17.2743 9.57169 17.5047 9.59996 17.7502C9.67496 18.1252 9.69163 18.5169 9.74996 18.8752C9.68507 18.8813 9.62465 18.9109 9.58013 18.9585C9.5356 19.0061 9.51005 19.0684 9.5083 19.1335C9.5083 19.2043 9.53639 19.2721 9.5864 19.3221C9.63641 19.3721 9.70424 19.4002 9.77496 19.4002H10.1H10.1666C11.1666 19.4669 12.1583 19.5502 13.1583 19.5919H14.6166H16.0666C17.2 19.5919 18.3333 19.4752 19.4666 19.4169C19.547 19.4147 19.6233 19.3813 19.6793 19.3237C19.7353 19.2661 19.7667 19.1889 19.7666 19.1085C19.7656 19.0336 19.7357 18.962 19.6833 18.9085C19.7279 18.8861 19.7664 18.8531 19.7954 18.8124C19.8244 18.7718 19.8432 18.7247 19.85 18.6752C20.0221 17.4563 20.0221 16.2192 19.85 15.0002ZM7.76663 9.16687C7.74163 9.6054 7.74163 10.045 7.76663 10.4835C7.76663 11.0169 7.87496 11.5419 7.94996 12.0669C8.04996 12.7502 8.1583 13.4252 8.2333 14.1002C7.94996 14.1669 7.6833 14.1835 7.39996 14.2252L7.1833 14.2669C7.1833 13.8169 7.2583 13.3669 7.27496 12.9169C7.28751 12.6726 7.28751 12.4278 7.27496 12.1835C7.26001 11.9378 7.23219 11.693 7.19163 11.4502C7.0999 10.9581 6.97177 10.4734 6.8083 10.0002C6.88769 9.9836 6.95858 9.93929 7.0083 9.8752C7.24163 9.66687 7.44996 9.49187 7.64996 9.2752C7.69163 9.24187 7.72496 9.16687 7.76663 9.16687ZM0.833296 9.38354C0.986079 9.2296 1.12808 9.06532 1.2583 8.89187C1.30796 8.8216 1.34987 8.74616 1.3833 8.66687C1.3833 8.58354 1.4333 8.50854 1.44996 8.4252C1.46663 8.34187 1.5083 8.1002 1.54163 7.94187C2.26663 7.99187 2.97496 8.0752 3.7083 8.10854H4.8083C5.1833 8.10854 5.5583 8.06687 5.9333 8.04187L7.44996 7.93354L7.2583 8.13354C7.17324 8.21744 7.10031 8.3128 7.04163 8.41687C6.97255 8.51761 6.91126 8.62347 6.8583 8.73354C6.7583 8.9502 6.67496 9.16687 6.5833 9.38354C5.90346 9.22887 5.21239 9.12856 4.51663 9.08354C4.21964 9.06701 3.92195 9.06701 3.62496 9.08354C3.32496 9.08354 3.0333 9.08354 2.7333 9.14187C2.07496 9.21687 1.4333 9.35854 0.791629 9.4752C0.783296 9.41687 0.833296 9.40854 0.833296 9.38354ZM4.41663 16.1169L3.69163 16.1919C3.75122 16.1693 3.79994 16.1248 3.82782 16.0675C3.8557 16.0102 3.86064 15.9444 3.84163 15.8835C3.78437 15.6304 3.73987 15.3745 3.7083 15.1169C3.7083 14.8585 3.64996 14.6002 3.6333 14.3419C3.59318 13.9877 3.57093 13.6317 3.56663 13.2752C3.56037 13.0856 3.58861 12.8964 3.64996 12.7169C3.64996 12.6169 3.69996 12.5419 3.7583 12.5419C3.82196 12.5545 3.88197 12.5813 3.93389 12.6202C3.98582 12.6592 4.02833 12.7093 4.0583 12.7669C4.30508 13.1183 4.50143 13.5026 4.64163 13.9085C4.89163 14.5835 5.07496 15.3085 5.3333 15.9335C5.3333 15.9835 5.39996 16.0085 5.4333 16.0419C5.09163 16.0669 4.74996 16.0835 4.41663 16.1169ZM5.3583 13.3335C5.25113 12.9535 5.09422 12.5892 4.89163 12.2502C4.77571 12.0529 4.61344 11.8867 4.41887 11.7662C4.2243 11.6457 4.00329 11.5744 3.77496 11.5585C3.51501 11.5565 3.26274 11.6467 3.06291 11.8129C2.86307 11.9792 2.72858 12.2109 2.6833 12.4669C2.61985 12.7512 2.60296 13.0438 2.6333 13.3335C2.6787 13.6372 2.74271 13.9377 2.82496 14.2335C2.74019 14.2064 2.65394 14.1841 2.56663 14.1669C2.48349 14.1587 2.39976 14.1587 2.31663 14.1669C2.23073 14.1582 2.14419 14.1582 2.0583 14.1669C1.88007 14.2132 1.70698 14.2775 1.54163 14.3585C1.46283 13.8868 1.40997 13.4111 1.3833 12.9335C1.3833 12.5919 1.3833 12.2419 1.29163 11.9002C1.2083 11.2919 1.06663 10.7169 0.974962 10.1419C0.970952 10.0911 0.953713 10.0423 0.924962 10.0002C1.62496 10.0002 2.32496 10.0835 3.04996 10.0835H4.42496C4.99996 10.0002 5.61663 10.0002 6.2083 10.0002V11.5252V12.2335C6.2083 12.4669 6.2083 12.7085 6.27496 12.9502C6.34163 13.4502 6.41663 13.9419 6.49163 14.4419C6.27496 14.5252 6.06663 14.6252 5.82496 14.7002C5.76212 14.7041 5.70286 14.7307 5.6583 14.7752C5.58298 14.2898 5.48285 13.8087 5.3583 13.3335Z" fill="#1C1C35"/>
<path d="M19.85 15.0002C19.7416 14.1699 19.4787 13.3671 19.075 12.6335C18.7332 12.015 18.2674 11.4737 17.7067 11.0435C17.146 10.6133 16.5026 10.3035 15.8166 10.1335C15.7838 10.1219 15.749 10.1169 15.7143 10.119C15.6795 10.1212 15.6456 10.1303 15.6144 10.1458C15.5833 10.1614 15.5557 10.1831 15.5331 10.2096C15.5106 10.2362 15.4936 10.267 15.4833 10.3002C15.4715 10.3336 15.4665 10.3689 15.4685 10.4043C15.4705 10.4396 15.4795 10.4742 15.4951 10.506C15.5106 10.5377 15.5323 10.5661 15.5589 10.5895C15.5854 10.6128 15.6164 10.6306 15.65 10.6419C16.772 11.1253 17.6665 12.0198 18.15 13.1419C18.4713 13.7985 18.7093 14.4928 18.8583 15.2085C19.097 16.3285 19.2088 17.4718 19.1916 18.6169C19.1903 18.6712 19.208 18.7242 19.2416 18.7669C17.75 18.7002 16.05 18.5752 14.5666 18.5669H13.1083C12.175 18.6085 11.25 18.6835 10.3166 18.7502C10.3136 18.2685 10.2857 17.7874 10.2333 17.3085C10.1817 17.0032 10.0526 16.7163 9.8583 16.4752C9.627 16.2084 9.31315 16.0265 8.96663 15.9585C8.32934 15.8641 7.68296 15.8473 7.04163 15.9085C6.6333 15.9085 6.2083 15.9669 5.79996 16.0002C5.83491 15.963 5.85947 15.9172 5.87117 15.8674C5.88287 15.8177 5.8813 15.7658 5.86663 15.7169C5.81663 15.5419 5.7833 15.3502 5.74163 15.1669C5.77759 15.1716 5.81401 15.1716 5.84996 15.1669C6.1704 15.2362 6.49711 15.2725 6.82496 15.2752C6.96292 15.2722 7.10001 15.2526 7.2333 15.2169C7.37074 15.1822 7.50465 15.1347 7.6333 15.0752C7.92665 14.9459 8.2059 14.7867 8.46663 14.6002C8.46663 14.6002 8.51663 14.6002 8.5583 14.6002C8.63786 14.6002 8.71417 14.5686 8.77043 14.5123C8.82669 14.4561 8.8583 14.3798 8.8583 14.3002C8.92911 13.4016 8.92911 12.4988 8.8583 11.6002C8.8583 11.0669 8.76663 10.5419 8.69996 10.0252C8.3333 7.41687 8.5583 7.35854 7.6833 7.30854L5.9333 7.1502C5.5583 7.1502 5.1833 7.09187 4.79996 7.08354C4.41663 7.0752 4.04996 7.08354 3.67496 7.08354C0.833296 7.3252 0.899962 7.5502 0.558296 8.0252C0.503159 8.10085 0.455702 8.18181 0.416629 8.26687C0.380133 8.3528 0.352219 8.44212 0.333296 8.53354C0.333296 8.53354 0.333296 8.6002 0.333296 8.60854V11.7252C0.328588 12.1879 0.378942 12.6494 0.483296 13.1002C0.612522 13.6318 0.796852 14.1485 1.0333 14.6419C1.05457 14.7099 1.1007 14.7674 1.16247 14.8029C1.22425 14.8384 1.29715 14.8494 1.36663 14.8335C1.40737 14.866 1.4565 14.8862 1.5083 14.8919C1.70141 14.9841 1.90217 15.0594 2.1083 15.1169C2.19394 15.1295 2.28098 15.1295 2.36663 15.1169H2.62496L3.02496 15.0002L3.3333 16.0419C3.35227 16.089 3.38432 16.1297 3.42565 16.1592C3.46699 16.1888 3.5159 16.2059 3.56663 16.2085C2.97496 16.2835 2.3833 16.3585 1.79163 16.4002C1.34996 16.4002 0.958296 16.4502 0.474962 16.4585C0.439662 16.4563 0.404269 16.4612 0.370977 16.4732C0.337685 16.4852 0.307203 16.5038 0.28142 16.528C0.255638 16.5523 0.235105 16.5815 0.221093 16.614C0.207081 16.6465 0.199888 16.6815 0.199962 16.7169V16.8169C0.163935 16.841 0.133929 16.8731 0.112258 16.9107C0.0905859 16.9482 0.0778265 16.9903 0.0749622 17.0335C0.0368515 17.4658 0.0257188 17.8999 0.0416288 18.3335C0.0590149 18.5712 0.136431 18.8006 0.266629 19.0002C0.453836 19.2647 0.710506 19.4724 1.0083 19.6002C1.39313 19.7765 1.80403 19.889 2.22496 19.9335C2.88372 20.0018 3.54644 20.0241 4.2083 20.0002C5.17496 20.0002 6.14163 19.8252 7.09163 19.7585L9.04163 19.5419C9.12196 19.5355 9.19659 19.4979 9.24955 19.4371C9.3025 19.3764 9.32957 19.2973 9.32496 19.2169C9.32181 19.1763 9.31067 19.1368 9.29218 19.1006C9.2737 19.0644 9.24823 19.0322 9.21725 19.0058C9.18627 18.9795 9.15038 18.9596 9.11166 18.9472C9.07294 18.9347 9.03215 18.9301 8.99163 18.9335H7.06663H2.3083C1.97783 18.9385 1.6487 18.8906 1.3333 18.7919C1.14625 18.7578 0.972807 18.671 0.833296 18.5419C0.728807 18.4071 0.665181 18.2451 0.649962 18.0752C0.599962 17.7085 0.649962 17.3085 0.649962 17.0252C1.70857 17.1144 2.77131 17.145 3.8333 17.1169H5.16663C5.82496 17.1169 6.49163 17.0252 7.14163 17.0002C7.63518 16.9236 8.13384 16.8846 8.6333 16.8835C8.87411 16.8641 9.11308 16.9388 9.29996 17.0919C9.46671 17.2743 9.57169 17.5047 9.59996 17.7502C9.67496 18.1252 9.69163 18.5169 9.74996 18.8752C9.68507 18.8813 9.62465 18.9109 9.58013 18.9585C9.5356 19.0061 9.51005 19.0684 9.5083 19.1335C9.5083 19.2043 9.53639 19.2721 9.5864 19.3221C9.63641 19.3721 9.70424 19.4002 9.77496 19.4002H10.1H10.1666C11.1666 19.4669 12.1583 19.5502 13.1583 19.5919H14.6166H16.0666C17.2 19.5919 18.3333 19.4752 19.4666 19.4169C19.547 19.4147 19.6233 19.3813 19.6793 19.3237C19.7353 19.2661 19.7667 19.1889 19.7666 19.1085C19.7656 19.0336 19.7357 18.962 19.6833 18.9085C19.7279 18.8861 19.7664 18.8531 19.7954 18.8124C19.8244 18.7718 19.8432 18.7247 19.85 18.6752C20.0221 17.4563 20.0221 16.2192 19.85 15.0002ZM7.76663 9.16687C7.74163 9.6054 7.74163 10.045 7.76663 10.4835C7.76663 11.0169 7.87496 11.5419 7.94996 12.0669C8.04996 12.7502 8.1583 13.4252 8.2333 14.1002C7.94996 14.1669 7.6833 14.1835 7.39996 14.2252L7.1833 14.2669C7.1833 13.8169 7.2583 13.3669 7.27496 12.9169C7.28751 12.6726 7.28751 12.4278 7.27496 12.1835C7.26001 11.9378 7.23219 11.693 7.19163 11.4502C7.0999 10.9581 6.97177 10.4734 6.8083 10.0002C6.88769 9.9836 6.95858 9.93929 7.0083 9.8752C7.24163 9.66687 7.44996 9.49187 7.64996 9.2752C7.69163 9.24187 7.72496 9.16687 7.76663 9.16687ZM0.833296 9.38354C0.986079 9.2296 1.12808 9.06532 1.2583 8.89187C1.30796 8.8216 1.34987 8.74616 1.3833 8.66687C1.3833 8.58354 1.4333 8.50854 1.44996 8.4252C1.46663 8.34187 1.5083 8.1002 1.54163 7.94187C2.26663 7.99187 2.97496 8.0752 3.7083 8.10854H4.8083C5.1833 8.10854 5.5583 8.06687 5.9333 8.04187L7.44996 7.93354L7.2583 8.13354C7.17324 8.21744 7.10031 8.3128 7.04163 8.41687C6.97255 8.51761 6.91126 8.62347 6.8583 8.73354C6.7583 8.9502 6.67496 9.16687 6.5833 9.38354C5.90346 9.22887 5.21239 9.12856 4.51663 9.08354C4.21964 9.06701 3.92195 9.06701 3.62496 9.08354C3.32496 9.08354 3.0333 9.08354 2.7333 9.14187C2.07496 9.21687 1.4333 9.35854 0.791629 9.4752C0.783296 9.41687 0.833296 9.40854 0.833296 9.38354ZM4.41663 16.1169L3.69163 16.1919C3.75122 16.1693 3.79994 16.1248 3.82782 16.0675C3.8557 16.0102 3.86064 15.9444 3.84163 15.8835C3.78437 15.6304 3.73987 15.3745 3.7083 15.1169C3.7083 14.8585 3.64996 14.6002 3.6333 14.3419C3.59318 13.9877 3.57093 13.6317 3.56663 13.2752C3.56037 13.0856 3.58861 12.8964 3.64996 12.7169C3.64996 12.6169 3.69996 12.5419 3.7583 12.5419C3.82196 12.5545 3.88197 12.5813 3.93389 12.6202C3.98582 12.6592 4.02833 12.7093 4.0583 12.7669C4.30508 13.1183 4.50143 13.5026 4.64163 13.9085C4.89163 14.5835 5.07496 15.3085 5.3333 15.9335C5.3333 15.9835 5.39996 16.0085 5.4333 16.0419C5.09163 16.0669 4.74996 16.0835 4.41663 16.1169ZM5.3583 13.3335C5.25113 12.9535 5.09422 12.5892 4.89163 12.2502C4.77571 12.0529 4.61344 11.8867 4.41887 11.7662C4.2243 11.6457 4.00329 11.5744 3.77496 11.5585C3.51501 11.5565 3.26274 11.6467 3.06291 11.8129C2.86307 11.9792 2.72858 12.2109 2.6833 12.4669C2.61985 12.7512 2.60296 13.0438 2.6333 13.3335C2.6787 13.6372 2.74271 13.9377 2.82496 14.2335C2.74019 14.2064 2.65394 14.1841 2.56663 14.1669C2.48349 14.1587 2.39976 14.1587 2.31663 14.1669C2.23073 14.1582 2.14419 14.1582 2.0583 14.1669C1.88007 14.2132 1.70698 14.2775 1.54163 14.3585C1.46283 13.8868 1.40997 13.4111 1.3833 12.9335C1.3833 12.5919 1.3833 12.2419 1.29163 11.9002C1.2083 11.2919 1.06663 10.7169 0.974962 10.1419C0.970952 10.0911 0.953713 10.0423 0.924962 10.0002C1.62496 10.0002 2.32496 10.0835 3.04996 10.0835H4.42496C4.99996 10.0002 5.61663 10.0002 6.2083 10.0002V11.5252V12.2335C6.2083 12.4669 6.2083 12.7085 6.27496 12.9502C6.34163 13.4502 6.41663 13.9419 6.49163 14.4419C6.27496 14.5252 6.06663 14.6252 5.82496 14.7002C5.76212 14.7041 5.70286 14.7307 5.6583 14.7752C5.58298 14.2898 5.48285 13.8087 5.3583 13.3335Z" stroke="#1C1C35" stroke-width="0.6" mask="url(#path-5-outside-1_605_282)"/>
<path d="M17.4 16.6666C17.433 16.3622 17.4497 16.0562 17.45 15.75V14.825C17.3916 14.1166 17.275 13.4166 17.1583 12.7083C17.154 12.6368 17.122 12.5699 17.0691 12.5216C17.0162 12.4734 16.9465 12.4477 16.875 12.45C16.8399 12.4521 16.8057 12.4611 16.7741 12.4765C16.7426 12.4919 16.7144 12.5134 16.6911 12.5397C16.6679 12.566 16.6501 12.5967 16.6388 12.6299C16.6274 12.6631 16.6227 12.6983 16.625 12.7333C16.625 13.5666 16.4916 14.3333 16.4583 15.1333V16.5666V17.7583C16.6333 18.4583 16.9 18.4833 17.2916 17.7583C17.3166 17.35 17.3666 16.9916 17.4 16.6666Z" fill="#1C1C35"/>
</g>
<defs>
<clipPath id="clip0_605_282">
<rect width="20" height="20" fill="white"/>
</clipPath>
</defs>
</svg>
