<svg width="22" height="22" viewBox="0 0 22 22" fill="none" xmlns="http://www.w3.org/2000/svg">
<g clip-path="url(#clip0_605_326)">
<path d="M9.81512 15.2939C9.96352 15.3137 10.1064 15.3628 10.235 15.4375L10.3591 15.5205L10.3796 15.5371L10.3972 15.5566C10.5161 15.6875 10.5985 15.8476 10.6354 16.0205L10.6374 16.0303L10.6384 16.04C10.6652 16.2226 10.6831 16.4064 10.6911 16.5908C10.7119 16.7779 10.774 17.1632 10.8444 17.6465C10.9144 18.1268 10.9904 18.6907 11.0329 19.2002C11.0945 19.6737 11.0693 20.1545 10.9587 20.6191L10.9528 20.6465L10.9411 20.6719C10.883 20.8028 10.7908 20.9162 10.6745 21C10.5583 21.0837 10.4216 21.1348 10.279 21.1484L10.2643 21.1504H9.9245C9.34228 21.1923 8.15321 21.2998 6.83368 21.2998C5.06446 21.2998 3.08588 21.3006 2.18329 21.25V21.248C1.8871 21.2417 1.5965 21.1647 1.33759 21.0205L1.30243 21.001L1.27411 20.9727C1.10913 20.8113 1.00405 20.5983 0.977234 20.3691L0.961609 20.1934C0.951415 20.0225 0.955873 19.8509 0.975281 19.6807V17.5166C0.975304 17.4665 0.999904 17.0769 1.02216 16.7168C1.03361 16.5314 1.04483 16.3469 1.05341 16.2051C1.05769 16.1342 1.0607 16.0741 1.06317 16.0303C1.0655 15.989 1.06685 15.9702 1.06708 15.9668V15.9209L1.08075 15.8779C1.15019 15.6543 1.36567 15.5806 1.46552 15.5547C1.59001 15.5224 1.73091 15.5142 1.84833 15.5137C1.96944 15.5131 2.08595 15.5207 2.17059 15.5283C2.21327 15.5322 2.24987 15.5361 2.27509 15.5391C2.2784 15.5394 2.2819 15.5397 2.28485 15.54C2.90684 15.5017 6.31399 15.292 8.35028 15.292H9.79559L9.81512 15.2939ZM16.0905 6.99219C17.2916 6.92105 18.4971 6.94866 19.6931 7.0752L20.2057 7.13574L20.2341 7.13965L20.2604 7.14844C20.4771 7.21952 20.6671 7.35379 20.8054 7.5332L20.861 7.61328L20.8757 7.63574L20.8864 7.66113C21.0022 7.9438 21.0479 8.2495 21.0251 8.55371C21.0824 8.92743 21.0837 9.28977 21.0837 9.63379V10.7158L20.9001 17.8164V17.8291L20.7761 19.5762C20.7878 19.7817 20.7876 19.9879 20.7751 20.1934L20.7741 20.21L20.7712 20.2275C20.7327 20.4451 20.6261 20.6451 20.4675 20.7988L20.4362 20.8291L20.3981 20.8486C20.1212 20.9943 19.8133 21.0703 19.5007 21.0732L19.5016 21.0742C18.4513 21.1674 16.1748 21.167 14.4167 21.167C13.9425 21.167 13.4054 21.1956 12.8854 21.2012C12.6395 21.2038 12.4056 21.2001 12.2194 21.1826C12.1273 21.1739 12.0361 21.161 11.9567 21.1396C11.8991 21.1241 11.8035 21.0908 11.7243 21.0186L11.7233 21.0205C11.6349 20.9458 11.5669 20.849 11.527 20.7402C11.4922 20.6449 11.4814 20.543 11.4919 20.4424V8.09961C11.4894 7.96796 11.5178 7.83749 11.5749 7.71875C11.6335 7.59715 11.7208 7.4911 11.8288 7.41016L11.8503 7.39355L11.8757 7.38184C12.0887 7.27609 12.3209 7.21362 12.5583 7.2002C13.2533 7.10754 14.6669 6.99315 16.0905 6.99219ZM9.91083 20.8496C9.32482 20.8912 8.13658 20.9988 6.81415 20.999C6.82055 20.999 6.82728 21 6.83368 21C8.14997 21 9.33329 20.8913 9.91669 20.8496H9.91083ZM3.03192 20.9785C3.1865 20.9818 3.35122 20.983 3.52411 20.9854C3.35159 20.9831 3.1869 20.9817 3.03192 20.9785ZM14.0222 7.36523C13.4177 7.40549 12.906 7.45504 12.5749 7.5C12.3781 7.51118 12.1851 7.5627 12.0085 7.65039L11.9587 7.69238C11.912 7.73708 11.8736 7.79012 11.8454 7.84863L11.821 7.9082C11.8 7.96959 11.7898 8.03441 11.7917 8.09961V20.4502C11.781 20.513 11.7874 20.5778 11.8093 20.6377C11.8312 20.6975 11.868 20.7509 11.9167 20.792C12.0004 20.8878 12.3945 20.9058 12.8835 20.9004C12.3966 20.9053 12.0049 20.8872 11.9216 20.792C11.8726 20.7509 11.8352 20.6976 11.8132 20.6377C11.7911 20.5778 11.7858 20.5131 11.7966 20.4502V8.09961C11.794 8.01286 11.8124 7.92683 11.8503 7.84863C11.8882 7.77036 11.9444 7.70248 12.0143 7.65039C12.192 7.56261 12.3856 7.51115 12.5837 7.5C12.9135 7.45545 13.4217 7.40533 14.0222 7.36523ZM19.3249 20.0332C17.8414 20.1582 14.4335 20.2255 12.8835 20.2588H12.8942C14.453 20.2255 17.8803 20.1582 19.3718 20.0332C19.427 20.0299 19.4397 20.0224 19.444 20.0166C19.4046 20.0226 19.365 20.0308 19.3249 20.0332ZM16.8766 8.52441L16.8688 8.52539C15.543 8.53368 14.1065 8.56575 13.1979 8.62305C13.1067 8.63528 13.0156 8.65122 12.9255 8.66992V9.15234C12.8422 11.4918 12.7084 16.8648 12.6501 19.3154V19.958H12.8776C14.4344 19.9245 17.8294 19.8583 19.3005 19.7344L19.3073 19.7334C19.344 19.7312 19.3825 19.7242 19.4274 19.7168C19.4278 19.7148 19.4284 19.7109 19.4284 19.7109C19.4351 19.6771 19.4494 19.6116 19.4528 19.5947C19.4602 19.5586 19.4587 19.5553 19.4587 19.5664V19.5527L19.5417 17.7754C19.5641 16.2853 19.5446 14.7943 19.5104 13.2949C19.5066 13.1972 19.5022 13.0989 19.4997 13C19.5006 12.9841 19.5026 12.9682 19.5036 12.9521C19.5024 12.904 19.5019 12.8558 19.5007 12.8076L19.4997 12.7949L19.5007 12.7822C19.5417 12.0758 19.5417 11.3678 19.5417 10.6582C19.5417 10.3062 19.5499 9.97823 19.5417 9.64941C19.5378 9.49292 19.5243 9.33348 19.5104 9.16016C19.4969 8.99051 19.4841 8.80899 19.4841 8.625C19.4841 8.66119 19.4934 8.67918 19.4841 8.65332C19.4809 8.64443 19.4774 8.63336 19.4714 8.61816C19.4681 8.60981 19.4638 8.5997 19.4597 8.58887C18.6007 8.51957 17.7381 8.49627 16.8766 8.52441ZM9.08661 16.7168C7.30407 16.6339 2.9419 16.7168 2.30829 16.7168H2.13348V17.4775L2.23309 19.6533L2.23407 19.667L2.23309 19.6816C2.22875 19.7685 2.23272 19.8554 2.24384 19.9414C2.31655 19.9373 2.40228 19.9312 2.50165 19.9229C2.70983 19.9054 2.96236 19.884 3.22919 19.8838L3.94208 19.8672C5.69699 19.8143 8.05257 19.6638 9.30243 19.5762L9.487 19.5566C9.4827 19.519 9.47838 19.4783 9.47333 19.4346C9.45503 19.276 9.43443 19.0883 9.43329 18.8926C9.39226 18.4691 9.33186 18.0193 9.27997 17.627C9.23209 17.265 9.18882 16.9299 9.18427 16.7324C9.18351 16.7299 9.18312 16.7272 9.18231 16.7246C9.15235 16.7213 9.12168 16.7177 9.09149 16.7168H9.08661ZM7.35126 16.3818C5.3227 16.3701 2.72656 16.417 2.26044 16.417H2.30829L5.26434 16.3857C5.95618 16.3806 6.684 16.3781 7.35126 16.3818ZM7.57977 16.3838C8.02939 16.3874 8.44485 16.3959 8.79462 16.4072C8.44529 16.3958 8.02984 16.3875 7.57977 16.3838ZM1.86102 15.8154C2.0508 15.8192 2.21825 15.8407 2.22626 15.8418C2.23596 15.8412 2.24693 15.8406 2.25848 15.8398L2.14423 15.8271C2.06783 15.8202 1.96578 15.8154 1.86102 15.8154ZM4.39716 15.7207C4.19066 15.7313 3.99209 15.7437 3.80438 15.7539C3.99248 15.7438 4.191 15.7311 4.39716 15.7207ZM6.32782 15.6357C6.02067 15.6469 5.71111 15.6613 5.40692 15.6748C5.71138 15.6614 6.0209 15.6468 6.32782 15.6357ZM3.70868 0.700195C5.46954 0.700201 7.72817 0.742014 8.77802 0.817383C9.10417 0.815392 9.42585 0.896118 9.71161 1.05371L9.74872 1.07422L9.77899 1.10449C9.89562 1.22105 9.98225 1.36325 10.0329 1.51855L10.072 1.67773L10.0729 1.68652L10.0739 1.69434C10.0954 1.90308 10.0952 2.11336 10.0759 2.32227L10.2077 4.06934L10.2087 4.07617V4.08398L10.3923 11.1836V12.2734C10.3879 12.4624 10.3724 12.6492 10.3591 12.8232C10.3455 13.0002 10.3337 13.1668 10.3337 13.333C10.3337 13.6591 10.2522 13.9806 10.0974 14.2676L10.0856 14.2891C9.94919 14.4987 9.74842 14.6588 9.51434 14.7471L9.48114 14.7598L9.44501 14.7646C8.10733 14.9277 6.75658 14.9581 5.41278 14.8574C4.01669 14.7992 2.61191 14.691 1.93524 14.5977C1.70985 14.5733 1.48969 14.5103 1.28583 14.4111L1.26239 14.4004L1.24188 14.3848C1.1349 14.3077 1.0464 14.2074 0.983093 14.0918C0.919934 13.9763 0.88291 13.8483 0.875671 13.7168V12.6738C0.817295 10.3467 0.783937 5.01564 0.767273 2.58203C0.715449 2.03713 0.735795 1.48754 0.829773 0.948242L0.872742 0.700195H3.70868ZM7.06512 14.6143C7.14814 14.6138 7.23114 14.6128 7.31415 14.6113C7.23115 14.6129 7.14814 14.6137 7.06512 14.6143ZM6.68817 14.6133C6.71031 14.6136 6.73244 14.614 6.75458 14.6143C6.73244 14.6141 6.71031 14.6135 6.68817 14.6133ZM7.44598 14.6084C7.58048 14.6051 7.71489 14.5997 7.8493 14.5938C7.7149 14.5998 7.58048 14.605 7.44598 14.6084ZM7.93524 14.5898C8.04434 14.5845 8.15338 14.5784 8.26239 14.5713C8.15338 14.5784 8.04434 14.5845 7.93524 14.5898ZM3.66766 1C5.44415 1 7.7155 1.04121 8.75458 1.11621C9.03556 1.11227 9.31322 1.18139 9.55927 1.31641C9.67055 1.42699 9.74348 1.57011 9.76825 1.72461C9.78893 1.92408 9.78893 2.12572 9.76825 2.3252L9.90204 4.0918L10.0866 11.1914C10.0866 11.5497 10.095 11.9083 10.0866 12.2666C10.0782 12.6248 10.028 12.9748 10.028 13.333C10.028 13.6094 9.95885 13.8818 9.82684 14.125C9.72462 14.2812 9.57451 14.4011 9.39911 14.4668C9.0814 14.5053 8.76293 14.536 8.44403 14.5596C8.60027 14.548 8.7568 14.5356 8.91278 14.5205L9.40887 14.4668C9.58314 14.4011 9.7321 14.2811 9.83368 14.125C9.93216 13.9425 9.99574 13.7437 10.0212 13.5391L10.0339 13.333C10.0339 13.1539 10.0457 12.9768 10.0593 12.7998L10.0925 12.2666V11.1914L9.90887 4.0918L9.77509 2.3252C9.79565 2.12575 9.79565 1.92406 9.77509 1.72461C9.75045 1.57015 9.6777 1.42698 9.56708 1.31641C9.32251 1.18147 9.04656 1.11233 8.76727 1.11621C7.734 1.04122 5.4753 1.00001 3.70868 1H3.66766ZM6.18134 13.6582C6.42423 13.6713 6.66773 13.6795 6.91083 13.6836C6.67669 13.6793 6.4426 13.6708 6.20868 13.6582C6.14815 13.6551 6.08634 13.6525 6.02411 13.6494C6.07668 13.6522 6.12908 13.6555 6.18134 13.6582ZM1.59637 2.58594L1.79462 7.67285C1.87255 9.59936 1.95316 11.5173 2.01141 12.7002C2.03718 12.8826 2.04669 13.0482 2.05048 13.1904C2.13945 13.209 2.22917 13.2254 2.31903 13.2393C3.23043 13.2413 4.9482 13.293 6.2243 13.3584C7.06817 13.404 7.91511 13.3916 8.75751 13.3262C8.75756 13.3171 8.75848 13.3081 8.75848 13.2998V13.2744L8.76337 13.25C8.81673 12.9374 8.81708 12.6286 8.81708 12.2832V11.2666C8.76769 10.5529 8.76727 9.83284 8.76727 9.125V4.1377C8.76702 4.13372 8.76677 4.12765 8.7663 4.12012C8.76532 4.10474 8.76322 4.08229 8.76141 4.05371C8.75777 3.99614 8.75301 3.91358 8.74677 3.81445C8.73426 3.61585 8.71754 3.34946 8.70087 3.08008C8.68025 2.74706 8.72652 2.23401 8.71356 2.00488C8.68585 2.00415 8.65368 2.00293 8.61688 2.00293H8.60419L8.59052 2.00195C7.15216 1.87804 3.40819 1.81641 1.85419 1.81641H1.84442L1.64032 1.80957L1.59637 2.58594ZM14.9431 7.31738C14.6775 7.32772 14.4198 7.34034 14.1755 7.35547C14.4197 7.34029 14.6773 7.32785 14.9431 7.31738ZM17.1589 7.25586C16.8088 7.25955 16.4588 7.27128 16.1091 7.29199L15.5729 7.29688C15.531 7.29767 15.4888 7.29981 15.447 7.30078C15.6745 7.29537 15.9053 7.292 16.1364 7.29199C16.4769 7.27193 16.8181 7.25997 17.1589 7.25586ZM20.3962 0.75C20.542 0.75195 20.6849 0.794798 20.8073 0.874023C20.8993 0.933621 20.9776 1.01217 21.0368 1.10352L21.0895 1.19922L21.1003 1.22266L21.1071 1.24902C21.2317 1.72497 21.26 2.221 21.1911 2.70801C21.1693 3.19176 21.1109 3.74249 21.0583 4.21289C21.0036 4.70175 20.9587 5.08023 20.9587 5.25C20.9695 5.43377 20.9692 5.61802 20.9577 5.80176V5.8125L20.9557 5.82227C20.9311 6.00964 20.848 6.18472 20.7184 6.32227L20.7126 6.3291L20.7057 6.33496C20.5516 6.4802 20.3545 6.57226 20.1442 6.59766H20.1423C19.6644 6.65216 19.1837 6.68038 18.7028 6.68262L18.7038 6.68359H18.6843C18.6716 6.68409 18.652 6.68557 18.6276 6.68652C18.5783 6.68844 18.5055 6.69086 18.4138 6.69434C18.2294 6.70132 17.9657 6.7114 17.6491 6.72266C17.0155 6.74519 16.1681 6.77341 15.3151 6.79688C14.4628 6.82032 13.6018 6.83904 12.9421 6.8418C12.6131 6.84317 12.3297 6.84013 12.1218 6.83203C12.0187 6.82801 11.9274 6.82243 11.8571 6.81445C11.8228 6.81054 11.7861 6.80549 11.7526 6.79785C11.7359 6.79403 11.7141 6.78796 11.6911 6.7793C11.6725 6.77225 11.6296 6.75497 11.5876 6.71875C11.4802 6.62604 11.4245 6.49766 11.3932 6.4043C11.3593 6.30295 11.3387 6.19496 11.3259 6.10254C11.3129 6.00863 11.3066 5.92133 11.3034 5.8584C11.3018 5.82691 11.3009 5.80085 11.3005 5.78223C11.3004 5.77676 11.3005 5.77173 11.3005 5.76758L11.2429 4.76758L11.2419 4.76465L11.1345 2.5918C11.115 2.36436 11.115 2.13564 11.1345 1.9082V1.90625C11.1552 1.67955 11.2503 1.46578 11.404 1.29785L11.4323 1.2666L11.4684 1.24414C11.7176 1.09123 12.0011 1.00452 12.2927 0.987305C13.2205 0.859658 15.2027 0.750002 16.9753 0.75H20.3962ZM16.9753 1.0498C15.2089 1.04981 13.2422 1.15823 12.3337 1.2832C12.0832 1.29399 11.8394 1.36889 11.6257 1.5L11.5515 1.5957C11.4856 1.69652 11.4444 1.81249 11.4333 1.93359L11.4206 2.25C11.4206 2.35555 11.4243 2.46114 11.4333 2.56641L11.5417 4.75L11.6003 5.75C11.6003 5.75036 11.6006 6.3339 11.7839 6.49219C11.8328 6.53151 12.2886 6.5438 12.945 6.54102C12.2895 6.54364 11.8351 6.53149 11.7878 6.49219C11.6034 6.33385 11.6032 5.75 11.6032 5.75L11.5446 4.75L11.4362 2.56641C11.4181 2.35583 11.4181 2.14417 11.4362 1.93359C11.4511 1.77208 11.5184 1.6196 11.6286 1.5C11.8435 1.36878 12.0886 1.29404 12.3405 1.2832C13.1398 1.17382 14.7544 1.07712 16.3356 1.05469L17.0085 1.0498H16.9753ZM12.6667 5.75879H12.6765C12.7564 5.75664 12.8989 5.75118 13.0905 5.74609C12.8938 5.75135 12.7478 5.7566 12.6667 5.75879ZM19.4587 5.47461L18.6804 5.53223C18.2887 5.55657 17.8459 5.57856 17.3825 5.59961C18.2093 5.56251 18.9731 5.52162 19.5056 5.47461C19.5095 5.47413 19.5133 5.47315 19.5173 5.47266C19.4918 5.47382 19.4717 5.47305 19.4587 5.47461ZM20.0475 2.31641C18.6056 2.25867 15.252 2.1914 13.4841 2.23242L13.485 2.2334C13.2379 2.2415 13.0121 2.25789 12.8122 2.27246C12.7106 2.27987 12.6119 2.28577 12.5212 2.29102C12.5153 2.3347 12.5101 2.37963 12.5065 2.41895C12.502 2.46876 12.5007 2.50037 12.5007 2.50879V5.45801H12.6589C13.2745 5.44139 18.0416 5.36006 19.8718 5.20703C19.8728 5.1873 19.8737 5.1748 19.8737 5.1748C19.8989 4.84131 20.0328 3.82526 20.0329 2.99219L19.9997 2.9668C20.0101 2.73445 20.0247 2.51172 20.0475 2.31641ZM18.28 1.95215L19.5837 1.99219L19.6013 1.99121C19.1 1.97117 18.4254 1.95464 17.6833 1.94141C17.8882 1.94513 18.0881 1.94775 18.28 1.95215ZM10.3171 20.8389C10.3605 20.8288 10.4027 20.813 10.4421 20.792L10.4997 20.7568C10.5728 20.7041 10.6302 20.6322 10.6667 20.5498C10.77 20.116 10.7933 19.6665 10.7341 19.2246C10.6507 18.2247 10.4339 16.9995 10.3923 16.6162C10.3886 16.5272 10.382 16.4383 10.3737 16.3496L10.3425 16.083C10.3231 15.9924 10.2854 15.9068 10.2331 15.8311L10.1755 15.7588C10.0593 15.669 9.92066 15.6112 9.77509 15.5918H9.76825C9.91476 15.6111 10.0536 15.6689 10.1706 15.7588C10.2542 15.8504 10.3126 15.962 10.3386 16.083C10.3647 16.2596 10.381 16.4378 10.3884 16.6162C10.4303 16.9995 10.6483 18.2247 10.7321 19.2246C10.7917 19.6666 10.7686 20.116 10.6647 20.5498C10.628 20.6322 10.5703 20.7041 10.4968 20.7568C10.4231 20.8096 10.3361 20.8411 10.2458 20.8496H10.2507L10.3171 20.8389Z" fill="#1C1C35"/>
</g>
<defs>
<clipPath id="clip0_605_326">
<rect width="22" height="22" fill="white"/>
</clipPath>
</defs>
</svg>
