<svg width="20" height="20" viewBox="0 0 20 20" fill="none" xmlns="http://www.w3.org/2000/svg">
<g clip-path="url(#clip0_217_725)">
<path d="M5.5 5.9444C5.63261 5.9444 5.75979 5.87855 5.85355 5.76134C5.94732 5.64413 6 5.48516 6 5.3194V1.5694C6 1.40364 5.94732 1.24467 5.85355 1.12746C5.75979 1.01024 5.63261 0.944397 5.5 0.944397C5.36739 0.944397 5.24021 1.01024 5.14645 1.12746C5.05268 1.24467 5 1.40364 5 1.5694V5.3194C5 5.48516 5.05268 5.64413 5.14645 5.76134C5.24021 5.87855 5.36739 5.9444 5.5 5.9444Z" fill="#F4F1FF"/>
<path d="M14.5 5.9444C14.6326 5.9444 14.7598 5.87855 14.8536 5.76134C14.9473 5.64413 15 5.48516 15 5.3194V1.5694C15 1.40364 14.9473 1.24467 14.8536 1.12746C14.7598 1.01024 14.6326 0.944397 14.5 0.944397C14.3674 0.944397 14.2402 1.01024 14.1464 1.12746C14.0527 1.24467 14 1.40364 14 1.5694V5.3194C14 5.48516 14.0527 5.64413 14.1464 5.76134C14.2402 5.87855 14.3674 5.9444 14.5 5.9444Z" fill="#F4F1FF"/>
<path d="M18.0155 2.94446H15.7655V4.67522C15.7655 5.01184 15.6352 5.33468 15.4031 5.5727C15.171 5.81073 14.8563 5.94445 14.5281 5.94445C14.1999 5.94445 13.8851 5.81073 13.653 5.5727C13.4209 5.33468 13.2906 5.01184 13.2906 4.67522V2.94446H6.73755V4.67522C6.73755 5.01184 6.60718 5.33468 6.3751 5.5727C6.14303 5.81073 5.82827 5.94445 5.50007 5.94445C5.17187 5.94445 4.85711 5.81073 4.62504 5.5727C4.39297 5.33468 4.26259 5.01184 4.26259 4.67522V2.94446H2.01263C1.87877 2.9429 1.74596 2.96889 1.62206 3.02088C1.49817 3.07288 1.38569 3.14983 1.2913 3.24719C1.1969 3.34454 1.1225 3.46033 1.07249 3.58769C1.02248 3.71505 0.99788 3.85141 1.00014 3.98869V16.9002C0.99791 17.035 1.0216 17.169 1.06986 17.2945C1.11813 17.42 1.19001 17.5345 1.28142 17.6314C1.37283 17.7284 1.48197 17.8059 1.60261 17.8596C1.72325 17.9133 1.85301 17.9421 1.9845 17.9444H18.0155C18.147 17.9421 18.2768 17.9133 18.3974 17.8596C18.518 17.8059 18.6272 17.7284 18.7186 17.6314C18.81 17.5345 18.8819 17.42 18.9301 17.2945C18.9784 17.169 19.0021 17.035 18.9999 16.9002V3.98869C19.0021 3.85383 18.9784 3.71984 18.9301 3.59437C18.8819 3.4689 18.81 3.35441 18.7186 3.25744C18.6272 3.16047 18.518 3.08292 18.3974 3.02922C18.2768 2.97552 18.147 2.94672 18.0155 2.94446ZM14.4662 9.04828L9.02689 14.6271L6.06256 11.5637C5.93123 11.4155 5.8601 11.2215 5.86372 11.0213C5.86734 10.8211 5.94544 10.6299 6.08204 10.4868C6.21864 10.3438 6.40339 10.2597 6.59845 10.2518C6.79352 10.2439 6.98415 10.3128 7.1313 10.4444L9.03252 12.3944L13.3749 7.9406C13.4462 7.86748 13.5309 7.80949 13.624 7.76992C13.7171 7.73036 13.8169 7.70999 13.9177 7.70999C14.0186 7.70999 14.1184 7.73036 14.2115 7.76992C14.3046 7.80949 14.3893 7.86748 14.4606 7.9406C14.5318 8.01371 14.5884 8.1005 14.627 8.19602C14.6655 8.29155 14.6854 8.39393 14.6854 8.49732C14.6854 8.60072 14.6655 8.7031 14.627 8.79862C14.5884 8.89415 14.5318 8.98094 14.4606 9.05405L14.4662 9.04828Z" fill="#F4F1FF"/>
</g>
<defs>
<clipPath id="clip0_217_725">
<rect width="20" height="20" fill="white"/>
</clipPath>
</defs>
</svg>
