<svg width="20" height="20" viewBox="0 0 20 20" fill="none" xmlns="http://www.w3.org/2000/svg">
<g clip-path="url(#clip0_605_200)">
<path d="M7.54108 9.6925C7.9209 9.64974 8.30514 9.66463 8.68073 9.73547C8.90394 9.76585 9.21154 9.74394 9.56744 9.72375C9.91218 9.7042 10.2939 9.68766 10.6378 9.7345L10.6387 9.73352C10.9816 9.76561 11.3089 9.88832 11.588 10.087L11.7042 10.1759L11.711 10.1818L11.7178 10.1886C11.8427 10.3216 11.9329 10.4834 11.9815 10.6593C12.0301 10.8351 12.035 11.0201 11.9962 11.1984L11.9952 11.2023C11.8899 11.6295 11.741 12.0448 11.5528 12.4425L11.5538 12.4435L11.461 12.6534C11.9107 12.6975 12.1968 12.7003 12.3253 12.7003H12.334L12.3438 12.7013C12.445 12.7141 12.5384 12.7632 12.6055 12.84C12.6717 12.9156 12.7068 13.013 12.7071 13.1134C12.7117 13.179 12.7011 13.2524 12.6602 13.3243C12.6175 13.3994 12.549 13.4632 12.4561 13.5148L12.4464 13.5197L12.4366 13.5236C12.3289 13.565 12.2162 13.5911 12.1016 13.6046L12.1026 13.6056C11.7161 13.6783 11.3258 13.7289 10.9337 13.7589L9.93756 16.0275L9.93561 16.0265C9.89643 16.126 9.82189 16.207 9.72467 16.2521C9.6246 16.2985 9.50992 16.3036 9.40631 16.2657V16.2648C9.30136 16.2267 9.21509 16.1498 9.16705 16.049C9.11888 15.9478 9.1125 15.8315 9.14948 15.7257L9.83209 13.7531C9.81595 13.752 9.79624 13.7516 9.77448 13.7501C9.71085 13.7457 9.62418 13.7398 9.5235 13.7316C9.32212 13.7152 9.06171 13.6907 8.80768 13.6564C8.55572 13.6223 8.30139 13.5767 8.11627 13.5177C8.02634 13.489 7.93724 13.4521 7.87311 13.4015C7.8403 13.3756 7.80365 13.3382 7.78326 13.2863C7.76089 13.229 7.76367 13.1681 7.78815 13.1134L7.84772 12.9923C7.87135 12.9511 7.89995 12.9099 7.93756 12.8722C8.01597 12.7938 8.11999 12.7416 8.26276 12.7032C8.53884 12.6292 9.02081 12.5918 9.91119 12.5587L9.91608 12.5577V12.5587H10.2432L10.4249 12.0343C10.4525 11.9522 10.537 11.7524 10.6192 11.5499C10.6968 11.3588 10.7724 11.1596 10.8155 11.0197C10.7843 10.9928 10.7315 10.9589 10.6602 10.924C10.5182 10.8544 10.3379 10.7949 10.2081 10.7726V10.7716C9.9323 10.7271 9.63401 10.7034 9.35162 10.6837C9.07248 10.6642 8.80303 10.6498 8.59772 10.6241H8.59674C8.41005 10.5998 7.88348 10.532 7.6651 10.4796L7.66315 10.4786C7.54539 10.4486 7.45002 10.3979 7.38287 10.3263C7.31448 10.2533 7.28286 10.1664 7.27936 10.0812C7.27597 9.99819 7.29966 9.92035 7.336 9.85754C7.37159 9.79605 7.42531 9.73865 7.4942 9.70618L7.51666 9.69543L7.54108 9.6925Z" fill="#1C1C35" stroke="#1C1C35" stroke-width="0.3"/>
<path d="M14.144 0.768799C14.7118 0.681356 15.2916 0.811586 15.767 1.13403L15.7787 1.14185L15.7875 1.15063C15.9357 1.29471 16.0514 1.46936 16.1254 1.66235C16.1994 1.85532 16.2302 2.06261 16.2162 2.2688V3.46313L16.226 3.65259C16.2398 4.09338 16.1845 4.53409 16.061 4.95825L16.058 4.96606C15.9791 5.19424 15.8441 5.39935 15.6655 5.56177C15.4868 5.72409 15.2701 5.83885 15.0356 5.89575C14.6962 6.01628 14.3246 6.01113 13.9887 5.88013C13.6477 5.74707 13.367 5.49378 13.1996 5.16821L13.1957 5.16138L13.1928 5.15259C12.9587 4.53113 12.887 3.86024 12.9848 3.20337C12.9978 3.00833 13.0263 2.81464 13.0707 2.62427L13.1821 2.13403C13.1725 1.83524 13.1934 1.53619 13.2436 1.24146L13.2455 1.23071L13.2485 1.22095C13.2732 1.14347 13.3169 1.07333 13.3754 1.01685C13.434 0.960333 13.506 0.918678 13.5844 0.896729L13.5922 0.894775H13.5932C13.6746 0.877074 13.7591 0.88748 13.8344 0.922119C13.845 0.909021 13.8555 0.895806 13.8676 0.884033C13.9076 0.845229 13.9553 0.814347 14.0073 0.794189C14.0508 0.777319 14.0974 0.770392 14.144 0.768799ZM14.0414 2.11353C14.0248 2.31079 14.008 2.50638 13.9955 2.65259C13.9893 2.72568 13.9836 2.78684 13.9799 2.82935C13.9781 2.8506 13.977 2.86778 13.976 2.87915C13.9755 2.88465 13.9753 2.88898 13.975 2.89185C13.9749 2.89312 13.9741 2.89406 13.9741 2.89478L13.9643 3.08521C13.9519 3.46823 13.9869 3.85125 14.0678 4.22583L14.1118 4.41235L14.1127 4.41724C14.1272 4.4826 14.1565 4.54415 14.1977 4.59692C14.2389 4.64967 14.2912 4.69297 14.351 4.7229C14.4108 4.75277 14.4766 4.76846 14.5434 4.76978C14.6103 4.77106 14.6768 4.75734 14.7377 4.72974L14.7514 4.72388L14.7651 4.72095C14.8787 4.69357 14.9357 4.58604 14.9975 4.37427C15.0677 4.07445 15.1022 3.76717 15.1 3.45923V3.44458L15.102 3.42993C15.1975 2.92671 15.233 2.41416 15.2084 1.90259C15.1797 1.81564 15.1182 1.74371 14.978 1.68872C14.8212 1.62737 14.5776 1.59206 14.2084 1.59204H14.2065C14.1652 1.59161 14.1244 1.58459 14.0854 1.57251C14.073 1.72488 14.0578 1.92018 14.0414 2.11353Z" fill="#1C1C35" stroke="#1C1C35" stroke-width="0.3"/>
<path d="M10.8336 2.34955C11.163 2.34957 11.4388 2.3778 11.7076 2.40814C11.8423 2.42334 11.9746 2.43961 12.1119 2.45306L12.5475 2.48334L12.5631 2.48431L12.5778 2.48822C12.7102 2.52134 12.8059 2.60065 12.8531 2.71088C12.8975 2.81456 12.8919 2.92718 12.8639 3.0224C12.8355 3.11862 12.7803 3.21098 12.7076 3.28119C12.6374 3.34907 12.5406 3.40314 12.4264 3.40619L12.4274 3.40814C11.8531 3.44916 11.4899 3.49994 10.9078 3.49994H8.8092C8.47582 3.48262 8.25504 3.43472 8.06409 3.39252C7.87583 3.35091 7.72355 3.31636 7.50842 3.31635H7.4928C7.32425 3.29905 7.19954 3.26673 7.11389 3.21185C7.0684 3.18267 7.03107 3.14519 7.00647 3.09857C6.9838 3.05547 6.97722 3.01237 6.9762 2.97552L6.97522 2.9765C6.97509 2.97457 6.97629 2.97258 6.9762 2.97064C6.97618 2.96933 6.97522 2.96803 6.97522 2.96674H6.9762C6.97221 2.84678 7.03893 2.72231 7.13928 2.6308C7.24694 2.53268 7.40443 2.46023 7.60706 2.44427V2.44232C8.12445 2.37886 8.64536 2.34785 9.16663 2.34955H10.8336Z" fill="#1C1C35" stroke="#1C1C35" stroke-width="0.3"/>
<path d="M1.49268 2.50354C1.96281 2.4017 2.44768 2.38903 2.92139 2.46545L3.12354 2.50354L3.14014 2.50745L3.15576 2.51428C3.22758 2.54838 3.28681 2.60455 3.32471 2.67444C3.36255 2.74445 3.37747 2.82509 3.3667 2.90393C3.35588 2.98278 3.32041 3.05663 3.26514 3.11389C3.20988 3.17106 3.13741 3.20871 3.05908 3.22229L3.04248 3.22522L3.02588 3.22424C2.68458 3.20707 2.3423 3.24013 2.01025 3.32092L1.99463 3.32483H1.97803C1.8332 3.3283 1.69155 3.3695 1.56787 3.44495C1.45003 3.51684 1.35265 3.61761 1.28369 3.73694C1.0396 4.89877 0.915151 6.08221 0.909668 7.26917C1.86763 7.23095 4.33412 7.14041 7.14893 7.11682H12.8022C15.4524 7.16486 17.813 7.25559 19.0825 7.26331C19.0407 6.40428 18.9787 5.62626 18.9009 5.01917L18.8999 5.00647C18.8811 4.60029 18.7787 4.20266 18.6001 3.83752C18.3409 3.57162 17.9935 3.40893 17.6226 3.38245H17.6147L17.6079 3.38147C17.3416 3.33584 17.0715 3.31431 16.8013 3.31702H16.8003C16.5907 3.31702 16.3836 3.17373 16.3755 2.95764C16.3713 2.84576 16.4253 2.74311 16.52 2.66858C16.6115 2.59674 16.7409 2.54897 16.9038 2.526L16.9155 2.52502L17.2261 2.51819C17.5366 2.52382 17.846 2.56652 18.147 2.64612L18.146 2.64709C18.5806 2.73865 18.9761 2.96265 19.2769 3.28967L19.2808 3.29456C19.3668 3.39567 19.4359 3.55504 19.4956 3.7428C19.5569 3.93548 19.6136 4.17625 19.6655 4.45471C19.7695 5.012 19.8576 5.73273 19.9292 6.54749C20.0723 8.17691 20.1498 10.1947 20.1499 12.0641L20.1538 12.7184C20.1446 14.2457 20.0086 15.7704 19.7476 17.276C19.6932 17.6028 19.5246 17.8996 19.272 18.1139L19.2593 18.1246L19.2446 18.1324C18.451 18.5497 17.5822 18.8037 16.689 18.8815L16.6899 18.8824C14.7457 19.0723 12.7909 19.1366 10.8384 19.0748C10.067 19.075 8.93795 19.1374 7.7085 19.1813C6.48189 19.225 5.16031 19.25 4.02295 19.1744H4.021C3.29017 19.1156 2.62885 19.0105 2.09131 18.8502C1.55853 18.6913 1.12603 18.4718 0.876465 18.1705L0.875488 18.1696C0.707121 17.9637 0.567297 17.6517 0.449707 17.2711C0.331124 16.8874 0.231356 16.4207 0.148926 15.8951C-0.015976 14.8438 -0.112828 13.545 -0.14209 12.1783C-0.179689 10.2984 -0.114381 8.29749 0.000488281 6.67053C0.0579187 5.85713 0.128257 5.13537 0.20459 4.56799C0.279892 4.00834 0.363285 3.58014 0.453613 3.36682L0.45459 3.36389C0.549905 3.15099 0.693101 2.96212 0.872559 2.81311C1.0519 2.66428 1.26316 2.55906 1.48975 2.50452L1.49268 2.50354ZM0.887207 8.06995C0.858091 9.08635 0.854724 10.1033 0.876465 11.1198L0.907715 12.1862V12.1871C0.94514 13.4221 1.02418 14.5949 1.16357 15.5387C1.23328 16.0106 1.31789 16.4219 1.41846 16.7535C1.49459 17.0046 1.57773 17.202 1.66553 17.3444L1.75537 17.4684L1.75635 17.4703C1.89671 17.6373 2.17731 17.7627 2.59717 17.8512C3.01027 17.9383 3.52584 17.9839 4.1001 18.0172C5.21288 18.0834 6.51096 18.0524 7.72607 18.0045C8.93665 17.9568 10.0707 17.8913 10.8413 17.8912C11.6489 17.8912 13.7872 17.9668 15.729 17.8092L15.7388 17.8082L16.1099 17.7936C16.953 17.7393 17.7817 17.5465 18.5649 17.2262C18.6838 16.9135 18.7669 16.5885 18.8091 16.2565C19.0248 14.3934 19.1245 12.5187 19.1079 10.6432V10.6344C19.1469 9.77712 19.1132 8.90541 19.1089 8.10413C17.8463 8.13923 15.466 8.21043 12.8022 8.25842H7.14697C4.26218 8.20295 1.84334 8.08267 0.887207 8.06995Z" fill="#1C1C35" stroke="#1C1C35" stroke-width="0.3"/>
<path d="M4.74445 0.826294C5.24254 0.75123 5.74937 0.844714 6.18585 1.08801L6.36847 1.20129L6.37921 1.20911L6.388 1.2179C6.53499 1.36252 6.65013 1.53707 6.72394 1.72961C6.79771 1.9221 6.82935 2.12836 6.81671 2.33411V3.54211C6.85891 4.0478 6.80634 4.55699 6.66046 5.04309L6.65851 5.04895C6.57943 5.27895 6.44272 5.48479 6.26202 5.64758C6.08129 5.81039 5.86232 5.9249 5.62531 5.97961L5.62433 5.97864C5.2856 6.09825 4.91545 6.09467 4.58038 5.96399C4.23936 5.83096 3.95866 5.57764 3.79132 5.25208L3.78546 5.23938L3.78156 5.22571C3.58537 4.56461 3.51831 3.87209 3.58429 3.18567V3.17688H3.58527L3.64191 2.80774V2.5929L3.64484 2.57825L3.7337 2.14563C3.74433 1.8609 3.78154 1.57772 3.84503 1.29993L3.84796 1.28723H3.84894C3.87375 1.20986 3.9174 1.13953 3.97589 1.08313C4.03446 1.02673 4.10658 0.985911 4.18488 0.963989L4.19269 0.96106C4.27374 0.943331 4.35778 0.954235 4.43292 0.988403C4.4434 0.975036 4.45399 0.961475 4.46613 0.949341C4.54056 0.874962 4.63988 0.833724 4.74445 0.828247V0.826294ZM4.63312 2.19153C4.61644 2.38848 4.59972 2.58401 4.58722 2.72961C4.581 2.80204 4.57523 2.86221 4.57159 2.90442C4.56977 2.92557 4.56867 2.94291 4.56769 2.95422C4.56721 2.95973 4.56696 2.96405 4.56671 2.96692C4.5666 2.96819 4.5658 2.96913 4.56573 2.96985L4.55597 3.16125C4.54277 3.54394 4.57684 3.9268 4.65851 4.3009L4.70343 4.48645L4.70441 4.49231C4.7189 4.55767 4.74818 4.61922 4.78937 4.672C4.83054 4.72473 4.88284 4.76805 4.94269 4.79797C5.00245 4.82784 5.06828 4.84352 5.13507 4.84485C5.20195 4.84613 5.26846 4.83239 5.32941 4.80481L5.34308 4.79895L5.35675 4.79602C5.46964 4.76885 5.52752 4.66094 5.57941 4.46204C5.6489 4.16033 5.68362 3.85173 5.68292 3.54211V3.52747L5.68585 3.51282C5.78408 3.00995 5.82198 2.49733 5.80011 1.98547C5.77133 1.89878 5.71043 1.82649 5.57062 1.77161C5.4139 1.71017 5.16955 1.67494 4.80011 1.67493C4.75821 1.67486 4.71662 1.66767 4.67706 1.6554C4.66468 1.80745 4.64928 2.00056 4.63312 2.19153Z" fill="#1C1C35" stroke="#1C1C35" stroke-width="0.3"/>
</g>
<defs>
<clipPath id="clip0_605_200">
<rect width="20" height="20" fill="white"/>
</clipPath>
</defs>
</svg>
