<svg width="20" height="20" viewBox="0 0 20 20" fill="none" xmlns="http://www.w3.org/2000/svg">
<g clip-path="url(#clip0_605_232)">
<path d="M4.17041 0.541809L4.16943 0.542786C5.34021 0.539293 6.50646 0.688145 7.63818 0.988098L7.64111 0.989075C7.77762 1.02819 7.90493 1.0956 8.01416 1.18634C8.09587 1.25426 8.16626 1.33441 8.22314 1.42365L8.27588 1.51642L8.28467 1.53497L8.28857 1.55548C8.49471 2.64671 8.6072 3.75369 8.62451 4.86407C8.70619 5.98541 8.67491 7.1122 8.53174 8.22736L8.52979 8.24884L8.521 8.2674C8.45117 8.42988 8.34508 8.57458 8.21045 8.68927C8.07609 8.80372 7.91673 8.88437 7.74561 8.92755L7.74658 8.92853C7.12282 9.0947 6.48091 9.18352 5.83545 9.1922L5.83447 9.19122C4.44178 9.24629 3.04698 9.20218 1.66064 9.05841L1.33252 9.03009C1.00642 8.98701 0.687195 8.89974 0.383301 8.7713L0.359863 8.76154L0.341309 8.74493C0.21497 8.63147 0.120785 8.48797 0.0668945 8.32892L0.0268555 8.16486C-0.102392 7.32959 -0.161522 6.48459 -0.149902 5.63947C-0.149848 4.75394 -0.118437 3.80212 -0.050293 3.02423C-0.0162236 2.63539 0.0273752 2.28688 0.081543 2.01056C0.108616 1.87246 0.13829 1.74941 0.172363 1.64728C0.203138 1.55505 0.241116 1.47004 0.288574 1.40509L0.335449 1.33771C0.454595 1.18575 0.641429 1.06624 0.858887 0.97052C1.11109 0.859518 1.42441 0.772185 1.77295 0.705872C2.47058 0.573141 3.32968 0.520791 4.17041 0.541809ZM3.40869 1.492C2.75942 1.45766 2.10801 1.50156 1.46924 1.62286L1.4585 1.62482V1.62384C1.30956 1.64101 1.16826 1.69597 1.04736 1.78204L1.0376 1.82501C0.852051 2.62901 0.791637 3.45763 0.85791 4.28009L0.858887 4.29279L0.708496 4.29181L0.85791 4.29279C0.852452 5.35312 0.913042 6.41276 1.03857 7.46564C1.07848 7.57731 1.12484 7.68646 1.17529 7.79376C1.2389 7.81462 1.30346 7.83209 1.36963 7.84259C2.13007 7.91975 2.89435 7.95905 3.65869 7.9588H3.6626C4.7942 7.99045 5.92636 7.92602 7.04736 7.76837C7.11041 7.75623 7.17595 7.72565 7.25049 7.68732C7.28244 7.67088 7.31939 7.65175 7.354 7.63654C7.39036 6.9391 7.38799 6.23973 7.34229 5.54279L7.34131 5.53497C7.33089 4.45543 7.324 3.69308 7.30908 3.15314C7.29404 2.60904 7.27157 2.30331 7.23389 2.1297C7.21516 2.04345 7.19534 2.00537 7.18311 1.98907C7.17585 1.97946 7.17007 1.97496 7.15283 1.97052C7.12505 1.9634 7.09151 1.96209 7.02197 1.95685C6.95928 1.95211 6.88118 1.94327 6.79053 1.91974V1.92072C5.68345 1.65789 4.5512 1.51457 3.41357 1.492H3.40869Z" fill="#1C1C35" stroke="#1C1C35" stroke-width="0.3"/>
<path d="M4.29211 10.7829C5.4558 10.7833 6.61448 10.9364 7.7384 11.238L7.83997 11.2712C7.94013 11.3096 8.03345 11.3644 8.11633 11.4333C8.19906 11.502 8.27026 11.5833 8.32629 11.6745L8.37708 11.7692L8.38586 11.7868L8.38879 11.8054C8.59334 12.8995 8.70352 14.0097 8.71692 15.1227C8.79831 16.2412 8.76745 17.365 8.62415 18.4772L8.62122 18.4968L8.6134 18.5153C8.54587 18.6801 8.44034 18.8266 8.30481 18.9421C8.17002 19.0569 8.00932 19.1367 7.83704 19.1774L7.83801 19.1784C7.21185 19.3436 6.56843 19.4337 5.92102 19.4489L5.922 19.4499C4.52486 19.5015 3.12548 19.4569 1.7345 19.3161V19.3151C1.31943 19.2968 0.909922 19.213 0.521606 19.0651L0.495239 19.0554L0.474731 19.0368C0.306223 18.8855 0.195256 18.6805 0.160278 18.4567V18.4557C0.0318128 17.6206 -0.0273568 16.7762 -0.0164795 15.9313C-0.0247379 15.0533 0.00639005 14.1062 0.0723877 13.3278C0.105398 12.9385 0.146894 12.5889 0.197388 12.3102C0.222605 12.1711 0.250769 12.0472 0.281372 11.944C0.31032 11.8465 0.34529 11.7579 0.387817 11.6911H0.386841C0.499243 11.4977 0.705887 11.3523 0.954224 11.2399C1.20551 11.1262 1.51794 11.0382 1.86633 10.9714C2.5636 10.8377 3.42821 10.7829 4.29114 10.7829H4.29211ZM3.5929 11.7585C2.94432 11.7262 2.29373 11.7718 1.65637 11.8962C1.51317 11.929 1.39589 11.962 1.30579 12.0016C1.22615 12.0367 1.18208 12.0737 1.15637 12.1071C0.979649 12.9018 0.920408 13.7181 0.982544 14.53L0.983521 14.5427C0.975981 15.588 1.02718 16.6331 1.13879 17.6725C1.16374 17.7942 1.19903 17.9133 1.24133 18.03C1.30211 18.0495 1.3638 18.0658 1.42688 18.0759L1.88098 18.1208C2.38544 18.1602 3.02936 18.1833 3.70813 18.1833H3.71301C4.84896 18.2207 5.98621 18.1624 7.11243 18.0095L7.20618 17.9831C7.23872 17.9703 7.27281 17.9537 7.30969 17.9352C7.34296 17.9186 7.38304 17.8988 7.41907 17.8835H7.41809C7.4895 17.1944 7.52589 16.5021 7.52454 15.8093C7.51412 14.7027 7.50657 13.926 7.49036 13.3806C7.47401 12.831 7.44952 12.5295 7.41125 12.363C7.39224 12.2803 7.37306 12.2493 7.36438 12.239C7.36181 12.2359 7.36099 12.2331 7.3429 12.2302C7.31246 12.2253 7.28191 12.2268 7.20911 12.2253C7.14458 12.2239 7.0649 12.2185 6.97278 12.195C5.86634 11.9291 4.73446 11.7834 3.5968 11.7585H3.5929Z" fill="#1C1C35" stroke="#1C1C35" stroke-width="0.3"/>
<path d="M14.3252 1.47467C14.6819 1.47467 15.0361 1.48575 15.3877 1.49615C15.7401 1.50658 16.0899 1.51666 16.4414 1.51666H16.4541V1.51764L18.6543 1.70026L18.6611 1.70123L19.6631 1.83405L19.6699 1.83502H19.6689C19.7314 1.84255 19.7738 1.88006 19.7949 1.9024C19.8198 1.92879 19.8395 1.95961 19.8545 1.98932C19.8847 2.04947 19.9072 2.12542 19.9141 2.20319C19.9208 2.28038 19.9133 2.37286 19.8701 2.45709C19.8242 2.54673 19.7432 2.61618 19.6289 2.64557L19.6104 2.65045H18.625V2.64948L16.4512 2.78326H15.0234C14.6706 2.77906 14.3178 2.76271 13.9678 2.74713C13.6167 2.73151 13.2673 2.71687 12.917 2.71686H12.9131L10.2959 2.65045V2.64948C10.178 2.6484 10.0649 2.60204 9.98145 2.51862C9.8971 2.43427 9.84966 2.31953 9.84961 2.20026C9.84961 2.081 9.89718 1.96627 9.98145 1.8819C10.063 1.80032 10.1731 1.75409 10.2881 1.75104V1.75006L12.8965 1.54205H12.9004C13.3681 1.51744 13.845 1.47467 14.3252 1.47467Z" fill="#1C1C35" stroke="#1C1C35" stroke-width="0.3"/>
<path d="M16.5242 11.7747L16.5311 11.7757L18.7313 11.9925L18.9969 12.0228C19.2496 12.057 19.4631 12.1021 19.6297 12.1526C19.7401 12.1861 19.8354 12.2236 19.909 12.2659C19.9748 12.3038 20.0557 12.3633 20.0848 12.4544C20.1014 12.5066 20.098 12.5619 20.075 12.6126C20.0536 12.6597 20.0189 12.6949 19.9852 12.72C19.9196 12.7687 19.8276 12.8033 19.7225 12.8304C19.5076 12.8856 19.1772 12.9214 18.7225 12.9319L18.7234 12.9329L16.5477 13.0247L16.5418 13.0257V13.0247H15.1229C14.77 13.0205 14.4172 13.0042 14.0672 12.9886C13.7161 12.973 13.3668 12.9583 13.0164 12.9583H13.0125L10.4969 12.886L10.4803 12.9261L10.4002 12.9398C10.3357 12.9506 10.269 12.9473 10.2059 12.93C10.1429 12.9127 10.0848 12.8813 10.035 12.8392C9.98502 12.7969 9.94434 12.7442 9.91681 12.6849C9.88948 12.6258 9.87488 12.5615 9.87482 12.4964C9.87482 12.4311 9.8894 12.3662 9.91681 12.3069C9.94434 12.2476 9.98502 12.1949 10.035 12.1526C10.0848 12.1105 10.1429 12.0791 10.2059 12.0618C10.2596 12.0471 10.3157 12.0444 10.3709 12.0501L12.9647 11.8353C13.4502 11.7756 13.9266 11.7747 14.4002 11.7747H16.5242Z" fill="#1C1C35" stroke="#1C1C35" stroke-width="0.3"/>
<path d="M16.4492 4.28302L16.456 4.284L18.665 4.50079H18.6689L19.6689 4.62579L19.6767 4.62775C19.7371 4.63873 19.7774 4.67711 19.7978 4.70001C19.8213 4.72647 19.8407 4.75693 19.8554 4.78693C19.8851 4.84746 19.9072 4.92387 19.914 5.00177C19.9207 5.07861 19.9138 5.17092 19.8701 5.2547C19.8231 5.34451 19.7399 5.41202 19.6249 5.43829L19.6083 5.4422H18.6249V5.44122L16.4482 5.53302L16.4413 5.534V5.53302H15.0234C14.6705 5.52882 14.3177 5.51247 13.9687 5.49689C13.6186 5.48126 13.271 5.46661 12.9247 5.46661H12.9208L10.4501 5.39532V5.42657L10.3251 5.44806C10.2606 5.45892 10.1939 5.45559 10.1308 5.43829C10.0678 5.42098 10.0098 5.38964 9.9599 5.34747C9.90995 5.30523 9.86927 5.25252 9.84174 5.19318C9.8144 5.1341 9.79981 5.0698 9.79974 5.0047C9.79974 4.93943 9.81432 4.87448 9.84174 4.81525C9.86927 4.7559 9.90995 4.70319 9.9599 4.66095C10.0098 4.6188 10.0678 4.58744 10.1308 4.57013C10.1845 4.5554 10.2406 4.55275 10.2958 4.55841L12.8896 4.34357C13.3752 4.28393 13.8599 4.28302 14.3251 4.28302H16.4492Z" fill="#1C1C35" stroke="#1C1C35" stroke-width="0.3"/>
<path d="M14.4252 14.4922C14.7825 14.4881 15.1374 14.4984 15.4887 14.5098C15.8414 14.5213 16.1905 14.5333 16.5414 14.5333H16.5493L16.5561 14.5342L18.7563 14.7422L18.7612 14.7432L19.77 14.876L19.769 14.877C19.8313 14.8846 19.8739 14.9211 19.895 14.9434C19.92 14.9699 19.9395 15.0015 19.9545 15.0313C19.9848 15.0913 20.0073 15.1668 20.0141 15.2442C20.0209 15.3208 20.013 15.4125 19.9692 15.4962C19.9222 15.5857 19.84 15.6535 19.725 15.6797L19.7084 15.6837H18.7162V15.6827L16.5483 15.7745L16.5414 15.7755V15.7745H15.1235C14.7706 15.7703 14.4178 15.7539 14.0678 15.7383C13.7168 15.7227 13.3674 15.7081 13.017 15.7081H13.0131L10.5502 15.6456V15.6671H10.3998C10.2806 15.667 10.1658 15.6196 10.0815 15.5352C9.99715 15.4509 9.94971 15.3361 9.94965 15.2169C9.94965 15.0976 9.99723 14.9829 10.0815 14.8985C10.1631 14.8169 10.2731 14.7707 10.3881 14.7676V14.7667L12.9965 14.5587C13.4799 14.4916 13.9534 14.4922 14.4233 14.4922V14.4913L14.4243 14.4922H14.4252Z" fill="#1C1C35" stroke="#1C1C35" stroke-width="0.3"/>
<path d="M14.4163 7.09222C15.1187 7.05109 15.8402 7.09124 16.5247 7.09125H16.5394L16.5247 7.24164L16.5394 7.09222L18.7474 7.30023L18.7532 7.30121L19.7532 7.435L19.7601 7.43597C19.8205 7.44696 19.8608 7.48534 19.8812 7.50824C19.9047 7.5347 19.924 7.56516 19.9388 7.59515C19.9685 7.65569 19.9905 7.73209 19.9974 7.81C20.0041 7.88684 19.9972 7.97916 19.9534 8.06293C19.9064 8.15274 19.8233 8.22025 19.7083 8.24652L19.6917 8.24945H18.7142L16.5316 8.34125H15.1068C14.7539 8.33705 14.4011 8.3207 14.0521 8.30511C13.7019 8.28948 13.3544 8.27484 13.0081 8.27484H13.0042L10.5335 8.20355V8.2182L10.4085 8.23969C10.344 8.25055 10.2773 8.24721 10.2142 8.22992C10.1512 8.21262 10.0931 8.18125 10.0433 8.1391C9.99332 8.09686 9.95264 8.04414 9.92511 7.9848C9.89769 7.92556 9.88312 7.86063 9.88312 7.79535C9.88318 7.73007 9.89763 7.66511 9.92511 7.6059C9.95264 7.54669 9.99341 7.49474 10.0433 7.45258C10.0931 7.41041 10.1512 7.37907 10.2142 7.36176C10.266 7.34756 10.32 7.3443 10.3734 7.34906L12.973 7.15179C13.4585 7.09217 13.9429 7.09125 14.4163 7.09125V7.09222Z" fill="#1C1C35" stroke="#1C1C35" stroke-width="0.3"/>
<path d="M14.5502 17.309C14.9075 17.3049 15.2624 17.3152 15.6137 17.3266C15.9664 17.3381 16.3155 17.35 16.6664 17.35H16.6791V17.351L18.8373 17.5258H18.8452V17.5268L19.853 17.6596L19.852 17.6606C19.8612 17.6617 19.8682 17.6626 19.8715 17.6635C19.8782 17.6653 19.8838 17.6672 19.8871 17.6684C19.8938 17.6709 19.8997 17.6737 19.9028 17.6752C19.9092 17.6784 19.9156 17.6812 19.9203 17.684C19.9304 17.6899 19.9416 17.698 19.9536 17.7065C19.9774 17.7234 20.0081 17.7475 20.0375 17.7778C20.0863 17.828 20.1793 17.9445 20.1362 18.0912C20.094 18.2344 19.9468 18.3171 19.7612 18.3705C19.5634 18.4274 19.263 18.467 18.8168 18.4819L18.8178 18.4828L16.6762 18.6166H15.2485C14.8956 18.6124 14.5428 18.5961 14.1938 18.5805C13.8437 18.5649 13.4961 18.5502 13.1498 18.5502H13.1459L10.5209 18.4838V18.4828C10.4031 18.4818 10.2899 18.4354 10.2065 18.352C10.1221 18.2677 10.0747 18.1529 10.0746 18.0336C10.0746 17.9144 10.1222 17.7996 10.2065 17.7153C10.2878 17.6339 10.3975 17.5877 10.5121 17.5844V17.5834L13.1147 17.3686C13.5997 17.309 14.0753 17.309 14.5483 17.309V17.308L14.5493 17.309H14.5502Z" fill="#1C1C35" stroke="#1C1C35" stroke-width="0.3"/>
</g>
<defs>
<clipPath id="clip0_605_232">
<rect width="20" height="20" fill="white"/>
</clipPath>
</defs>
</svg>
