<svg width="20" height="20" viewBox="0 0 20 20" fill="none" xmlns="http://www.w3.org/2000/svg">
<g clip-path="url(#clip0_605_208)">
<path d="M2.29193 -0.0834961L2.29095 -0.0825195C3.25463 -0.0656427 4.16847 -0.0176389 5.13763 -0.0424805H6.35834V-0.0405273C6.40916 -0.0446628 6.46057 -0.0418613 6.5097 -0.027832C6.56455 -0.0121175 6.61575 0.0144031 6.6601 0.050293C6.70461 0.0863849 6.74171 0.131467 6.76849 0.182129C6.79522 0.232707 6.81156 0.288209 6.81635 0.345215H6.81537C6.82797 0.453857 6.79944 0.563523 6.73334 0.650879C6.66587 0.740011 6.56564 0.798917 6.45502 0.814941H6.45306C5.90582 0.888457 5.34478 0.980809 4.82611 0.981934L4.82709 0.98291C4.40921 1.01216 3.99152 1.0352 3.57513 1.05811C3.15828 1.08103 2.74245 1.10325 2.32709 1.13232L2.3222 1.1333V1.13232C1.85591 1.15107 1.54712 1.17811 1.34369 1.21924C1.13481 1.26151 1.07585 1.31214 1.0556 1.34424C1.03238 1.38123 1.0253 1.4431 1.04291 1.59912C1.05895 1.74124 1.09174 1.94084 1.09174 2.18311V2.18701L0.983337 6.23682L0.982361 6.23584C0.983087 6.28788 0.975091 6.33972 0.955994 6.38818C0.935893 6.43914 0.904872 6.48518 0.86615 6.52393C0.827401 6.56268 0.781383 6.59366 0.730408 6.61377C0.681032 6.63325 0.628167 6.64125 0.575134 6.64014V6.64111L0.572205 6.64014L0.570251 6.64111V6.64014C0.465942 6.63896 0.366005 6.59851 0.290955 6.52588C0.216393 6.45362 0.171883 6.356 0.166931 6.25244L-0.149475 2.21143V2.20654C-0.167709 1.81355 -0.150961 1.41971 -0.0986938 1.02979V1.02881C-0.0702794 0.830418 0.00874712 0.641875 0.130798 0.48291L0.139587 0.472168L0.299744 0.322754C0.468573 0.184666 0.664615 0.0819568 0.875916 0.0219727L0.885681 0.019043L1.23431 -0.0415039C1.58428 -0.0905387 1.93859 -0.104461 2.29193 -0.0834961Z" fill="#1C1C35" stroke="#1C1C35" stroke-width="0.3"/>
<path d="M17.9774 -0.108032L17.9764 -0.107056C18.401 -0.103684 18.8215 -0.0300525 19.2205 0.112671L19.3904 0.178101L19.3992 0.18103L19.407 0.185913C19.6499 0.323216 19.8373 0.539161 19.9393 0.796265L19.9774 0.908569L19.9803 0.919312L20.033 1.23474C20.0729 1.54842 20.0749 1.86596 20.0408 2.18103L19.8748 5.84021L19.8738 5.83923C19.8742 5.89469 19.865 5.94972 19.8445 6.00134C19.8228 6.05625 19.7896 6.10605 19.7479 6.14783C19.7061 6.18961 19.6563 6.22271 19.6014 6.24451C19.5465 6.26626 19.4875 6.27654 19.4285 6.27478C19.3718 6.27311 19.316 6.26025 19.2645 6.23669C19.2128 6.21304 19.1661 6.17899 19.1277 6.13708C19.0893 6.09505 19.0598 6.04528 19.0408 5.99158C19.0236 5.94293 19.0152 5.89171 19.0164 5.84021V5.84119L18.8172 2.15759L18.8162 2.14783L18.8172 2.13806C18.8357 1.90769 18.8357 1.67605 18.8172 1.44568V1.44373C18.8151 1.41447 18.8137 1.37684 18.8123 1.35388C18.8107 1.32693 18.8085 1.30627 18.8055 1.28943C18.8041 1.28155 18.8008 1.27591 18.7996 1.27185C18.5118 1.17099 18.2101 1.11482 17.9051 1.10779H17.8943C17.2527 1.04946 16.5504 1.00037 16.158 1.00037H14.7928C14.4714 1.04114 14.1602 1.04138 13.8914 1.04138V1.04041C13.7928 1.04708 13.695 1.0188 13.617 0.957397C13.5351 0.892906 13.4813 0.798941 13.4676 0.695679L13.4647 0.616577C13.4662 0.590275 13.4707 0.564068 13.4774 0.538452C13.4908 0.487097 13.5144 0.439018 13.5467 0.396851C13.579 0.354684 13.6188 0.318777 13.6649 0.292358C13.7108 0.266 13.7617 0.249145 13.8143 0.242554H13.8152L16.1151 -0.0406494L16.1199 -0.041626V-0.0406494C16.7374 -0.0974942 17.3574 -0.120084 17.9774 -0.108032Z" fill="#1C1C35" stroke="#1C1C35" stroke-width="0.3"/>
<path d="M0.311462 13.6755C0.3651 13.6737 0.418614 13.6826 0.468689 13.7019C0.518769 13.7212 0.564887 13.7505 0.603455 13.7878C0.641805 13.825 0.672432 13.8695 0.693298 13.9187C0.712667 13.9644 0.721134 14.0137 0.722595 14.0632H0.724548C0.749339 14.3814 0.799209 14.839 0.852478 15.3445C0.905595 15.8486 0.962252 16.3989 0.999939 16.8972H0.998962C1.07415 17.3969 1.07513 17.8526 1.07513 18.1667V18.1687C1.07288 18.3313 1.06453 18.4356 1.06927 18.5281C1.07371 18.6141 1.08955 18.6504 1.10931 18.6736C1.13146 18.6994 1.1807 18.7344 1.30658 18.7673C1.43146 18.8 1.61127 18.8255 1.87201 18.8503H1.87103C2.41825 18.8878 2.96737 18.8879 3.51459 18.8503L3.52533 18.8494V18.8503H6.38373V18.9089C6.4394 18.9257 6.49159 18.9539 6.53705 18.9919C6.62536 19.0659 6.68122 19.1721 6.69135 19.2869C6.70147 19.4016 6.66566 19.5159 6.59174 19.6042C6.51784 19.6924 6.41141 19.7464 6.29681 19.7566L6.29779 19.7576L3.62787 20.0232C3.02799 20.1164 2.4214 20.1593 1.81439 20.1501H1.81342C1.30943 20.1379 0.816931 19.9926 0.387634 19.7283L0.379822 19.7234L0.372986 19.7175C0.177521 19.5617 0.0393048 19.345 -0.0205688 19.1023L-0.0195923 19.1013C-0.102297 18.7941 -0.147467 18.478 -0.150452 18.1599V18.156L-0.0752563 14.0808C-0.074735 13.978 -0.0352071 13.8786 0.0350952 13.8035C0.105961 13.7278 0.203162 13.6823 0.30658 13.6755H0.311462Z" fill="#1C1C35" stroke="#1C1C35" stroke-width="0.3"/>
<path d="M19.4497 13.0996C19.5557 13.0996 19.6579 13.1418 19.7329 13.2168C19.8045 13.2883 19.8444 13.3846 19.8481 13.4854H19.8491L20.1489 16.4512L20.1499 16.457C20.1827 16.9876 20.1827 17.5202 20.1499 18.0508C20.1309 18.4748 20.0366 18.8921 19.8716 19.2832L19.8657 19.2959L19.8589 19.3066C19.7061 19.5406 19.4795 19.7175 19.2153 19.8086L19.2036 19.8125C18.8575 19.9001 18.5035 19.9533 18.147 19.9736C17.7004 20.0162 17.2515 20.0311 16.8032 20.0166V20.0156C16.2722 20.0031 15.6896 19.9752 15.1636 19.9492C14.6349 19.9231 14.1658 19.9004 13.8579 19.9004V19.8984C13.8042 19.9005 13.7506 19.8945 13.6997 19.877C13.6458 19.8583 13.5958 19.8289 13.5532 19.791C13.5106 19.7532 13.4755 19.7075 13.4507 19.6562C13.4259 19.605 13.412 19.549 13.4087 19.4922V19.4883C13.4052 19.3732 13.4461 19.2606 13.5239 19.1758C13.6017 19.0909 13.7098 19.0397 13.8247 19.0332C14.141 19.008 14.6182 18.9895 15.144 18.9688C15.6735 18.9479 16.2548 18.9248 16.7817 18.8916H16.7837C17.1773 18.8698 17.5698 18.8265 17.9585 18.7607L17.9614 18.7598C18.1297 18.7345 18.491 18.6771 18.6021 18.6533C18.6356 18.6461 18.6694 18.6412 18.6968 18.6367C18.726 18.632 18.7482 18.6277 18.7671 18.623C18.774 18.6213 18.7794 18.6186 18.7837 18.6172C18.857 18.3858 18.9006 18.146 18.9087 17.9033V17.8955L18.9097 17.8887C18.9849 17.329 19.0503 16.7137 19.0503 16.4502V13.5C19.0503 13.3939 19.0925 13.2918 19.1675 13.2168C19.2424 13.1421 19.3439 13.0997 19.4497 13.0996Z" fill="#1C1C35" stroke="#1C1C35" stroke-width="0.3"/>
<path d="M14.884 3.82458L14.8937 3.82654L15.5519 3.90955L15.7141 3.9408C15.8736 3.98223 16.0245 4.05433 16.1574 4.15369C16.2901 4.25295 16.4017 4.3768 16.4865 4.51794L16.5627 4.66541L16.5685 4.68005L16.5724 4.69568C16.7096 5.37482 16.6888 6.07597 16.5148 6.74646C16.4948 7.12564 16.4381 7.50237 16.3449 7.87048L16.3439 7.87732L16.2004 7.83337L16.343 7.87732C16.2669 8.12621 16.1261 8.3503 15.9348 8.52673L15.9289 8.53259C15.8329 8.61158 15.7221 8.67139 15.6037 8.70935L15.5939 8.71228L15.5842 8.71423C15.3743 8.75138 15.1615 8.76831 14.9484 8.76599L13.5207 8.96521L13.5197 8.96423C12.9262 9.06484 12.3214 9.08006 11.7238 9.0072H11.7209C11.5262 8.9806 11.3402 8.90954 11.1769 8.80017C11.0136 8.69071 10.8772 8.54546 10.7785 8.37537L10.7726 8.3656L10.7687 8.35486C10.7016 8.18357 10.6727 7.99945 10.6838 7.8158C10.6886 7.67759 10.7102 7.52684 10.7297 7.39978C10.7506 7.26328 10.7667 7.16489 10.7668 7.10876V7.10291C10.7753 6.87642 10.7984 6.64005 10.8234 6.40466C10.8486 6.1678 10.8754 5.93164 10.8918 5.69763C10.9086 5.45823 10.9301 5.22098 10.9553 4.98474L11.0432 4.27869C11.0494 4.20174 11.0782 4.12849 11.1262 4.06775C11.1773 4.00309 11.2471 3.95543 11.3264 3.93298C11.4056 3.91057 11.4902 3.91447 11.5676 3.94275C11.6115 3.95884 11.6515 3.98302 11.6867 4.01306C11.9399 3.9649 12.1949 3.92656 12.4514 3.90076C12.9371 3.82492 13.4287 3.82458 13.8332 3.82458H14.884ZM13.7746 4.79919L12.4455 4.80017L12.2414 4.80896C12.0796 4.81899 11.9183 4.83617 11.758 4.86072V7.87048C11.7624 7.87456 11.7674 7.87794 11.7717 7.8822C11.7768 7.8873 11.7817 7.89289 11.7863 7.89783C11.936 7.91516 12.0872 7.91442 12.2365 7.89294L12.2482 7.89197L12.5139 7.86951C12.779 7.84284 13.0432 7.80339 13.3049 7.75232H13.3088L14.7414 7.51013L14.7492 7.50916L14.8859 7.4906C14.9224 7.4844 14.9509 7.47783 14.9748 7.46912C15.0121 7.45544 15.0361 7.43839 15.0598 7.40076C15.0883 7.35529 15.1166 7.27837 15.1486 7.14197C15.1802 7.00753 15.2125 6.82827 15.2521 6.58435L15.2531 6.57556L15.256 6.56677C15.3866 6.11799 15.4623 5.65479 15.4826 5.18787C15.479 5.13562 15.4583 5.08609 15.423 5.04724C15.387 5.00758 15.3383 4.9811 15.2853 4.97302H15.2814V4.97205L14.7463 4.87341L13.7746 4.79919Z" fill="#1C1C35" stroke="#1C1C35" stroke-width="0.3"/>
<path d="M7.39307 10.8181C7.65996 10.8126 7.92616 10.838 8.18604 10.8962L8.44482 10.9646L8.45166 10.9675L8.60889 11.0378C8.76004 11.1184 8.89339 11.2297 9.00049 11.365L9.00244 11.3669C9.07407 11.4607 9.12657 11.5674 9.15771 11.6804L9.18213 11.7957L9.18311 11.8054L9.19287 12.0623C9.19288 12.1437 9.18881 12.2251 9.18311 12.3064L9.2583 13.6169H9.25732C9.29522 14.018 9.29561 14.422 9.25732 14.823V14.8279C9.22583 15.0668 9.14486 15.2966 9.02002 15.5027L9.01807 15.5066C8.89743 15.693 8.70763 15.8244 8.49072 15.8718L8.48193 15.8738H8.47314C8.3075 15.8906 8.14085 15.8901 7.9751 15.8748L6.6792 15.9832L6.67822 15.9822L5.56006 16.1238L5.55225 16.1248L4.71924 16.1833H4.71631C4.46796 16.1965 4.21883 16.1758 3.97607 16.1218L3.97412 16.1208C3.80419 16.0805 3.64727 15.9954 3.521 15.8748L3.51416 15.8679C3.41098 15.7549 3.34483 15.6126 3.32568 15.4607V15.4568C3.30531 15.2529 3.30532 15.0474 3.32568 14.8435L3.51709 12.6863H3.51807C3.52154 12.5852 3.56251 12.4885 3.63428 12.4167C3.70921 12.342 3.81068 12.2996 3.9165 12.2996C4.02254 12.2996 4.1247 12.3418 4.19971 12.4167C4.27471 12.4918 4.31688 12.5939 4.31689 12.7V14.8748C4.31689 14.9843 4.31832 15.036 4.32861 15.0681C4.3304 15.0736 4.33178 15.0766 4.33252 15.0779C4.33314 15.0789 4.33327 15.0796 4.3335 15.0798C4.33357 15.0799 4.33955 15.0855 4.36084 15.0916C4.40958 15.1055 4.50162 15.1116 4.67236 15.0984C4.75548 15.092 4.85315 15.0808 4.96826 15.0662L5.36963 15.0095L6.52979 14.7859L6.53857 14.7839L6.53955 14.7849L7.24268 14.6931C7.49176 14.6408 7.74681 14.6414 7.9751 14.6414H7.98486L7.99561 14.6433C8.01295 14.6457 8.03014 14.649 8.04736 14.6521C8.0533 14.6144 8.0572 14.5761 8.05811 14.5378V14.531H8.05908C8.07968 14.2469 8.07968 13.9616 8.05908 13.6775L8.05811 13.6667V12.031C8.0134 12.0017 7.96287 11.9821 7.90967 11.9734L7.90088 11.9714C7.72359 11.9326 7.54371 11.9059 7.36279 11.8914H7.36182C6.85212 11.8465 6.33929 11.8455 5.82959 11.8904C5.34042 11.935 4.8613 12.056 4.40869 12.2468L4.40771 12.2458C4.35977 12.269 4.30848 12.2845 4.25537 12.2888C4.19819 12.2934 4.13999 12.2861 4.08545 12.2683C4.03106 12.2505 3.98038 12.2226 3.93701 12.1853C3.89357 12.1479 3.85818 12.1018 3.83252 12.0505L3.83057 12.0466C3.78228 11.9427 3.77635 11.8239 3.81396 11.7156C3.85165 11.6072 3.93027 11.5172 4.03271 11.4656C4.55724 11.2012 5.12081 11.0235 5.70166 10.9363V10.9353C6.25943 10.8483 6.82374 10.81 7.38818 10.8181V10.8171L7.38916 10.8181C7.39073 10.8181 7.39248 10.8171 7.39404 10.8171L7.39307 10.8181Z" fill="#1C1C35" stroke="#1C1C35" stroke-width="0.3"/>
<path d="M9.07202 4.03381C9.17785 4.03735 9.27865 4.08174 9.35229 4.15784C9.42362 4.23171 9.46323 4.32981 9.46558 4.43225C9.48624 4.76695 9.51828 5.10221 9.54956 5.44104C9.58077 5.7791 9.61255 6.12123 9.63354 6.46545V6.46643C9.64648 6.69273 9.64884 6.90588 9.66675 7.14709L9.69116 7.39905V7.40588C9.7123 7.69058 9.71231 7.97665 9.69116 8.26135V8.26526C9.67135 8.46478 9.58778 8.65304 9.45288 8.80139L9.44312 8.81213L9.4314 8.82092C9.15083 9.02938 8.81296 9.14538 8.46362 9.15686L8.4646 9.15784C7.89528 9.18161 7.32486 9.14253 6.7644 9.03967V9.03772C6.71135 9.03048 6.65975 9.01519 6.61304 8.98889C6.56306 8.96068 6.519 8.92216 6.48413 8.87659C6.44924 8.83087 6.42399 8.77805 6.40991 8.72229C6.39607 8.66738 6.39356 8.61028 6.4021 8.55432H6.40112C6.41697 8.44138 6.47745 8.33933 6.56812 8.27014C6.65347 8.20505 6.75944 8.1745 6.86597 8.18323L7.12378 8.17639C7.38101 8.16431 7.63729 8.13634 7.89136 8.09338L7.90308 8.09143C8.08412 8.07516 8.19837 8.05197 8.27124 8.02209C8.3377 7.99479 8.3619 7.96618 8.37573 7.93713C8.39378 7.89903 8.40362 7.8401 8.40503 7.73499C8.4057 7.68398 8.4046 7.62643 8.40308 7.56018C8.40157 7.49485 8.40015 7.4214 8.40015 7.34143V7.33069L8.40112 7.32092C8.44103 7.04154 8.44214 6.75982 8.44214 6.46643V6.45569C8.49248 5.76773 8.57596 5.08894 8.66772 4.40491H8.6687C8.67104 4.35926 8.68012 4.31428 8.698 4.27209C8.7185 4.22373 8.74813 4.17971 8.78589 4.14319C8.82368 4.10666 8.86867 4.07807 8.91772 4.0592C8.96681 4.04033 9.01946 4.032 9.07202 4.03381Z" fill="#1C1C35" stroke="#1C1C35" stroke-width="0.3"/>
<path d="M5.6192 5.43323L5.62799 5.4342C5.75603 5.45095 5.88246 5.47783 6.0069 5.51233C6.31213 5.55021 6.61476 5.60677 6.91217 5.68518C7.0077 5.69146 7.09867 5.72885 7.16998 5.79358C7.24866 5.86511 7.29801 5.96405 7.30768 6.06995L7.30865 6.08069L7.30768 6.09143C7.30115 6.20635 7.24995 6.31443 7.1651 6.39221C7.0853 6.46528 6.98181 6.50475 6.87408 6.50647C6.73656 6.52181 6.60345 6.5586 6.45221 6.59534C6.30998 6.62988 6.15406 6.6636 5.9903 6.66565C5.77166 6.69167 5.55071 6.69186 5.33209 6.66565L5.32623 6.66467C4.94324 6.6037 4.57253 6.48046 4.22955 6.29944V6.29846C4.14581 6.2633 4.07579 6.20192 4.03229 6.1217C3.98534 6.03489 3.97209 5.93347 3.99518 5.83752C4.01834 5.74156 4.07592 5.65709 4.15729 5.6012C4.23349 5.54891 4.32534 5.5271 4.41705 5.53479V5.53284C4.54257 5.53278 4.66443 5.51131 4.8028 5.48596C4.93467 5.4618 5.08182 5.43538 5.23932 5.4342V5.43323C5.30238 5.4287 5.36559 5.4264 5.42877 5.42639L5.6192 5.43323Z" fill="#1C1C35" stroke="#1C1C35" stroke-width="0.3"/>
<path d="M14.1754 10.2246V10.2256C14.6995 10.2557 15.2213 10.3197 15.7369 10.4189H15.7359C15.7877 10.4253 15.838 10.4407 15.8843 10.4648C15.9349 10.4912 15.9795 10.5276 16.0162 10.5713C16.0528 10.615 16.0811 10.6653 16.0982 10.7197C16.1153 10.7741 16.1208 10.8319 16.1158 10.8887C16.1107 10.9452 16.0951 11.0004 16.0689 11.0508C16.0426 11.1013 16.0061 11.146 15.9625 11.1826C15.9188 11.2192 15.8684 11.2475 15.814 11.2646C15.7651 11.28 15.7138 11.2847 15.6627 11.2822L15.6636 11.2832C15.1778 11.2997 14.6838 11.3738 14.148 11.4248C13.8166 11.4571 13.4605 11.5077 13.1177 11.5078L13.1187 11.5088C12.8014 11.513 12.4954 11.4999 12.2037 11.4863C11.9104 11.4727 11.6333 11.458 11.3668 11.458V11.457C11.2693 11.4596 11.174 11.428 11.0992 11.3652C11.0227 11.3011 10.9728 11.2103 10.9595 11.1113V11.1074C10.9484 11.0011 10.979 10.8943 11.0455 10.8105C11.1075 10.7325 11.1959 10.6805 11.2935 10.6631C11.7507 10.5488 12.259 10.3947 12.8082 10.3018L13.1441 10.2539C13.2567 10.2411 13.3698 10.2321 13.483 10.2256L13.4918 10.2246H14.1754Z" fill="#1C1C35" stroke="#1C1C35" stroke-width="0.3"/>
<path d="M11.975 15.4004C11.981 15.4472 11.9814 15.4947 11.972 15.541C11.9608 15.5969 11.9384 15.65 11.9066 15.6973C11.8746 15.7447 11.8333 15.7859 11.7855 15.8174C11.7379 15.8487 11.6843 15.8702 11.6283 15.8809L11.6244 15.8818C11.5109 15.9003 11.3944 15.8734 11.3002 15.8076C11.206 15.7417 11.1411 15.6413 11.1195 15.5283L11.1185 15.5254L10.9935 14.7832L10.9945 14.7822C10.942 14.5187 10.969 14.2457 11.0736 13.998C11.1791 13.7487 11.3574 13.5367 11.5853 13.3906L11.5912 13.3867C11.9525 13.1763 12.3656 13.0711 12.7836 13.083C13.03 13.083 13.2834 13.1089 13.5189 13.1338C13.7581 13.1591 13.9761 13.1836 14.1664 13.1836H14.1849L14.2015 13.1875C14.2877 13.2083 14.3754 13.2228 14.4633 13.2344C14.4816 13.1217 14.5039 12.9898 14.5199 12.8652C14.5432 12.6844 14.558 12.5343 14.558 12.4834C14.558 12.4309 14.5682 12.3786 14.5883 12.3301C14.6084 12.2816 14.638 12.2373 14.6752 12.2002C14.7122 12.1631 14.7567 12.1343 14.8051 12.1143C14.8536 12.0942 14.9058 12.083 14.9584 12.083H14.9633C15.0692 12.0865 15.1698 12.1318 15.2435 12.208C15.3152 12.2822 15.3547 12.3805 15.3568 12.4834H15.3578C15.3593 12.508 15.3671 12.5555 15.3802 12.627C15.3911 12.6858 15.4106 12.7888 15.4252 12.8682C15.4567 13.0399 15.4903 13.2435 15.4916 13.4072L15.4877 13.5557C15.4714 13.7023 15.4175 13.8434 15.3295 13.9639L15.3197 13.9756C15.1777 14.1317 14.9959 14.247 14.7943 14.3096L14.7816 14.3135C14.5801 14.3573 14.3745 14.3811 14.1683 14.3838L14.1674 14.3828C13.8503 14.3994 13.4701 14.383 13.1107 14.3496L13.1058 14.3486C12.8417 14.3154 12.574 14.3154 12.3099 14.3486L12.3011 14.3496C12.2094 14.3557 12.124 14.3981 12.0629 14.4668C12.0019 14.5355 11.9703 14.6251 11.975 14.7168V15.4004Z" fill="#1C1C35" stroke="#1C1C35" stroke-width="0.3"/>
</g>
<defs>
<clipPath id="clip0_605_208">
<rect width="20" height="20" fill="white"/>
</clipPath>
</defs>
</svg>
