<svg width="20" height="20" viewBox="0 0 20 20" fill="none" xmlns="http://www.w3.org/2000/svg">
<g clip-path="url(#clip0_605_242)">
<path d="M8.16772 0.300537C11.4755 0.145361 14.7907 0.318323 18.0642 0.818115H18.0632C18.4525 0.86596 18.8217 1.01439 19.1345 1.2478L19.2654 1.35327L19.2771 1.36401L19.2869 1.37671C19.3739 1.49353 19.4478 1.6585 19.5125 1.85327C19.5777 2.05007 19.6368 2.28821 19.6902 2.55933C19.7971 3.10197 19.884 3.78817 19.9519 4.56714C20.0878 6.12572 20.1501 8.06746 20.1501 9.99878V10.9666C20.129 13.2246 19.9536 15.4789 19.6238 17.7136L19.6228 17.7126C19.5789 18.122 19.4053 18.5071 19.1267 18.8103L19.1033 18.8357L19.0701 18.8484C18.1877 19.1818 17.256 19.3685 16.3132 19.4001L16.3123 19.3992C12.8656 19.7164 9.4011 19.8012 5.94312 19.6501V19.6492C4.41546 19.6161 2.89685 19.4024 1.41968 19.0115V19.0105C1.14693 18.954 0.890375 18.8371 0.670654 18.6658C0.448361 18.4924 0.2695 18.2689 0.148193 18.0144L0.142334 18.0027L0.138428 17.99C-0.00900005 17.4523 -0.0938394 16.2781 -0.12915 14.821C-0.16464 13.3562 -0.150444 11.5846 -0.092041 9.83667C-0.0669233 7.12633 0.173423 4.42204 0.626709 1.74976L0.631592 1.72534L0.643311 1.70386C0.739329 1.52706 0.872045 1.37247 1.03296 1.25171C1.19362 1.13122 1.37876 1.04647 1.57495 1.00366L2.38843 0.828857C4.29016 0.450052 6.2273 0.273287 8.16772 0.300537ZM9.10718 1.22437C7.02181 1.28254 4.94239 1.48046 2.88257 1.81519H2.87769C2.50587 1.8647 2.14028 1.95323 1.78687 2.07886L1.69409 2.12671C1.68101 2.13456 1.66867 2.14358 1.65601 2.1521C1.30253 4.70842 1.12503 7.28625 1.12476 9.86694V9.87085C1.07895 11.5697 1.05867 13.2736 1.08569 14.6755C1.09921 15.3765 1.12476 16.001 1.16479 16.5105C1.2041 17.0105 1.25622 17.3904 1.32202 17.6238C1.32293 17.6244 1.32387 17.6251 1.32495 17.6257C1.33549 17.6322 1.34954 17.6388 1.36987 17.6492C1.38731 17.6581 1.40917 17.6699 1.43237 17.6824L1.59839 17.7576C1.76615 17.8287 1.93961 17.8857 2.11694 17.9285C3.99515 18.3125 5.90788 18.504 7.82495 18.4998H7.82886C9.50969 18.5482 11.2773 18.532 12.9167 18.4548V7.19507C12.9973 4.811 13.0375 2.64086 13.0027 1.20874H10.0017L9.10718 1.22437ZM13.8044 1.2478C13.951 2.86195 14.1169 5.39032 14.1169 8.1062L14.115 9.16187C14.1103 9.51545 14.1018 9.87021 14.0935 10.2244C14.0768 10.9335 14.0583 11.6401 14.0583 12.3337V12.3376C13.9859 14.6959 13.8575 16.8911 13.7664 18.4421C14.8246 18.3996 15.7951 18.3297 16.5847 18.2507L16.5935 18.2498C17.2158 18.2235 17.8323 18.124 18.4324 17.9578C18.5032 17.7532 18.565 17.5451 18.6121 17.3337C19.0595 14.3448 19.2645 11.3245 19.2253 8.30249V8.30054C19.2253 6.75655 19.1852 5.29247 19.0837 4.13745C19.033 3.55972 18.9669 3.06241 18.8835 2.67261C18.8027 2.29448 18.7085 2.03971 18.6121 1.90503C18.1725 1.65532 17.6774 1.51888 17.1716 1.50854H17.1638L17.156 1.50757C16.044 1.36417 14.9252 1.27852 13.8044 1.2478Z" fill="#1C1C35" stroke="#1C1C35" stroke-width="0.3"/>
</g>
<defs>
<clipPath id="clip0_605_242">
<rect width="20" height="20" fill="white"/>
</clipPath>
</defs>
</svg>
