<svg width="20" height="20" viewBox="0 0 20 20" fill="none" xmlns="http://www.w3.org/2000/svg">
<path d="M7.52812 8.97187C6.84271 8.28646 6.5 7.4625 6.5 6.5C6.5 5.5375 6.84271 4.71354 7.52812 4.02813C8.21354 3.34271 9.0375 3 10 3C10.9625 3 11.7865 3.34271 12.4719 4.02813C13.1573 4.71354 13.5 5.5375 13.5 6.5C13.5 7.4625 13.1573 8.28646 12.4719 8.97187C11.7865 9.65729 10.9625 10 10 10C9.0375 10 8.21354 9.65729 7.52812 8.97187ZM3 15.25V14.55C3 14.0542 3.12775 13.5986 3.38325 13.1832C3.63875 12.7679 3.97767 12.4506 4.4 12.2312C5.30417 11.7792 6.22292 11.4402 7.15625 11.2145C8.08958 10.9887 9.0375 10.8756 10 10.875C10.9625 10.8744 11.9104 10.9876 12.8437 11.2145C13.7771 11.4414 14.6958 11.7803 15.6 12.2312C16.0229 12.45 16.3621 12.7673 16.6176 13.1832C16.8731 13.5992 17.0006 14.0547 17 14.55V15.25C17 15.7312 16.8288 16.1434 16.4864 16.4864C16.144 16.8294 15.7318 17.0006 15.25 17H4.75C4.26875 17 3.85692 16.8288 3.5145 16.4864C3.17208 16.144 3.00058 15.7318 3 15.25Z" fill="#F7F6F2"/>
</svg>
