<svg width="20" height="20" viewBox="0 0 20 20" fill="none" xmlns="http://www.w3.org/2000/svg">
<g clip-path="url(#clip0_605_292)">
<path fill-rule="evenodd" clip-rule="evenodd" d="M16.9825 1.05839C17.3242 1.14172 17.6158 1.61672 17.9075 2.13339C18.301 2.87966 18.6246 3.66078 18.8742 4.46672C19.0349 5.297 18.9978 6.15347 18.7658 6.96672C18.6325 7.23339 18.3742 7.35006 17.9325 7.32506C17.6821 7.31592 17.4334 7.2796 17.1908 7.21672C16.9357 7.18004 16.6918 7.08773 16.4763 6.94632C16.2609 6.80492 16.0791 6.61787 15.944 6.39843C15.8088 6.17899 15.7235 5.93252 15.6942 5.67647C15.6648 5.42042 15.6921 5.16105 15.7742 4.91672L18.4492 4.86672C18.5149 4.85532 18.5746 4.82106 18.6175 4.76999C18.6605 4.71891 18.6841 4.65431 18.6841 4.58756C18.6841 4.52081 18.6605 4.4562 18.6175 4.40513C18.5746 4.35405 18.5149 4.3198 18.4492 4.30839L15.8325 4.16672C14.4742 0.425057 14.6575 0.916723 14.5908 0.78339C15.3943 0.808526 16.1943 0.90051 16.9825 1.05839ZM13.9992 7.12506C13.7778 7.1968 13.5442 7.22343 13.3123 7.20339C13.0805 7.18336 12.855 7.11705 12.6492 7.00839C12.2789 6.82533 11.9816 6.52207 11.806 6.14819C11.6305 5.7743 11.5869 5.35191 11.6825 4.95006H15.0158C15.1133 5.37405 15.0661 5.81845 14.8819 6.21257C14.6977 6.60669 14.387 6.92788 13.9992 7.12506ZM13.9325 0.78339C13.9325 0.88339 14.0158 0.991723 14.0492 1.10006C14.1498 2.15669 14.414 3.19127 14.8325 4.16672L11.7158 4.05839C11.6741 2.92095 11.4577 1.7967 11.0742 0.725057C11.2242 0.700057 13.9075 0.70839 13.9325 0.78339ZM10.0408 7.03339C9.71131 7.16776 9.35341 7.21756 8.99973 7.17826C8.64604 7.13896 8.30781 7.01181 8.01582 6.80839C7.62416 4.77506 7.67416 5.25006 7.75749 4.89172C8.42416 4.89172 10.5325 4.94172 10.8992 4.95006C10.9492 5.67506 11.1158 6.42506 10.0408 7.03339ZM9.84082 0.700057C11.0908 0.700057 10.2408 0.50839 10.7992 4.03339C9.96582 4.03339 9.07416 3.99172 8.22416 3.99172L9.30749 1.83339C9.54542 1.48696 9.72554 1.10421 9.84082 0.700057ZM6.39082 1.35839C6.78249 0.841723 6.77416 0.916723 6.66582 0.73339C9.47416 0.68339 9.24916 0.68339 9.16582 0.73339C8.37893 1.74154 7.69759 2.82779 7.13249 3.97506C6.12416 3.97506 5.16582 3.97506 4.32416 4.02506C5.16582 3.05839 5.84082 2.07506 6.39082 1.35839ZM3.68249 4.74172L6.87416 4.86672C6.87416 5.14172 6.87416 4.70839 6.96582 6.13339C6.72416 6.28339 6.72416 6.84172 6.30749 7.13339C5.99877 7.2972 5.65699 7.38903 5.30775 7.40202C4.95851 7.41501 4.61086 7.34881 4.29082 7.20839C3.44082 6.81672 3.54082 5.31672 3.68249 4.74172ZM17.6075 8.22506C19.3992 8.38339 19.8325 7.45006 19.8825 5.66672L19.7408 4.30006C19.4065 3.25848 18.9506 2.25993 18.3825 1.32506C18.1137 0.844225 17.6823 0.474916 17.1658 0.28339C14.6242 -0.31661 5.07416 0.216723 4.21582 0.225057C4.17513 0.217999 4.13338 0.219925 4.0935 0.2307C4.05362 0.241476 4.01659 0.260839 3.98498 0.287435C3.95338 0.31403 3.92797 0.347215 3.91054 0.384663C3.89311 0.422111 3.88408 0.462917 3.88408 0.504223C3.88408 0.545529 3.89311 0.586336 3.91054 0.623784C3.92797 0.661232 3.95338 0.694416 3.98498 0.721012C4.01659 0.747608 4.05362 0.766971 4.0935 0.777746C4.13338 0.788522 4.17513 0.790448 4.21582 0.78339H6.12416C5.02632 1.80239 4.02228 2.91798 3.12416 4.11672C2.02416 4.10839 1.25749 4.16672 1.05749 4.16672C0.996149 4.18177 0.942779 4.21948 0.908105 4.27228C0.873431 4.32507 0.860024 4.38903 0.870579 4.4513C0.881133 4.51357 0.914867 4.56954 0.965 4.60796C1.01513 4.64637 1.07795 4.66439 1.14082 4.65839H2.89916C2.96582 6.66672 3.15749 5.49172 2.68249 7.00006C1.84916 8.06672 -0.11751 6.25839 0.715823 4.50006C1.43614 3.23391 2.25242 2.02481 3.15749 0.88339C3.1915 0.832746 3.20581 0.771416 3.19774 0.710951C3.18967 0.650486 3.15977 0.595058 3.11367 0.555106C3.06757 0.515154 3.00846 0.493436 2.94746 0.494041C2.88646 0.494645 2.82779 0.517532 2.78249 0.55839C2.50749 0.875057 1.94916 1.60839 1.41582 2.37506C-0.300843 4.81672 0.03249 4.60839 0.0158234 6.11672C0.0301173 6.52251 0.171262 6.9136 0.419403 7.23499C0.667545 7.55637 1.0102 7.79188 1.39916 7.90839L2.00749 8.00006C2.25817 8.02351 2.51063 7.98129 2.74004 7.87754C2.96944 7.7738 3.16788 7.61211 3.31582 7.40839C4.14916 8.42506 6.38249 8.57506 7.24916 7.33339C7.68537 7.71734 8.22194 7.96907 8.79605 8.0591C9.37015 8.14913 9.95802 8.07372 10.4908 7.84172C10.7999 7.64514 11.0803 7.40677 11.3242 7.13339C11.676 7.56871 12.1552 7.8831 12.6947 8.03253C13.2341 8.18196 13.8068 8.15895 14.3325 7.96672C14.7475 7.7863 15.107 7.49868 15.3742 7.13339C15.7738 7.62314 16.3249 7.96612 16.9408 8.10839L17.6075 8.22506Z" fill="#1C1C35"/>
<path fill-rule="evenodd" clip-rule="evenodd" d="M19.1075 12.15C18.4858 11.8921 17.822 11.7509 17.1492 11.7333C17.3748 10.9388 17.52 10.1236 17.5825 9.30001C17.5825 8.54168 16.8075 8.39168 16.6658 9.19168C16.5849 10.0141 16.5654 10.8414 16.6075 11.6667C11.8703 11.3457 7.11603 11.3708 2.3825 11.7417C2.50702 10.7829 2.46189 9.80978 2.24916 8.86668C2.0325 7.98335 1.37416 8.22501 1.37416 8.86668C1.39628 9.34776 1.45197 9.8267 1.54083 10.3C1.54083 10.375 1.81583 11.75 1.8325 11.8167C0.357496 12.0333 0.224163 12.1917 0.257496 12.85C0.307496 14.025 0.649163 18.0083 1.09083 19.1C1.14083 19.225 1.41583 19.4333 1.92416 19.5333C4.6075 20.0667 16.4075 20.2417 18.1992 19.425C18.9158 19.1 19.1658 17.3417 19.2825 16.55C19.3992 15.7583 19.7408 12.65 19.1075 12.15ZM17.9158 18.1833C17.8492 18.375 17.7908 18.675 17.7242 18.6C16.0992 19.2583 3.44916 19.3417 1.59083 18.8C1.1325 17.5 0.774163 12.9583 0.699163 12.6917C1.09083 12.175 7.14916 12.175 7.79083 12.175C11.1031 12.1655 14.4135 12.3352 17.7075 12.6833C18.7325 12.8333 18.5408 12.8167 18.5408 13.3C18.5718 14.9474 18.3726 16.591 17.9492 18.1833H17.9158Z" fill="#1C1C35"/>
</g>
<defs>
<clipPath id="clip0_605_292">
<rect width="20" height="20" fill="white"/>
</clipPath>
</defs>
</svg>
