<svg width="38" height="38" viewBox="0 0 38 38" fill="none" xmlns="http://www.w3.org/2000/svg">
<g clip-path="url(#clip0_31_823)">
<path d="M19.0026 12.9254C15.6415 12.9254 12.9305 15.6364 12.9305 18.9974C12.9305 22.3584 15.6415 25.0694 19.0026 25.0694C22.3636 25.0694 25.0746 22.3584 25.0746 18.9974C25.0746 15.6364 22.3636 12.9254 19.0026 12.9254ZM19.0026 22.945C16.8306 22.945 15.0549 21.1747 15.0549 18.9974C15.0549 16.8201 16.8253 15.0498 19.0026 15.0498C21.1798 15.0498 22.9502 16.8201 22.9502 18.9974C22.9502 21.1747 21.1745 22.945 19.0026 22.945V22.945ZM26.7392 12.677C26.7392 13.4644 26.1051 14.0933 25.323 14.0933C24.5356 14.0933 23.9067 13.4591 23.9067 12.677C23.9067 11.8949 24.5408 11.2607 25.323 11.2607C26.1051 11.2607 26.7392 11.8949 26.7392 12.677ZM30.7608 14.1144C30.671 12.2172 30.2377 10.5367 28.8478 9.15215C27.4632 7.76758 25.7827 7.33424 23.8856 7.23912C21.9302 7.12814 16.0696 7.12814 14.1143 7.23912C12.2224 7.32896 10.5419 7.76229 9.15203 9.14686C7.76217 10.5314 7.33412 12.2119 7.23899 14.1091C7.12802 16.0644 7.12802 21.9251 7.23899 23.8804C7.32883 25.7776 7.76217 27.4581 9.15203 28.8426C10.5419 30.2272 12.2171 30.6606 14.1143 30.7557C16.0696 30.8667 21.9302 30.8667 23.8856 30.7557C25.7827 30.6658 27.4632 30.2325 28.8478 28.8426C30.2324 27.4581 30.6657 25.7776 30.7608 23.8804C30.8718 21.9251 30.8718 16.0697 30.7608 14.1144V14.1144ZM28.2348 25.9784C27.8226 27.0142 27.0246 27.8121 25.9835 28.2296C24.4246 28.8479 20.7253 28.7052 19.0026 28.7052C17.2798 28.7052 13.5753 28.8426 12.0216 28.2296C10.9858 27.8174 10.1878 27.0195 9.77033 25.9784C9.15203 24.4194 9.29471 20.7202 9.29471 18.9974C9.29471 17.2746 9.15731 13.5701 9.77033 12.0164C10.1825 10.9806 10.9805 10.1827 12.0216 9.76517C13.5805 9.14686 17.2798 9.28955 19.0026 9.28955C20.7253 9.28955 24.4299 9.15215 25.9835 9.76517C27.0193 10.1774 27.8173 10.9753 28.2348 12.0164C28.8531 13.5754 28.7104 17.2746 28.7104 18.9974C28.7104 20.7202 28.8531 24.4247 28.2348 25.9784Z" fill="#F4F4F4"/>
</g>
<defs>
<clipPath id="clip0_31_823">
<rect width="23.6883" height="23.6883" fill="white" transform="translate(7.15576 7.15588)"/>
</clipPath>
</defs>
</svg>
