<svg width="745" height="571" viewBox="0 0 745 571" fill="none" xmlns="http://www.w3.org/2000/svg">
<ellipse cx="591.5" cy="521" rx="101.5" ry="10" fill="white"/>
<ellipse cx="412.5" cy="544" rx="77.5" ry="16" fill="white"/>
<ellipse cx="205" cy="555" rx="112" ry="16" fill="white"/>
<path d="M526.853 228.786C526.853 228.786 538.67 255.492 545.524 253.838C552.378 252.183 557.578 242.493 557.578 242.493C557.578 242.493 562.068 225.004 553.796 222.877C543.634 220.75 526.853 228.786 526.853 228.786Z" fill="#FD8753"/>
<path d="M597.991 473.634L584.52 496.559L553.559 486.869L569.394 460.635L597.991 473.634Z" fill="#FD8753"/>
<path d="M656.368 497.977L655.422 472.925L625.644 471.507V499.631L656.368 497.977Z" fill="#FD8753"/>
<path d="M628.479 213.187C628.479 213.187 623.752 200.661 629.424 199.243C635.096 197.589 640.532 204.915 640.532 204.915C640.532 204.915 652.349 207.988 655.658 215.551C659.203 223.113 646.204 232.803 646.204 232.803L628.479 213.187Z" fill="white"/>
<path d="M610.518 316.231L611.936 387.37C611.936 387.37 612.645 422.584 614.063 451.654C614.536 461.817 616.19 478.833 616.899 485.687H661.567C661.804 455.199 663.694 365.626 662.513 350.973C660.858 333.012 657.786 315.759 657.786 315.759L616.426 315.995L610.518 316.231Z" fill="#9364ED"/>
<path d="M596.574 486.632C601.773 477.651 614.063 450.709 619.026 439.364C621.153 434.401 616.19 316.231 616.19 316.231V315.995L602.01 312.214C602.01 312.214 561.359 436.056 551.669 471.507L596.574 486.632Z" fill="#9364ED"/>
<path d="M653.768 335.848C654.477 335.848 655.422 335.848 656.131 335.611C656.368 335.611 656.604 335.375 656.604 334.902C656.604 334.666 656.368 334.43 655.895 334.43C647.15 336.557 641.478 325.212 641.478 324.976C641.242 324.74 641.006 324.503 640.769 324.74C640.533 324.976 640.297 325.212 640.533 325.449C640.533 325.685 645.496 335.848 653.768 335.848Z" fill="white"/>
<path d="M614.063 451.181C614.299 451.181 614.536 450.945 614.536 450.709L616.663 343.647C616.663 343.41 616.663 343.41 616.426 343.174L604.137 334.902C603.9 334.666 603.664 334.902 603.428 335.139C603.191 335.375 603.428 335.611 603.664 335.848L615.717 343.883L613.59 450.709C613.59 450.709 613.827 450.945 614.063 451.181Z" fill="white"/>
<path d="M625.171 244.621C625.171 244.621 613.117 245.093 608.39 254.074C603.664 262.819 597.755 316.704 597.755 316.704C597.755 316.704 613.117 321.195 632.497 320.958C651.877 320.722 660.149 319.304 660.149 319.304L662.276 283.617C662.276 283.617 661.803 248.402 656.84 245.802C652.113 243.203 633.206 242.73 625.171 244.621Z" fill="#E2209E"/>
<path d="M644.314 234.222L643.132 245.802C643.132 245.802 642.187 247.929 634.388 248.638C629.425 249.111 627.061 247.457 627.061 247.457L628.243 241.548L629.425 235.876L641.951 234.458L644.314 234.222Z" fill="#FD8753"/>
<path d="M642.187 234.458C642.187 234.694 641.951 235.167 641.714 235.64C638.642 241.312 631.315 241.784 628.243 241.784L629.425 236.112L642.187 234.458Z" fill="black"/>
<path d="M629.897 210.115C629.897 210.115 622.807 224.059 624.225 232.567C625.643 240.839 632.97 240.366 637.224 238.948C641.478 237.767 643.841 235.167 643.841 235.167C643.841 235.167 647.623 236.821 650.695 233.276C653.531 229.731 652.35 225.004 650.223 223.823C648.096 222.641 645.259 224.059 645.259 224.059L647.623 220.041C647.623 220.041 640.533 197.825 629.897 210.115Z" fill="#FD8753"/>
<path d="M645.024 230.44H645.26L650.696 227.131C650.932 226.895 650.932 226.659 650.932 226.422C650.696 226.186 650.459 226.186 650.223 226.186L644.787 229.495C644.551 229.731 644.551 229.967 644.551 230.204C644.787 230.44 644.787 230.44 645.024 230.44Z" fill="black"/>
<path d="M649.513 230.913C649.749 230.913 649.986 230.676 649.986 230.676C649.986 230.44 649.986 230.204 649.749 229.967L646.441 228.786C646.204 228.786 645.968 228.786 645.732 229.022C645.732 229.258 645.732 229.495 645.968 229.731L649.513 230.913Z" fill="black"/>
<path d="M638.643 217.205H638.879C639.115 216.969 639.115 216.732 639.115 216.496C637.697 214.133 635.57 214.369 634.861 214.842C634.625 214.842 634.388 215.314 634.625 215.551C634.625 215.787 635.097 216.023 635.334 215.787C635.57 215.787 637.225 215.078 638.406 216.969C638.406 216.969 638.406 217.205 638.643 217.205Z" fill="black"/>
<path d="M628.007 215.551H628.243C629.425 214.605 630.607 215.551 630.607 215.551C630.843 215.787 631.08 215.787 631.316 215.551C631.552 215.314 631.552 215.078 631.316 214.842C630.607 214.369 629.189 213.896 627.771 214.842C627.534 215.078 627.534 215.314 627.534 215.551C627.771 215.551 627.771 215.551 628.007 215.551Z" fill="black"/>
<path d="M628.48 227.131C628.952 227.131 628.952 226.895 628.952 226.422C628.243 222.168 631.316 220.986 631.316 220.986C631.552 220.986 631.788 220.514 631.552 220.277C631.552 220.041 631.079 219.805 630.843 220.041C630.843 220.041 626.825 221.696 627.771 226.659C628.007 226.895 628.243 227.131 628.48 227.131Z" fill="black"/>
<path d="M627.534 221.223C627.77 221.223 628.006 220.987 628.006 220.987L628.952 218.387C628.952 218.15 628.952 217.914 628.715 217.678C628.479 217.678 628.243 217.678 628.006 217.914L627.061 220.514C627.061 220.75 627.061 220.987 627.534 221.223Z" fill="black"/>
<path d="M634.624 221.932C634.86 221.932 635.097 221.696 635.097 221.696L636.042 219.096C636.042 218.859 636.042 218.623 635.806 218.387C635.569 218.387 635.333 218.387 635.097 218.623L634.151 221.223C633.915 221.459 634.151 221.932 634.624 221.932C634.388 221.932 634.388 221.932 634.624 221.932Z" fill="black"/>
<path d="M628.479 213.187C628.479 213.187 629.897 211.06 632.733 211.297C635.57 211.533 636.988 213.66 636.988 213.66C636.988 213.66 635.333 218.387 638.878 221.459C642.423 224.532 645.26 224.059 645.26 224.059L648.096 223.35L650.459 219.332L643.369 209.642L633.679 203.025L628.007 207.515L628.479 213.187Z" fill="white"/>
<path d="M631.788 231.858C632.969 231.858 634.624 231.385 635.569 229.731C635.805 229.495 635.569 229.258 635.333 229.022C635.096 228.786 634.86 229.022 634.624 229.258C633.442 231.149 631.315 230.913 631.315 230.676C631.079 230.676 630.842 230.913 630.606 231.149C630.606 231.385 630.842 231.622 631.079 231.858C631.315 231.858 631.551 231.858 631.788 231.858Z" fill="black"/>
<path d="M700.799 217.205C700.799 217.205 702.69 208.697 707.18 204.915C711.671 201.134 716.87 198.534 716.161 202.079C715.216 205.388 712.143 211.06 712.143 211.06L720.179 208.933C720.179 208.933 725.378 206.57 729.396 205.388C733.178 204.443 734.359 207.279 734.359 207.279C734.359 207.279 738.141 206.333 739.795 207.279C741.45 208.461 740.268 210.824 740.268 210.824C740.268 210.824 745.704 210.824 743.813 215.078C741.686 219.332 730.814 226.422 725.378 229.022C720.179 231.386 708.126 233.04 708.126 233.04C708.126 233.04 697.727 235.403 700.799 217.205Z" fill="#FD8753"/>
<path d="M730.578 219.096C730.815 219.096 731.051 219.096 731.051 218.859C731.287 218.623 731.051 218.387 730.815 218.15L716.634 210.588C716.398 210.351 716.162 210.588 715.925 210.824C715.689 211.06 715.925 211.297 716.162 211.533L730.342 219.096C730.578 219.096 730.578 219.096 730.578 219.096Z" fill="black"/>
<path d="M706.944 222.641C714.507 219.568 712.38 212.242 712.38 212.242C712.38 212.005 711.907 211.769 711.671 212.005C711.434 212.005 711.198 212.478 711.434 212.715C711.434 212.951 713.325 219.332 706.944 221.932C706.707 221.932 706.471 222.404 706.707 222.641C706.471 222.404 706.707 222.641 706.944 222.641Z" fill="black"/>
<path d="M722.306 234.222C722.306 234.222 709.544 264 692.527 274.399C678.347 282.908 655.895 282.908 655.895 282.908L643.605 243.675C643.605 243.675 671.02 242.966 678.583 237.294C686.146 231.622 698.199 219.332 698.199 219.332L722.306 234.222Z" fill="#E2209E"/>
<path d="M679.529 249.82C680.238 249.82 680.711 249.347 680.711 249.111C681.893 246.984 677.638 239.421 676.693 237.766C676.693 237.53 676.457 237.53 676.22 237.53C675.984 237.53 675.748 237.767 675.748 238.003C675.748 238.239 675.511 246.511 677.875 248.874C678.584 249.584 679.056 249.82 679.529 249.82ZM676.929 240.366C678.82 243.675 680.474 247.693 679.765 248.874C679.765 248.874 679.765 249.111 679.529 249.111C679.293 249.111 679.056 248.874 678.584 248.638C677.402 247.22 677.166 243.202 676.929 240.366Z" fill="#FFB700"/>
<path d="M619.972 245.566C619.972 245.566 602.246 252.183 586.648 251.474C571.049 250.765 559.705 234.931 559.705 234.931L540.089 256.91C540.089 256.91 551.906 284.562 576.721 290.47C601.537 296.379 621.39 280.544 621.39 280.544L619.972 245.566Z" fill="#E2209E"/>
<path d="M579.321 259.746C579.794 259.746 580.503 259.51 580.975 259.274C583.339 257.383 583.339 251.711 583.339 251.474C583.339 251.238 583.103 251.002 583.103 251.002C582.866 251.002 582.63 251.002 582.63 251.002C581.685 251.711 576.721 255.728 577.194 258.092C577.194 258.565 577.667 259.274 578.612 259.51C578.848 259.51 579.085 259.746 579.321 259.746ZM582.157 252.42C582.157 254.31 581.685 257.146 580.266 258.092C579.794 258.328 579.321 258.565 578.848 258.328C578.139 258.092 578.139 257.856 578.139 257.619C577.667 256.91 580.03 254.31 582.157 252.42Z" fill="#FFB700"/>
<path d="M602.245 289.998C602.482 289.998 602.718 289.761 602.718 289.525L605.318 271.09C605.318 270.854 605.082 270.618 604.845 270.618C604.609 270.618 604.373 270.854 604.373 271.09L601.773 289.525C601.773 289.761 602.009 289.998 602.245 289.998Z" fill="#FFB700"/>
<path d="M619.025 519.484C619.025 522.084 619.971 524.92 621.862 525.629C623.752 526.338 639.823 527.756 654.004 526.81C667.475 525.865 670.311 524.92 671.257 523.974C671.729 523.502 670.784 520.902 669.602 518.538C669.602 518.302 669.602 518.302 669.366 518.066C668.893 516.884 668.184 515.702 667.711 514.757C667.239 514.048 666.766 513.103 666.293 512.394C664.875 510.739 662.039 506.958 661.33 505.067C660.385 502.467 658.967 497.268 657.785 494.668C656.84 492.068 654.476 491.596 654.476 491.596C654.476 491.596 645.023 484.506 624.934 491.359C622.571 492.068 622.098 504.594 622.098 506.485V508.376C622.098 510.03 620.68 513.339 619.971 515.939C619.734 516.648 619.498 517.357 619.498 517.829C619.262 518.538 619.025 519.011 619.025 519.484Z" fill="#5E1DBB"/>
<path d="M508.182 522.793C507.473 522.793 507 521.847 507 521.138C507.709 517.593 509.836 507.431 515.745 503.177C522.835 497.977 537.488 495.85 542.924 492.541C548.36 488.996 554.268 480.724 557.577 482.142C560.65 483.797 566.794 491.123 575.539 490.178C584.284 489.232 588.301 487.105 590.665 489.232C593.028 491.36 594.21 520.902 593.028 522.556C592.083 524.211 579.793 522.556 578.611 522.793C577.43 523.029 574.594 515.939 572.467 517.121C570.339 518.302 567.976 521.375 564.904 523.029C562.304 524.447 516.927 523.974 508.182 522.793Z" fill="#5E1DBB"/>
<path d="M547.652 496.795C548.124 496.559 548.125 496.322 548.125 496.086C548.125 495.85 547.179 493.723 545.761 491.123C543.634 486.396 541.271 480.251 541.98 478.361C541.98 478.124 542.216 477.888 542.452 477.888C542.925 477.888 543.398 477.888 543.634 478.124C545.997 479.779 546.943 487.342 546.943 490.178C546.943 490.414 547.179 490.65 547.416 490.65C547.652 490.65 547.888 490.414 547.888 490.178C547.888 489.705 547.179 479.542 544.107 477.415C543.398 476.943 542.689 476.706 541.98 476.943C541.507 477.179 541.034 477.415 540.798 477.888C540.089 479.542 541.034 483.087 542.452 486.869C540.562 484.742 538.671 483.324 536.544 484.033C535.362 484.269 534.889 484.978 534.889 485.687C534.18 488.996 541.98 496.086 542.925 496.795C543.161 497.031 543.398 497.031 543.634 496.795C543.87 496.559 543.87 496.322 543.634 496.086C540.325 493.25 535.362 488.051 535.835 485.923C535.835 485.687 536.071 485.214 536.78 484.978C539.38 484.269 542.452 487.814 544.579 491.596C545.761 494.195 546.706 496.086 546.943 496.559C547.179 496.559 547.415 496.795 547.652 496.795Z" fill="#9364ED"/>
<path d="M645.259 508.375C646.205 508.139 652.586 505.539 653.295 502.94C653.531 502.467 653.295 501.758 653.058 501.285C652.822 500.813 652.113 500.576 651.64 500.34C649.986 500.103 647.859 501.285 646.204 502.231C648.095 499.395 650.695 495.377 649.986 493.486C649.75 493.013 649.513 492.541 648.568 492.541C644.077 491.832 641.005 504.83 640.769 506.248C640.769 506.485 640.769 506.721 641.241 506.957C641.478 506.957 641.714 506.957 641.95 506.485C643.132 501.285 645.968 493.013 648.568 493.486C649.041 493.486 649.041 493.722 649.277 493.959C649.986 495.613 646.204 501.285 643.841 504.358C643.605 504.594 643.605 504.83 643.841 505.067C644.077 505.303 644.314 505.303 644.55 505.067C645.968 503.885 649.75 501.285 651.877 501.522C652.113 501.522 652.586 501.758 652.586 501.994C652.822 502.231 652.822 502.467 652.586 502.703C652.113 504.358 647.859 506.485 645.495 507.43C645.259 507.43 645.023 507.903 645.259 508.139C644.786 508.375 645.023 508.375 645.259 508.375Z" fill="#9364ED"/>
<path d="M633.443 249.347C638.879 249.347 643.369 246.275 643.605 246.275C643.842 246.039 643.842 245.802 643.842 245.566C643.605 245.33 643.369 245.33 643.133 245.33C643.133 245.33 635.334 250.765 627.534 246.984C627.298 246.748 627.062 246.984 626.825 247.22C626.589 247.457 626.825 247.693 627.062 247.929C629.189 248.875 631.316 249.347 633.443 249.347Z" fill="#FFB700"/>
<path d="M557.341 233.985C557.341 233.985 558.286 227.604 556.868 225.477C555.45 223.35 545.996 214.369 542.215 216.969C540.324 218.387 547.414 228.077 547.414 228.077C547.414 228.077 545.996 231.622 545.76 236.821C545.524 242.021 550.723 242.73 550.723 242.73L557.341 233.985Z" fill="#FD8753"/>
<path d="M547.415 244.384C547.651 244.384 547.651 244.384 547.887 244.148C548.124 243.911 548.124 243.675 547.887 243.439C543.16 239.421 546.705 230.676 546.705 230.44C546.705 230.204 546.705 229.967 546.469 229.731C546.233 229.731 545.996 229.731 545.76 229.967C545.524 230.44 541.979 239.657 547.178 244.148C547.178 244.384 547.178 244.384 547.415 244.384Z" fill="black"/>
<path d="M600.828 479.07C601.064 479.07 601.301 478.833 601.301 478.833C601.301 478.597 601.301 478.361 601.064 478.124L554.742 461.344C554.505 461.344 554.269 461.344 554.033 461.58C554.033 461.817 554.033 462.053 554.269 462.289L600.828 479.07Z" fill="white"/>
<path d="M589.484 475.052C589.72 475.052 589.956 475.052 589.956 474.816L615.481 416.203C615.481 415.967 615.481 415.731 615.245 415.494C615.008 415.494 614.772 415.494 614.536 415.731L589.011 474.343C588.775 474.579 589.011 474.816 589.484 475.052C589.247 475.052 589.247 475.052 589.484 475.052Z" fill="white"/>
<path d="M616.426 476.233H661.567C661.803 476.233 662.04 475.997 662.04 475.761C662.04 475.524 661.803 475.288 661.567 475.288H616.426C616.19 475.288 615.953 475.524 615.953 475.761C615.953 475.997 615.953 476.233 616.426 476.233Z" fill="white"/>
<path d="M656.367 476.233C656.603 476.233 656.84 475.997 656.84 475.761C656.84 474.815 658.494 379.334 658.494 367.281C658.494 355.227 656.367 335.375 656.367 335.139C656.367 334.902 656.131 334.666 655.894 334.666C655.658 334.666 655.422 334.902 655.422 335.139C655.422 335.375 657.549 355.227 657.549 367.281C657.549 379.334 655.894 474.815 655.894 475.761C655.894 475.997 656.131 476.233 656.367 476.233Z" fill="white"/>
<path d="M646.442 249.82C646.678 249.82 646.678 249.82 646.915 249.584C647.151 249.347 647.151 249.111 646.915 248.875L644.787 246.748C644.551 246.511 644.315 246.511 644.078 246.748C643.842 246.984 643.842 247.22 644.078 247.456L646.206 249.584C646.206 249.82 646.206 249.82 646.442 249.82Z" fill="#FFB700"/>
<path d="M639.824 254.547C640.061 254.547 640.061 254.547 639.824 254.547C640.297 254.547 640.297 254.074 640.297 253.838L639.588 250.765C639.588 250.529 639.115 250.293 638.879 250.293C638.642 250.293 638.406 250.529 638.406 251.002L639.115 254.074C639.588 254.31 639.824 254.547 639.824 254.547Z" fill="#FFB700"/>
<path d="M630.134 254.547C630.371 254.547 630.607 254.547 630.607 254.31L631.789 251.711C631.789 251.474 631.789 251.238 631.552 251.002C631.316 251.002 631.08 251.002 630.843 251.238L629.662 253.838C629.425 254.074 629.662 254.31 630.134 254.547Z" fill="#FFB700"/>
<path d="M624.226 251.474H624.462L627.062 249.82C627.298 249.584 627.298 249.347 627.298 249.111C627.062 248.875 626.826 248.875 626.589 248.875L623.99 250.529C623.753 250.765 623.753 251.002 623.753 251.238C623.753 251.474 623.99 251.474 624.226 251.474Z" fill="#FFB700"/>
<path d="M719.234 241.312C719.47 241.312 719.47 241.312 719.706 241.075C719.943 240.839 719.706 240.603 719.47 240.366L693.709 223.586C693.473 223.35 693.236 223.586 693 223.823C692.764 224.059 693 224.295 693.236 224.532L718.997 241.312C718.997 241.312 718.997 241.312 719.234 241.312Z" fill="#FFB700"/>
<path d="M697.255 227.131C697.491 227.131 697.491 227.131 697.727 226.895L702.218 221.696C702.454 221.459 702.454 221.223 702.218 220.987C701.981 220.75 701.745 220.75 701.509 220.987L697.018 226.186C696.782 226.422 696.782 226.659 697.018 226.895C697.018 227.131 697.255 227.131 697.255 227.131Z" fill="#FFB700"/>
<path d="M704.581 231.858C704.817 231.858 704.817 231.858 705.053 231.622L709.071 225.95C709.307 225.713 709.071 225.477 708.835 225.241C708.598 225.004 708.362 225.241 708.126 225.477L704.108 231.149C703.872 231.385 704.108 231.622 704.344 231.858C704.344 231.858 704.344 231.858 704.581 231.858Z" fill="#FFB700"/>
<path d="M712.143 236.585C712.379 236.585 712.616 236.585 712.616 236.349L715.925 229.967C716.161 229.731 715.925 229.495 715.688 229.258C715.452 229.022 715.216 229.258 714.979 229.495L711.67 235.876C711.434 236.112 711.67 236.349 711.907 236.585H712.143Z" fill="#FFB700"/>
<path d="M544.579 265.655C544.815 265.655 544.815 265.655 545.051 265.418L564.904 240.839C565.14 240.603 565.14 240.366 564.904 240.13C564.667 239.894 564.431 239.894 564.195 240.13L544.342 264.709C544.106 264.946 544.106 265.182 544.342 265.418C544.342 265.655 544.579 265.655 544.579 265.655Z" fill="#FFB700"/>
<path d="M560.414 246.275H560.65C560.887 246.038 560.887 245.802 560.65 245.566L555.687 239.421C555.451 239.185 555.215 239.185 554.978 239.421C554.742 239.657 554.742 239.894 554.978 240.13L559.941 246.275C559.941 246.275 560.178 246.275 560.414 246.275Z" fill="#FFB700"/>
<path d="M555.45 251.947H555.687C555.923 251.711 555.923 251.474 555.923 251.238L551.196 244.621C550.96 244.384 550.723 244.384 550.487 244.384C550.251 244.62 550.251 244.857 550.251 245.093L554.978 251.711C555.214 251.711 555.214 251.947 555.45 251.947Z" fill="#FFB700"/>
<path d="M549.778 259.273H550.015C550.251 259.037 550.251 258.801 550.251 258.564L545.761 250.765C545.524 250.529 545.288 250.529 545.052 250.529C544.815 250.765 544.815 251.002 544.815 251.238L549.306 259.037C549.306 259.273 549.542 259.273 549.778 259.273Z" fill="#FFB700"/>
<path d="M633.442 314.104C648.096 314.104 660.385 312.45 660.622 312.45C660.858 312.45 661.094 312.214 661.094 311.977C661.094 311.741 660.858 311.505 660.622 311.505C660.149 311.505 621.153 316.468 598.937 308.668C598.701 308.668 598.464 308.668 598.228 308.905C598.228 309.141 598.228 309.378 598.464 309.614C608.627 313.159 621.862 314.104 633.442 314.104Z" fill="#FFB700"/>
<path d="M654.713 320.249C654.95 320.249 655.186 320.013 655.186 319.776L656.368 312.686C656.368 312.45 656.131 312.214 655.895 311.977C655.659 311.977 655.422 312.214 655.186 312.45L654.004 319.54C654.241 319.776 654.477 320.249 654.713 320.249Z" fill="#FFB700"/>
<path d="M645.496 320.958C645.732 320.958 645.969 320.722 645.969 320.485L646.914 313.868C646.914 313.632 646.678 313.395 646.441 313.159C646.205 313.159 645.969 313.395 645.732 313.632L644.787 320.249C644.787 320.485 645.023 320.722 645.496 320.958C645.26 320.958 645.26 320.958 645.496 320.958Z" fill="#FFB700"/>
<path d="M636.751 320.958C636.987 320.958 637.224 320.722 637.224 320.485L637.46 313.868C637.46 313.631 637.224 313.395 636.987 313.395C636.751 313.395 636.515 313.631 636.515 313.868L636.278 320.485C636.042 320.722 636.278 320.958 636.751 320.958Z" fill="#FFB700"/>
<path d="M627.061 320.958C627.298 320.958 627.534 320.722 627.534 320.485L628.479 313.868C628.479 313.631 628.243 313.395 628.007 313.395C627.77 313.395 627.534 313.631 627.534 313.868L626.589 320.485C626.589 320.485 626.825 320.722 627.061 320.958Z" fill="#FFB700"/>
<path d="M618.08 320.249C618.316 320.249 618.553 320.013 618.553 319.776V313.868C618.553 313.631 618.316 313.395 618.08 313.395C617.844 313.395 617.607 313.631 617.607 313.868V319.776C617.607 320.013 617.844 320.249 618.08 320.249Z" fill="#FFB700"/>
<path d="M610.045 319.54C610.281 319.54 610.518 319.304 610.518 319.067V312.213C610.518 311.977 610.281 311.741 610.045 311.741C609.809 311.741 609.572 311.977 609.572 312.213V319.067C609.572 319.304 609.809 319.54 610.045 319.54Z" fill="#FFB700"/>
<path d="M602.246 318.122C602.482 318.122 602.718 317.886 602.718 317.649L602.955 310.559C602.955 310.323 602.718 310.087 602.482 310.087C602.246 310.087 602.009 310.323 602.009 310.559L601.773 317.649C601.537 317.886 601.773 318.122 602.246 318.122Z" fill="#FFB700"/>
<path d="M175.662 515.289C175.662 515.289 161.245 527.578 150.374 534.905C141.866 540.577 131.467 547.194 132.885 549.322C134.303 551.449 189.843 548.613 189.843 548.613C189.843 548.613 190.079 533.959 195.515 534.905C200.951 535.614 198.351 548.849 198.351 548.849L213.949 548.376C213.949 548.376 214.422 533.959 213.004 528.287C211.586 522.142 208.041 512.689 208.041 512.689L175.662 515.289Z" fill="#7F58E0"/>
<path d="M180.862 510.798L161.01 527.105C165.028 528.287 189.843 525.924 196.224 523.324C202.606 520.724 208.041 512.689 208.041 512.689L192.916 507.016L180.862 510.798Z" fill="#FC7F4F"/>
<path d="M173.535 413.662C173.535 413.662 172.353 439.423 175.898 467.784C179.443 496.145 181.334 512.689 181.334 512.689H208.04C208.04 512.689 205.677 451.004 209.931 427.606C214.185 403.972 173.535 413.662 173.535 413.662Z" fill="#FC7F4F"/>
<path d="M231.203 251.297C231.203 251.297 240.656 236.171 251.055 246.098C261.218 256.024 280.125 337.798 275.871 354.105C273.744 362.141 251.292 366.395 240.893 359.305C230.021 352.451 231.203 251.297 231.203 251.297Z" fill="white"/>
<path d="M217.022 238.771C217.022 238.771 234.275 236.408 237.584 251.061C240.893 265.714 228.367 275.167 224.113 269.022C219.622 262.641 217.022 238.771 217.022 238.771Z" fill="white"/>
<path d="M151.319 224.591C151.319 224.591 157.228 246.57 164.082 246.334C170.936 246.097 175.19 243.734 175.19 243.734C175.19 243.734 185.589 228.136 179.916 224.827C170.936 219.864 151.319 224.591 151.319 224.591Z" fill="#FD8753"/>
<path d="M174.244 229.317C174.244 229.317 163.609 232.39 164.79 240.898C165.736 249.17 176.607 241.607 176.607 241.607L179.68 236.408L177.08 229.317H174.244Z" fill="#FD8753"/>
<path d="M165.027 238.534C164.555 238.534 164.555 238.298 164.555 237.825C165.5 232.862 170.7 230.026 170.936 230.026C171.172 229.79 171.409 230.026 171.645 230.262C171.881 230.499 171.645 230.735 171.409 230.971C171.409 230.971 166.445 233.571 165.736 238.062C165.5 238.298 165.264 238.534 165.027 238.534Z" fill="black"/>
<path d="M154.865 242.316C154.865 242.316 143.284 274.458 154.865 294.311C166.445 313.927 205.205 310.618 205.205 310.618L208.987 279.421C208.987 279.421 191.261 280.367 184.171 270.44C178.735 263.114 181.098 243.261 181.098 243.261L154.865 242.316Z" fill="#FFB700"/>
<path d="M179.917 275.64C179.681 275.64 179.681 275.64 179.444 275.64C178.499 275.404 178.263 274.695 178.263 274.458C177.79 272.095 182.044 267.604 182.517 267.132C182.753 266.895 182.989 266.895 183.226 267.132C183.462 267.132 183.462 267.368 183.462 267.604C183.226 268.786 182.517 274.458 180.626 275.64C180.39 275.64 180.153 275.64 179.917 275.64ZM182.044 269.022C180.626 270.677 178.972 273.04 179.208 274.222C179.208 274.458 179.444 274.695 179.681 274.695C179.681 274.695 179.681 274.695 179.917 274.695C180.862 273.986 181.571 271.386 182.044 269.022Z" fill="#5E1DBB"/>
<path d="M236.875 283.203C236.875 283.203 243.965 284.148 248.219 286.512C252.473 288.875 258.146 303.528 258.146 303.528L238.057 328.58L218.204 318.654L236.875 283.203Z" fill="#FFB700"/>
<path d="M196.933 421.698C196.933 421.698 194.097 442.732 207.804 467.784C223.639 496.381 234.747 511.034 234.747 511.034L261.454 503.471C261.454 503.471 237.347 444.859 237.111 420.989C236.638 397.118 196.933 421.698 196.933 421.698Z" fill="#FD8753"/>
<path d="M216.077 427.843C213.477 428.079 210.877 428.079 208.041 428.079C203.787 428.079 200.006 427.843 196.224 427.37C186.298 425.952 178.026 423.116 171.881 420.28C172.827 387.428 183.226 356.941 189.37 341.342C191.734 335.67 193.388 331.889 193.861 330.943C193.861 330.707 194.097 330.707 194.097 330.707L205.678 333.307L207.805 333.779L208.041 336.379L208.514 342.997L216.077 427.843Z" fill="#E2209E"/>
<path d="M247.746 381.52C244.674 409.881 241.838 419.807 241.838 419.807C241.838 419.807 242.31 421.462 243.256 424.061C236.638 425.48 227.421 427.134 215.84 427.843C213.241 428.079 210.641 428.079 207.805 428.079C203.551 428.079 199.769 427.843 195.988 427.37C194.57 422.407 193.624 418.862 193.388 417.917C189.134 401.609 202.842 341.343 202.842 341.343L205.441 333.307L237.82 336.852C238.056 337.088 250.819 353.16 247.746 381.52Z" fill="#E2209E"/>
<path d="M203.078 428.552C202.842 428.552 202.842 428.552 202.605 428.315C202.369 428.079 196.224 422.17 198.351 418.389C198.824 417.444 199.533 416.971 200.715 416.735C202.369 416.498 204.023 417.207 205.205 417.68C204.969 415.553 204.969 411.299 207.568 408.463C209.223 406.808 211.35 405.863 214.186 406.099C217.495 406.336 219.858 407.517 221.512 409.408C223.64 412.008 223.64 415.317 223.403 416.735C225.058 416.498 229.548 416.262 230.493 419.571C231.675 423.352 229.312 426.897 229.075 426.897C228.839 427.134 228.603 427.134 228.366 426.897C228.13 426.661 228.13 426.425 228.366 426.188C228.366 426.188 230.493 423.116 229.548 419.807C228.603 416.735 222.931 417.916 222.931 417.916C222.694 417.916 222.694 417.916 222.458 417.68C222.221 417.68 222.221 417.444 222.221 417.207C222.221 417.207 222.931 412.953 220.567 409.881C219.149 407.99 217.022 407.045 213.95 406.808C211.35 406.572 209.459 407.281 208.041 408.699C205.205 412.008 206.15 418.153 206.15 418.153C206.15 418.389 206.15 418.625 205.914 418.625C205.678 418.625 205.441 418.625 205.441 418.625C205.441 418.625 202.842 416.735 200.951 417.207C200.242 417.444 199.769 417.68 199.297 418.389C197.879 420.989 201.66 425.479 203.314 427.134C203.551 427.37 203.551 427.606 203.314 427.843C203.314 428.552 203.078 428.552 203.078 428.552Z" fill="white"/>
<path d="M193.152 419.334H192.916C192.68 419.098 187.953 415.789 187.717 411.771C187.48 408.699 190.08 406.336 191.498 405.154C189.135 404.445 183.699 401.845 182.044 395.937C181.099 391.683 181.572 388.137 183.463 385.538C187.244 380.575 194.807 380.575 195.043 380.338C195.279 380.338 195.516 380.575 195.516 380.811C195.516 381.047 195.279 381.284 195.043 381.284C195.043 381.284 187.717 381.52 184.171 386.01C182.281 388.374 181.808 391.683 182.99 395.464C184.644 402.318 192.443 404.209 192.68 404.445C192.916 404.445 192.916 404.681 193.152 404.918C193.152 405.154 193.152 405.39 192.916 405.39C192.916 405.39 188.662 408.226 188.662 411.535C188.898 414.844 193.389 418.153 193.389 418.389C193.625 418.625 193.625 418.862 193.389 419.098C193.625 419.334 193.389 419.334 193.152 419.334Z" fill="white"/>
<path d="M239.239 402.318C238.293 402.318 237.584 402.082 236.875 401.609C236.166 401.136 235.694 400.427 235.457 399.718C234.985 397.355 236.875 393.81 237.584 392.392C235.694 391.446 230.021 387.665 230.021 379.393C230.021 371.358 236.166 369.703 238.53 369.23C237.112 367.34 234.039 361.904 236.403 356.704C237.112 355.05 238.293 353.868 239.948 353.632C243.02 352.923 246.329 355.286 246.565 355.523C246.802 355.759 246.802 355.995 246.565 356.232C246.329 356.468 246.093 356.468 245.856 356.232C245.856 356.232 242.784 353.868 240.184 354.577C239.002 354.814 238.057 355.759 237.348 357.177C234.748 362.849 239.711 369.23 239.711 369.23C239.948 369.467 239.948 369.703 239.711 369.703C239.711 369.939 239.475 369.939 239.239 369.939C239.002 369.939 230.73 370.176 230.73 379.157C230.73 388.138 237.821 391.446 238.057 391.446C238.293 391.446 238.293 391.683 238.293 391.683C238.293 391.919 238.293 391.919 238.293 392.155C238.293 392.155 235.457 396.646 235.93 399.009C236.166 399.482 236.403 399.955 236.875 400.191C239.948 402.082 244.438 398.3 244.438 398.3C244.674 398.064 244.911 398.064 245.147 398.3C245.384 398.537 245.384 398.773 245.147 399.009C245.147 399.955 242.311 402.318 239.239 402.318Z" fill="white"/>
<path d="M209.932 337.324L208.514 343.233L205.914 354.105L189.37 341.342C191.734 335.67 193.388 331.889 193.861 330.943L208.041 336.379L209.932 337.324Z" fill="#E2209E"/>
<path d="M204.496 396.173C200.478 395.937 194.333 388.138 194.097 387.901C193.86 387.665 193.86 387.429 194.097 387.192C194.333 386.956 194.569 386.956 194.806 387.192C196.46 389.319 201.423 394.992 204.259 395.228C205.205 395.228 205.914 394.992 206.386 394.283C208.277 392.155 207.095 386.956 207.095 386.72C207.095 386.483 207.095 386.247 207.332 386.247C207.568 386.011 207.568 386.011 207.804 386.011C207.804 386.011 213.004 387.192 216.549 384.593C218.912 382.938 220.094 380.102 220.33 376.084C220.803 367.34 210.64 366.631 210.168 366.631C209.931 366.631 209.931 366.631 209.695 366.394C209.695 366.158 209.695 366.158 209.695 365.922C209.695 365.922 211.35 360.722 209.695 358.359C209.222 357.65 208.513 357.177 207.568 357.177C202.605 356.941 198.587 365.685 198.351 365.922C198.351 366.158 197.878 366.394 197.642 366.158C197.405 366.158 197.169 365.685 197.405 365.449C197.642 364.976 201.896 355.759 207.568 356.232C208.75 356.232 209.931 356.941 210.404 357.886C212.058 360.25 211.113 364.267 210.877 365.922C213.24 366.158 221.748 368.049 221.276 376.321C221.039 380.575 219.621 383.647 217.022 385.538C213.949 387.901 209.931 387.429 208.041 387.192C208.277 388.847 208.75 392.865 207.095 394.755C206.623 395.701 205.677 396.173 204.496 396.173Z" fill="white"/>
<path d="M226.003 268.55L225.53 279.894C225.53 279.894 223.403 282.966 216.786 283.439C211.822 283.675 210.168 282.494 210.168 282.494L211.113 276.822L212.059 271.386L224.112 269.259L226.003 268.55Z" fill="#FD8753"/>
<path d="M226.004 267.841C226.004 268.077 225.767 268.55 225.531 269.022C222.695 274.458 213.95 276.349 211.114 276.585L212.06 271.15L226.004 267.841Z" fill="black"/>
<path d="M210.64 245.152C210.64 245.152 204.259 259.096 206.15 266.896C208.277 274.931 215.367 273.749 219.621 272.331C223.875 270.913 226.003 268.314 226.003 268.314C226.003 268.314 230.02 269.732 232.856 266.187C235.692 262.405 234.038 258.151 231.675 257.206C229.311 256.26 226.712 257.678 226.712 257.678L228.839 253.66C229.075 253.66 220.33 232.863 210.64 245.152Z" fill="#FD8753"/>
<path d="M208.514 250.824C208.277 250.824 208.041 250.588 208.041 250.352C208.041 250.115 208.277 249.879 208.514 249.879L211.35 249.406C211.586 249.406 211.822 249.643 211.822 249.879C211.822 250.115 211.586 250.352 211.35 250.352L208.514 250.824Z" fill="black"/>
<path d="M218.676 252.006L215.367 250.588C215.131 250.588 214.895 250.115 215.131 249.879C215.131 249.643 215.604 249.406 215.84 249.643L218.913 251.061C219.149 251.061 219.385 251.533 219.149 251.77C219.149 252.006 218.913 252.006 218.676 252.006Z" fill="black"/>
<path d="M210.405 260.987C210.168 260.987 209.932 260.987 209.932 260.75C208.514 257.678 210.641 255.315 212.059 254.606C212.295 254.369 212.532 254.606 212.768 254.842C213.004 255.078 212.768 255.315 212.532 255.551C212.295 255.551 209.459 257.442 210.877 260.514C210.877 260.514 210.877 260.75 210.405 260.987Z" fill="black"/>
<path d="M226.712 263.587C226.476 263.587 226.239 263.587 226.239 263.35C226.003 263.114 226.24 262.878 226.476 262.641L232.148 260.042C232.384 259.805 232.621 260.042 232.857 260.278C233.093 260.514 232.857 260.751 232.621 260.987L226.712 263.587Z" fill="black"/>
<path d="M231.675 264.768C231.439 264.768 231.439 264.768 231.202 264.532L228.603 262.168C228.366 261.932 228.366 261.696 228.603 261.459C228.839 261.223 229.075 261.223 229.312 261.459L231.911 263.823C232.148 264.059 232.148 264.296 231.911 264.532C232.148 264.768 231.911 264.768 231.675 264.768Z" fill="black"/>
<path d="M206.859 466.366C206.623 466.366 206.623 466.366 206.387 466.13C197.406 452.422 195.515 429.97 195.515 429.733C195.515 429.497 195.751 429.261 195.988 429.261C196.224 429.261 196.46 429.497 196.46 429.733C196.46 429.97 198.351 452.186 207.096 465.657C207.332 465.893 207.096 466.13 206.859 466.366Z" fill="#ED6D4F"/>
<path d="M206.623 257.205C206.623 257.205 207.805 252.951 212.296 248.224C216.786 243.498 216.786 243.498 216.786 243.498C216.786 243.498 216.313 252.242 220.331 256.26C224.349 260.041 226.949 257.914 226.949 257.914L234.511 251.297L217.259 238.771C217.022 238.771 205.678 238.062 206.623 257.205Z" fill="white"/>
<path d="M211.35 279.422L201.187 280.84C201.187 280.84 188.897 292.184 190.788 303.056C192.206 310.382 192.679 312.037 192.679 312.037L190.315 335.198C190.315 335.198 199.296 342.524 214.422 344.179C229.548 345.833 242.547 341.343 242.547 341.343C242.547 341.343 240.183 286.985 240.183 282.494C240.419 279.185 211.35 279.422 211.35 279.422Z" fill="#FFB700"/>
<path d="M210.877 278.712L206.623 280.13C206.623 280.13 205.205 288.402 215.131 288.875C225.53 289.348 234.039 280.13 234.039 280.13L224.821 278.712H210.877Z" fill="#FD8753"/>
<path d="M215.84 289.584C212.058 289.584 209.459 288.639 207.804 286.511C205.441 283.675 205.914 280.13 205.914 280.13C205.914 279.894 206.15 279.658 206.623 279.658C206.859 279.658 207.095 279.894 207.095 280.367C207.095 280.367 206.623 283.675 208.75 286.039C210.168 287.693 212.767 288.639 216.076 288.639C226.711 288.639 233.565 280.13 233.565 280.13C233.802 279.894 234.038 279.894 234.274 280.13C234.511 280.367 234.511 280.603 234.274 280.839C234.038 280.839 226.948 289.584 215.84 289.584Z" fill="#5E1DBB"/>
<path d="M239.474 420.516C237.111 420.516 234.274 420.28 233.802 419.335C233.802 419.098 233.565 418.626 234.038 418.153C236.165 415.789 241.601 419.335 242.31 419.571C242.546 419.807 242.546 419.807 242.546 420.044C242.546 420.28 242.31 420.516 242.074 420.516C241.365 420.28 240.419 420.516 239.474 420.516ZM235.929 418.153C235.456 418.153 234.984 418.389 234.747 418.626V418.862C234.984 419.335 237.347 419.571 240.183 419.335C238.765 418.862 237.111 418.153 235.929 418.153Z" fill="white"/>
<path d="M192.206 310.618C191.97 310.618 191.734 310.618 191.734 310.382C186.77 300.219 195.988 286.984 196.46 286.512C196.697 286.275 196.933 286.275 197.169 286.275C197.406 286.512 197.406 286.748 197.406 286.984C197.406 287.221 188.188 300.456 192.915 309.909C192.679 310.146 192.679 310.618 192.206 310.618Z" fill="#5E1DBB"/>
<path d="M225.294 325.271C225.294 325.271 206.15 321.253 201.187 323.38C196.46 325.271 200.242 341.342 201.66 344.178C203.078 347.014 222.93 342.76 222.93 342.76L228.602 334.488L225.294 325.271Z" fill="#FD8753"/>
<path d="M201.187 323.144C201.187 323.144 189.606 331.18 189.133 335.907C188.661 340.87 203.077 330.471 203.077 330.471L201.187 323.144Z" fill="#FD8753"/>
<path d="M208.986 343.233C208.986 343.233 218.912 345.596 215.84 348.196C212.768 350.796 202.841 346.542 201.896 343.942C200.951 341.342 208.041 338.27 208.041 338.27L208.986 343.233Z" fill="#FD8753"/>
<path d="M235.22 280.367C235.22 280.367 275.87 287.693 277.052 318.181C277.997 341.106 223.639 348.196 223.639 348.196L221.04 322.671L253.891 299.51L235.22 280.367Z" fill="#FFB700"/>
<path d="M222.931 320.544C222.694 320.544 222.458 320.544 222.458 320.308C222.458 320.072 222.458 319.835 222.694 319.599C223.403 319.126 242.783 310.618 251.055 310.618C251.291 310.618 251.528 310.854 251.528 311.091C251.528 311.327 251.291 311.563 251.055 311.563C243.02 311.563 223.167 320.308 222.931 320.544Z" fill="#5E1DBB"/>
<path d="M237.584 314.636C237.348 314.636 237.348 314.636 237.348 314.4C237.111 314.163 237.111 313.927 237.111 313.691C237.584 312.982 240.656 306.128 244.202 306.128H244.438C245.147 306.128 245.383 306.601 245.62 306.837C246.092 308.491 240.42 312.509 238.057 314.163C237.82 314.636 237.82 314.636 237.584 314.636ZM244.202 307.546C242.311 307.546 240.42 310.382 239.002 312.745C242.074 310.618 244.438 308.255 244.438 307.782C244.438 307.546 244.438 307.546 244.202 307.546Z" fill="#5E1DBB"/>
<path d="M213.004 344.887H209.932C209.695 344.887 209.459 344.651 209.459 344.415C209.459 344.178 209.695 343.942 209.932 343.942H212.059L211.113 342.288C210.877 342.051 211.113 341.815 211.35 341.579C211.586 341.342 211.822 341.579 212.059 341.815L213.713 344.178C213.713 344.415 213.713 344.651 213.713 344.651C213.24 344.887 213.24 344.887 213.004 344.887Z" fill="black"/>
<path d="M198.824 333.307C198.588 333.307 198.588 333.307 198.588 333.07C198.352 332.834 198.352 332.598 198.588 332.361C199.061 331.652 201.897 328.58 203.315 328.107C203.551 328.107 203.787 328.107 204.024 328.344C204.024 328.58 204.024 328.816 203.787 329.053C203.078 329.289 200.715 331.652 199.533 333.07C199.297 333.07 199.061 333.307 198.824 333.307Z" fill="black"/>
<path d="M200.006 338.979C199.77 338.979 199.77 338.979 199.533 338.742C199.297 338.506 199.297 338.27 199.533 338.033L205.205 332.834C205.442 332.598 205.678 332.598 205.914 332.834C206.151 333.07 206.151 333.307 205.914 333.543L200.242 338.742C200.242 338.742 200.242 338.979 200.006 338.979Z" fill="black"/>
<path d="M215.367 257.442C214.895 257.442 214.895 256.969 214.895 256.733L215.367 254.842L214.895 253.187C214.895 252.951 214.895 252.715 215.367 252.478C215.604 252.478 215.84 252.478 216.076 252.951L216.549 254.842V255.078L216.076 256.969C215.84 257.205 215.604 257.442 215.367 257.442Z" fill="black"/>
<path d="M208.514 256.496C208.041 256.496 208.041 256.024 208.041 255.787L208.514 253.897L208.041 252.242C208.041 252.006 208.041 251.769 208.514 251.533C208.75 251.533 208.986 251.533 209.223 252.006L209.695 253.897V254.133L209.223 256.024C208.986 256.26 208.75 256.496 208.514 256.496Z" fill="black"/>
<path d="M213.713 267.132C212.531 267.132 211.586 265.478 211.586 265.005C211.586 264.769 211.586 264.769 211.586 264.532C211.586 264.296 211.822 264.296 211.822 264.296L215.367 262.642C215.604 262.642 215.84 262.642 215.84 262.642C216.076 262.878 216.076 262.878 216.076 263.114C215.84 263.823 215.131 266.423 213.949 266.896C213.949 267.132 213.949 267.132 213.713 267.132ZM212.768 265.241C213.24 265.95 213.713 266.187 213.713 266.187C213.949 266.187 214.422 265.241 214.658 264.296L212.768 265.241Z" fill="black"/>
<path d="M230.493 515.525C230.493 515.525 219.858 531.596 211.349 541.759C204.732 549.794 196.224 559.011 198.587 560.902C200.714 562.32 254.127 543.413 254.127 543.413C254.127 543.413 250.109 529.469 255.781 528.524C261.454 527.578 262.635 541.05 262.635 541.05L277.761 535.85C277.761 535.85 273.98 521.906 271.143 516.943C268.071 511.507 261.69 503.472 261.69 503.472L230.493 515.525Z" fill="#9364ED"/>
<path d="M234.275 509.853L219.386 531.36C223.64 531.36 247.274 521.67 252.946 517.179C258.618 512.689 261.454 503.472 261.454 503.472L245.147 502.29L234.275 509.853Z" fill="#FD8753"/>
<path d="M7.38141 162.887L222.439 60.4794L280.229 181.76L65.171 284.167L7.38141 162.887Z" fill="#352F75"/>
<path d="M1.92877 165.248L216.986 62.8403L274.776 184.121L59.7184 286.528L1.92877 165.248Z" fill="#5E1DBB"/>
<path d="M161.721 89.2895L191.014 75.3408L248.804 196.621L219.511 210.57L161.721 89.2895Z" fill="#9364ED"/>
<path d="M68.7032 208.72L98.6284 181.193L81.6962 144.226L117.123 164.181L147.048 136.654L139.018 176.513L174.445 196.468L134.055 201.148L126.025 241.007L109.093 204.04L68.7032 208.72Z" fill="white"/>
<circle cx="28.9113" cy="229.663" r="27.4971" transform="rotate(-90.4839 28.9113 229.663)" fill="#0E0E0E"/>
<circle cx="248.021" cy="125.995" r="27.4971" transform="rotate(-90.4839 248.021 125.995)" fill="#0E0E0E"/>
<path d="M236.874 262.405C236.402 262.168 236.402 261.932 236.402 261.696C239.001 253.897 235.22 246.57 235.22 246.334C234.984 246.097 235.22 245.861 235.456 245.625C235.693 245.388 235.929 245.625 236.165 245.861C236.402 246.097 240.183 253.66 237.347 261.932C237.347 262.168 237.111 262.405 236.874 262.405Z" fill="#9364ED"/>
<path d="M238.529 252.715C238.292 252.715 238.292 252.715 238.056 252.715C237.82 252.715 237.583 252.479 237.583 252.242C237.583 252.006 237.82 251.77 238.056 251.77C240.419 251.77 247.037 251.297 247.51 248.697C247.51 248.461 247.51 248.225 247.51 248.225C246.564 247.516 241.837 249.406 237.82 251.533C237.583 251.77 237.347 251.533 237.111 251.297C236.874 251.061 236.874 250.824 237.111 250.588C239.947 247.752 247.037 239.48 244.673 236.88C244.437 236.408 243.964 236.408 243.964 236.644C241.837 237.117 239.001 244.443 237.583 248.934C237.583 249.17 237.111 249.406 236.874 249.17C236.638 249.17 236.402 248.697 236.638 248.461C237.111 247.279 240.419 236.171 243.728 235.462C244.201 235.462 244.91 235.462 245.619 236.171C248.219 239.007 243.255 245.625 240.183 249.17C243.019 247.752 247.037 246.098 248.455 247.279C248.691 247.516 249.164 247.988 248.928 248.934C247.982 252.479 240.419 252.715 238.529 252.715Z" fill="#9364ED"/>
<path d="M177.79 378.684C177.553 378.684 177.317 378.448 177.317 378.211C177.317 377.975 177.553 377.739 177.79 377.739C177.79 377.739 181.571 377.03 184.171 373.012C186.534 368.758 182.28 361.195 182.28 361.195C182.28 360.958 182.28 360.959 182.28 360.722C182.28 360.486 182.516 360.486 182.753 360.486C182.753 360.486 187.716 360.013 188.898 357.177C190.316 353.396 186.534 350.087 186.298 349.851C186.062 349.614 186.062 349.378 186.298 349.141C186.534 348.905 186.771 348.905 187.007 349.141C187.243 349.378 191.734 352.923 189.843 357.65C188.661 360.486 185.352 361.431 183.698 361.668C184.88 363.795 187.479 369.939 185.352 373.957C182.28 377.975 178.026 378.448 177.79 378.684Z" fill="white"/>
<path d="M193.388 420.044C193.152 420.044 192.915 419.807 192.915 419.571C189.843 399.009 199.769 355.05 200.715 350.796L193.624 345.597C193.388 345.36 193.388 345.124 193.624 344.888C193.861 344.651 194.097 344.651 194.333 344.888L201.66 350.323C201.896 350.56 201.896 350.56 201.896 350.796C201.896 351.269 190.788 398.3 194.097 419.571C193.861 419.807 193.624 420.044 193.388 420.044Z" fill="white"/>
<path d="M171.881 231.208C171.881 231.208 168.336 216.319 171.881 216.082C175.662 215.846 182.516 227.899 182.28 230.027C182.043 232.154 179.444 236.408 179.444 236.408L171.881 231.208Z" fill="#FD8753"/>
<path d="M230.966 268.786C230.966 270.677 229.548 272.095 227.657 272.095C225.766 272.095 224.348 270.677 224.348 268.786C224.348 266.896 225.766 265.477 227.657 265.477C229.548 265.477 230.966 266.896 230.966 268.786Z" fill="#07CBF5"/>
<path d="M436.043 237.986C436.043 237.986 447.387 218.843 457.55 225.933C467.712 232.787 451.641 249.567 451.641 249.567C451.641 249.567 481.42 261.857 479.766 284.782C478.111 307.707 439.588 309.125 429.898 299.671C420.208 290.218 436.043 237.986 436.043 237.986Z" fill="white"/>
<path d="M365.851 227.588C365.851 227.588 363.251 247.441 369.868 249.804C376.486 251.931 381.449 251.222 381.449 251.222C381.449 251.222 393.502 242.241 391.612 235.86C388.776 226.643 365.851 227.588 365.851 227.588Z" fill="#FD8753"/>
<path d="M503.164 225.933C503.164 225.933 505.763 245.786 499.146 248.149C492.528 250.276 487.565 249.567 487.565 249.567C487.565 249.567 475.512 239.405 476.221 233.496C477.639 223.097 503.164 225.933 503.164 225.933Z" fill="#FD8753"/>
<path d="M419.735 256.894C419.735 256.894 415.718 252.64 416.663 246.022C417.372 241.532 419.263 239.877 419.263 239.877C419.263 239.877 415.954 233.732 425.171 233.732C434.388 233.732 439.824 238.223 439.824 238.223C439.824 238.223 443.842 236.096 445.969 240.823C448.096 245.549 446.442 252.876 446.442 252.876L419.735 256.894Z" fill="white"/>
<path d="M439.824 262.566V273.674C439.824 273.674 437.933 276.983 431.316 277.455C426.589 277.928 424.934 275.328 424.934 275.328L426.116 265.638L437.697 263.039L439.824 262.566Z" fill="#FD8753"/>
<path d="M440.061 263.039C440.061 263.275 439.824 263.748 439.824 264.221C437.461 269.893 428.48 272.965 425.644 273.202L426.353 267.766L440.061 263.039Z" fill="black"/>
<path d="M423.517 241.296C423.517 241.296 417.845 255.476 420.208 263.275C422.572 271.075 429.662 269.656 433.916 268.002C438.17 266.348 440.061 263.748 440.061 263.748C440.061 263.748 444.079 264.93 446.678 261.148C449.278 257.367 447.624 253.113 445.26 252.167C442.897 251.222 440.297 252.876 440.297 252.876L442.424 248.859C442.188 248.859 432.734 228.533 423.517 241.296Z" fill="#FD8753"/>
<path d="M440.297 253.112C440.297 253.112 434.388 254.531 429.898 247.913C425.407 241.296 425.88 238.696 425.88 238.696L421.862 245.786C421.862 245.786 420.681 241.059 422.571 237.987C424.462 234.914 426.353 235.387 426.353 235.387L439.824 238.223L443.605 248.622L440.297 253.112Z" fill="white"/>
<path d="M424.463 259.257C424.699 259.257 424.699 259.257 424.463 259.257C424.935 259.021 424.935 258.785 424.935 258.548C423.99 255.949 425.881 253.113 425.881 253.113C426.117 252.876 425.881 252.64 425.644 252.404C425.408 252.167 425.172 252.404 424.935 252.64C424.935 252.876 422.808 255.949 423.754 258.785C424.226 259.021 424.226 259.257 424.463 259.257Z" fill="black"/>
<path d="M441.006 259.73C441.242 259.73 441.242 259.73 441.478 259.493L445.26 255.239C445.496 255.003 445.496 254.767 445.26 254.53C445.023 254.294 444.787 254.294 444.551 254.53L440.769 258.784C440.533 259.021 440.533 259.257 440.769 259.493C440.769 259.73 440.769 259.73 441.006 259.73Z" fill="black"/>
<path d="M445.024 258.548C445.261 258.548 445.497 258.312 445.497 258.076C445.497 257.839 445.261 257.603 445.024 257.603L442.425 257.367C442.188 257.367 441.952 257.603 441.952 257.839C441.952 258.076 442.188 258.312 442.425 258.312L445.024 258.548Z" fill="black"/>
<path d="M421.389 247.913L423.989 247.44C424.226 247.44 424.462 247.204 424.462 246.731C424.462 246.495 424.226 246.259 423.753 246.259L421.389 246.731C421.153 246.731 420.917 246.968 420.917 247.44C420.917 247.677 421.153 247.913 421.389 247.913Z" fill="black"/>
<path d="M431.789 249.095C432.026 249.095 432.262 249.095 432.262 248.858C432.498 248.622 432.262 248.386 432.026 248.149L427.772 246.259C427.535 246.022 427.299 246.259 427.062 246.495C426.826 246.731 427.062 246.968 427.299 247.204L431.789 249.095Z" fill="black"/>
<path d="M421.626 253.585C421.863 253.585 422.099 253.349 422.099 253.113L422.808 250.513C422.808 250.276 422.808 250.276 422.808 250.04L422.099 249.095C421.863 248.858 421.626 248.858 421.39 249.095C421.154 249.331 421.154 249.567 421.39 249.804L422.099 250.513L421.39 252.876C421.154 253.112 421.154 253.349 421.626 253.585Z" fill="black"/>
<path d="M428.717 254.058C428.953 254.058 429.189 253.822 429.189 253.585L429.898 250.985C429.898 250.749 429.898 250.513 429.662 250.513L428.48 249.331C428.244 249.095 428.008 249.095 427.771 249.331C427.535 249.567 427.535 249.804 427.771 250.04L428.717 250.985L428.008 253.349C428.244 253.585 428.244 253.822 428.717 254.058Z" fill="black"/>
<path d="M437.934 505.287L437.225 520.649L409.1 527.03L407.682 516.395L410.045 502.451L437.934 505.287Z" fill="#FD8753"/>
<path d="M407.682 341.031C407.682 341.031 402.01 387.826 400.356 432.731C398.701 477.871 397.519 510.486 397.519 510.486L446.205 512.141L448.333 422.568L447.151 341.031H407.682Z" fill="#FFB700"/>
<path d="M488.983 378.373L478.82 390.426L500.091 407.915L514.271 395.389L488.983 378.373Z" fill="#FD8753"/>
<path d="M466.767 341.031C466.767 341.031 471.73 358.52 474.566 373.646C477.402 388.771 481.892 408.86 481.892 408.86C481.892 408.86 498.2 454.474 468.657 461.091C432.025 469.127 430.37 425.168 430.37 425.168L434.152 332.286L466.767 341.031Z" fill="#FFB700"/>
<path d="M439.588 272.256C439.588 272.256 449.041 269.893 458.259 281.946C467.24 293.763 469.839 343.394 469.13 344.103C468.421 345.049 452.587 350.484 432.97 349.539C413.354 348.357 407.446 344.103 406.264 343.394C405.082 342.685 414.299 281.473 414.299 281.473C414.299 281.473 421.153 272.492 424.698 274.619C432.025 279.11 436.515 275.565 439.588 272.256Z" fill="#9364ED"/>
<path d="M439.588 272.02C439.588 272.02 449.041 269.656 458.259 281.71C467.24 293.526 469.839 343.158 469.13 343.867C468.421 344.812 452.587 350.248 432.97 349.303C413.354 348.121 407.446 343.867 406.264 343.158C405.082 342.449 414.299 281.237 414.299 281.237C414.299 281.237 421.153 272.256 424.698 274.383C432.025 278.873 436.515 275.092 439.588 272.02Z" fill="#9364ED"/>
<path d="M433.207 548.773C435.334 548.773 436.988 547.119 437.225 544.756C437.697 536.011 439.588 516.631 437.934 516.631C435.807 516.631 414.536 521.122 414.536 521.122C414.536 521.122 414.536 509.068 405.555 510.959C398.701 512.377 390.666 519.704 387.357 523.012C386.175 523.958 384.993 524.903 383.575 525.139C377.194 526.321 359.941 530.575 359.469 539.32C358.76 550.191 363.25 549.01 365.377 549.246C367.032 549.246 418.79 549.01 433.207 548.773Z" fill="#E2209E"/>
<path d="M509.544 356.157C507.89 354.739 505.527 354.975 503.872 356.629C497.964 363.011 485.201 380.5 486.383 381.681C488.038 383.099 503.872 390.899 503.872 390.899C503.872 390.899 498.673 398.698 506.708 403.188C512.853 406.497 523.725 406.024 528.452 405.788C529.87 405.552 531.524 406.024 532.706 406.733C538.378 409.806 554.449 417.841 560.594 411.46C568.157 403.661 563.903 401.534 562.248 400.116C561.067 398.462 520.889 365.374 509.544 356.157Z" fill="#E2209E"/>
<path d="M425.408 273.911C425.408 273.911 400.356 276.983 394.448 270.838C388.303 264.93 389.485 248.859 389.485 248.859L362.305 246.495C362.305 246.495 352.379 292.581 372.704 303.217C398.702 316.924 423.045 310.78 423.045 310.78L425.408 273.911Z" fill="#9364ED"/>
<path d="M374.122 245.077C374.358 245.077 374.595 244.84 374.595 244.604C377.431 236.568 382.867 234.914 383.103 234.914C383.339 234.914 383.576 234.441 383.576 234.205C383.576 233.969 383.103 233.732 382.867 233.732C382.63 233.732 376.722 235.623 373.649 244.131C373.649 244.604 373.649 244.84 374.122 245.077Z" fill="black"/>
<path d="M513.089 408.624L480.238 384.754L472.203 398.462L474.566 458.728C474.566 458.728 487.801 455.892 513.089 408.624Z" fill="#FFB700"/>
<path d="M446.679 458.728C446.915 458.728 446.915 458.728 447.151 458.492C447.388 458.255 447.388 458.019 447.151 457.783C447.151 457.783 437.461 448.329 430.844 424.459C424.226 400.588 425.644 363.956 425.644 363.719C425.644 363.483 425.644 363.247 425.408 363.247L411.937 357.102C411.7 356.865 411.464 357.102 411.228 357.338C410.991 357.574 411.228 357.811 411.464 358.047L424.463 363.956C424.226 367.737 423.517 402.006 429.662 424.695C436.28 448.802 445.733 458.019 446.206 458.492C446.442 458.728 446.442 458.728 446.679 458.728Z" fill="white"/>
<path d="M469.367 404.606C469.603 404.606 469.603 404.606 469.839 404.606C475.275 403.661 477.875 390.426 477.875 389.717C477.875 389.48 477.875 389.244 477.639 389.244C477.402 389.244 477.166 389.244 476.93 389.48C474.566 392.317 466.767 401.77 468.185 404.134C468.421 404.134 468.658 404.606 469.367 404.606ZM476.457 391.608C475.512 395.862 473.148 402.952 469.839 403.425C469.603 403.425 469.367 403.425 469.367 403.425C468.421 402.479 472.203 396.807 476.457 391.608Z" fill="white"/>
<path d="M464.64 361.829C465.822 361.829 466.767 361.593 466.767 361.593C467.003 361.593 467.24 361.356 467.24 360.884C467.24 360.647 467.003 360.411 466.531 360.411C466.058 360.411 457.313 362.538 453.296 351.43C453.296 351.194 452.823 350.957 452.587 351.194C452.35 351.194 452.114 351.666 452.35 351.903C455.186 360.647 461.331 361.829 464.64 361.829Z" fill="white"/>
<path d="M389.957 280.055C390.903 280.055 391.612 279.819 392.321 279.11C394.684 276.746 394.684 271.074 394.684 270.838C394.684 270.602 394.448 270.365 394.448 270.365C394.211 270.365 393.975 270.365 393.975 270.365C392.793 271.311 387.358 276.746 388.067 279.11C388.303 279.583 388.776 280.055 389.957 280.055ZM393.739 272.02C393.739 273.674 393.266 276.983 391.848 278.401C391.375 278.874 390.666 279.11 389.957 279.11C389.721 279.11 389.248 279.11 389.248 278.873C388.776 277.692 391.375 274.383 393.739 272.02Z" fill="#5E1DBB"/>
<path d="M388.538 256.657C388.774 256.657 389.011 256.421 389.011 256.185C389.011 255.948 388.774 255.712 388.538 255.712L361.359 253.585C361.123 253.585 360.886 253.821 360.886 254.058C360.886 254.294 361.123 254.53 361.359 254.53L388.538 256.657Z" fill="#5E1DBB"/>
<path d="M410.046 314.324C410.519 314.324 410.519 314.088 410.519 313.615C407.683 300.38 413.119 292.581 413.119 292.581C413.355 292.345 413.355 292.108 413.119 291.872C412.882 291.636 412.646 291.636 412.41 291.872C412.173 292.108 406.501 299.908 409.574 313.615C409.574 314.324 409.81 314.324 410.046 314.324Z" fill="#5E1DBB"/>
<path d="M431.552 276.747C437.461 276.747 439.824 272.493 439.824 272.493C440.06 272.256 439.824 272.02 439.588 271.783C439.351 271.547 439.115 271.783 438.879 272.02C438.642 272.256 435.334 278.401 424.698 274.147C424.462 274.147 424.226 274.147 423.989 274.383C423.989 274.62 423.989 274.856 424.226 275.092C427.298 276.274 429.661 276.747 431.552 276.747Z" fill="#5E1DBB"/>
<path d="M443.606 272.256C443.606 272.256 468.658 275.328 474.566 269.183C480.711 263.275 479.529 246.258 479.529 246.258L506.708 243.895C506.708 243.895 518.053 288.563 496.31 301.326C470.076 316.451 445.969 309.361 445.969 309.361L443.606 272.256Z" fill="#9364ED"/>
<path d="M494.891 243.659C495.364 243.422 495.364 243.186 495.364 242.95C492.528 234.441 486.383 232.551 486.147 232.551C485.91 232.551 485.674 232.551 485.437 233.023C485.437 233.26 485.437 233.496 485.91 233.732C485.91 233.732 491.582 235.387 494.418 243.422C494.418 243.422 494.655 243.659 494.891 243.659Z" fill="black"/>
<path d="M479.057 278.637C479.766 278.637 480.239 278.165 480.239 277.928C481.184 276.037 476.457 270.602 475.039 268.947C474.803 268.711 474.567 268.711 474.567 268.711C474.33 268.711 474.33 268.947 474.33 269.184C474.33 269.42 474.33 274.856 476.694 277.455C477.166 278.401 478.112 278.637 479.057 278.637ZM475.276 270.838C477.639 273.674 479.766 276.983 479.53 277.692C479.53 277.692 479.53 277.692 479.293 277.692C478.584 277.692 477.875 277.455 477.403 276.746C475.748 275.328 475.276 272.492 475.276 270.838Z" fill="#5E1DBB"/>
<path d="M480.003 254.53L507.654 252.167C507.891 252.167 508.127 251.931 508.127 251.694C508.127 251.458 507.891 251.222 507.654 251.222L480.003 253.585C479.766 253.585 479.53 253.821 479.53 254.058C479.53 254.294 479.766 254.53 480.003 254.53Z" fill="#5E1DBB"/>
<path d="M427.771 264.22C429.189 264.22 429.898 261.857 430.135 261.148C430.135 260.912 430.135 260.675 429.898 260.675C429.662 260.439 429.662 260.439 429.426 260.439L425.408 261.857C425.172 261.857 425.172 262.093 425.172 262.093C425.172 262.33 425.172 262.33 425.172 262.566C425.408 262.566 426.353 263.984 427.771 264.22ZM428.717 261.621C428.244 262.33 428.008 263.039 427.771 263.039C427.299 263.039 426.826 262.802 426.59 262.33L428.717 261.621Z" fill="black"/>
<path d="M536.152 92.7779L297.998 97.1948L300.455 231.517L538.609 227.1L536.152 92.7779Z" fill="#352F75"/>
<path d="M542.085 92.4552L303.931 96.8721L306.388 231.194L544.543 226.778L542.085 92.4552Z" fill="#5E1DBB"/>
<path d="M365.191 95.8559L332.752 96.4575L335.209 230.78L367.648 230.178L365.191 95.8559Z" fill="#9364ED"/>
<path d="M501.755 161.173L462.686 149.908L461.327 109.271L438.541 142.946L399.472 131.682L424.458 163.759L401.672 197.434L439.9 183.584L464.886 215.661L463.526 175.024L501.755 161.173Z" fill="white"/>
<circle cx="27.4971" cy="27.4971" r="27.4971" transform="matrix(-0.439025 -0.898475 -0.898475 0.439025 341.146 179.873)" fill="#0E0E0E"/>
<path d="M530.816 406.26C531.052 406.26 531.052 406.261 531.289 406.024C531.525 405.788 531.525 405.551 531.289 405.315L527.507 401.534C527.271 401.297 527.034 401.297 526.798 401.534C526.562 401.77 526.562 402.006 526.798 402.243L530.58 406.024C530.58 406.261 530.816 406.26 530.816 406.26Z" fill="#FFB700"/>
<path d="M386.648 524.194H391.848C392.084 524.194 392.32 523.958 392.32 523.722C392.32 523.485 392.084 523.249 391.848 523.249H386.648C386.412 523.249 386.175 523.485 386.175 523.722C385.939 523.958 386.175 524.194 386.648 524.194Z" fill="#FFB700"/>
<path d="M360.178 542.629L437.461 541.92C437.697 541.92 437.934 541.684 437.934 541.447C437.934 541.211 437.697 540.975 437.461 540.975L360.178 541.684C359.941 541.684 359.705 541.92 359.705 542.156C359.705 542.393 359.941 542.629 360.178 542.629Z" fill="#FFB700"/>
<path d="M562.485 408.624C562.721 408.624 562.721 408.624 562.958 408.388C563.194 408.151 563.194 407.915 562.958 407.679L502.218 358.993C501.982 358.756 501.746 358.756 501.509 358.993C501.273 359.229 501.273 359.465 501.509 359.702L562.012 408.388C562.248 408.388 562.248 408.624 562.485 408.624Z" fill="#FFB700"/>
<path d="M506.945 411.933C509.308 411.933 512.853 409.333 513.326 409.096C513.563 408.86 513.563 408.624 513.326 408.387C513.09 408.151 512.853 408.151 512.617 408.387C510.726 409.569 507.418 411.46 506.236 410.987C505.054 410.514 504.818 406.733 505.291 404.133C505.291 403.897 505.291 403.661 505.054 403.661C504.818 403.661 504.582 403.661 504.345 403.661C503.4 404.606 500.564 406.969 498.673 406.024C496.782 405.079 496.782 400.352 496.782 398.698C496.782 398.461 496.782 398.225 496.546 398.225C496.31 398.225 496.073 398.225 496.073 398.225C496.073 398.225 490.401 402.479 487.565 400.116C484.729 397.752 486.856 391.135 486.856 391.135C486.856 390.898 486.856 390.662 486.62 390.662C486.383 390.426 486.147 390.426 486.147 390.662C484.493 391.607 481.893 392.553 481.184 391.844C479.766 390.662 480.475 386.644 480.948 384.99C480.948 384.753 480.948 384.517 480.475 384.281C480.239 384.281 480.002 384.281 479.766 384.753C479.53 385.462 478.112 390.898 480.475 392.553C481.657 393.498 484.256 392.553 485.674 391.844C485.202 393.971 484.493 398.697 487.092 400.825C489.929 402.952 494.183 400.588 496.073 399.406C496.073 401.297 496.31 405.551 498.437 406.733C500.564 407.915 502.927 406.26 504.345 405.079C504.109 407.206 504.345 410.987 506 411.696C506.236 411.933 506.709 411.933 506.945 411.933Z" fill="white"/>
<path d="M446.206 512.614H446.442C446.679 512.377 446.679 512.141 446.679 511.905C445.97 510.723 441.716 504.105 439.352 504.105C437.225 504.105 435.334 507.887 434.625 509.777C433.444 508.123 430.371 504.814 428.481 504.814C426.353 504.814 424.463 507.887 423.517 509.541C422.336 507.178 418.554 501.742 415.246 502.451C411.937 502.924 409.101 506.941 407.919 508.596C406.974 506.941 405.083 503.633 402.72 504.578C399.883 505.523 397.284 510.014 397.284 510.25C397.047 510.486 397.284 510.723 397.52 510.959C397.756 511.196 397.993 510.959 398.229 510.723C398.229 510.723 400.829 506.469 403.192 505.523C404.847 505.051 406.974 508.596 407.683 510.014C407.683 510.25 407.919 510.25 408.155 510.25C408.392 510.25 408.628 510.25 408.628 510.014C408.628 510.014 411.937 504.105 415.718 503.396C418.791 502.924 422.336 508.596 423.517 510.959C423.517 511.196 423.754 511.196 423.99 511.196C424.226 511.196 424.463 510.959 424.463 510.959C424.935 509.541 427.063 505.76 428.953 505.76C430.371 505.76 433.207 509.068 434.862 510.959C434.862 511.196 435.098 511.196 435.334 511.196C435.571 511.196 435.571 510.959 435.807 510.959C436.752 508.596 438.643 505.051 440.061 505.051C441.479 505.051 444.552 509.305 446.442 512.377C445.97 512.377 445.97 512.614 446.206 512.614Z" fill="white"/>
<path d="M391.374 235.623C391.374 235.623 388.774 222.861 384.993 224.515C381.211 226.17 384.993 239.405 384.993 239.405L391.374 235.623Z" fill="#FD8753"/>
<path d="M476.457 233.496C476.457 233.496 477.403 221.207 482.366 222.152C486.383 223.097 482.366 237.041 482.366 237.041L476.457 233.496Z" fill="#FD8753"/>
<path d="M458.969 335.359C459.205 335.359 459.678 335.359 459.914 335.122C463.695 333.704 462.514 324.96 462.514 324.014C462.514 323.778 462.277 323.778 462.277 323.542C462.041 323.542 461.805 323.542 461.805 323.542L460.15 324.723L458.496 322.833C458.26 322.596 458.26 322.596 458.023 322.596C457.787 322.596 457.787 322.833 457.551 322.833L456.605 325.905L454.478 324.723C454.242 324.723 454.005 324.723 454.005 324.723C453.769 324.723 453.769 324.96 453.769 325.196C453.769 325.432 454.951 332.759 457.787 334.413C458.26 335.359 458.496 335.359 458.969 335.359ZM461.805 325.196C462.041 328.032 462.041 333.468 459.914 334.413C459.441 334.65 458.969 334.65 458.496 334.413C456.842 333.468 455.66 329.214 455.187 326.85L457.078 327.796C457.314 327.796 457.314 327.796 457.551 327.796C457.787 327.796 457.787 327.559 457.787 327.559L458.732 324.723L460.15 326.378C460.387 326.614 460.623 326.614 460.859 326.378L461.805 325.196Z" fill="#5E1DBB"/>
<path d="M456.368 304.398C456.605 304.398 457.077 304.398 457.314 304.162C461.095 302.744 459.914 293.999 459.914 293.054C459.914 292.817 459.677 292.817 459.677 292.581C459.441 292.581 459.205 292.581 459.205 292.581L457.55 293.763L455.896 291.872C455.659 291.636 455.659 291.636 455.423 291.636C455.187 291.636 455.187 291.872 454.95 291.872L454.005 294.945L451.878 293.763C451.642 293.763 451.405 293.763 451.405 293.763C451.169 293.763 451.169 293.999 451.169 294.235C451.169 294.472 452.351 301.798 455.187 303.453C455.423 304.398 455.896 304.398 456.368 304.398ZM458.968 294.235C459.205 297.072 459.205 302.507 457.077 303.453C456.605 303.689 456.132 303.689 455.659 303.453C454.005 302.507 452.823 298.253 452.351 295.89L454.241 296.835C454.478 296.835 454.478 296.835 454.714 296.835C454.95 296.835 454.95 296.599 454.95 296.599L455.896 293.763L457.314 295.417C457.55 295.654 457.787 295.654 458.023 295.417L458.968 294.235Z" fill="#5E1DBB"/>
<path d="M484.493 300.38C488.038 300.38 492.528 295.417 493.237 294.708C493.474 294.472 493.474 294.472 493.237 294.236C493.237 293.999 493.001 293.999 492.765 293.999L490.638 293.527L491.11 291.163C491.11 290.927 491.11 290.69 490.874 290.69C490.638 290.69 490.638 290.454 490.401 290.69L487.329 291.872L486.62 289.509C486.62 289.272 486.383 289.272 486.147 289.036C485.911 289.036 485.674 289.036 485.674 289.272C485.438 289.509 480.711 295.181 481.42 298.49C481.657 299.435 482.129 299.908 482.838 300.38C483.547 300.38 484.02 300.38 484.493 300.38ZM491.583 294.708C489.692 296.835 485.674 300.38 483.311 299.199C482.838 298.962 482.602 298.49 482.366 298.017C481.893 296.126 484.256 292.345 485.674 290.454L486.147 292.345C486.147 292.581 486.383 292.581 486.383 292.581C486.62 292.581 486.62 292.581 486.856 292.581L489.456 291.4L489.22 293.527C489.22 293.763 489.456 293.999 489.692 293.999L491.583 294.708Z" fill="#5E1DBB"/>
<path d="M499.619 282.182C503.4 282.182 506.236 274.383 506.709 273.438C506.709 273.201 506.709 272.965 506.709 272.965C506.473 272.729 506.473 272.729 506.236 272.729L504.109 273.201L503.637 270.838C503.637 270.602 503.4 270.602 503.164 270.365C502.928 270.365 502.691 270.365 502.691 270.602L500.328 272.965L498.91 270.838C498.91 270.602 498.673 270.602 498.437 270.602C498.201 270.602 498.201 270.838 497.964 270.838C497.964 271.074 495.601 278.164 497.492 281.001C497.964 281.71 498.673 282.182 499.619 282.182ZM505.291 273.91C504.346 276.51 501.746 281.237 499.382 281.237C498.91 281.237 498.437 281.001 498.201 280.528C497.019 278.874 497.964 274.619 498.437 272.256L499.619 273.91C499.619 274.147 499.855 274.147 500.091 274.147C500.328 274.147 500.328 274.147 500.564 273.91L502.691 271.783L503.164 273.674C503.164 273.91 503.4 274.147 503.873 274.147L505.291 273.91Z" fill="#5E1DBB"/>
<path d="M488.51 266.82C492.765 266.584 494.419 258.075 494.655 257.13C494.655 256.894 494.655 256.657 494.419 256.657C494.183 256.421 494.183 256.421 493.946 256.657L492.056 257.366L491.11 255.003C491.11 254.767 490.874 254.767 490.637 254.767C490.401 254.767 490.165 254.767 490.165 255.003L488.274 257.603L486.62 255.948C486.383 255.712 486.383 255.712 486.147 255.712C485.911 255.712 485.911 255.948 485.674 256.185C485.674 256.421 484.256 263.748 486.62 266.347C486.856 266.584 487.565 266.82 488.51 266.82ZM493.474 257.839C492.765 260.675 491.11 265.638 488.747 265.875C488.274 265.875 487.801 265.638 487.329 265.402C485.911 263.748 486.147 259.73 486.62 257.13L488.038 258.548C488.038 258.548 488.274 258.784 488.51 258.784C488.747 258.784 488.747 258.784 488.983 258.548L490.637 256.185L491.347 258.075C491.347 258.312 491.819 258.548 492.056 258.312L493.474 257.839Z" fill="#5E1DBB"/>
<path d="M466.059 289.273C469.84 289.273 473.622 282.655 473.858 281.71C473.858 281.473 473.858 281.237 473.858 281.237C473.858 281.001 473.622 281.001 473.385 281.001H471.258L471.022 278.401C471.022 278.165 470.785 278.165 470.785 277.928C470.549 277.928 470.313 277.928 470.313 277.928L467.713 279.819L466.531 277.692C466.531 277.456 466.295 277.456 466.059 277.456C465.822 277.456 465.586 277.456 465.586 277.692C465.35 277.928 462.041 284.546 463.459 287.618C463.695 288.327 464.404 288.8 465.35 289.036C465.586 289.273 465.822 289.273 466.059 289.273ZM472.44 281.946C471.022 284.309 467.713 288.8 465.35 288.091C464.877 287.855 464.404 287.618 464.168 287.146C463.459 285.255 464.877 281.237 465.822 279.11L466.768 281.001C466.768 281.237 467.004 281.237 467.004 281.237C467.24 281.237 467.24 281.237 467.477 281.237L469.84 279.583L470.076 281.71C470.076 281.946 470.313 282.182 470.549 282.182C470.785 281.946 472.44 281.946 472.44 281.946Z" fill="#5E1DBB"/>
<path d="M390.429 302.98C391.138 302.98 391.847 302.744 392.32 302.507C393.029 302.035 393.502 301.326 393.502 300.38C393.738 297.072 388.302 292.108 388.066 291.872C387.83 291.636 387.83 291.636 387.593 291.872C387.357 291.872 387.357 292.108 387.357 292.345L387.121 294.708L384.048 293.763C383.812 293.763 383.576 293.763 383.576 293.999C383.339 294.235 383.339 294.235 383.339 294.472L384.048 296.835L382.157 297.544C381.921 297.544 381.921 297.781 381.921 298.017C381.921 298.253 381.921 298.49 382.157 298.49C382.157 298.962 386.884 302.98 390.429 302.98ZM388.066 293.29C389.72 294.945 392.556 298.253 392.32 300.38C392.32 300.853 392.084 301.326 391.611 301.562C389.72 302.98 385.23 299.908 382.866 298.253L384.521 297.781C384.757 297.781 384.994 297.308 384.757 297.072L384.285 295.181L387.121 295.89C387.357 295.89 387.357 295.89 387.593 295.89C387.83 295.89 387.83 295.654 387.83 295.417L388.066 293.29Z" fill="#5E1DBB"/>
<path d="M373.176 286.909C373.413 286.909 373.649 286.909 373.885 286.909C374.831 286.672 375.303 286.2 375.776 285.491C377.194 282.418 374.122 275.801 373.885 275.564C373.885 275.328 373.649 275.328 373.413 275.328C373.176 275.328 372.94 275.328 372.94 275.564L371.758 277.692L369.159 275.801C368.922 275.801 368.922 275.564 368.686 275.801C368.45 275.801 368.45 276.037 368.45 276.273L368.213 278.637L366.086 278.401C365.85 278.401 365.613 278.401 365.613 278.637C365.613 278.873 365.613 278.873 365.613 279.11C365.85 280.055 369.395 286.909 373.176 286.909ZM373.176 276.983C374.122 279.11 375.54 283.364 374.594 285.018C374.358 285.491 373.885 285.727 373.413 285.963C371.049 286.436 367.977 282.182 366.559 279.582H368.213C368.45 279.582 368.686 279.346 368.686 279.11L368.922 276.983L371.286 278.873C371.522 278.873 371.522 279.11 371.758 278.873C371.995 278.873 371.995 278.637 371.995 278.637L373.176 276.983Z" fill="#5E1DBB"/>
<path d="M382.158 270.365H382.394C383.339 270.365 384.048 269.893 384.521 269.184C386.412 266.348 384.285 259.494 384.048 259.021C384.048 258.785 383.812 258.785 383.576 258.785C383.339 258.785 383.103 258.785 383.103 259.021L381.685 260.912L379.321 258.548C379.085 258.312 379.085 258.312 378.849 258.312C378.612 258.312 378.612 258.548 378.376 258.785L377.667 261.148L375.54 260.675C375.304 260.675 375.067 260.675 375.067 260.912C374.831 261.148 374.831 261.148 375.067 261.384C375.54 262.33 378.376 270.365 382.158 270.365ZM383.339 260.203C384.048 262.566 384.757 266.82 383.576 268.475C383.339 268.947 382.867 269.184 382.394 269.184C380.03 269.42 377.667 264.693 376.485 261.857L378.14 262.093C378.376 262.093 378.612 262.093 378.849 261.621L379.321 259.73L381.449 261.857C381.449 261.857 381.685 262.093 381.921 262.093C382.158 262.093 382.158 262.093 382.394 261.857L383.339 260.203Z" fill="#5E1DBB"/>
<path d="M407.209 289.509C407.682 289.509 407.918 289.509 408.391 289.273C409.1 289.036 409.809 288.327 410.045 287.618C410.991 284.309 406.737 278.401 406.5 278.165C406.5 277.928 406.264 277.928 406.027 277.928C405.791 277.928 405.791 278.165 405.555 278.165L404.609 280.528L401.773 279.11C401.537 279.11 401.301 279.11 401.301 279.11C401.064 279.11 401.064 279.346 401.064 279.583L401.301 281.946L399.174 282.182C398.937 282.182 398.937 282.419 398.701 282.419C398.701 282.655 398.701 282.891 398.701 282.891C399.41 283.6 403.664 289.509 407.209 289.509ZM406.264 279.346C407.682 281.473 409.573 285.018 409.1 287.145C408.864 287.618 408.627 288.091 408.155 288.327C405.791 289.273 402.246 285.491 400.355 283.128L402.01 282.891C402.246 282.891 402.482 282.655 402.482 282.419L402.246 280.292L404.846 281.71C405.082 281.71 405.082 281.71 405.318 281.71C405.555 281.71 405.555 281.473 405.555 281.473L406.264 279.346Z" fill="#5E1DBB"/>
<path d="M435.334 345.757C435.571 345.757 435.571 345.757 435.807 345.757C439.825 345.048 440.534 336.54 440.77 335.358C440.77 335.122 440.77 334.886 440.534 334.886C440.297 334.886 440.297 334.649 440.061 334.886L438.17 335.831L436.989 333.704C436.989 333.468 436.752 333.468 436.516 333.468C436.28 333.468 436.043 333.468 436.043 333.704L434.389 336.54L432.498 334.886C432.262 334.649 432.025 334.649 432.025 334.886C431.789 334.886 431.789 335.122 431.789 335.358C431.789 335.595 431.316 342.921 433.68 345.285C434.153 345.521 434.862 345.757 435.334 345.757ZM439.588 336.304C439.116 339.14 438.17 344.339 435.571 344.812C435.098 344.812 434.625 344.812 434.152 344.339C432.734 342.921 432.498 338.667 432.498 336.304L434.152 337.722C434.152 337.722 434.389 337.958 434.625 337.722C434.862 337.722 434.862 337.722 435.098 337.486L436.516 334.886L437.461 336.777C437.698 337.013 437.934 337.013 438.17 337.013L439.588 336.304Z" fill="#5E1DBB"/>
<path d="M435.334 318.342C435.571 318.342 435.571 318.342 435.807 318.342C439.825 317.633 440.534 309.125 440.77 307.943C440.77 307.707 440.77 307.471 440.534 307.471C440.297 307.471 440.297 307.234 440.061 307.471L438.17 308.416L436.989 306.289C436.989 306.053 436.752 306.053 436.516 306.053C436.28 306.053 436.043 306.053 436.043 306.289L434.389 309.125L432.498 307.471C432.262 307.234 432.025 307.234 432.025 307.471C431.789 307.471 431.789 307.707 431.789 307.943C431.789 308.18 431.316 315.506 433.68 317.87C434.153 318.106 434.862 318.342 435.334 318.342ZM439.588 308.889C439.116 311.725 438.17 316.924 435.571 317.397C435.098 317.397 434.625 317.397 434.152 316.924C432.734 315.506 432.498 311.252 432.498 308.889L434.152 310.307C434.152 310.307 434.389 310.543 434.625 310.307C434.862 310.307 434.862 310.307 435.098 310.071L436.516 307.471L437.461 309.361C437.698 309.598 437.934 309.598 438.17 309.598L439.588 308.889Z" fill="#5E1DBB"/>
<path d="M437.934 289.982C438.407 289.982 438.643 289.982 439.116 289.745C442.897 288.091 441.479 279.583 441.243 278.637C441.243 278.401 441.006 278.401 441.006 278.165C440.77 278.165 440.534 278.165 440.534 278.165L438.879 279.583L437.225 277.692C436.989 277.456 436.989 277.456 436.752 277.456C436.516 277.456 436.516 277.692 436.28 277.928L435.334 281.001L432.971 280.055C432.735 280.055 432.498 280.055 432.498 280.055C432.262 280.292 432.262 280.292 432.262 280.528C432.262 280.764 433.68 288.091 436.516 289.745C436.989 289.982 437.461 289.982 437.934 289.982ZM440.297 279.583C440.77 282.419 440.77 287.855 438.643 288.8C438.17 289.036 437.698 289.036 437.225 288.8C435.334 287.855 434.153 283.837 433.68 281.473L435.571 282.419C435.807 282.419 435.807 282.419 436.043 282.419C436.28 282.419 436.28 282.182 436.28 282.182L436.989 279.346L438.407 280.764C438.643 281.001 438.879 281.001 439.116 280.764L440.297 279.583Z" fill="#5E1DBB"/>
<path d="M415.481 335.358C415.954 335.358 416.427 335.122 416.899 334.886C419.735 333.231 420.917 325.905 420.917 325.669C420.917 325.432 420.917 325.196 420.681 325.196C420.444 325.196 420.208 324.96 420.208 325.196L418.081 326.378L417.136 323.305C417.136 323.069 416.899 323.069 416.663 323.069C416.427 323.069 416.19 323.069 416.19 323.305L414.536 325.196L412.881 324.014C412.645 324.014 412.645 323.778 412.409 324.014C412.172 324.014 412.172 324.251 412.172 324.487C411.936 325.432 410.991 334.177 414.772 335.595C414.772 335.358 415.008 335.358 415.481 335.358ZM419.735 326.614C419.263 328.977 418.081 332.995 416.427 334.177C415.954 334.413 415.481 334.413 415.008 334.177C412.645 333.231 412.645 328.032 413.118 324.96L414.299 325.905C414.536 326.141 414.772 326.141 415.008 325.905L416.427 324.251L417.372 327.087C417.372 327.323 417.608 327.323 417.608 327.323C417.845 327.323 417.845 327.323 418.081 327.323L419.735 326.614Z" fill="#5E1DBB"/>
<path d="M419.499 301.326C419.972 301.326 420.445 301.089 420.917 300.853C423.753 299.199 424.935 291.872 424.935 291.636C424.935 291.399 424.935 291.163 424.699 291.163C424.462 291.163 424.226 290.927 424.226 291.163L422.099 292.345L421.154 289.272C421.154 289.036 420.917 289.036 420.681 289.036C420.445 289.036 420.208 289.036 420.208 289.272L418.554 291.163L416.9 289.981C416.663 289.745 416.663 289.745 416.427 289.981C416.19 289.981 416.19 290.218 416.19 290.454C415.954 291.399 415.009 300.144 418.79 301.562C418.79 301.326 419.263 301.326 419.499 301.326ZM423.753 292.581C423.281 294.945 422.099 298.962 420.445 300.144C419.972 300.38 419.499 300.38 419.027 300.144C416.663 299.199 416.663 293.999 417.136 290.927L418.318 291.872C418.554 292.109 418.79 292.109 419.027 291.872L420.445 290.218L421.39 293.054C421.39 293.29 421.626 293.29 421.626 293.29C421.863 293.29 421.863 293.29 422.099 293.29L423.753 292.581Z" fill="#5E1DBB"/>
<path d="M446.678 250.513C446.915 250.513 447.151 250.277 447.151 250.04C446.678 237.278 437.934 235.624 437.934 235.624C437.697 235.624 437.461 235.86 437.225 236.096C437.225 236.333 437.461 236.569 437.697 236.805C437.934 236.805 445.733 238.46 446.206 250.04C446.206 250.277 446.442 250.513 446.678 250.513Z" fill="#07CBF5"/>
</svg>
