<svg width="943" height="786" viewBox="0 0 943 786" fill="none" xmlns="http://www.w3.org/2000/svg">
<g opacity="0.2" clip-path="url(#clip0_31_139)">
<path d="M489.275 652.839C504.559 652.146 518.818 650.006 531.858 646.434C552.515 640.777 570.261 631.475 584.599 618.782C600.345 604.842 609.02 586.518 609.678 565.79C610.272 547.011 604.482 527.139 592.929 508.336L592.876 508.25L592.772 508.254C545.01 509.346 501.748 490.961 477.05 459.07C455.198 430.853 449.231 393.883 460.253 354.977L461.568 350.603L461.237 350.477C461.237 350.477 461.271 350.428 461.322 350.419C461.368 350.411 461.404 350.428 461.416 350.44L461.221 350.171L461.099 350.473C432.227 426.662 353.305 465.186 273.679 468.794C248.229 469.948 222.727 467.534 198.739 461.652L198.545 461.606L198.523 461.804C196.308 480.818 199.924 499.816 209.28 518.258C217.477 534.421 230.122 550.291 246.868 565.42C284.315 599.258 331.311 619.735 349.781 626.97C372.809 635.991 419.028 651.358 469.885 652.962C476.516 653.17 482.995 653.134 489.291 652.846L489.275 652.839ZM592.674 508.614C612.386 540.761 620.545 586.486 584.362 618.52C557.083 642.67 518.565 654.135 469.883 652.602C419.08 651.002 372.9 635.647 349.896 626.631C331.448 619.407 284.498 598.95 247.096 565.152C210.984 532.522 194.75 497.83 198.846 462.041C248.738 474.241 304.569 471.127 352.047 453.493C377.424 444.065 399.533 430.908 417.753 414.384C436.755 397.151 451.092 376.598 460.399 353.256L459.912 354.881C454.197 375.056 452.935 394.519 456.166 412.735C459.205 429.901 466.141 445.566 476.772 459.295C488.948 475.015 505.924 487.824 525.871 496.345C545.91 504.902 569.014 509.146 592.68 508.622L592.674 508.614Z" fill="white"/>
<path d="M462.808 346.793C463.261 346.775 463.802 346.584 464.432 346.225L464.488 346.192L466.072 341.751C472.587 324.265 481.557 307.446 492.523 291.622C516.778 299.281 550.117 307.316 585.642 308.463C607.756 309.178 628.039 307.068 645.928 302.2C666.021 296.733 683.271 287.718 697.195 275.403C712.542 261.833 720.975 244.021 721.582 223.891C722.134 205.651 716.453 186.345 705.154 168.062L705.094 167.968L704.987 167.977C655.845 172.353 604.859 191.696 561.422 222.445C539.482 237.975 520.202 255.86 504.114 275.602C499.954 280.708 496.033 285.904 492.361 291.19C483.111 288.264 475.196 285.396 468.999 282.993C468.795 282.915 468.586 282.833 468.386 282.755C468.363 282.54 468.34 282.331 468.317 282.121C466.793 268.794 463.429 255.431 458.32 242.407C448.533 217.454 432.447 194.006 411.795 174.605C386.981 151.292 355.353 133.118 320.338 122.055L320.132 121.991L320.108 122.205C317.964 140.788 321.559 159.348 330.798 177.369C338.891 193.157 351.35 208.651 367.837 223.418C404.166 255.961 449.397 275.721 468.041 283.006C469.512 296.57 469.113 310.2 466.734 323.596C466.583 324.435 465.961 326.312 465.17 328.689C462.345 337.177 459.97 344.931 461.904 346.516C462.148 346.715 462.455 346.808 462.817 346.791L462.808 346.793ZM464.198 345.949C463.238 346.484 462.538 346.584 462.122 346.245C460.217 344.687 463.525 334.746 465.5 328.806C466.293 326.415 466.923 324.527 467.079 323.663C469.437 310.394 469.89 296.774 468.43 283.165C468.579 283.224 468.726 283.279 468.869 283.334C475.05 285.725 482.935 288.585 492.146 291.503C481.043 307.522 472.187 324.316 465.736 341.625L464.198 345.949ZM704.91 168.347C724.17 199.578 732.183 243.998 696.959 275.14C670.489 298.544 633.04 309.635 585.656 308.109C550.221 306.965 516.963 298.958 492.74 291.317C538.982 224.823 620.645 175.888 704.91 168.347ZM320.435 122.465C355.321 133.523 386.82 151.639 411.547 174.872C443.946 205.31 463.663 243.659 467.99 282.611C394.535 253.915 312.245 194.964 320.435 122.465Z" fill="white"/>
<path d="M272.992 469.419C282.098 469.009 291.228 468.118 300.349 466.75C324.082 463.194 346.573 456.571 367.194 447.059C412.916 425.973 445.496 392.616 461.42 350.596C475.053 314.287 473.793 275.272 457.783 237.762C443.136 203.445 416.772 172.423 383.552 150.408C365.408 138.385 345.37 128.707 324.006 121.652C302.98 114.709 281.026 110.418 258.76 108.894C212.941 105.766 168.356 114.44 129.816 133.968C94.4204 151.905 65.6633 180.154 48.8362 213.505C40.1674 230.684 34.8614 248.745 33.0579 267.187C31.1561 286.63 33.2037 306.162 39.1392 325.248C51.178 363.964 77.0957 398.076 114.088 423.901C147.66 447.335 189.329 462.976 231.426 467.941C245.119 469.558 259.026 470.045 272.986 469.416L272.992 469.419ZM461.089 350.47C426.747 441.087 319.584 477.981 231.474 467.591C155.159 458.593 66.2012 411.057 39.4819 325.144C16.5466 251.399 53.7633 172.915 129.977 134.286C207.455 95.0163 309.279 101.615 383.352 150.7C442.252 189.733 491.699 268.91 461.089 350.47Z" fill="white"/>
<path d="M486.951 651.384C507.174 650.468 525.443 647.47 541.293 642.465C556.834 637.557 570.111 630.68 580.924 621.964C585.21 622.155 589.483 622.301 593.744 622.406C608.195 622.749 622.21 622.613 635.746 622.002C713.073 618.501 775.326 599.414 821.232 565.064C840.809 550.413 856.068 533.155 866.573 513.765C876.392 495.647 882.124 475.592 883.606 454.153C885.001 433.997 882.648 412.714 876.619 390.9C870.871 370.11 861.884 349.166 849.915 328.655L849.718 328.32L849.592 328.684C824.04 402.106 751.639 467.576 665.145 495.477C640.733 503.352 616.386 507.654 592.767 508.255L592.464 508.261L597.088 516.238C616.167 552.027 613.446 588.304 589.806 613.286C587.025 616.225 584.029 619.001 580.822 621.602C505.142 618.248 427.719 601.273 350.484 571.085C299.269 551.065 247.397 524.811 201.076 493.177C198.534 483.164 197.595 472.683 198.857 461.835L198.877 461.68L198.723 461.641C173.525 455.369 147.746 444.627 124.229 429.79C68.9945 373.708 34.2757 306.984 40.3537 232.461L40.4714 231.005L40.0039 232.39C33.0205 253.131 30.6424 275.465 33.1314 296.98C37.7386 336.789 57.4016 373.837 90.0052 404.12C100.297 413.682 111.751 422.425 124.057 430.186C129.004 435.185 134.161 440.137 139.525 445.048C157.739 461.731 178.241 477.843 200.784 493.219C203.206 502.683 207.182 512.232 212.698 521.808C222.131 538.194 235.803 554.315 253.326 569.724C283.419 596.182 320.789 617.728 361.403 632.026C401.805 646.249 444.432 652.972 484.681 651.473C485.436 651.443 486.196 651.413 486.946 651.38L486.951 651.384ZM580.407 621.941C558.634 639.432 527.297 649.198 487.016 651.026C486.238 651.059 485.46 651.093 484.672 651.123C402.877 654.18 314.325 622.89 253.566 569.468C232.567 551.007 209.147 524.536 201.154 493.481C214.443 502.526 228.437 511.318 243.092 519.817C276.627 539.259 313.717 557.107 350.354 571.426C389.804 586.847 430.012 598.986 469.855 607.503C507.032 615.453 544.152 620.292 580.407 621.941ZM849.796 329.165C891.783 401.333 906.227 501.012 821.014 564.775C767.143 605.089 690.679 624.357 593.751 622.043C589.615 621.945 585.481 621.808 581.335 621.625C584.457 619.082 587.366 616.383 590.063 613.531C602.285 600.614 609.139 584.317 609.877 566.405C610.552 550.043 606.239 532.636 597.405 516.068L593.08 508.599C616.632 507.967 640.916 503.662 665.257 495.813C706.068 482.65 744.642 460.903 776.81 432.923C811.301 402.927 836.532 367.053 849.805 329.159L849.796 329.165ZM198.488 461.953C197.324 472.118 198.069 482.473 200.714 492.927C173.264 474.151 147.771 453.49 125.542 431.115C147.758 444.91 172.671 455.506 198.488 461.953ZM39.8859 233.897C36.9757 272.919 45.0128 311.546 63.7835 348.733C77.6355 376.172 97.4153 403.041 122.725 428.836C77.0112 399.53 40.1677 354.639 33.491 296.945C31.0627 275.961 33.275 254.193 39.8859 233.897Z" fill="white"/>
<path d="M633.955 622.78C684.545 620.49 730.408 610.663 770.544 593.498C808.18 577.401 857.302 546.695 877.571 491.843C893.385 449.04 887.363 400.838 859.15 344.483L859.149 344.474L849.95 328.72C857.151 307.731 859.965 287.509 858.311 268.615C855.281 233.984 837.598 205.974 807.167 187.612C793.683 179.475 778.158 173.495 761.027 169.851C744.651 166.363 727.615 165.158 710.395 166.269L710.099 166.288L710.253 166.541C730.097 198.652 738.395 244.337 702.157 276.272C674.821 300.366 636.208 311.748 587.403 310.113C536.581 308.407 490.298 293.008 467.236 283.984C448.747 276.748 401.7 256.279 364.213 222.587C327.845 189.907 311.501 155.159 315.639 119.315L315.656 119.165L315.511 119.124C303.738 115.719 291.772 113.093 279.933 111.324C236.15 104.781 189.92 109.667 149.754 125.076C105.343 142.115 71.1107 170.779 50.7589 207.969C39.0144 229.43 34.8975 253.454 38.5259 279.365C41.6821 301.911 50.7057 326.068 65.3456 351.168C97.3949 406.117 146.777 449.729 166.521 465.932C245.702 530.905 346.219 578.817 457.211 604.485C513.004 617.388 566.161 623.719 615.205 623.298C621.523 623.243 627.779 623.075 633.958 622.798L633.955 622.78ZM858.833 344.648C886.991 400.908 893.016 449.02 877.236 491.722C857.012 546.452 807.98 577.1 770.405 593.171C726.9 611.779 680.12 620.209 634.196 622.291C569.751 625.211 506.996 615.626 457.286 604.13C346.347 578.471 245.883 530.584 166.742 465.651C147.015 449.463 97.6717 405.883 65.6506 350.986C33.8964 296.55 28.9916 248.487 51.0744 208.141C96.4867 125.152 201.514 99.9628 279.88 111.67C291.651 113.428 303.557 116.036 315.264 119.42C313.106 138.386 316.778 157.326 326.173 175.718C334.425 191.867 347.143 207.724 363.969 222.849C401.507 256.58 448.6 277.069 467.105 284.316C490.188 293.351 536.511 308.766 587.39 310.471C610.168 311.235 631.071 309.086 649.517 304.086C670.23 298.476 688.019 289.204 702.39 276.539C718.154 262.644 726.812 244.36 727.429 223.668C727.984 205.019 722.201 185.294 710.707 166.608C777.024 162.426 851.298 192.554 857.951 268.651C859.6 287.517 856.782 307.716 849.583 328.686L849.558 328.761L849.599 328.83L858.833 344.648Z" fill="white"/>
<path d="M461.342 350.771C461.422 350.767 461.49 350.726 461.539 350.651L461.586 350.571L461.572 350.541C467.93 330.456 477.531 311.136 489.736 293.079C528.54 305.362 568.894 310.811 606.968 308.833C640.383 307.105 685.633 298.48 711.458 267.197C723.189 252.985 728.627 236.151 727.622 217.165C726.743 200.561 720.839 182.994 710.557 166.35L710.498 166.261L710.39 166.266C684.582 168.005 658.216 173.856 632.013 183.668C629.38 184.652 626.763 185.676 624.156 186.731C651.689 175.658 680.849 168.628 710.307 166.632C732.728 202.968 733.055 240.472 711.185 266.97C685.446 298.152 640.297 306.754 606.953 308.479C568.435 310.475 528.242 304.807 489.997 292.701C508.164 265.928 532.068 241.9 559.634 222.163C559.36 222.359 559.081 222.556 558.808 222.756C535.634 239.369 515.545 258.513 499.098 279.653C495.785 283.911 492.64 288.229 489.665 292.598C483.247 290.562 476.882 288.341 470.59 285.945C468.969 267.131 463.628 248.453 454.587 230.364C429.128 179.42 375.835 136.8 315.506 119.125L315.301 119.066L315.276 119.275C312.992 139.056 317.972 159.508 330.081 180.051C339.793 196.535 353.831 212.761 371.8 228.277C399.674 252.35 433.51 272.261 470.256 286.285C472.059 307.731 469.012 329.348 461.079 350.471L461.047 350.558L461.099 350.634C461.182 350.757 461.275 350.774 461.328 350.774C461.328 350.774 461.337 350.772 461.342 350.771ZM489.403 292.972C479.465 307.626 471.433 322.873 465.399 338.541C470.331 321.292 472.066 303.802 470.628 286.423C474.341 287.836 478.087 289.191 481.859 290.48C484.368 291.337 486.882 292.174 489.403 292.972ZM315.614 119.519C375.769 137.201 428.886 179.714 454.271 230.514C463.263 248.508 468.59 267.079 470.222 285.797C434.024 271.97 400.223 252.338 372.041 228.002C343.483 203.343 310.54 164.514 315.614 119.519Z" fill="white"/>
<path d="M599.076 509.028C618.239 508.162 638.132 504.653 658.257 498.592C696.535 487.06 735.601 466.051 768.252 439.43C823.496 394.389 878.71 315.483 852.519 241.326C846.478 224.225 836.638 209.678 823.27 198.087C811.169 187.597 796.205 179.527 778.794 174.109C762.996 169.189 745.522 166.532 726.856 166.209C709.852 165.914 691.986 167.639 675.186 171.203C629.846 180.817 584.195 202.522 546.643 232.319C506.312 264.323 477.272 303.659 462.663 346.078C456.742 363.483 454.139 381.003 454.924 398.156C455.704 415.224 459.803 431.182 467.108 445.58C480.631 472.237 504.046 491.433 534.828 501.099C554.004 507.121 574.674 509.825 596.268 509.136C597.199 509.109 598.142 509.07 599.076 509.028ZM713.63 166.618C773.152 163.924 832.141 184.709 852.184 241.447C878.315 315.425 823.18 394.189 768.028 439.156C710.327 486.204 618.793 527.094 534.939 500.761C504.253 491.126 480.906 471.989 467.432 445.423C452.695 416.37 451.121 381.134 463.002 346.198C491.813 262.549 577.114 192.363 675.263 171.555C687.814 168.895 700.736 167.206 713.631 166.622L713.63 166.618Z" fill="white"/>
<path d="M280.356 467.945C283.325 467.808 286.281 467.627 289.237 467.393C328.555 464.282 364.702 452.463 393.765 433.211C409.273 422.943 422.786 410.557 433.935 396.411C445.704 381.476 454.933 364.43 461.361 345.758C468.669 324.327 470.918 302.253 468.036 280.157C465.358 259.616 458.328 239.394 447.135 220.048C436.525 201.714 422.581 184.811 405.685 169.803C389.157 155.124 370.663 143.007 350.717 133.787C331.271 124.797 310.447 118.216 288.826 114.218C267.215 110.223 245.259 108.896 223.579 110.28C177.996 113.184 135.977 127.872 102.067 152.75C86.2746 164.337 72.8165 178.213 62.0624 193.999C51.4858 209.526 43.8311 226.45 39.3036 244.292C34.7304 262.332 33.4968 280.773 35.6454 299.104C37.87 318.106 43.6914 336.547 52.9421 353.911C63.2189 373.206 77.2757 390.802 94.7177 406.211C111.297 420.853 130.662 433.305 152.274 443.208C191.615 461.237 236.765 469.917 280.356 467.945ZM461.022 345.637C436.769 416.065 374.149 460.312 289.207 467.037C189.994 474.888 92.9755 428.3 53.2588 353.741C16.11 283.999 36.2666 201.464 102.274 153.036C169.14 103.981 268.924 96.3707 350.564 134.108C427.026 169.453 491.731 255.597 461.022 345.637Z" fill="white"/>
<path d="M636.634 616.473C713.363 613.002 775.007 594.232 820.283 560.483C839.941 545.832 855.289 528.62 865.904 509.315C875.845 491.241 881.697 471.251 883.295 449.9C883.525 446.801 883.67 443.679 883.722 440.535C882.797 487.792 861.364 529.42 820.066 560.199C766.794 599.903 690.807 618.854 594.222 616.518C514.595 614.593 432.8 597.343 351.122 565.244C194.201 503.584 31.0046 382.762 43.5604 228.568C51.2866 208.051 63.3087 189.338 79.2995 172.943C135.517 115.32 232.266 94.9972 320.088 122.355C317.905 141.582 322.764 161.452 334.532 181.414C343.992 197.468 357.666 213.274 375.17 228.393C404.587 253.797 440.921 274.486 480.248 288.22C519.428 301.903 560.748 308.407 599.73 307.018C622.81 306.194 646.364 300.822 666.069 291.88C687.652 282.089 703.908 268.477 713.082 252.514C719.209 241.855 722.172 230.203 721.886 217.882C721.579 204.505 717.425 190.272 709.541 175.582L705.302 168.306C729.297 166.261 751.514 167.964 771.341 173.363C803.291 182.062 827.887 200.765 842.464 227.444C857.844 255.595 860.352 290.02 849.529 324.383L849.504 324.458L849.545 324.527C867.386 355.097 878.197 385.107 882.099 413.557C878.175 384.498 867.297 354.244 849.895 324.413C860.721 289.983 858.195 255.485 842.781 227.273C835.701 214.313 826.131 203.113 814.343 193.983C802.071 184.482 787.639 177.43 771.441 173.018C751.495 167.588 729.141 165.89 704.996 167.976L704.716 168.002L709.239 175.754C724.472 204.155 725.667 229.921 712.784 252.335C692.663 287.342 642.636 304.721 601.36 306.592C600.813 306.617 600.27 306.637 599.728 306.658C520.72 309.468 434.765 279.371 375.416 228.117C347.553 204.056 315.406 166.156 320.471 122.24L320.488 122.095L320.347 122.048C300 115.697 278.696 111.795 257.031 110.449C235.05 109.084 213.251 110.389 192.248 114.332C147.196 122.784 108.058 142.96 79.0593 172.686C63.0273 189.117 50.9719 207.884 43.2316 228.456L43.2213 228.505C40.0189 267.754 47.9468 306.624 66.7759 344.034C83.4053 377.069 108.668 409.279 141.86 439.771C170.648 466.218 205.204 491.24 244.562 514.138C277.819 533.491 314.628 551.275 351.009 565.568C390.453 581.067 430.62 593.269 470.406 601.84C512.157 610.832 553.819 615.888 594.232 616.867C608.841 617.22 622.989 617.085 636.648 616.471L636.634 616.473Z" fill="white"/>
<path d="M491.678 655.14C506.727 654.46 520.829 652.405 533.783 648.99C554.941 643.42 573.248 634.175 588.188 621.504C589.972 619.991 591.671 618.427 593.286 616.816C599.183 616.955 605.056 617.012 610.909 616.987C654.275 616.802 693.662 612.174 727.971 603.235C770.051 592.269 805.176 574.628 832.368 550.797C848.112 537 860.473 521.252 869.104 503.99C877.225 487.744 882.143 469.985 883.72 451.202C886.623 416.57 878.097 378.158 859.052 340.121L859.051 340.112L849.647 324.006L849.525 324.388C842.87 345.214 832.198 365.759 817.813 385.451C766.875 455.185 680.661 502.803 598.178 506.751L597.877 506.766L598.036 507.023C622.502 546.835 620.365 588.987 593.127 616.455C451.823 613.099 306.242 563.023 193.643 479.609C192.981 472.816 193.053 465.978 193.855 459.102L193.871 458.952L193.721 458.912C177.328 454.468 161.729 448.61 147.096 441.413C92.463 391.332 36.3154 317.322 43.5515 228.546L43.6553 227.255L43.2053 228.47C29.6767 264.941 31.2003 304.023 47.6219 341.493C62.64 375.759 89.4096 406.553 122.999 428.208C130.624 433.122 138.586 437.625 146.861 441.697C152.089 446.485 157.505 451.234 163.101 455.952C172.844 464.157 182.93 472.126 193.332 479.84C194.596 492.291 198.311 504.661 204.448 516.805C212.808 533.353 225.706 549.606 242.788 565.107C281.037 599.824 328.989 620.816 347.832 628.227C371.383 637.492 418.626 653.324 470.436 655.216C477.7 655.482 484.784 655.458 491.669 655.146L491.678 655.14ZM592.786 616.805C591.255 618.33 589.649 619.806 587.964 621.235C527.921 672.145 424.628 658.055 347.977 627.893C329.154 620.488 281.249 599.516 243.045 564.839C213.22 537.773 196.695 509.349 193.701 480.097C215.237 496.041 238.113 510.882 262.056 524.424C297.097 544.245 334.438 561.307 373.05 575.134C411.519 588.91 451.215 599.468 491.03 606.513C525.096 612.539 559.239 615.992 592.786 616.805ZM858.738 340.281C900.079 422.859 890.385 499.495 832.136 550.529C786.884 590.181 720.925 612.167 635.86 616.021C627.712 616.391 619.405 616.594 610.908 616.631C605.164 616.655 599.396 616.599 593.634 616.47C607.053 602.909 614.557 585.889 615.435 566.836C616.335 547.338 610.479 526.69 598.496 507.098C639.707 505.073 682.183 492.427 721.346 470.522C759.801 449.014 793.263 419.671 818.102 385.661C832.422 366.056 843.064 345.612 849.74 324.877L858.735 340.287L858.738 340.281ZM193.485 459.215C192.713 465.934 192.649 472.656 193.298 479.352C183.031 471.733 173.034 463.838 163.342 455.676C158.294 451.422 153.169 446.949 148.035 442.263C162.324 449.208 177.529 454.879 193.485 459.215ZM43.1058 229.812C39.9695 271.824 50.7501 314.14 75.1583 355.61C92.3278 384.774 116.081 413.366 145.928 440.831C138.06 436.91 130.479 432.596 123.207 427.91C63.8015 389.616 13.6153 311.416 43.1058 229.812Z" fill="white"/>
<path d="M489.018 653.749C490.31 653.691 491.59 653.626 492.878 653.55C526.843 651.568 572.845 642.501 599.107 610.571C611.14 595.94 616.74 578.63 615.752 559.124C614.884 542.043 608.865 523.96 598.345 506.835L598.291 506.745L598.187 506.749C547.761 509.025 504.587 493.204 479.736 463.343C454.964 433.583 449.374 391.041 464.37 346.569C464.435 346.481 464.504 346.388 464.567 346.287L464.619 346.207L464.58 346.119C464.557 346.07 464.534 346.022 464.502 345.976L464.303 345.655L464.181 346.013C464.137 346.14 464.093 346.271 464.049 346.398C463.751 346.754 463.433 346.939 463.091 346.942C462.536 346.946 461.92 346.471 461.343 345.599L461.142 345.298L461.022 345.642C425.033 450.162 294.253 485.82 193.726 458.911L193.526 458.856L193.5 459.06C191.131 479.379 196.19 500.382 208.54 521.485C218.457 538.427 232.815 555.119 251.218 571.1C314.507 626.064 405.286 657.539 489.018 653.749ZM598.09 507.113C621.003 544.46 621.28 583.046 598.83 610.344C572.65 642.174 526.751 651.214 492.858 653.193C408.153 658.142 315.649 626.583 251.455 570.83C222.244 545.46 188.555 505.533 193.834 459.305C218.366 465.847 245.415 468.732 272.085 467.652C272.519 467.637 272.962 467.615 273.396 467.595C300.618 466.365 326.683 461.223 350.884 452.316C376.976 442.714 399.558 429.174 417.995 412.075C437.912 393.603 452.462 371.402 461.239 346.088C461.837 346.889 462.466 347.305 463.088 347.299C463.349 347.296 463.588 347.225 463.814 347.08C457.076 367.332 454.529 388.067 456.444 407.115C458.632 428.863 466.371 447.858 479.453 463.574C492.88 479.704 511.044 491.623 533.447 498.993C552.713 505.332 575.064 508.141 598.09 507.113Z" fill="white"/>
<path d="M599.904 507.239C629.233 505.911 659.65 498.787 689.483 486.138C728.269 469.691 764.364 444.868 793.866 414.359C806.037 401.77 817.42 387.306 826.78 372.531C837.202 356.077 845.132 339.395 850.347 322.941C856.148 304.641 858.449 286.97 857.194 270.414C855.797 252.034 849.989 235.006 839.927 219.8C829.822 204.53 816.327 192.363 799.811 183.633C784.936 175.771 767.59 170.669 748.254 168.466C730.877 166.489 712.172 166.862 692.662 169.58C675.165 172.019 657.104 176.404 640.425 182.259C600.48 196.29 563.041 218.492 532.156 246.472C498.633 276.838 474.628 312.771 462.738 350.391C451.178 387.464 455.141 423.825 473.898 452.775C483.247 467.205 495.784 479.142 511.166 488.259C526.999 497.641 545.169 503.614 565.172 506.013C576.501 507.369 588.112 507.774 599.904 507.239ZM714.685 167.932C764.799 165.664 813.106 179.911 839.63 220C879.395 280.098 845.169 360.798 793.609 414.114C743.788 465.632 657.63 516.731 565.215 505.664C525.622 500.92 493.294 482.067 474.197 452.584C455.503 423.723 451.555 387.473 463.08 350.502C490.757 262.945 572.903 206.359 640.548 182.603C664.042 174.349 689.593 169.069 714.691 167.936L714.685 167.932Z" fill="white"/>
<path d="M461.334 350.776L461.544 350.654L461.564 350.551L461.552 350.482L461.372 350.561L461.389 350.549L461.366 350.553L461.357 350.531L461.362 350.506L461.429 350.485L461.36 350.497L461.367 350.482L461.414 350.45L461.371 350.476L461.389 350.416L461.35 350.409L461.336 350.412L461.339 350.43L461.33 350.484L461.309 350.501L461.253 350.455L461.305 350.507L461.271 350.527L461.222 350.517L461.262 350.529L461.083 350.532L461.116 350.64L461.233 350.742L461.338 350.771L461.334 350.776ZM461.357 350.583L461.343 350.585L461.351 350.579L461.357 350.583Z" fill="white"/>
<path d="M463.531 347.387L463.969 347.31L464.264 347.181L464.444 347.04L464.578 346.86L464.651 346.652L464.662 346.503L464.631 346.276L464.499 345.981L464.193 346.159L464.304 346.467L464.277 346.661L464.153 346.821L463.925 346.952L463.586 347.026L463.511 347.03L463.016 346.999L462.471 346.848L461.986 346.602L461.618 346.296L461.405 345.978L461.363 345.791L461.367 345.709L461.011 345.682L461.006 345.816L461.05 346.041L461.193 346.334L461.416 346.603L461.792 346.902L462.243 347.14L462.837 347.33L463.432 347.39L463.531 347.387Z" fill="white"/>
<path d="M444.123 494.298C447.078 494.164 449.961 493.839 452.753 493.321C463.701 491.292 472.238 485.473 475.599 477.758C478.366 471.408 477.408 464.254 472.839 457.07L472.535 457.262C477.039 464.343 477.986 471.38 475.27 477.617C471.961 485.222 463.514 490.964 452.686 492.972C430.372 497.108 402.381 488.553 384.618 472.16C374.862 463.159 370.35 454.07 371.202 445.147L370.845 445.116C369.98 454.155 374.534 463.345 384.375 472.426C392.797 480.201 404.137 486.584 416.301 490.405C425.809 493.39 435.273 494.706 444.12 494.308L444.123 494.298Z" fill="white"/>
<path d="M519.668 270.283C522.377 270.16 525.034 269.87 527.617 269.407C538.188 267.502 546.434 261.939 549.676 254.521C552.326 248.453 551.402 241.621 547.002 234.753L546.704 234.944C551.032 241.705 551.946 248.425 549.347 254.38C546.157 261.689 538.007 267.178 527.551 269.058C506.179 272.904 479.431 264.69 462.504 249.079C453.163 240.461 448.832 231.777 449.628 223.263L449.271 223.231C448.462 231.861 452.834 240.643 462.261 249.341C477.218 263.139 499.822 271.185 519.664 270.289L519.668 270.283Z" fill="white"/>
<path d="M478.02 632.715C508.881 631.316 544.768 623.669 567.684 599.213C579.172 586.954 585.058 571.422 584.701 554.298C584.386 538.999 579.261 522.852 569.876 507.602L569.572 507.789C585.53 533.734 593.347 571.308 567.418 598.971C544.581 623.337 508.785 630.962 478 632.358C471.963 632.633 466.125 632.665 460.611 632.54C399.219 631.134 335.87 609.126 286.809 572.159C261.519 553.104 219.904 514.107 225.314 466.958L224.96 466.916C219.529 514.24 261.243 553.343 286.593 572.444C335.714 609.452 399.134 631.486 460.602 632.893C466.121 633.017 471.973 632.988 478.015 632.711L478.02 632.715Z" fill="white"/>
<path d="M590.144 292.644C592.25 292.547 594.343 292.428 596.43 292.277C616.481 290.84 635.634 285.596 651.825 277.115C668.767 268.24 681.449 256.259 688.49 242.469C699.246 221.411 696.607 196.85 680.851 171.453L680.547 171.64C696.231 196.926 698.867 221.364 688.171 242.307C674.31 269.444 638.289 288.92 596.405 291.92C594.303 292.069 592.183 292.193 590.067 292.292C521.855 295.38 447.744 270.091 395.169 225.483C370.072 204.191 341.049 170.6 345.321 131.513L344.968 131.476C340.681 170.722 369.778 204.409 394.942 225.756C421.414 248.22 454.093 266.289 489.434 278.011C522.852 289.096 557.525 294.122 590.144 292.644Z" fill="white"/>
<path d="M539.369 702.104C548.126 701.708 556.804 701.054 565.394 700.146C597.216 696.772 625.594 689.695 649.73 679.109C679.237 666.172 701.766 648.172 716.696 625.601C731.071 603.864 736.744 578.885 733.556 551.358C730.878 528.238 722.071 503.696 707.375 478.411L707.064 478.589C729.771 517.668 749.828 574.863 716.395 625.402C682.078 677.281 615.316 694.488 565.349 699.783C556.815 700.687 548.193 701.335 539.526 701.73C411.662 707.525 271.315 658.194 175.351 572.328C133.487 534.87 85.0028 475.542 91.7854 405.615L91.4275 405.578C88.466 436.127 95.7758 467.294 113.161 498.215C127.385 523.513 148.225 548.536 175.113 572.593C225.22 617.425 288.251 653.144 357.391 675.879C418.052 695.827 480.422 704.768 539.368 702.1L539.369 702.104Z" fill="white"/>
<path d="M643.313 404.919C665.233 403.925 685.698 401.232 704.407 396.86C735.179 389.673 761.535 377.858 782.735 361.747C797.169 350.78 808.39 337.898 816.097 323.469C823.296 309.984 827.468 295.068 828.497 279.147C830.398 249.75 821.658 217.535 803.226 185.987L802.915 186.166C843.395 255.456 835.768 320.987 782.513 361.458C748.281 387.471 701.661 401.929 643.681 404.554C635.475 404.925 627.052 405.058 618.397 404.957C498.3 403.526 377.98 359.791 288.298 284.961C242.655 246.876 189.766 186.252 197.03 113.732L196.676 113.695C193.51 145.315 201.697 177.623 221.012 209.732C236.678 235.771 259.239 261.174 288.071 285.234C310.358 303.832 335 320.788 361.312 335.634C387.122 350.198 414.635 362.784 443.08 373.045C471.322 383.232 500.546 391.151 529.925 396.573C559.476 402.026 589.238 404.967 618.394 405.313C626.887 405.415 635.197 405.283 643.308 404.915L643.313 404.919Z" fill="white"/>
<path d="M608.579 669.318C616.152 668.974 623.66 668.471 631.097 667.81C671.853 664.183 708.228 656.071 739.211 643.688C777.151 628.531 806.957 606.93 827.795 579.489C849.189 551.323 858.381 518.341 855.123 481.461C853.695 465.319 849.852 448.39 843.687 431.149C838.064 415.409 830.49 399.33 821.176 383.355L820.865 383.533C846.051 426.737 880.41 509.62 827.51 579.274C779.911 641.943 694.409 661.818 631.062 667.45C623.47 668.125 615.818 668.639 608.126 668.985C533.363 672.374 454.053 660.325 371.966 633.081C281.349 603.008 203.95 559.955 141.923 505.114C72.1473 443.429 35.1147 380.111 31.8445 316.917C31.3686 307.684 32.1079 298.605 32.8249 289.83L32.4686 289.803C31.7494 298.593 31.0071 307.681 31.487 316.938C33.2759 351.509 45.4705 386.679 67.7295 421.458C85.8636 449.791 110.746 478.026 141.686 505.384C173.515 533.519 210.051 558.941 250.276 580.936C287.744 601.424 328.649 619.081 371.855 633.419C414.909 647.708 457.953 657.939 499.787 663.829C536.968 669.066 573.46 670.897 608.573 669.31L608.579 669.318Z" fill="white"/>
<path d="M649.021 554.425C686.74 552.719 721.131 547.223 751.436 538.043C793.33 525.358 827.165 505.636 852.006 479.42C878.929 451.006 891.948 416.672 890.696 377.38C889.632 343.977 877.944 307.269 856.891 271.227L856.581 271.405C903.124 351.086 901.359 426.812 851.744 479.172C798.818 535.024 714.651 551.087 648.678 554.073C643.984 554.287 639.396 554.429 634.904 554.522C477.176 557.679 311.535 499.681 191.82 399.37C133.987 350.911 66.664 273.19 74.3804 178.112L74.0241 178.085C70.6661 219.461 81.2404 261.148 105.461 301.987C125.395 335.605 154.373 368.459 191.588 399.644C221.249 424.497 254.204 447.105 289.537 466.832C324.28 486.235 361.3 502.847 399.567 516.207C437.734 529.533 477.057 539.596 516.44 546.11C556.298 552.702 596.158 555.655 634.915 554.876C639.663 554.781 644.372 554.626 649.019 554.416L649.021 554.425Z" fill="white"/>
<path d="M649.15 549.653C650.931 549.571 652.702 549.485 654.476 549.385C721.124 545.704 811.186 528.052 861.744 464.868C884.392 436.565 894.524 403.397 891.862 366.283C890.688 349.94 887.003 332.807 880.9 315.351C875.297 299.322 867.631 282.941 858.127 266.667L857.817 266.846C883.335 310.532 917.744 394.318 861.467 464.646C810.991 527.73 721.034 545.354 654.456 549.032C652.64 549.13 650.813 549.226 648.994 549.306C570.64 552.855 488.149 539.86 403.687 510.657C322.742 482.67 252.053 443.625 193.584 394.603C142.34 351.64 80.2346 283.344 75.3982 201.996C74.8181 192.254 75.5881 182.785 76.332 173.625L75.9757 173.598C75.2334 182.767 74.4604 192.246 75.0409 202.017C77.1612 237.655 90.4446 273.876 114.529 309.68C134.086 338.754 160.607 367.417 193.357 394.876C223.194 419.893 256.766 442.634 293.142 462.479C327.486 481.213 364.64 497.535 403.571 510.996C444.916 525.289 486.52 535.836 527.221 542.335C568.827 548.978 609.821 551.441 649.155 549.657L649.15 549.653Z" fill="white"/>
<path d="M608.249 670.754C646.142 669.04 680.65 663.533 711.016 654.347C753.029 641.641 786.958 621.855 811.854 595.548C838.767 567.107 851.797 532.753 850.574 493.436C849.537 460 837.872 423.26 816.853 387.193L816.542 387.371C863.011 467.089 861.205 542.874 811.592 595.3C758.593 651.303 674.096 667.405 607.868 670.403C603.197 670.613 598.63 670.762 594.156 670.851C436.983 674.038 271.944 616.242 152.67 516.252C94.6644 467.619 27.1429 389.663 34.9148 294.442L34.5584 294.415C31.1739 335.909 41.7762 377.701 66.066 418.637C86.0347 452.287 115.098 485.22 152.439 516.531C181.947 541.268 214.766 563.781 249.988 583.442C284.615 602.776 321.519 619.332 359.681 632.654C397.741 645.942 436.939 655.975 476.183 662.476C515.91 669.053 555.605 671.992 594.163 671.211C598.906 671.116 603.605 670.959 608.248 670.749L608.249 670.754Z" fill="white"/>
<path d="M640.363 399.148C642.022 399.073 643.67 398.99 645.321 398.897C677.738 397.056 706.843 391.565 731.835 382.566C762.597 371.487 786.833 355.132 803.871 333.945C821.142 312.464 828.803 287.153 826.639 258.703C824.829 234.931 815.889 208.698 800.786 182.834L800.476 183.012C820.009 216.455 846.382 280.506 803.589 333.724C764.701 382.085 696.048 395.666 645.301 398.545C643.665 398.64 642.012 398.723 640.372 398.795C517.64 404.357 383.517 358.274 289.142 277.892C252.95 247.066 193.519 184.457 202.093 111.472L201.739 111.43C198.182 141.705 205.872 173.032 224.596 204.533C239.64 229.852 261.282 254.624 288.914 278.16C335.898 318.183 393.642 350.525 455.892 371.693C516.786 392.397 580.456 401.863 640.368 399.152L640.363 399.148Z" fill="white"/>
<path d="M541.351 699.35C563.498 698.349 584.181 695.599 603.074 691.142C633.792 683.893 660.101 672.025 681.266 655.873C695.679 644.871 706.9 631.961 714.611 617.502C721.824 603.986 726.01 589.045 727.068 573.099C729.015 543.637 720.339 511.359 701.972 479.747L701.661 479.926C741.97 549.298 734.263 614.967 681.049 655.588C641.997 685.394 586.856 700.135 517.15 699.399C399.019 698.157 275.889 653.385 187.781 579.635C142.263 541.537 89.5523 480.872 96.9087 408.203L96.5553 408.166C93.354 439.802 101.469 472.137 120.674 504.265C136.287 530.38 158.789 555.827 187.554 579.908C209.769 598.505 234.344 615.453 260.588 630.292C286.335 644.849 313.783 657.418 342.173 667.665C370.361 677.838 399.522 685.73 428.849 691.123C458.343 696.548 488.052 699.456 517.152 699.76C525.396 699.848 533.472 699.71 541.357 699.354L541.351 699.35Z" fill="white"/>
<path d="M587.968 288.484C589.989 288.392 592.002 288.273 594.005 288.132C613.423 286.746 631.993 281.667 647.702 273.447C664.164 264.834 676.472 253.213 683.297 239.841C693.692 219.479 691.118 195.737 675.858 171.188L675.554 171.375C690.747 195.812 693.314 219.432 682.979 239.679C669.547 265.994 634.613 284.874 593.98 287.776C591.949 287.922 589.899 288.043 587.858 288.133C520.316 291.193 447.427 265.669 396.209 220.735C373.418 200.74 347.097 169.202 351.137 132.539L350.784 132.502C349.015 148.564 352.984 165.129 362.581 181.738C370.334 195.154 381.568 208.368 395.978 221.009C421.711 243.589 453.718 261.786 488.54 273.634C521.486 284.845 555.726 289.948 587.973 288.488L587.968 288.484Z" fill="white"/>
<path d="M474.77 627.425C477.013 627.322 479.241 627.189 481.465 627.028C501.49 625.553 520.613 620.276 536.779 611.762C553.673 602.858 566.337 590.856 573.399 577.048C584.211 555.904 581.625 531.267 565.92 505.809L565.616 505.996C581.249 531.343 583.832 555.857 573.08 576.886C559.188 604.061 523.217 623.605 481.441 626.676C411.648 631.811 334.725 606.417 280.7 560.413C255.683 539.111 226.774 505.495 231.096 466.318L230.743 466.281C226.402 505.618 255.39 539.334 280.468 560.686C306.846 583.148 339.431 601.2 374.701 612.897C407.901 623.907 442.349 628.892 474.77 627.425Z" fill="white"/>
<path d="M516.885 269.779C519.331 269.668 521.721 269.407 524.042 268.991C533.611 267.277 541.362 262.058 544.272 255.364C546.658 249.874 545.806 243.694 541.802 237.498L541.504 237.693C545.443 243.787 546.288 249.849 543.948 255.227C541.086 261.813 533.435 266.953 523.98 268.641C504.612 272.104 480.42 264.643 465.149 250.492C456.703 242.665 452.772 234.793 453.474 227.084L453.117 227.052C452.406 234.872 456.374 242.846 464.905 250.753C472.151 257.463 481.953 262.999 492.511 266.334C500.849 268.966 509.146 270.128 516.88 269.779L516.885 269.779Z" fill="white"/>
<path d="M444.76 488.586C447.493 488.463 450.168 488.17 452.774 487.699C463.328 485.782 471.572 480.205 474.813 472.783C477.471 466.703 476.558 459.855 472.171 452.976L471.872 453.167C476.192 459.939 477.095 466.675 474.489 472.641C471.29 479.956 463.152 485.457 452.712 487.349C450.125 487.816 447.459 488.108 444.74 488.233C425.03 489.125 402.611 481.132 387.772 467.408C378.45 458.791 374.131 450.095 374.94 441.57L374.583 441.538C373.766 450.179 378.121 458.973 387.528 467.67C402.435 481.453 424.965 489.484 444.765 488.59L444.76 488.586Z" fill="white"/>
<path d="M227.701 504.396C242.471 503.728 257.362 501.832 272.001 498.703C292.284 494.366 312.362 487.771 331.669 479.104C351.553 470.179 370.113 459.275 386.832 446.697C423.217 419.324 449.409 384.985 462.574 347.4C465.655 338.667 467.94 329.837 469.366 321.15C472.363 302.904 471.583 285 467.04 267.933C462.751 251.814 455.19 236.697 444.575 222.999C424.077 196.557 393.259 176.947 357.806 167.785C317.259 157.303 272.413 158.172 228.119 170.285C185.433 181.961 145.766 203.247 113.412 231.843C99.3792 244.245 86.9398 258.32 76.4329 273.678C65.3805 289.845 57.0112 306.676 51.561 323.708C39.2397 362.222 42.7629 399.316 61.7434 430.981C71.8168 447.785 85.3627 462.066 102.012 473.427C117.278 483.846 135.121 491.81 155.042 497.101C177.615 503.092 202.472 505.539 227.701 504.396ZM287.679 161.158C311.574 160.076 335.231 162.317 357.719 168.128C420.755 184.422 482.467 239.233 469.017 321.088C467.593 329.756 465.314 338.566 462.239 347.279C436.85 419.769 362.149 479.069 271.925 498.355C257.859 501.364 243.101 503.284 228.156 503.959C163.701 506.881 95.5408 486.679 62.0539 430.802C20.8411 362.041 59.9092 279.606 113.649 232.11C162.395 189.032 225.83 163.96 287.679 161.158Z" fill="white"/>
<path d="M227.969 503.204C231.382 503.051 234.799 502.821 238.215 502.524C258.953 500.704 279.829 496.471 300.27 489.94C320.9 483.348 340.669 474.552 359.025 463.788C397.958 440.956 428.916 410.194 448.549 374.821C453.21 366.421 457.152 357.83 460.27 349.28C466.543 332.093 469.449 314.567 468.918 297.188C468.402 280.373 464.685 264.104 457.872 248.836C451.106 233.673 441.494 219.959 429.31 208.082C416.872 195.956 402.1 186.1 385.412 178.783C348.23 162.485 304.595 157.693 259.219 164.93C238.15 168.29 217.122 174.16 196.719 182.38C176.72 190.438 157.792 200.552 140.467 212.444C78.0168 255.313 26.6281 332.212 52.6033 407.376C58.828 425.385 68.8579 441.38 82.4139 454.913C94.8505 467.329 110.202 477.643 128.041 485.578C157.44 498.652 192.574 504.807 227.978 503.202L227.969 503.204ZM288.033 162.25C322.386 160.693 355.763 166.181 385.262 179.113C453.554 209.051 484.955 280.566 459.93 349.16C456.823 357.689 452.887 366.264 448.234 374.649C409.565 444.314 327.117 494.367 238.182 502.174C234.804 502.473 231.4 502.696 227.978 502.851C156.783 506.078 77.5092 478.379 52.9307 407.266C27.0149 332.277 78.3174 255.535 140.658 212.743C185.788 181.765 237.939 164.519 288.033 162.25Z" fill="white"/>
<path d="M203.758 552.347C206.331 552.229 208.917 552.051 211.52 551.809C244.046 548.761 278.384 536.949 313.581 516.711C347.644 497.12 378.45 471.884 405.145 441.702C432.224 411.085 451.69 378.953 463.008 346.202C465.774 338.08 467.954 330.134 469.476 322.579C473.141 304.429 473.324 286.573 470.005 270.942C466.143 252.752 457.759 237.79 445.079 226.467C433.093 215.762 417.851 208.701 399.775 205.485C384.456 202.76 367.476 202.813 349.302 205.642C315.866 210.85 281.251 224.64 246.422 246.636C212.503 268.054 182.582 294.586 157.488 325.496C131.541 357.461 113.964 390.061 105.251 422.393C100.48 440.093 98.7357 456.939 100.065 472.471C101.623 490.684 107.427 506.397 117.314 519.17C127.65 532.523 141.986 542.038 159.909 547.446C172.999 551.397 188.022 553.068 203.754 552.353L203.758 552.347ZM462.668 346.082C451.371 378.786 431.927 410.881 404.88 441.464C378.213 471.618 347.436 496.829 313.407 516.399C278.258 536.615 243.965 548.41 211.491 551.453C187.563 553.695 143.546 552.457 117.601 518.943C93.0793 487.267 99.5561 444.911 105.599 422.479C114.296 390.197 131.848 357.639 157.769 325.713C182.84 294.834 212.732 268.326 246.617 246.929C281.404 224.964 315.973 211.187 349.358 205.988C372.336 202.408 415.302 200.342 444.84 226.728C468.327 247.702 477.179 282.613 469.125 322.503C467.605 330.043 465.433 337.979 462.668 346.082Z" fill="white"/>
<path d="M204.416 551.105C229.438 549.971 256.537 542.916 285.231 530.037C319.256 514.765 351.417 492.994 380.819 465.329C410.518 437.383 433.684 406.937 449.668 374.832C453.607 366.921 457.104 358.85 460.066 350.841C466.32 333.705 469.963 317.282 470.893 302.034C472.003 283.862 469.225 267.423 462.644 253.167C455.226 237.113 443.05 224.694 426.453 216.253C411.766 208.786 394.101 204.833 375.366 204.816C344.053 204.79 310.051 213.936 274.306 231.996C240.42 249.119 208.98 272.306 180.855 300.908C152.059 330.2 130.413 361.503 116.519 393.949C101.148 429.835 97.1017 461.825 104.481 489.038C109.364 507.037 119.936 522.286 135.05 533.131C149.189 543.274 166.893 549.405 186.249 550.86C192.17 551.303 198.229 551.389 204.412 551.106L204.416 551.105ZM459.735 350.714C456.78 358.708 453.285 366.769 449.354 374.669C433.387 406.733 410.249 437.15 380.582 465.067C351.205 492.709 319.077 514.455 285.093 529.71C249.361 545.749 216.118 552.742 186.285 550.502C145.513 547.44 114.304 523.853 104.835 488.942C97.4746 461.812 101.52 429.898 116.857 394.089C130.735 361.683 152.359 330.418 181.123 301.16C209.219 272.582 240.63 249.419 274.481 232.312C310.177 214.274 344.13 205.142 375.381 205.17C415.916 205.201 448.425 223.2 462.332 253.313C477.549 286.261 469.325 324.462 459.744 350.712L459.735 350.714Z" fill="white"/>
<path d="M230.457 607.617C244.582 606.977 262.053 599.984 282.577 586.733C306.034 571.59 326.225 552.75 331.856 547.341C391.567 489.941 438.142 418.51 463.002 346.198C465.992 337.458 468.365 329.448 470.254 321.714C476.086 297.876 481.048 267.946 467.584 247.904C452.204 225.01 422.212 233.916 405.707 241.265C375.586 254.673 345.65 277.446 316.728 308.954C294.171 333.527 272.269 363.141 249.768 399.491C226.229 437.517 209.953 472.399 200.016 506.13C192.457 531.78 186.034 561.133 195.678 584.363C200.915 596.981 209.221 604.557 220.365 606.882C223.512 607.54 226.877 607.785 230.458 607.621L230.457 607.617ZM462.668 346.082C437.827 418.338 391.282 489.725 331.611 547.085C325.989 552.493 305.814 571.31 282.386 586.434C256.742 602.991 235.9 609.754 220.435 606.528C209.415 604.228 201.197 596.726 196.004 584.22C186.402 561.091 192.815 531.816 200.356 506.227C210.285 472.525 226.547 437.674 250.071 399.675C301.107 317.239 352.062 265.525 405.854 241.586C422.258 234.283 452.054 225.422 467.291 248.099C480.677 268.026 475.722 297.86 469.91 321.623C468.024 329.347 465.654 337.347 462.667 346.073L462.668 346.082Z" fill="white"/>
<path d="M230.38 603.883C239.801 603.454 250.822 600.525 263.046 595.131C278.126 588.481 295.287 577.867 308.953 566.746C366.86 519.624 416.972 452.288 450.057 377.138C453.926 368.351 457.425 359.615 460.453 351.176C462.728 344.813 470.335 322.094 472.799 296.943C475.188 272.527 471.867 254.949 462.925 244.693C454.751 235.316 441.897 232.378 424.722 235.965C409.506 239.139 393.866 245.737 378.234 255.571C364.547 264.183 350.461 275.535 336.363 289.311C309.662 315.41 286.769 346.326 269.804 370.34C254.192 392.443 231.529 425.997 215.025 462.031C206.757 480.079 200.665 497.405 196.913 513.533C192.658 531.816 191.271 549.149 192.79 565.051C194.608 584.092 201.629 596.294 213.661 601.325C218.432 603.32 224.046 604.169 230.38 603.883ZM460.118 351.055C457.093 359.483 453.598 368.214 449.732 376.991C416.666 452.09 366.593 519.382 308.728 566.468C287.892 583.427 241.231 612.467 213.802 600.996C201.898 596.018 194.952 583.912 193.15 565.016C186.707 497.483 233.981 421.682 270.102 370.544C309.424 314.873 362.544 249.307 424.802 236.312C441.845 232.753 454.583 235.655 462.661 244.924C471.533 255.103 474.825 272.591 472.446 296.906C469.988 322.013 462.389 344.697 460.118 351.055Z" fill="white"/>
<path d="M310.362 655.165C313.727 655.011 318.738 650.495 325.6 641.434C341.954 619.85 354.661 594.998 366.954 570.971L368.704 567.545C405.57 495.535 437.253 421.189 462.86 346.599C465.703 338.321 468.213 330.71 470.531 323.332C471.486 320.299 472.865 316.526 474.467 312.154C480.88 294.633 489.658 270.639 484.809 257.691C483.538 254.293 481.814 252.447 479.685 252.202C473.972 251.542 466.55 262.668 462.12 269.313C461.478 270.276 460.874 271.181 460.355 271.928C420.95 328.877 393.193 395.21 366.345 459.357L365.267 461.933C347.81 503.64 334.507 538.755 323.401 572.437C322.06 576.507 320.592 580.69 319.039 585.121C312.446 603.908 304.968 625.207 305.362 644.229C305.495 650.698 306.733 654.226 309.147 655.01C309.525 655.133 309.924 655.185 310.352 655.162L310.362 655.165ZM478.994 252.538C479.215 252.527 479.435 252.536 479.649 252.559C481.632 252.788 483.257 254.556 484.481 257.821C489.284 270.643 480.169 295.552 474.136 312.032C472.535 316.404 471.153 320.187 470.199 323.225C467.88 330.603 465.369 338.209 462.531 346.486C436.927 421.066 405.254 495.387 368.391 567.387L366.641 570.812C354.356 594.829 341.651 619.666 325.32 641.223C317.683 651.299 312.434 655.7 309.269 654.675C307.051 653.956 305.858 650.439 305.728 644.231C305.335 625.271 312.801 604.007 319.385 585.25C320.938 580.819 322.406 576.636 323.751 572.561C334.853 538.884 348.153 503.778 365.607 462.081L366.685 459.506C393.526 395.374 421.277 329.062 460.659 272.141C461.177 271.389 461.785 270.479 462.428 269.519C466.639 263.198 473.58 252.789 479 252.546L478.994 252.538Z" fill="white"/>
<path d="M310.629 653.18C312.41 653.097 314.679 652.121 317.489 650.232C331.227 640.993 341.797 619.636 350.297 602.468C352.582 597.85 354.741 593.488 356.765 589.763C391.35 526.064 422.501 456.276 451.996 376.415C455.307 367.451 458.284 359.154 461.095 351.043C461.834 348.908 462.58 346.767 463.331 344.62C471.511 321.14 479.973 296.865 483.265 272.341C484.227 265.161 484.565 256.229 480.688 254.46C477.996 253.232 473.808 255.797 468.247 262.087C453.578 278.676 442.775 299.443 432.33 319.525C430.785 322.496 429.191 325.566 427.629 328.526C411.564 358.987 395.313 393.101 377.949 432.811C376.201 436.811 374.438 440.827 372.672 444.859C346.581 504.346 319.601 565.863 308.002 628.902L307.738 630.311C306.202 638.562 304.097 649.858 308.252 652.584C308.919 653.022 309.714 653.223 310.638 653.178L310.629 653.18ZM460.757 350.932C457.945 359.038 454.972 367.334 451.661 376.294C422.172 456.135 391.028 525.907 356.45 589.595C354.423 593.331 352.264 597.693 349.976 602.316C341.497 619.442 330.948 640.758 317.29 649.939C313.215 652.679 310.238 653.468 308.442 652.29C304.485 649.69 306.651 638.069 308.083 630.379L308.346 628.969C319.938 565.969 346.908 504.474 372.992 445.006C374.758 440.975 376.522 436.958 378.27 432.958C395.63 393.253 411.878 359.15 427.939 328.694C429.501 325.734 431.099 322.659 432.645 319.692C443.078 299.627 453.871 278.88 468.513 262.325C473.88 256.255 478.041 253.647 480.538 254.791C483.407 256.102 484.246 262.317 482.907 272.3C479.623 296.789 471.167 321.049 462.988 344.51C462.239 346.661 461.492 348.802 460.753 350.937L460.757 350.932Z" fill="white"/>
<path d="M419.664 690.279C420.385 690.247 421.132 690.119 421.906 689.901C439.559 684.909 452.264 645.449 459.086 624.252C460.306 620.464 461.357 617.196 462.229 614.767C471.871 587.822 480.828 557.835 489.609 523.098C498.887 486.391 505.931 454.027 511.143 424.143C517.444 388.011 521.184 355.121 522.579 323.591C522.624 322.609 522.711 321.273 522.819 319.578C523.691 306.121 525.736 274.613 516.487 264.155C514.623 262.048 512.372 260.903 509.794 260.752C493.445 259.805 478.899 300.859 472.683 318.392C471.843 320.759 471.18 322.624 470.671 323.958C467.826 331.372 465.026 339.144 462.115 347.709C442.403 405.626 426.711 470.097 415.477 539.33C414.846 543.223 409.236 578.377 406.698 613.838C403.669 656.158 406.148 681.189 414.068 688.245C415.698 689.699 417.576 690.374 419.664 690.279ZM508.801 261.099C509.126 261.084 509.449 261.084 509.771 261.103C512.248 261.248 514.42 262.35 516.22 264.387C525.373 274.735 523.333 306.141 522.464 319.555C522.355 321.251 522.265 322.592 522.226 323.577C518.908 398.609 501.824 473.333 489.266 523.011C480.488 557.739 471.534 587.715 461.894 614.65C461.024 617.084 459.969 620.358 458.749 624.145C451.945 645.282 439.28 684.621 421.812 689.562C418.93 690.376 416.408 689.844 414.31 687.974C394.805 670.598 414.966 544.735 415.834 539.386C427.061 470.172 442.752 405.721 462.459 347.824C465.366 339.264 468.162 331.498 471.007 324.089C471.521 322.749 472.182 320.879 473.022 318.512C479.087 301.41 493.122 261.814 508.807 261.103L508.801 261.099Z" fill="white"/>
<path d="M419.097 688.152C422.434 688.003 426.259 685.455 430.511 680.546C448.059 660.285 457.447 630.478 465.731 604.178C467.016 600.108 468.225 596.261 469.459 592.471C478.824 563.69 487.298 532.825 495.365 498.109C511.343 429.351 525.42 362.25 522.282 297.309L522.251 296.649C521.809 287.367 520.883 268.05 512.852 264.124C509.862 262.663 506.152 263.468 501.818 266.52C483.573 279.363 473.391 312.411 465.954 336.548C464.461 341.395 463.052 345.971 461.721 349.907C459.487 356.504 457.232 363.462 455.016 370.585C435.974 431.859 421.67 495.828 412.504 560.72L412.245 562.556C407.466 596.362 402.529 631.317 406.558 664.964C407.477 672.623 410.036 685.782 416.882 687.875C417.595 688.095 418.333 688.183 419.097 688.152ZM509.381 263.784C510.573 263.73 511.677 263.952 512.691 264.447C520.534 268.278 521.449 287.454 521.893 296.67L521.925 297.329C525.064 362.227 510.987 429.295 495.019 498.032C486.955 532.738 478.484 563.593 469.122 592.364C467.888 596.154 466.679 600.002 465.395 604.076C457.119 630.342 447.744 660.112 430.242 680.318C425.119 686.236 420.66 688.664 416.989 687.543C410.338 685.505 407.822 672.501 406.913 664.93C402.888 631.33 407.823 596.394 412.597 562.613L412.856 560.772C422.02 495.899 436.317 431.945 455.358 370.69C457.57 363.569 459.825 356.611 462.059 350.018C463.39 346.078 464.802 341.496 466.295 336.649C473.718 312.567 483.878 279.584 502.021 266.811C504.746 264.894 507.209 263.884 509.381 263.784Z" fill="white"/>
<path d="M531.76 704.102C532.915 704.05 534.086 703.956 535.27 703.827C562.719 700.762 584.517 677.858 600.059 635.744C609.725 609.55 616.857 576.069 621.248 536.233C629.247 463.707 622.992 395.675 603.171 339.492C596.295 320.007 588.983 304.818 580.809 293.053C568.95 275.98 555.281 266.29 540.178 264.253C508.148 259.932 485.642 293.059 472.397 321.61C468.956 329.03 465.774 337.035 462.664 346.083C442.578 405.034 436.319 474.484 444.565 546.912C450.108 595.603 469.619 706.918 531.76 704.102ZM532.722 264.267C535.135 264.158 537.6 264.263 540.131 264.603C565.736 268.053 586.243 292.589 602.835 339.608C622.642 395.737 628.888 463.718 620.898 536.191C612.865 609.037 591.484 697.188 535.235 703.468C470.634 710.69 450.555 596.355 444.923 546.868C436.682 474.496 442.94 405.094 463.006 346.193C466.109 337.157 469.293 329.165 472.727 321.756C484.867 295.575 504.816 265.528 532.722 264.267Z" fill="white"/>
<path d="M530.666 703.075C538.457 702.722 546.494 699.95 554.716 694.766C578.551 679.741 596.474 651.263 607.981 610.135C615.793 582.217 620.65 548.768 622.831 507.88C627.338 423.439 615.478 355.82 587.575 306.9C578.418 290.845 553.42 255.003 519.108 268.863C505.114 274.513 492.696 286.291 482.197 303.87C472.523 320.064 465.878 338.855 461.723 351.583C459.407 358.732 457.268 366.182 455.363 373.724C447.339 405.493 442.78 439.036 441.812 473.412C440.866 507.004 443.363 540.771 449.226 573.775C450.736 582.275 456.652 612.358 469.32 642.581C482.169 673.237 497.107 692.505 513.708 699.838C519.196 702.262 524.861 703.343 530.658 703.082L530.666 703.075ZM532.816 266.141C559.869 264.917 579.421 293.313 587.274 307.077C615.138 355.938 626.986 423.492 622.481 507.862C620.3 548.721 615.447 582.141 607.641 610.038C596.157 651.082 578.288 679.488 554.53 694.466C540.29 703.442 526.609 705.138 513.863 699.506C497.344 692.211 482.471 673.008 469.66 642.435C457.007 612.243 451.098 582.196 449.59 573.706C437.6 506.267 439.722 437.141 455.72 373.808C457.621 366.276 459.762 358.831 462.075 351.691C472.477 319.834 488.38 281.665 519.252 269.198C523.952 267.297 528.485 266.338 532.816 266.141Z" fill="white"/>
<path d="M629.753 693.276C639.118 692.852 648.382 690.946 657.455 687.563C674.2 681.326 688.684 670.83 700.494 656.367C710.997 643.508 719.469 627.446 725.67 608.619C739.546 566.516 738.549 522.976 736.718 500.774C733.2 458.075 722.064 415.979 704.511 379.041C694.992 359.009 683.71 340.851 670.973 325.078C657.298 308.137 641.886 293.887 625.171 282.718C597.982 264.551 567.645 258.473 539.755 265.596C511.889 272.715 488.217 292.579 473.099 321.524C469.218 328.955 465.702 337.219 462.658 346.079C449.772 383.818 446.292 427.482 452.603 472.356C458.51 514.352 472.618 556.036 493.404 592.904C511.191 624.457 535.776 652.703 560.853 670.398C576.044 681.115 591.494 688.173 606.778 691.374C614.475 692.984 622.151 693.62 629.753 693.276ZM558.714 263.141C580.95 262.134 603.907 268.93 624.981 283.008C697.889 331.719 730.324 427.453 736.366 500.799C738.193 522.977 739.19 566.46 725.332 608.504C712.021 648.888 689.142 675.374 657.329 687.224C626.055 698.874 593.665 693.112 561.057 670.101C536.023 652.436 511.48 624.235 493.714 592.726C449.574 514.433 437.81 419.96 462.996 346.19C466.038 337.345 469.542 329.097 473.417 321.681C488.489 292.825 512.082 273.027 539.848 265.931C546.034 264.351 552.345 263.423 558.712 263.132L558.714 263.141Z" fill="white"/>
<path d="M631.5 691.2C631.674 691.193 631.849 691.185 632.022 691.174C648.19 690.344 663.518 684.884 677.593 674.945C692.542 664.391 704.903 650.224 714.334 632.839C722.779 617.267 728.95 598.996 732.672 578.538C741.079 532.325 735.017 487.251 730.659 464.49C722.851 423.751 707.786 383.581 688.232 351.391C676.98 332.867 664.229 316.821 650.333 303.704C635.085 289.312 618.335 278.344 600.553 271.101C587.343 265.723 574.121 263.144 561.246 263.438C549.166 263.711 537.389 266.504 526.238 271.732C511.622 278.585 498.487 289.322 487.206 303.634C476.495 317.223 467.863 333.778 462.235 351.52C459.455 360.319 457.164 369.625 455.432 379.183C448.146 419.279 449.756 463.143 460.086 506.023C470.319 548.521 488.689 588.41 513.212 621.378C533.601 648.79 560.458 671.01 586.888 682.339C602.126 688.869 617.139 691.852 631.514 691.202L631.5 691.2ZM559.239 263.908C572.709 263.299 586.579 265.806 600.408 271.435C674.683 301.677 716.207 391.028 730.297 464.564C744.39 538.117 737.895 631.935 677.38 674.655C650.805 693.414 619.558 695.96 587.01 682.009C560.637 670.707 533.835 648.53 513.478 621.165C463.08 553.413 440.965 460.715 455.761 379.248C457.493 369.709 459.781 360.418 462.558 351.629C474.318 314.56 497.578 285.555 526.371 272.055C536.864 267.134 547.909 264.418 559.234 263.904L559.239 263.908Z" fill="white"/>
<path d="M694.062 659.966C710.393 659.225 726.169 655.89 741.109 650.006C776.037 636.246 802.031 609.184 816.272 571.746C828.927 538.474 831.484 499.12 823.472 460.93C814.614 418.711 794.92 378.054 766.528 343.354C737.559 307.949 701.339 281.095 661.786 265.706C626.87 252.117 589.26 249.45 555.89 258.194C519.573 267.711 491.007 289.767 473.272 321.987C468.984 329.78 465.323 338.16 462.399 346.894C449.697 384.601 449.839 427.499 462.816 470.951C474.503 510.095 496.538 548.785 524.855 579.893C552.599 610.367 587.624 634.55 623.491 647.985C643.188 655.363 662.848 659.423 681.919 660.045C685.995 660.178 690.048 660.154 694.063 659.97L694.062 659.966ZM587.79 253.704C613.282 252.548 638.993 257.209 661.658 266.032C741.404 297.067 804.782 373.596 823.129 461.001C837.722 530.538 818.239 619.237 740.983 649.672C725.728 655.679 710.105 658.806 694.458 659.516C630.762 662.403 566.637 625.254 525.121 579.651C477.729 527.59 432.956 435.423 462.741 347.004C465.659 338.291 469.31 329.931 473.591 322.154C499.227 275.579 543.167 255.726 587.795 253.708L587.79 253.704Z" fill="white"/>
<path d="M695.05 658.19C719.006 657.107 742.566 650.347 764.126 636.185C795.456 615.601 815.946 583.055 823.382 542.063C829.851 506.396 826.159 466.12 812.979 428.66C805.937 408.64 796.398 389.167 784.633 370.776C772.758 352.22 758.875 335.178 743.369 320.133C710.407 288.147 671.623 266.666 631.21 258.012C595.182 250.296 558.636 254.92 528.298 271.025C512.986 279.155 499.645 289.938 488.637 303.081C477.167 316.781 468.497 332.749 462.875 350.552C460.123 359.213 458.03 368.398 456.651 377.861C450.832 417.816 457.374 460.773 475.574 502.084C484.098 521.433 494.998 540.038 507.964 557.376C520.761 574.482 535.289 589.99 551.148 603.462C590.096 636.549 643.475 660.527 695.05 658.19ZM590.337 254.887C603.594 254.287 617.282 255.392 631.129 258.359C710.987 275.458 782.232 342.354 812.639 428.778C837.545 499.571 832.145 591.067 763.926 635.888C742.43 650.01 718.924 656.751 695.029 657.833C643.549 660.167 590.267 636.224 551.375 603.189C482.616 544.781 445.57 456.352 456.997 377.913C458.371 368.471 460.463 359.305 463.209 350.664C481.165 293.856 531.504 257.549 590.337 254.887Z" fill="white"/>
<path d="M709.579 611.003C717.119 610.661 724.591 609.955 731.97 608.886C753.073 605.828 772.982 599.833 791.141 591.071C826.94 573.799 854.782 545.693 869.543 511.919C884.569 477.543 886.186 437.387 874.097 398.846C868.054 379.58 858.812 360.899 846.631 343.328C835.025 326.585 820.976 311.154 804.875 297.468C787.66 282.831 768.401 270.416 747.641 260.571C726.942 250.754 705.146 243.676 682.863 239.533C661.778 235.616 640.616 234.424 619.975 235.989C598.379 237.629 577.727 242.269 558.591 249.784C521.252 264.451 490.939 290.188 473.234 322.255C468.702 330.467 464.925 339.161 462.012 348.093C450.452 383.446 452.398 423.708 467.483 461.462C475.076 480.468 485.745 498.649 499.187 515.508C512.061 531.655 527.246 546.31 544.327 559.067C562.553 572.681 582.603 583.929 603.926 592.497C625.347 601.104 647.61 606.826 670.106 609.511C683.365 611.091 696.579 611.586 709.587 610.997L709.579 611.003ZM626.994 235.891C645.229 235.065 663.953 236.385 682.797 239.887C727.829 248.255 769.963 268.259 804.643 297.742C837.976 326.082 861.876 361.083 873.755 398.954C885.815 437.415 884.201 477.48 869.214 511.778C854.486 545.47 826.705 573.518 790.985 590.752C755.304 607.965 713.518 614.333 670.144 609.162C624.853 603.761 581.42 586.342 544.539 558.788C509.307 532.466 482.773 498.767 467.817 461.336C452.76 423.658 450.819 383.481 462.351 348.209C465.258 339.297 469.024 330.623 473.545 322.433C491.211 290.439 521.459 264.756 558.722 250.122C580.066 241.741 603.113 236.971 626.994 235.891Z" fill="white"/>
<path d="M709.23 609.545C726.909 608.747 744.112 605.929 760.468 601.147C780.266 595.362 798.37 586.818 814.278 575.752C846.217 553.535 868.4 521.159 876.739 484.596C880.933 466.21 881.639 446.912 878.834 427.234C876.174 408.561 870.453 390.073 861.826 372.286C852.809 353.694 840.835 336.138 826.234 320.106C812.191 304.684 795.969 290.929 778.008 279.216C759.01 266.827 738.457 256.921 716.916 249.779C695.096 242.539 672.688 238.281 650.314 237.114C629.661 236.036 609.353 237.652 589.957 241.903C569.529 246.385 550.555 253.715 533.561 263.691C499.792 283.52 474.905 313.852 463.486 349.091C460.624 357.904 458.564 367.093 457.368 376.409C454.961 395.148 456.037 414.557 460.57 434.091C464.849 452.544 472.084 470.625 482.065 487.845C502.9 523.784 534.377 554.304 573.085 576.111C592.68 587.151 613.549 595.647 635.099 601.362C657.112 607.2 679.452 610.026 701.497 609.765C704.085 609.735 706.662 609.663 709.23 609.545ZM627.119 237.374C634.74 237.032 642.475 237.058 650.295 237.464C695.124 239.799 739.221 254.34 777.813 279.512C814.766 303.61 843.707 335.748 861.501 372.438C879.243 409.019 884.529 448.822 876.387 484.515C868.066 520.991 845.937 553.291 814.073 575.455C782.879 597.155 743.949 608.897 701.495 609.405C657.562 609.932 613.222 598.307 573.262 575.795C534.606 554.016 503.18 523.539 482.374 487.658C461.819 452.202 453.064 412.709 457.721 376.446C458.917 367.154 460.97 357.98 463.827 349.192C475.218 314.035 500.046 283.774 533.742 263.992C561.025 247.971 592.949 238.918 627.123 237.369L627.119 237.374Z" fill="white"/>
<path d="M671.645 557.163C672.342 557.13 673.03 557.098 673.726 557.061C695.796 555.893 717.712 552.06 738.862 545.669C760.197 539.222 780.363 530.285 798.807 519.102C832.816 498.485 860.482 468.981 876.71 436.03C894.796 399.298 897.55 360.788 884.669 324.667C871.56 287.907 844.31 257.35 805.863 236.294C771.809 217.647 730.308 207.277 689.009 207.091C668.146 207 647.036 209.346 626.266 214.069C605.039 218.896 584.737 226.077 565.924 235.421C525.238 255.619 493.463 285.015 474.037 320.432C469.547 328.617 465.721 337.244 462.664 346.083C456.457 364.341 454.008 383.059 455.388 401.716C456.697 419.413 461.417 436.786 469.41 453.351C484.911 485.461 512.13 512.912 546.05 530.647C583.175 550.056 626.566 559.214 671.642 557.173L671.645 557.163ZM674.818 207.732C679.527 207.521 684.25 207.42 689.01 207.442C765.531 207.788 855.598 244.2 884.333 324.783C912.948 405.036 859.963 481.611 798.62 518.798C721.421 565.598 622.35 570.119 546.216 530.323C473.318 492.215 439.103 416.502 463.002 346.194C466.048 337.376 469.868 328.764 474.346 320.596C510.33 255.006 588.009 211.663 674.818 207.732Z" fill="white"/>
<path d="M672.348 555.714C684.347 555.17 696.39 553.826 708.384 551.669C752.756 543.698 793.426 525.151 825.997 498.021C855.72 473.267 876.962 440.459 885.809 405.643C895.382 367.973 890.004 330.893 870.252 298.415C849.654 264.539 816.477 238.58 774.309 223.341C736.561 209.698 692.924 205.267 651.433 210.862C610.117 216.43 569.36 231.963 536.672 254.596C500.164 279.878 474.644 313.129 462.878 350.756C460.176 359.56 458.298 368.384 457.29 376.988C452.961 413.981 463.662 449.89 488.226 480.837C510.477 508.868 542.814 530.987 579.277 543.119C608.744 552.923 640.389 557.165 672.343 555.714L672.348 555.714ZM674.22 209.182C745.942 205.933 829.001 231.262 869.948 298.602C914.976 372.648 878.611 453.741 825.768 497.748C759.578 552.872 662.874 570.547 579.392 542.776C513.962 521.008 447.958 459.857 457.644 377.029C458.647 368.45 460.523 359.645 463.22 350.862C490.76 262.807 581.847 220.6 651.481 211.214C658.882 210.217 666.491 209.535 674.22 209.182Z" fill="white"/>
</g>
<ellipse cx="436.5" cy="667" rx="199.5" ry="26" fill="white"/>
<path d="M458.617 614.959V639.336L414.244 635.334L411.335 623.691L411.698 612.412L458.617 614.959Z" fill="#FF7D4A"/>
<path d="M412.581 622.69C411.626 622.249 410.385 622.487 408.81 623.361C407.253 624.225 405.504 625.637 403.619 627.295C399.887 630.578 395.64 634.822 391.585 637.219C389.532 638.433 386.62 639.516 383.281 640.569C379.937 641.623 376.115 642.661 372.238 643.773C364.449 646.005 356.44 648.533 351.245 652.116V652.117C347.179 654.945 344.316 659.751 342.329 664.585C340.346 669.408 339.262 674.192 338.719 676.909L338.713 676.939L338.704 676.968C338.434 677.776 338.976 678.493 339.684 678.493H339.711L339.739 678.496C346.246 679.22 366.118 679.131 384.413 678.858C393.549 678.721 402.278 678.539 408.721 678.391C411.943 678.317 414.594 678.252 416.439 678.205C417.361 678.182 418.082 678.163 418.573 678.15C418.818 678.143 419.006 678.138 419.132 678.135C419.163 678.134 419.189 678.133 419.212 678.132C421.388 677.043 424.517 675.434 427.473 673.91C430.471 672.365 433.294 670.908 434.752 670.178C435.772 669.668 436.844 670.202 437.735 670.925C438.659 671.675 439.599 672.796 440.463 673.911C441.349 675.054 442.139 676.166 442.831 677.011C443.173 677.429 443.465 677.748 443.703 677.948C443.821 678.047 443.907 678.102 443.963 678.127C443.973 678.132 443.981 678.133 443.987 678.135L444.017 678.132L471.211 675.269V666.688L466.907 666.026L466.507 665.964L466.484 665.561C466.121 659.387 465.394 651.488 464.442 644.865C463.966 641.552 463.435 638.569 462.867 636.284C462.582 635.141 462.291 634.185 461.999 633.454C461.697 632.703 461.421 632.263 461.202 632.075L461.195 632.069C459.754 630.788 457.626 630.73 454.056 631.28C450.564 631.817 445.766 632.92 439.398 633.648C432.88 634.393 427.312 632.153 422.81 629.488C420.56 628.155 418.564 626.71 416.85 625.472C415.118 624.221 413.708 623.21 412.581 622.69Z" fill="#FFB700" stroke="black"/>
<path d="M340.774 668.442H446.251C446.614 668.442 446.978 668.079 446.978 667.715C446.978 667.351 446.614 666.987 446.251 666.987H340.774C340.41 666.987 340.047 667.351 340.047 667.715C340.047 668.079 340.41 668.442 340.774 668.442Z" fill="#0E0E0E"/>
<path d="M452.434 229.296H472.802L493.17 283.507L415.335 277.686C415.335 277.686 410.607 253.309 423.337 230.752C436.067 208.194 452.434 229.296 452.434 229.296Z" fill="white"/>
<path d="M471.71 203.464C471.71 203.464 470.983 212.924 480.439 218.745C488.441 223.839 497.17 223.475 501.171 235.481C505.172 247.488 497.534 254.765 506.627 262.041C515.719 269.318 519.72 260.95 532.814 269.318C550.272 280.233 545.18 315.888 512.082 313.705C502.626 312.978 481.53 272.229 481.53 272.229L456.434 207.83L471.71 203.464Z" fill="white"/>
<path d="M520.448 596.767L527.723 620.053L485.168 629.512L478.985 619.325L476.075 608.046L520.448 596.767Z" fill="#FD8753"/>
<path d="M416.427 408.302C416.427 408.302 394.968 614.959 395.695 617.87C396.423 620.78 459.709 619.689 459.709 619.689L464.437 600.77L461.891 408.302H416.427Z" fill="#FF29D1"/>
<path d="M505.171 374.466C505.171 374.466 513.9 403.208 513.173 432.679C512.446 462.149 503.716 506.901 505.171 510.539C506.262 513.814 526.63 600.77 526.63 600.77L460.071 619.689C460.071 619.689 439.339 534.552 438.612 510.903C438.248 487.618 448.069 421.036 448.069 421.036L416.426 407.938L419.699 379.559L505.171 374.466Z" fill="#FF29D1"/>
<path d="M390.967 295.514L422.246 327.531C422.246 327.531 407.334 343.176 367.326 349.725C339.32 354.091 316.406 351.908 316.406 351.908C316.406 351.908 302.948 355.546 289.855 353.727C277.125 351.908 265.85 337.718 265.85 337.718L272.033 337.355C272.033 337.355 266.577 335.535 265.85 332.625C264.759 329.714 276.397 331.897 276.397 331.897C276.397 331.897 270.942 328.259 276.397 327.895C281.853 327.531 292.037 330.078 298.948 329.714C305.858 329.35 305.858 329.35 305.858 329.35C305.858 329.35 295.674 324.257 297.856 320.254C300.039 316.252 310.223 322.074 313.496 323.165C316.77 324.62 320.407 327.167 320.407 327.167C320.407 327.167 368.053 320.254 390.967 295.514Z" fill="#FD8753"/>
<path d="M427.702 255.128C427.702 255.128 416.063 267.499 404.788 277.322C393.513 287.146 384.42 293.331 384.42 293.331L413.153 338.81L422.246 331.533L427.702 255.128Z" fill="#9364ED"/>
<path d="M458.616 613.868C459.344 613.868 459.344 613.14 459.344 612.776C458.98 612.048 439.34 537.463 440.067 520.363C441.158 503.262 448.432 422.128 448.432 421.4C448.432 421.036 448.432 420.672 448.069 420.672L427.701 406.847C427.337 406.483 426.973 406.847 426.61 407.211C426.246 407.574 426.61 407.938 426.973 408.302L446.978 421.764C446.25 428.313 439.34 503.99 438.612 520.363C437.521 537.827 457.161 610.229 457.889 613.14C457.889 613.504 458.253 613.868 458.616 613.868Z" fill="#0E0E0E"/>
<path d="M505.172 511.267C505.536 511.267 505.9 511.267 505.9 510.903C505.9 510.539 505.9 510.175 505.9 510.175C505.536 509.811 494.261 498.169 487.351 502.535C486.259 503.262 485.532 503.99 485.896 505.081C486.259 508.356 500.444 510.539 505.172 511.267ZM490.624 502.898C494.989 502.898 500.081 506.901 502.626 509.447C494.989 508.356 486.987 506.173 486.987 504.718C486.987 504.718 487.351 504.354 487.714 503.99C488.805 502.898 489.533 502.898 490.624 502.898Z" fill="#0E0E0E"/>
<path d="M454.253 596.767L521.54 580.031C521.903 580.031 522.267 579.667 522.267 578.94C522.267 578.576 521.903 578.212 521.176 578.212L454.253 594.948L397.877 593.493C397.514 593.493 397.15 593.857 397.15 594.221C397.15 594.584 397.514 594.948 397.877 594.948L454.253 596.767Z" fill="#0E0E0E"/>
<path d="M527.151 611.048C525.395 610.25 523.425 610.845 520.266 612.448C517.168 614.02 513.025 616.502 507.191 619.055C501.228 621.665 495.372 621.096 490.407 619.809C487.926 619.165 485.655 618.339 483.703 617.635C481.729 616.923 480.125 616.355 478.914 616.182C477.888 616.035 476.768 616.61 475.511 617.885C474.268 619.144 472.997 620.98 471.681 623.091C469.239 627.007 466.65 631.874 463.913 635.345L463.364 636.02C461.865 637.891 459.503 639.853 456.724 641.883C453.934 643.92 450.682 646.055 447.393 648.256C440.784 652.679 434.039 657.363 430.279 662.198V662.199C427.276 666.087 426.015 671.518 425.608 676.713C425.203 681.895 425.653 686.769 426.015 689.479L426.02 689.512V689.545C426.02 689.697 426.166 690.022 426.508 690.287C426.829 690.538 427.203 690.639 427.543 690.526L427.579 690.514L427.617 690.507C430.763 689.967 436.961 688.249 444.521 685.962C452.068 683.678 460.941 680.837 469.418 678.064C477.895 675.29 485.975 672.585 491.936 670.572C494.916 669.566 497.366 668.734 499.071 668.152C499.924 667.862 500.591 667.634 501.044 667.479C501.27 667.401 501.443 667.342 501.56 667.302C501.585 667.293 501.609 667.285 501.629 667.278C503.272 665.638 505.776 663.221 508.145 660.942C510.557 658.62 512.824 656.442 513.911 655.355C514.762 654.504 515.93 654.605 517.013 655.006C518.109 655.412 519.305 656.187 520.421 656.985C521.574 657.808 522.6 658.623 523.497 659.235C523.937 659.534 524.305 659.755 524.593 659.88C524.736 659.942 524.84 659.972 524.91 659.982C524.941 659.986 524.958 659.984 524.966 659.984L524.989 659.973L525.028 659.96L550.373 652.104L547.005 641.319L542.673 641.653L542.298 641.682L542.166 641.33C539.988 635.521 536.903 628.168 534.001 622.134C532.549 619.116 531.147 616.438 529.933 614.452C529.325 613.458 528.77 612.649 528.285 612.06C527.782 611.449 527.411 611.146 527.183 611.061L527.167 611.055L527.151 611.048Z" fill="#FFB700" stroke="black"/>
<path d="M419.336 334.444H419.7C420.063 334.08 420.063 333.716 420.063 333.352L393.876 287.146C393.512 286.782 393.149 286.782 392.785 286.782C392.421 287.146 392.421 287.509 392.421 287.873L418.609 334.08C418.972 334.444 418.972 334.444 419.336 334.444Z" fill="white"/>
<path d="M443.704 258.767C451.342 258.767 458.253 253.673 458.616 253.309C458.98 252.945 458.98 252.581 458.616 252.218C458.253 251.854 457.889 251.854 457.525 252.218C457.525 252.218 446.614 260.586 437.521 255.856C437.157 255.492 436.794 255.856 436.43 256.22C436.066 256.584 436.43 256.947 436.794 257.311C439.34 258.403 441.522 258.767 443.704 258.767Z" fill="white"/>
<path d="M454.253 246.76C454.253 246.76 478.986 244.577 497.171 267.135C517.539 292.603 510.265 381.015 510.265 381.015C510.265 381.015 481.895 385.017 448.07 384.653C414.245 384.289 413.881 384.289 413.881 384.289C413.881 384.289 416.427 279.869 418.609 267.499C421.519 255.128 435.34 248.943 454.253 246.76Z" fill="#9364ED"/>
<path d="M436.066 321.71L464.799 356.638C464.799 356.638 450.615 369.736 425.882 377.74C404.787 384.653 383.328 384.653 368.779 382.106C354.231 379.559 380.054 356.638 380.054 356.638C380.054 356.638 417.153 346.45 436.066 321.71Z" fill="#FD8753"/>
<path d="M470.257 363.914H470.62C470.62 363.914 483.714 354.818 492.807 338.446C502.263 321.71 502.627 302.063 502.627 302.063C502.627 301.699 502.263 301.335 501.9 301.335C501.536 301.335 501.172 301.699 501.172 302.063C501.172 302.427 500.445 321.71 491.352 337.718C483.35 351.908 472.439 360.64 469.893 362.459L464.801 357.001L436.431 322.074C438.25 319.891 445.524 312.25 452.435 304.246C456.072 300.244 461.527 292.967 460.073 289.692C459.709 289.329 459.345 288.601 457.89 288.601C453.162 288.601 451.344 300.607 451.344 303.518C443.342 312.614 434.976 321.71 434.976 321.71C434.613 322.074 434.613 322.437 434.976 322.801L463.71 358.457L469.165 364.278C469.893 363.55 470.257 363.914 470.257 363.914ZM458.618 289.692C459.345 289.692 459.345 290.056 459.345 290.056C459.709 290.784 458.981 294.058 453.526 300.607C454.617 295.514 456.435 289.692 458.618 289.692Z" fill="white"/>
<path d="M471.711 203.464C471.711 203.464 468.074 184.181 448.07 186.364C428.066 188.547 430.248 224.203 430.248 224.203L465.892 221.292L471.711 203.464Z" fill="white"/>
<path d="M437.158 256.584C437.158 256.584 438.249 258.767 444.796 258.039C454.98 256.948 458.253 252.582 458.253 252.582L458.617 235.481L455.707 236.209L437.522 239.847V248.216L437.158 256.584Z" fill="#FD8753"/>
<path d="M437.159 247.852C441.887 247.488 450.98 245.305 454.981 237.664C455.344 236.937 455.344 236.573 455.344 236.209L437.159 239.847V247.852Z" fill="black"/>
<path d="M434.612 200.19C434.612 200.19 425.156 221.656 428.429 233.662C431.702 245.669 442.614 243.85 449.161 241.667C455.707 239.484 458.981 235.481 458.981 235.481C458.981 235.481 465.164 237.664 469.165 231.843C473.166 226.022 470.983 219.473 467.346 218.017C463.709 216.562 459.708 219.109 459.708 219.109L462.982 212.924C462.618 212.924 449.524 181.27 434.612 200.19Z" fill="#FD8753"/>
<path d="M431.339 218.381C431.702 218.381 432.066 218.017 432.066 217.653L432.793 213.651C432.793 213.287 432.793 213.287 432.793 212.924L430.975 211.104C430.611 210.741 430.247 210.741 429.884 211.104C429.52 211.468 429.52 211.832 429.884 212.196L430.975 214.015L430.611 217.653C430.611 218.017 430.975 218.381 431.339 218.381Z" fill="black"/>
<path d="M446.979 211.832C447.706 211.468 447.706 211.104 447.706 210.741C446.251 207.83 442.614 208.558 442.25 208.558C441.887 208.558 441.523 208.921 441.523 209.649C441.523 210.013 441.887 210.377 442.614 210.377C442.614 210.377 445.16 210.013 446.251 211.832C446.251 211.468 446.615 211.832 446.979 211.832Z" fill="black"/>
<path d="M435.339 209.285H435.703C436.066 208.921 436.066 208.558 436.066 208.194C435.339 207.102 434.612 206.738 433.52 206.738C432.066 206.375 430.974 207.83 430.974 208.194C430.611 208.558 430.974 208.921 431.338 209.285C431.702 209.649 432.066 209.285 432.429 208.921C432.429 208.558 433.157 208.194 433.52 208.194C433.884 208.194 434.248 208.558 434.612 208.921C434.975 209.285 434.975 209.285 435.339 209.285Z" fill="black"/>
<path d="M459.345 219.109C459.345 219.109 449.889 219.473 443.705 209.285C437.159 199.098 437.886 196.551 437.886 196.551L431.339 207.102C431.339 207.102 429.884 199.826 432.794 195.096C435.704 190.366 438.613 191.458 438.613 191.458L458.981 196.551L464.437 212.924L459.345 219.109Z" fill="white"/>
<path d="M443.342 219.473C443.706 219.473 444.069 219.109 444.069 218.745L444.433 214.743C444.433 214.379 444.433 214.379 444.069 214.015L441.887 212.196C441.523 211.832 441.16 211.832 440.796 212.196C440.432 212.56 440.432 212.924 440.796 213.287L442.615 215.107L442.251 218.745C442.251 218.745 442.615 219.473 443.342 219.473C442.978 219.473 442.978 219.473 443.342 219.473Z" fill="black"/>
<path d="M433.521 226.385C434.248 226.022 434.248 225.658 434.248 225.294C432.794 221.656 436.794 216.198 436.794 216.198C437.158 215.834 436.794 215.47 436.794 215.107C436.431 214.743 436.067 215.107 435.703 215.107C435.703 215.47 431.339 221.292 433.157 225.658C432.794 226.022 433.157 226.385 433.521 226.385Z" fill="black"/>
<path d="M438.248 233.298H438.612C441.158 232.935 442.977 230.388 442.977 230.388C442.977 230.024 442.977 229.66 442.977 229.66C442.977 229.296 442.613 229.296 442.249 229.296L434.975 230.388C434.611 230.388 434.611 230.752 434.247 230.752C434.247 231.115 434.247 231.479 434.247 231.479C434.611 231.843 435.702 233.298 438.248 233.298ZM440.067 231.479C439.703 231.843 438.976 231.843 438.612 231.843C438.248 231.843 437.885 231.843 437.521 231.843L440.067 231.479Z" fill="black"/>
<path d="M460.072 228.205C460.436 228.205 460.436 228.205 460.799 227.841L466.619 221.656C466.983 221.292 466.983 220.928 466.619 220.564C466.255 220.2 465.891 220.2 465.528 220.564L459.708 226.749C459.345 227.113 459.345 227.477 459.708 227.841C459.708 228.205 460.072 228.205 460.072 228.205Z" fill="black"/>
<path d="M467.347 228.205C467.711 228.205 468.074 227.841 468.074 227.841C468.074 227.477 468.074 227.113 467.711 226.749L462.619 224.93C462.255 224.93 461.891 224.93 461.527 225.294C461.527 225.658 461.527 226.022 461.891 226.386L467.347 228.205Z" fill="black"/>
<path d="M415.699 320.982C416.063 320.982 416.427 320.618 416.427 320.254C416.427 319.89 414.608 300.971 414.608 291.512C414.608 277.686 420.064 267.135 420.064 266.771C420.427 266.407 420.064 266.043 419.7 265.679C419.336 265.316 418.973 265.679 418.609 266.043C418.245 266.407 412.789 277.322 412.789 291.512C412.789 300.607 414.608 319.89 414.608 320.254C414.608 320.618 414.972 320.982 415.699 320.982Z" fill="white"/>
<path d="M452.435 267.863C453.162 267.863 453.889 267.499 454.253 267.135C458.618 264.224 458.981 253.309 458.981 252.582C458.981 252.218 458.981 251.854 458.618 251.854C458.254 251.854 457.89 251.854 457.89 251.854C447.343 260.95 437.159 256.22 436.795 256.22C436.431 256.22 436.431 256.22 436.068 256.22C435.704 256.22 435.704 256.584 435.704 256.584C435.34 257.311 433.158 263.133 434.613 265.68C434.976 266.407 435.704 266.771 436.431 267.135C439.705 267.863 444.433 263.133 446.615 260.95C447.343 262.769 449.161 266.771 451.707 267.499C451.707 267.499 452.071 267.863 452.435 267.863ZM457.163 254.401C456.799 258.039 456.072 264.224 453.162 265.68C452.435 266.043 452.071 266.043 451.343 266.043C449.161 265.316 447.343 260.95 446.615 259.131C446.615 259.131 446.615 258.767 446.252 258.767C449.889 258.403 453.526 256.948 457.163 254.401ZM445.888 259.131C443.342 262.041 438.614 266.407 436.431 265.68C436.068 265.68 436.068 265.316 435.704 264.952C434.976 263.497 435.704 260.222 436.431 257.675C437.886 258.403 441.523 259.494 445.888 259.131Z" fill="white"/>
<path d="M477.166 357.729C477.166 357.729 477.53 357.729 477.53 357.365C477.894 357.001 477.894 356.638 477.53 356.274L442.614 314.797C442.25 314.433 441.886 314.433 441.522 314.797C441.159 315.161 441.159 315.525 441.522 315.888L476.439 357.365C476.803 357.729 477.166 357.729 477.166 357.729Z" fill="white"/>
<path d="M496.806 405.391C498.625 405.391 500.443 405.028 502.626 404.664C502.989 404.664 503.353 403.936 502.989 403.572C502.989 403.208 502.262 402.845 501.898 403.208C497.17 404.664 493.533 404.3 490.987 402.117C486.986 399.206 486.986 393.385 486.986 393.385C486.986 393.021 486.622 392.657 486.259 392.657C485.895 392.657 485.531 393.021 485.531 393.385C485.531 393.749 485.531 399.934 490.26 403.572C491.714 404.664 494.26 405.391 496.806 405.391Z" fill="#0E0E0E"/>
<path d="M425.883 680.085C426.247 680.085 426.247 680.085 425.883 680.085L542.998 641.883C543.362 641.883 543.726 641.155 543.362 640.791C543.362 640.427 542.635 640.063 542.271 640.427L425.519 678.63C425.156 678.63 424.792 679.357 425.156 679.721C425.519 680.085 425.519 680.085 425.883 680.085Z" fill="#0E0E0E"/>
<path d="M476.802 636.789C477.166 636.789 477.529 636.425 477.529 636.061C477.529 635.697 477.166 635.334 476.802 634.97L464.799 632.423C464.436 632.423 464.072 632.423 463.708 633.151C463.708 633.514 464.072 633.878 464.436 634.242L476.802 636.789Z" fill="#0E0E0E"/>
<path d="M472.074 641.883C472.438 641.883 472.802 641.519 472.802 641.155C472.802 640.791 472.438 640.427 472.074 640.427L458.617 638.608C458.253 638.608 457.89 638.972 457.89 639.336C457.89 639.7 458.253 640.063 458.617 640.063L472.074 641.883Z" fill="#0E0E0E"/>
<path d="M402.97 640.064C403.333 640.064 403.333 640.064 403.697 639.7C404.061 639.336 403.697 638.972 403.333 638.608L394.968 633.515C394.604 633.151 394.24 633.515 393.877 633.878C393.513 634.242 393.877 634.606 394.24 634.97L402.606 640.064C402.97 640.064 402.97 640.064 402.97 640.064Z" fill="#0E0E0E"/>
<path d="M403.333 386.472C404.424 386.472 405.515 386.108 406.606 385.744C407.697 385.017 408.425 383.925 408.789 382.106C409.516 374.829 389.148 355.182 386.966 352.999C386.602 352.635 386.238 352.635 385.875 352.999C385.511 353.363 385.511 353.727 385.875 354.091C392.058 359.912 407.697 376.285 407.334 381.742C407.334 382.834 406.97 383.561 406.243 383.925C403.697 385.38 397.877 383.197 395.695 382.106C395.331 382.106 394.968 382.106 394.604 382.47C394.24 382.834 394.604 383.197 394.968 383.561C394.604 384.289 399.332 386.472 403.333 386.472Z" fill="#FFF4DC"/>
<path d="M398.604 646.612C398.968 646.612 398.968 646.612 399.332 646.249C399.695 645.885 399.332 645.521 398.968 645.157L388.784 638.608C388.42 638.244 388.057 638.608 387.693 638.972C387.329 639.336 387.693 639.7 388.057 640.063L398.241 646.612C398.241 646.612 398.241 646.612 398.604 646.612Z" fill="#0E0E0E"/>
<path d="M394.968 394.84C396.059 394.84 397.514 394.476 398.241 393.749C405.152 389.019 387.693 358.093 385.511 354.455C385.147 354.091 384.784 354.091 384.42 354.091C384.056 354.455 384.056 354.818 384.056 355.182C391.33 367.916 401.514 389.383 397.15 392.293C396.059 393.021 394.968 393.385 393.876 393.021C389.512 392.293 385.147 385.744 385.147 385.744C384.784 385.38 384.42 385.38 384.056 385.38C383.693 385.744 383.693 386.108 383.693 386.472C384.056 386.836 388.421 393.385 393.513 394.476C393.876 394.84 394.604 394.84 394.968 394.84Z" fill="#07CBF5"/>
<path d="M283.096 195.79L418.446 486.324L254.6 562.704L119.25 272.17L283.096 195.79Z" fill="#352F75"/>
<path d="M279.981 188.425L415.331 478.96L251.485 555.34L116.135 264.806L279.981 188.425Z" fill="#5E1DBB"/>
<path d="M380.37 404.298L398.806 443.871L234.96 520.251L216.524 480.678L380.37 404.298Z" fill="#9364ED"/>
<path d="M220.727 277.78L257.426 318.359L307.359 295.996L280.107 343.438L316.805 384.016L263.264 372.758L236.012 420.2L230.173 365.801L176.632 354.543L226.565 332.18L220.727 277.78Z" fill="white"/>
<circle cx="193" cy="224" r="37" fill="#0E0E0E"/>
<circle cx="330" cy="520" r="37" fill="#0E0E0E"/>
<path d="M394.604 381.742C394.604 381.742 373.508 393.021 358.596 395.204C343.684 397.387 338.228 394.84 337.501 392.657C336.773 390.474 345.866 387.2 345.866 387.2C345.866 387.2 332.045 389.019 330.59 384.289C329.135 379.559 341.502 376.648 341.502 376.648C341.502 376.648 331.318 375.921 332.772 371.555C334.227 367.553 361.506 362.095 361.506 362.095C361.506 362.095 352.413 357.729 353.504 354.818C354.595 351.544 365.87 352.272 372.053 353.727C378.236 355.546 384.056 360.276 384.056 360.276L394.604 381.742Z" fill="#FD8753"/>
<path d="M340.774 377.012L361.142 373.374C361.506 373.374 361.87 373.01 361.87 372.646C361.87 372.283 361.506 371.919 361.142 371.919L340.774 375.557C340.411 375.557 340.047 375.921 340.047 376.285C340.047 376.649 340.411 377.012 340.774 377.012Z" fill="black"/>
<path d="M345.502 388.291L364.415 384.653C364.779 384.653 365.143 384.289 365.143 383.561C365.143 383.198 364.779 382.834 364.051 382.834L345.138 386.472C344.775 386.472 344.411 386.836 344.411 387.564C344.775 387.927 345.138 388.291 345.502 388.291Z" fill="black"/>
<defs>
<clipPath id="clip0_31_139">
<rect width="842.049" height="648.637" fill="white" transform="matrix(-0.984682 0.174361 0.174361 0.984682 829.15 0)"/>
</clipPath>
</defs>
</svg>
