<svg width="217" height="96" viewBox="0 0 217 96" fill="none" xmlns="http://www.w3.org/2000/svg">
<path d="M209.613 20.3523C202.322 21.35 197.22 28.07 198.218 35.3611C199.2 42.5381 205.726 47.5937 212.884 46.7985L213.227 46.7566L216.087 67.6595L9.2586 95.9621L6.39823 75.0593C13.6894 74.0615 18.7915 67.3416 17.7938 60.0505C16.8116 52.8732 10.2847 47.8176 3.12627 48.6132L2.78517 48.6559L0 28.3026L206.828 2.36533e-06L209.613 20.3523Z" fill="#FF29D1"/>
<g clip-path="url(#clip0_31_129)">
<path d="M55.2135 57.5089L57.2209 53.1897L54.127 49.5686L58.8599 50.141L61.3327 46.0858L62.2659 50.7595L66.869 51.8694L62.7333 54.1752L63.09 58.9278L59.6186 55.686M61.2074 61.6822C61.7956 61.6017 62.3917 61.7581 62.8646 62.1172C63.3375 62.4762 63.6484 63.0084 63.7289 63.5966L68.1648 62.9896C68.753 62.9091 69.2852 62.5982 69.6442 62.1254C70.0032 61.6525 70.1597 61.0564 70.0792 60.4681L67.6512 42.7244C67.5707 42.1362 67.2598 41.604 66.7869 41.245C66.3141 40.886 65.7179 40.7295 65.1297 40.81L60.6938 41.417C60.7743 42.0052 60.6178 42.6014 60.2588 43.0742C59.8997 43.5471 59.3676 43.858 58.7793 43.9385C58.1911 44.019 57.595 43.8625 57.1221 43.5035C56.6492 43.1444 56.3383 42.6123 56.2578 42.024L51.8219 42.631C51.2337 42.7115 50.7015 43.0224 50.3425 43.4953C49.9835 43.9681 49.827 44.5643 49.9075 45.1525L52.3355 62.8962C52.416 63.4844 52.7269 64.0166 53.1998 64.3756C53.6726 64.7347 54.2688 64.8911 54.857 64.8106L59.2929 64.2036C59.2124 63.6154 59.3689 63.0193 59.7279 62.5464C60.087 62.0735 60.6191 61.7626 61.2074 61.6822Z" fill="black"/>
</g>
<path d="M76.1619 60.6909L73.2276 39.2477L79.758 38.3541L83.3501 51.1803L83.3521 37.8622L89.9435 36.9603L92.8778 58.4034L88.9547 58.9403L86.8406 43.4914L86.4936 59.2771L82.6436 59.8039L77.9222 44.7118L80.0363 60.1607L76.1619 60.6909ZM94.9422 58.1209L94.0791 36.3943L101.353 35.399L106.322 56.5638L102.265 57.1189L101.486 53.7005L98.9035 54.0539L99.109 57.5508L94.9422 58.1209ZM98.7396 50.5886L100.689 50.3219L98.2587 39.5459L98.0638 39.5726L98.7396 50.5886ZM109.201 56.1574C109.057 54.1415 109.082 52.235 109.274 50.4379C109.467 48.6408 109.741 46.9566 110.097 45.3854C110.452 43.806 110.804 42.3554 111.153 41.0334L111.951 37.9825L105.896 38.8111L105.353 34.8392L116.172 33.3587L116.492 35.698C116.61 36.559 116.586 37.4475 116.422 38.3637C116.258 39.2798 116.017 40.2975 115.698 41.4167C115.004 43.8451 114.513 46.2375 114.223 48.594C113.94 50.9413 113.882 53.2413 114.05 55.4938L109.201 56.1574ZM125.914 54.0813C122.852 54.5004 121.02 52.5168 120.42 48.1307L119.155 38.8834C118.607 34.879 120.087 32.6367 123.596 32.1566C125.042 31.9587 126.191 32.0994 127.042 32.5787C127.893 33.0498 128.541 33.8217 128.985 34.8944C129.43 35.9672 129.762 37.3036 129.981 38.9038L125.79 39.4773L125.529 37.5766C125.466 37.1137 125.348 36.7367 125.176 36.4459C125.011 36.1458 124.729 36.0229 124.331 36.0774C123.836 36.1452 123.53 36.3567 123.413 36.712C123.304 37.0661 123.277 37.4422 123.331 37.8402L124.754 48.2328C124.832 48.8095 124.97 49.2706 125.166 49.6161C125.369 49.9524 125.69 50.0905 126.129 50.0305C126.584 49.9682 126.86 49.7484 126.957 49.371C127.062 48.9844 127.073 48.4946 126.992 47.9017L126.574 44.8436L125.428 45.0003L124.921 41.2965L130.16 40.5796L131.869 53.0678L130.151 53.3029L129.174 51.5997C128.609 53.0341 127.522 53.8613 125.914 54.0813ZM139.467 52.2267C137.754 52.4612 136.371 52.1249 135.32 51.2179C134.276 50.3016 133.621 48.8647 133.353 46.9072L131.959 36.7216C131.708 34.886 131.964 33.4319 132.727 32.3593C133.499 31.2856 134.75 30.6303 136.48 30.3936C138.21 30.1569 139.587 30.4525 140.61 31.2806C141.642 32.1075 142.283 33.4388 142.534 35.2745L143.928 45.46C144.196 47.4175 143.946 48.9783 143.179 50.1425C142.418 51.2974 141.181 51.9921 139.467 52.2267ZM138.964 48.2742C139.614 48.1852 139.852 47.5113 139.68 46.2523L138.248 35.7866C138.103 34.7307 137.714 34.2461 137.081 34.3328C136.366 34.4306 136.083 35.0196 136.23 36.0999L137.661 46.5534C137.752 47.2195 137.899 47.6876 138.101 47.9578C138.303 48.2198 138.59 48.3253 138.964 48.2742ZM152.192 50.4853C150.406 50.7299 149.021 50.4104 148.04 49.5269C147.057 48.6354 146.433 47.2149 146.166 45.2655L144.017 29.5608L148.184 28.9906L150.309 44.5247C150.358 44.8821 150.426 45.2245 150.512 45.552C150.597 45.8713 150.727 46.1266 150.902 46.3178C151.077 46.509 151.327 46.5823 151.652 46.5379C151.985 46.4923 152.211 46.358 152.329 46.1349C152.447 45.9037 152.499 45.6194 152.486 45.2819C152.481 44.9433 152.454 44.5954 152.405 44.238L150.279 28.7038L154.446 28.1337L156.595 43.8384C156.862 45.7877 156.642 47.3238 155.935 48.4466C155.227 49.5612 153.979 50.2408 152.192 50.4853ZM159.213 49.326L158.68 45.4273L161.729 31.1584L157.294 31.7653L156.754 27.8178L165.709 26.5924L166.223 30.345L163.108 44.7717L167.896 44.1164L168.436 48.0639L159.213 49.326Z" fill="black"/>
<defs>
<clipPath id="clip0_31_129">
<rect width="26.8636" height="26.8636" fill="white" transform="translate(72.0347 37.6055) rotate(82.208)"/>
</clipPath>
</defs>
</svg>
