<svg width="24" height="24" viewBox="0 0 24 24" fill="none" xmlns="http://www.w3.org/2000/svg">
<g clip-path="url(#clip0_718_163)">
<path fill-rule="evenodd" clip-rule="evenodd" d="M21.7201 17.3399L20.8301 16.5999C19.1801 15.4799 19.0001 15.3199 18.7701 15.1999C19.5787 13.8543 20.0502 12.3332 20.1442 10.7661C20.2382 9.19907 19.9521 7.6325 19.3101 6.19988C18.5517 4.65285 17.4108 3.32508 15.9957 2.34234C14.5805 1.3596 12.9378 0.754447 11.2233 0.584198C9.50883 0.41395 7.77925 0.684249 6.19844 1.36949C4.61764 2.05473 3.23795 3.13222 2.1901 4.49988C-2.4399 10.2899 0.410101 19.3499 8.8901 20.6899C9.98567 20.9116 11.1145 20.9116 12.2101 20.6899C12.3016 20.662 12.3783 20.599 12.4233 20.5146C12.4683 20.4302 12.4779 20.3314 12.4501 20.2399C12.4223 20.1484 12.3592 20.0717 12.2748 20.0267C12.1904 19.9817 12.0916 19.972 12.0001 19.9999C11.01 20.1992 9.99017 20.1992 9.0001 19.9999C1.3301 18.5599 -0.9999 10.3899 3.1501 5.27988C4.08386 4.08018 5.30479 3.13504 6.7002 2.5317C8.09561 1.92836 9.62053 1.68627 11.1342 1.82777C12.6478 1.96927 14.1015 2.4898 15.3609 3.34132C16.6203 4.19284 17.6449 5.3479 18.3401 6.69988C20.5901 11.3599 17.8401 16.8399 14.0701 19.0999C14.0257 19.1229 13.9865 19.1547 13.9548 19.1934C13.9231 19.232 13.8995 19.2766 13.8855 19.3246C13.8715 19.3726 13.8674 19.4229 13.8734 19.4726C13.8794 19.5222 13.8954 19.5701 13.9204 19.6134C13.9454 19.6566 13.979 19.6944 14.019 19.7244C14.059 19.7543 14.1047 19.7759 14.1532 19.7877C14.2018 19.7995 14.2523 19.8014 14.3016 19.7931C14.3509 19.7849 14.398 19.7668 14.4401 19.7399C16.0374 18.7741 17.384 17.4447 18.3701 15.8599C20.0201 16.9299 22.3701 18.8599 22.8001 20.7199C22.8901 20.9868 22.8889 21.276 22.7966 21.5421C22.7043 21.8082 22.5261 22.0361 22.2901 22.1899C21.7401 22.5999 19.7501 21.3399 19.2101 20.8999C17.9201 19.8999 17.5801 19.5899 17.1301 19.1599C16.6801 18.7299 16.5601 18.8399 16.5101 19.0299C16.4601 19.2199 16.3601 19.2699 16.6301 19.5299C17.2818 20.3486 17.9902 21.1205 18.7501 21.8399C19.9001 22.8399 21.7501 24.0199 22.9901 23.1399C25.0801 21.5599 23.6301 19.1199 21.7201 17.3399Z" fill="#1C1C35"/>
</g>
<defs>
<clipPath id="clip0_718_163">
<rect width="24" height="24" fill="white"/>
</clipPath>
</defs>
</svg>
