<svg width="61" height="66" viewBox="0 0 61 66" fill="none" xmlns="http://www.w3.org/2000/svg">
<g filter="url(#filter0_d_31_45)">
<rect width="61" height="61" rx="30.5" fill="#E2209E" shape-rendering="crispEdges"/>
<rect x="0.75" y="0.75" width="59.5" height="59.5" rx="29.75" stroke="black" stroke-width="1.5" shape-rendering="crispEdges"/>
<g clip-path="url(#clip0_31_45)">
<path d="M30.5027 24.3454C27.0974 24.3454 24.3508 27.0921 24.3508 30.4973C24.3508 33.9026 27.0974 36.6492 30.5027 36.6492C33.9079 36.6492 36.6546 33.9026 36.6546 30.4973C36.6546 27.0921 33.9079 24.3454 30.5027 24.3454ZM30.5027 34.4969C28.3021 34.4969 26.5031 32.7032 26.5031 30.4973C26.5031 28.2914 28.2968 26.4978 30.5027 26.4978C32.7086 26.4978 34.5022 28.2914 34.5022 30.4973C34.5022 32.7032 32.7032 34.4969 30.5027 34.4969ZM38.3412 24.0938C38.3412 24.8915 37.6987 25.5287 36.9062 25.5287C36.1085 25.5287 35.4713 24.8862 35.4713 24.0938C35.4713 23.3013 36.1138 22.6588 36.9062 22.6588C37.6987 22.6588 38.3412 23.3013 38.3412 24.0938ZM42.4157 25.5501C42.3247 23.6279 41.8856 21.9253 40.4775 20.5225C39.0747 19.1197 37.3721 18.6807 35.4499 18.5843C33.4689 18.4719 27.5311 18.4719 25.5501 18.5843C23.6333 18.6753 21.9307 19.1144 20.5225 20.5172C19.1144 21.92 18.6807 23.6226 18.5843 25.5447C18.4719 27.5258 18.4719 33.4635 18.5843 35.4446C18.6753 37.3667 19.1144 39.0693 20.5225 40.4721C21.9307 41.8749 23.6279 42.3139 25.5501 42.4103C27.5311 42.5228 33.4689 42.5228 35.4499 42.4103C37.3721 42.3193 39.0747 41.8803 40.4775 40.4721C41.8803 39.0693 42.3193 37.3667 42.4157 35.4446C42.5281 33.4635 42.5281 27.5311 42.4157 25.5501ZM39.8564 37.5702C39.4388 38.6196 38.6303 39.4281 37.5755 39.851C35.996 40.4775 32.2481 40.3329 30.5027 40.3329C28.7572 40.3329 25.004 40.4721 23.4298 39.851C22.3804 39.4334 21.5719 38.6249 21.149 37.5702C20.5225 35.9907 20.6671 32.2428 20.6671 30.4973C20.6671 28.7519 20.5279 24.9986 21.149 23.4245C21.5666 22.3751 22.3751 21.5666 23.4298 21.1436C25.0093 20.5172 28.7572 20.6617 30.5027 20.6617C32.2481 20.6617 36.0014 20.5225 37.5755 21.1436C38.6249 21.5612 39.4334 22.3697 39.8564 23.4245C40.4828 25.004 40.3383 28.7519 40.3383 30.4973C40.3383 32.2428 40.4828 35.996 39.8564 37.5702Z" fill="#F4F4F4"/>
</g>
</g>
<defs>
<filter id="filter0_d_31_45" x="0" y="0" width="61" height="66" filterUnits="userSpaceOnUse" color-interpolation-filters="sRGB">
<feFlood flood-opacity="0" result="BackgroundImageFix"/>
<feColorMatrix in="SourceAlpha" type="matrix" values="0 0 0 0 0 0 0 0 0 0 0 0 0 0 0 0 0 0 127 0" result="hardAlpha"/>
<feOffset dy="5"/>
<feComposite in2="hardAlpha" operator="out"/>
<feColorMatrix type="matrix" values="0 0 0 0 0 0 0 0 0 0 0 0 0 0 0 0 0 0 1 0"/>
<feBlend mode="normal" in2="BackgroundImageFix" result="effect1_dropShadow_31_45"/>
<feBlend mode="normal" in="SourceGraphic" in2="effect1_dropShadow_31_45" result="shape"/>
</filter>
<clipPath id="clip0_31_45">
<rect width="24" height="24" fill="white" transform="translate(18.5 18.5)"/>
</clipPath>
</defs>
</svg>
