<svg width="61" height="66" viewBox="0 0 61 66" fill="none" xmlns="http://www.w3.org/2000/svg">
<g filter="url(#filter0_d_31_52)">
<rect width="61" height="61" rx="30.5" fill="#E2209E" shape-rendering="crispEdges"/>
<rect x="0.75" y="0.75" width="59.5" height="59.5" rx="29.75" stroke="black" stroke-width="1.5" shape-rendering="crispEdges"/>
<path d="M40.0331 25.3579C40.0483 25.5711 40.0483 25.7843 40.0483 25.9975C40.0483 32.5 35.0991 39.9924 26.0533 39.9924C23.2665 39.9924 20.6777 39.1853 18.5 37.7843C18.896 37.83 19.2766 37.8452 19.6878 37.8452C21.9873 37.8452 24.1041 37.0686 25.7944 35.7437C23.632 35.698 21.8198 34.2818 21.1954 32.3325C21.5 32.3782 21.8046 32.4086 22.1244 32.4086C22.566 32.4086 23.0077 32.3477 23.4188 32.2412C21.165 31.7843 19.4746 29.8046 19.4746 27.4137V27.3528C20.1294 27.7183 20.8909 27.9467 21.6979 27.9772C20.373 27.0939 19.5051 25.5863 19.5051 23.8807C19.5051 22.967 19.7487 22.1294 20.1751 21.3985C22.5964 24.3832 26.236 26.3324 30.3172 26.5457C30.2411 26.1802 30.1954 25.7995 30.1954 25.4188C30.1954 22.7081 32.3883 20.5 35.1142 20.5C36.5304 20.5 37.8096 21.0939 38.7081 22.0533C39.8198 21.8401 40.8858 21.4289 41.83 20.8655C41.4644 22.0076 40.6878 22.967 39.6675 23.5761C40.6574 23.4696 41.6168 23.1954 42.5 22.8147C41.8301 23.7893 40.9924 24.6573 40.0331 25.3579Z" fill="#F4F4F4"/>
</g>
<defs>
<filter id="filter0_d_31_52" x="0" y="0" width="61" height="66" filterUnits="userSpaceOnUse" color-interpolation-filters="sRGB">
<feFlood flood-opacity="0" result="BackgroundImageFix"/>
<feColorMatrix in="SourceAlpha" type="matrix" values="0 0 0 0 0 0 0 0 0 0 0 0 0 0 0 0 0 0 127 0" result="hardAlpha"/>
<feOffset dy="5"/>
<feComposite in2="hardAlpha" operator="out"/>
<feColorMatrix type="matrix" values="0 0 0 0 0 0 0 0 0 0 0 0 0 0 0 0 0 0 1 0"/>
<feBlend mode="normal" in2="BackgroundImageFix" result="effect1_dropShadow_31_52"/>
<feBlend mode="normal" in="SourceGraphic" in2="effect1_dropShadow_31_52" result="shape"/>
</filter>
</defs>
</svg>
