<svg width="892" height="699" viewBox="0 0 892 699" fill="none" xmlns="http://www.w3.org/2000/svg">
<g opacity="0.2" clip-path="url(#clip0_31_139)">
<path d="M416.896 618.093C432.967 620.193 448.235 620.594 462.497 619.277C485.089 617.192 505.318 610.767 522.618 600.178C541.617 588.548 554.051 571.039 558.565 549.543C562.654 530.067 560.285 508.274 551.707 486.53L551.667 486.431L551.558 486.416C501.537 478.734 459.806 451.571 439.934 413.749C422.352 380.286 422.957 340.627 441.639 302.087L443.819 297.768L443.497 297.575C443.497 297.575 443.542 297.531 443.596 297.531C443.646 297.531 443.681 297.555 443.691 297.57L443.537 297.253L443.354 297.546C399.165 371.673 309.727 397.275 226.003 386.334C199.243 382.837 173.088 375.611 149.152 365.046L148.959 364.962L148.899 365.165C143.077 384.586 143.339 405.067 149.692 426.028C155.257 444.399 165.515 463.285 180.189 482.156C213 524.361 258.239 554.397 276.168 565.353C298.523 579.013 343.896 603.576 396.647 614.641C403.526 616.082 410.29 617.241 416.911 618.103L416.896 618.093ZM551.39 486.772C566.013 523.94 566.078 573.134 522.419 599.861C489.505 620.01 447.209 624.854 396.712 614.264C344.015 603.214 298.681 578.672 276.351 565.021C258.442 554.08 213.247 524.074 180.476 481.918C148.835 441.219 138.309 402.04 149.192 365.472C198.98 387.409 257.793 394.472 310.574 384.848C338.786 379.702 364.278 370.063 386.335 356.195C409.339 341.732 428.09 322.945 442.11 300.319L441.302 301.924C431.614 321.91 426.703 341.975 426.708 361.569C426.708 380.034 431.049 397.652 439.602 413.933C449.399 432.576 464.742 449.07 483.974 461.641C503.296 474.266 526.612 482.959 551.395 486.782L551.39 486.772Z" fill="white"/>
<path d="M445.816 294.024C446.292 294.088 446.892 293.989 447.615 293.732L447.68 293.707L450.153 289.368C460.178 272.334 472.641 256.45 487.002 241.972C510.888 254.439 544.179 268.976 581.024 276.733C603.958 281.562 625.505 283.107 645.065 281.334C667.032 279.343 686.691 273.127 703.491 262.854C722.004 251.537 734.091 234.518 738.442 213.636C742.387 194.715 740.028 173.531 731.618 152.376L731.574 152.267L731.46 152.257C679.392 147.745 622.636 158.503 571.648 182.55C545.894 194.695 522.479 209.787 502.052 227.405C496.77 231.962 491.72 236.658 486.913 241.492C477.805 236.732 470.079 232.279 464.058 228.629C463.86 228.51 463.657 228.386 463.463 228.267C463.478 228.039 463.493 227.816 463.508 227.593C464.38 213.413 463.339 198.856 460.416 184.328C454.816 156.497 442.367 129.072 424.409 105.025C402.832 76.1286 373.198 51.3336 338.717 33.3292L338.514 33.2252L338.449 33.4431C332.78 52.4282 333.102 72.4485 339.411 92.9493C344.936 110.909 355.07 129.369 369.541 147.814C401.425 188.464 444.954 217.425 463.057 228.465C462.086 242.884 459.152 257.025 454.196 270.556C453.884 271.403 452.888 273.246 451.624 275.579C447.11 283.91 443.2 291.557 444.924 293.568C445.143 293.821 445.445 293.974 445.826 294.024L445.816 294.024ZM447.422 293.4C446.322 293.781 445.574 293.756 445.202 293.326C443.502 291.349 448.79 281.592 451.947 275.762C453.215 273.414 454.221 271.562 454.543 270.69C459.454 257.287 462.442 243.166 463.434 228.703C463.577 228.792 463.721 228.876 463.86 228.96C469.866 232.596 477.562 237.034 486.63 241.779C472.091 256.435 459.752 272.315 449.826 289.175L447.422 293.4ZM731.311 152.629C745.633 188.756 745.786 236.563 703.292 262.537C671.359 282.057 630.247 286.708 581.103 276.366C544.353 268.63 511.141 254.137 487.285 241.695C547.802 180.886 642.022 144.932 731.311 152.629ZM338.742 33.775C373.089 51.7497 402.599 76.4605 424.101 105.258C452.274 142.985 465.758 186.622 463.077 228.044C391.756 184.551 316.809 107.873 338.742 33.775Z" fill="white"/>
<path d="M225.17 386.859C234.745 388.112 244.433 388.87 254.2 389.128C279.612 389.801 304.296 387.047 327.562 380.935C379.149 367.389 419.294 338.616 443.666 297.734C464.593 262.384 470.485 221.461 460.713 179.385C451.773 140.89 430.003 103.668 399.418 74.5733C382.713 58.6839 363.599 44.8896 342.617 33.5867C321.967 22.4621 299.861 13.933 276.916 8.23197C229.7 -3.49194 181.591 -2.67964 137.784 10.5698C97.5501 22.7395 62.3359 46.8906 38.6236 78.5655C26.4082 94.8809 17.5377 112.737 12.2501 131.638C6.67511 151.564 5.2033 172.312 7.86938 193.313C13.2759 235.914 34.0099 276.277 67.8266 310.042C98.5164 340.682 139.092 364.689 182.087 377.641C196.071 381.857 210.487 384.932 225.165 386.854L225.17 386.859ZM443.344 297.541C390.785 385.705 272.189 404.393 182.201 377.285C104.26 353.807 20.2484 287.803 8.24603 193.269C-2.05657 112.123 51.2603 37.143 137.893 10.9314C225.963 -15.7161 330.957 9.97051 399.155 74.8408C453.384 126.427 490.337 218.133 443.344 297.541Z" fill="white"/>
<path d="M414.74 616.147C436.005 618.925 455.614 619.173 473.072 616.88C490.189 614.631 505.308 609.911 518.197 602.818C522.633 603.808 527.063 604.75 531.488 605.646C546.499 608.672 561.142 611.119 575.375 612.982C656.68 623.611 725.141 615.2 779.37 587.855C802.498 576.19 821.601 561.009 836.141 542.727C849.729 525.644 859.412 505.787 864.918 483.702C870.096 462.938 871.573 440.308 869.313 416.444C867.158 393.699 861.652 370.197 852.955 346.596L852.811 346.209L852.613 346.566C812.399 418.42 724.785 473.33 629.41 486.455C602.491 490.16 576.301 490.15 551.553 486.416L551.236 486.366L554.586 495.539C567.877 536.387 558.337 573.719 529.065 595.408C525.621 597.959 521.983 600.302 518.158 602.422C439.835 584.947 362.211 552.945 287.224 507.199C237.5 476.861 188.242 439.902 145.768 398.355C144.965 387.444 145.921 376.339 149.241 365.259L149.291 365.1L149.137 365.031C124.013 353.837 99.1061 337.873 77.3166 318.056C30.0604 249.367 6.16964 173.367 26.2743 96.768L26.6658 95.2722L25.9225 96.6293C14.8072 116.972 8.2014 139.825 6.82376 162.723C4.2766 205.092 17.944 247.361 46.3592 284.965C55.3287 296.837 65.661 308.071 77.0638 318.438C81.3008 324.564 85.7658 330.682 90.4537 336.794C106.371 357.557 124.781 378.147 145.455 398.345C146.233 408.663 148.617 419.356 152.601 430.362C159.415 449.194 170.699 468.53 186.131 487.837C212.633 520.988 247.634 550.36 287.358 572.772C326.873 595.066 370.096 609.95 412.357 615.82C413.15 615.929 413.947 616.038 414.735 616.142L414.74 616.147ZM517.662 602.699C491.72 616.919 457.229 621.317 414.874 615.785C414.056 615.676 413.239 615.567 412.411 615.453C326.526 603.536 239.938 554.55 186.428 487.614C167.934 464.484 148.394 432.551 145.792 398.687C157.983 410.574 170.957 422.328 184.674 433.898C216.062 460.368 251.455 485.831 287.026 507.531C325.327 530.899 365.026 550.984 405.012 567.225C442.323 582.381 480.149 594.284 517.662 602.699ZM852.737 347.106C883.204 430.124 879.859 536.749 779.197 587.513C715.557 619.609 632.24 625.582 531.563 605.27C527.266 604.403 522.98 603.496 518.688 602.54C522.415 600.465 525.948 598.187 529.288 595.71C544.422 584.496 554.581 568.765 558.66 550.221C562.386 533.282 561.103 514.331 554.948 495.421L551.816 486.832C576.5 490.522 602.625 490.517 629.464 486.827C674.466 480.636 718.719 465.078 757.442 441.838C798.959 416.924 831.904 384.17 852.747 347.101L852.737 347.106ZM148.835 365.313C145.743 375.7 144.608 386.636 145.436 398.028C120.271 373.377 97.4955 347.121 78.4414 319.681C99.0664 338.171 123.096 353.822 148.835 365.313ZM25.521 98.1797C15.2779 138.339 16.5267 180.108 29.2377 222.358C38.6186 253.533 54.2881 285.207 75.924 316.783C33.6531 277.778 3.51342 224.156 7.20531 162.753C8.54827 140.419 14.8765 118.126 25.521 98.1797Z" fill="white"/>
<path d="M573.363 613.462C626.556 620.416 676.21 618.638 721.246 608.147C763.478 598.311 820.387 575.358 851.662 521.895C876.063 480.175 878.684 428.792 859.665 364.808L859.665 364.798L852.98 346.67C864.368 326.11 871.038 305.54 872.802 285.529C876.038 248.852 862.767 216.375 834.416 191.604C821.854 180.628 806.764 171.525 789.569 164.561C773.131 157.899 755.583 153.496 737.416 151.475L737.104 151.44L737.218 151.732C751.986 188.885 752.204 238.064 708.506 264.677C675.541 284.757 633.161 289.497 582.555 278.778C529.858 267.614 484.425 243.007 462.036 229.337C444.087 218.376 398.793 188.34 365.913 146.279C334.014 105.481 323.385 66.2225 334.322 29.6045L334.366 29.451L334.222 29.3816C322.572 23.6559 310.575 18.7078 298.552 14.676C254.091 -0.23276 204.967 -3.67514 160.223 4.97786C110.752 14.5472 69.7494 38.1188 41.6514 73.1469C25.4368 93.3603 16.7052 117.655 15.7041 145.348C14.832 169.444 19.7825 196.305 30.4171 225.186C53.6983 288.412 97.1536 343.015 114.756 363.56C185.348 445.944 281.347 514.475 392.381 561.742C448.195 585.502 502.473 601.921 553.709 610.54C560.31 611.649 566.866 612.63 573.363 613.482L573.363 613.462ZM859.303 364.922C878.283 428.797 875.681 480.086 851.335 521.707C820.13 575.051 763.324 597.959 721.162 607.781C672.345 619.153 621.991 619.307 573.705 612.996C505.942 604.14 442.254 582.555 392.525 561.386C281.545 514.138 185.595 445.642 115.038 363.307C97.451 342.782 54.0304 288.219 30.769 225.052C7.70088 162.416 11.4621 111.385 41.9487 73.3846C104.646 -4.77969 218.852 -11.6545 298.433 15.0276C310.386 19.0347 322.324 23.9531 333.91 29.6441C328.157 49.0255 328.489 69.4569 334.891 90.3737C340.516 108.74 350.853 127.626 365.611 146.507C398.536 188.618 443.874 218.683 461.838 229.659C484.247 243.344 529.719 267.976 582.476 279.15C606.094 284.153 628.295 285.772 648.459 283.964C671.101 281.938 691.369 275.554 708.699 264.999C727.708 253.419 740.117 235.949 744.582 214.483C748.606 195.136 746.217 173.496 737.679 151.886C807.627 159.771 879.537 204.908 872.421 285.5C870.656 305.48 863.986 326.026 852.603 346.566L852.564 346.64L852.593 346.72L859.303 364.922Z" fill="white"/>
<path d="M443.552 297.902C443.636 297.912 443.716 297.882 443.78 297.813L443.844 297.739L443.835 297.704C454.177 277.931 467.76 259.556 483.826 242.978C522.033 262.953 563.12 276.089 603.2 281.057C638.375 285.425 687.167 284.786 719.884 256.93C734.745 244.275 743.527 227.722 745.985 207.737C748.135 190.257 745.222 170.846 737.57 151.589L737.526 151.485L737.412 151.47C710.171 148.518 681.587 149.751 652.444 155.145C649.515 155.685 646.596 156.269 643.682 156.888C674.446 150.425 706.162 148.478 737.258 151.836C753.933 193.873 747.347 233.047 719.641 256.643C687.033 284.41 638.35 285.044 603.25 280.685C562.703 275.653 521.825 262.319 484.168 242.631C508.064 218.064 537.435 197.419 569.835 181.926C569.512 182.08 569.185 182.233 568.863 182.392C541.623 195.438 517.132 211.694 496.071 230.704C491.829 234.533 487.751 238.455 483.841 242.463C477.522 239.154 471.293 235.662 465.173 232.002C466.957 212.08 464.836 191.614 458.746 171.079C441.6 113.247 393.883 58.9564 334.218 29.3816L334.015 29.2826L333.95 29.4955C327.914 49.704 329.331 71.9532 338.167 95.614C345.254 114.599 356.899 134.114 372.777 153.614C397.406 183.868 429.022 210.882 464.762 232.294C462.681 254.994 455.51 276.975 443.334 297.541L443.285 297.625L443.324 297.714C443.389 297.858 443.483 297.892 443.537 297.902C443.537 297.902 443.547 297.902 443.552 297.902ZM483.499 242.804C470.426 256.252 459.231 270.67 450.044 285.896C458.374 268.818 463.414 250.898 465.124 232.507C468.736 234.666 472.393 236.771 476.09 238.812C478.548 240.169 481.016 241.507 483.499 242.804ZM334.257 29.8125C393.739 59.3625 441.292 113.509 458.389 171.178C464.445 191.604 466.571 211.957 464.816 231.779C429.612 210.674 397.981 183.957 373.079 153.372C347.845 122.38 320.654 75.8017 334.257 29.8125Z" fill="white"/>
<path d="M557.99 488.387C578.14 491.022 599.538 491.037 621.65 488.432C663.707 483.474 708.337 468.778 747.312 447.044C813.256 410.272 885.424 338.176 871.801 255.999C868.659 237.049 861.082 220.06 849.278 205.503C838.594 192.328 824.475 181.149 807.314 172.283C791.744 164.234 774.008 158.236 754.597 154.451C736.916 151.004 717.961 149.503 699.779 150.118C650.709 151.772 599.082 165.977 554.408 190.118C506.428 216.048 468.87 251.71 445.797 293.251C436.406 310.31 430.454 328.101 428.105 346.135C425.766 364.08 427.094 381.48 432.055 397.845C441.238 428.143 462.115 452.487 492.438 468.253C511.329 478.075 532.39 484.712 555.042 487.981C556.018 488.125 557.009 488.258 557.99 488.387ZM740.727 152.436C803.31 160.618 861.003 193.189 871.429 256.064C885.022 338.042 812.964 410.005 747.129 446.717C678.252 485.128 575.221 510.869 492.617 467.921C462.388 452.205 441.57 427.935 432.422 397.741C422.416 364.719 427.283 327.68 446.129 293.439C491.631 211.521 593.571 154.075 699.794 150.499C713.377 150.043 727.168 150.667 740.727 152.441L740.727 152.436Z" fill="white"/>
<path d="M233.124 386.681C236.246 387.087 239.363 387.444 242.49 387.746C284.077 391.763 323.964 386.111 357.836 371.401C375.908 363.555 392.292 353.134 406.534 340.439C421.569 327.036 434.344 310.963 444.498 292.677C456.079 271.676 462.502 249.07 463.577 225.493C464.578 203.576 460.98 181.188 452.878 158.944C445.197 137.864 433.774 117.66 418.923 98.888C404.393 80.527 387.341 64.4741 368.237 51.1751C349.614 38.208 329.108 27.4994 307.294 19.3368C285.489 11.1791 262.833 5.74061 239.963 3.17988C191.879 -2.20906 145.336 5.34931 105.37 25.0328C86.7567 34.2009 70.1556 46.1873 56.0223 60.6651C42.122 74.9052 31.0117 91.1414 22.9936 108.913C14.8913 126.883 10.1983 145.888 9.0536 165.403C7.86427 185.631 10.5304 205.939 16.9726 225.756C24.1284 247.777 35.541 268.724 50.8884 288.016C65.4775 306.347 83.3771 322.91 104.091 337.229C141.798 363.297 187.29 380.688 233.124 386.681ZM444.166 292.488C405.86 361.46 332.369 396.042 242.525 387.369C137.586 377.235 44.9913 310.731 17.3344 225.637C-8.53364 146.041 27.7361 63.6865 105.533 25.3696C184.342 -13.4426 289.83 -2.95201 368.019 51.4822C441.247 102.464 492.83 204.255 444.166 292.488Z" fill="white"/>
<path d="M577.322 607.38C657.999 617.93 725.766 609.737 779.227 582.902C802.438 571.252 821.626 556.135 836.265 537.962C849.972 520.949 859.769 501.181 865.379 479.209C866.192 476.019 866.92 472.79 867.554 469.521C857.861 518.636 827.816 558.092 779.053 582.565C716.152 614.136 633.39 619.866 533.074 599.593C450.371 582.882 368.238 549.785 288.969 501.225C136.674 407.939 -11.2389 251.794 30.3382 93.3008C42.1869 73.3301 58.1835 56.034 77.8918 41.888C147.175 -7.82588 251.847 -11.1543 338.4 33.5966C332.573 53.2454 333.97 74.8656 342.558 97.8577C349.461 116.347 360.804 135.357 376.271 154.357C402.263 186.285 436.342 214.572 474.827 236.157C513.168 257.663 555.067 272.077 595.985 277.827C620.213 281.23 645.774 279.977 667.979 274.291C692.301 268.065 711.772 256.871 724.289 241.918C732.649 231.932 737.892 220.327 739.87 207.424C742.02 193.417 740.316 177.805 734.805 161.029L731.728 152.658C757.135 154.957 779.995 160.836 799.678 170.128C831.399 185.101 853.6 209.148 863.877 239.664C874.72 271.864 870.979 308.229 853.342 342.069L853.302 342.143L853.332 342.222C866.296 377.399 872.029 410.693 870.845 441.085C872.119 410.054 866.36 376.492 853.719 342.168C871.37 308.259 875.107 271.814 864.239 239.545C859.249 224.721 851.335 211.273 840.725 199.574C829.679 187.399 815.927 177.379 799.847 169.786C780.044 160.44 757.041 154.541 731.47 152.257L731.173 152.232L734.458 161.153C745.103 193.586 741.589 220.679 724.012 241.675C696.558 274.469 641.165 283.355 597.764 277.684C597.189 277.609 596.619 277.53 596.05 277.451C513.118 265.791 429.018 218.529 376.578 154.115C351.959 123.876 325.427 78.412 338.822 33.5471L338.866 33.3985L338.727 33.3242C318.677 22.9426 297.175 14.9384 274.826 9.53463C252.149 4.05159 229.17 1.38683 206.533 1.61963C157.978 2.11493 113.428 15.929 77.6886 41.576C57.9308 55.7517 41.8897 73.0973 30.0162 93.1225L29.9963 93.1721C19.4062 133.515 20.4965 175.517 33.2273 218.009C44.4715 255.534 64.8735 293.791 93.8634 331.722C119.008 364.62 150.431 397.097 187.256 428.247C218.372 454.573 253.482 479.917 288.79 501.542C327.072 524.99 366.716 545.134 406.633 561.42C448.523 578.508 491.046 591.475 533.02 599.96C548.194 603.026 562.976 605.497 577.337 607.38L577.322 607.38Z" fill="white"/>
<path d="M418.977 620.936C434.8 623.006 449.89 623.467 464.033 622.298C487.131 620.396 507.935 614.135 525.859 603.68C528 602.431 530.061 601.114 532.043 599.732C538.168 600.965 544.284 602.11 550.394 603.165C595.663 610.98 637.602 613.427 675.041 610.441C720.959 606.775 760.856 594.863 793.622 575.031C812.592 563.55 828.395 549.409 840.586 532.999C852.058 517.556 860.468 499.943 865.582 480.645C875.007 445.063 873.208 403.427 860.369 360.241L860.369 360.232L853.535 341.697L853.337 342.074C842.548 362.564 827.622 382.02 808.98 399.901C742.967 463.221 644.242 496.961 557.475 485.846L557.158 485.807L557.277 486.104C575.444 532.143 565.429 575.71 531.944 599.326C385.171 569.731 242.565 490.621 140.52 382.832C141.085 375.626 142.423 368.508 144.529 361.485L144.573 361.331L144.425 361.262C128.146 353.599 112.957 344.609 99.022 334.401C51.2851 272.082 6.38784 184.526 30.3331 93.2761L30.6799 91.9487L29.9862 93.1324C9.13814 128.671 3.50868 169.712 13.7171 211.823C23.0534 250.333 45.2889 287.392 76.3255 316.179C83.3723 322.712 90.8453 328.879 98.7247 334.654C103.294 340.612 108.066 346.566 113.031 352.52C121.679 362.876 130.728 373.05 140.153 383.016C139.172 396.235 140.763 409.822 144.92 423.621C150.585 442.423 161.036 461.754 175.992 481.076C209.476 524.346 255.617 555.095 273.903 566.304C296.759 580.316 343.113 605.552 396.806 617.093C404.334 618.712 411.727 619.995 418.967 620.941L418.977 620.936ZM531.523 599.628C529.645 600.936 527.697 602.179 525.675 603.358C453.641 645.365 348.499 611.595 274.117 565.982C255.85 554.783 209.754 524.064 176.309 480.844C150.198 447.108 138.211 414.413 140.49 383.352C160.01 403.957 181.131 423.66 203.604 442.205C236.494 469.347 272.293 494.039 310.015 515.589C347.598 537.061 387.054 555.402 427.283 570.103C461.704 582.679 496.68 592.585 531.523 599.628ZM860.012 360.35C887.882 454.107 863.615 532.242 793.429 574.709C738.903 607.706 666.041 618.455 576.599 606.765C568.031 605.646 559.329 604.323 550.458 602.793C544.462 601.758 538.456 600.633 532.469 599.435C548.971 587.77 559.943 571.405 564.378 551.697C568.918 531.528 566.623 508.913 557.743 486.267C601.104 491.765 647.746 486.421 692.643 470.809C736.728 455.479 777.051 431.055 809.242 400.173C827.801 382.372 842.677 363.015 853.471 342.623L860.007 360.355L860.012 360.35ZM144.122 361.534C142.076 368.399 140.768 375.398 140.208 382.5C130.906 372.659 121.936 362.579 113.334 352.277C108.854 346.908 104.334 341.296 99.8446 335.461C113.467 345.343 128.28 354.065 144.122 361.534ZM29.6343 94.5144C18.6033 137.75 22.0325 183.873 39.8328 231.63C52.3555 265.217 71.8507 299.423 97.9119 333.579C90.4291 328.037 83.3179 322.137 76.5981 315.906C21.7054 264.999 -16.1996 174.175 29.6343 94.5144Z" fill="white"/>
<path d="M416.46 618.995C417.818 619.173 419.166 619.341 420.524 619.5C456.318 623.705 505.977 622.744 539.269 594.294C554.522 581.257 563.561 564.238 566.133 543.713C568.383 525.738 565.444 505.767 557.634 485.965L557.594 485.861L557.485 485.846C504.466 478.907 462.353 454.434 441.947 418.702C421.604 383.09 423.631 337.69 447.487 294.078C447.571 293.999 447.66 293.915 447.745 293.821L447.814 293.747L447.789 293.647C447.774 293.593 447.759 293.538 447.735 293.484L447.586 293.113L447.393 293.464C447.323 293.588 447.254 293.717 447.185 293.841C446.808 294.158 446.441 294.291 446.084 294.232C445.505 294.133 444.95 293.524 444.509 292.508L444.355 292.157L444.167 292.493C387.321 394.853 244.319 407.89 144.43 361.262L144.232 361.168L144.167 361.376C137.943 382.129 139.34 404.968 148.325 429.257C155.54 448.758 167.434 468.818 183.678 488.882C239.542 557.894 328.42 607.484 416.46 618.995ZM557.317 486.208C574.319 529.389 567.481 569.682 539.021 594.006C505.834 622.368 456.288 623.319 420.568 619.123C331.299 608.643 240.637 558.646 183.975 488.645C158.191 456.791 130.425 408.93 144.469 361.693C168.851 373.045 196.533 381.049 224.551 384.848C225.007 384.913 225.473 384.972 225.929 385.031C254.552 388.776 282.69 388.226 309.579 383.407C338.569 378.211 364.625 368.26 387.014 353.832C411.202 338.245 430.479 317.779 444.31 292.999C444.786 293.945 445.366 294.494 446.015 294.603C446.288 294.648 446.55 294.618 446.813 294.509C436.044 314.386 429.558 335.54 428.036 355.759C426.302 378.845 430.866 400.084 441.61 418.891C452.636 438.193 469.38 453.978 491.388 465.801C510.313 475.97 533.109 483.028 557.317 486.208Z" fill="white"/>
<path d="M559.185 486.673C590.023 490.705 623.067 488.892 656.522 481.21C700.017 471.22 742.253 451.997 778.662 425.627C793.682 414.745 808.226 401.763 820.719 388.083C834.63 372.847 845.983 356.913 854.462 340.716C863.892 322.702 869.556 304.698 871.306 287.199C873.243 267.773 870.329 248.941 862.643 231.224C854.923 213.433 843.094 198.251 827.479 186.097C813.415 175.15 796.264 166.626 776.501 160.757C758.74 155.487 739.161 152.421 718.308 151.653C699.606 150.965 679.957 152.203 661.478 155.229C617.219 162.485 574.067 178.726 536.682 202.204C496.106 227.683 464.43 260.724 445.078 297.763C426.173 334.292 423.591 372.946 437.809 406.602C444.895 423.378 455.768 438.143 470.129 450.491C484.911 463.201 502.761 472.785 523.183 478.981C534.749 482.488 546.786 485.054 559.185 486.673ZM741.584 154.001C794.277 160.89 842.033 184.67 862.296 231.378C892.674 301.399 842.068 379.241 778.439 425.325C716.955 469.853 617.646 507.234 523.292 478.625C482.869 466.366 452.631 440.734 438.155 406.458C423.988 372.906 426.564 334.372 445.415 297.942C490.456 211.739 586.594 167.894 661.542 155.61C687.574 151.341 715.201 150.553 741.589 154.006L741.584 154.001Z" fill="white"/>
<path d="M443.543 297.905L443.785 297.817L443.825 297.713L443.825 297.639L443.622 297.688L443.642 297.679L443.617 297.679L443.612 297.654L443.622 297.629L443.696 297.619L443.622 297.619L443.632 297.605L443.686 297.58L443.637 297.6L443.667 297.541L443.627 297.526L443.612 297.526L443.612 297.545L443.593 297.6L443.568 297.614L443.519 297.555L443.563 297.619L443.523 297.634L443.474 297.614L443.514 297.634L443.326 297.605L443.341 297.723L443.444 297.851L443.548 297.901L443.543 297.905ZM443.602 297.708L443.588 297.708L443.598 297.703L443.602 297.708Z" fill="white"/>
<path d="M446.461 294.777L446.932 294.777L447.264 294.698L447.477 294.584L447.65 294.42L447.764 294.217L447.804 294.064L447.814 293.821L447.73 293.489L447.378 293.618L447.437 293.96L447.373 294.158L447.214 294.301L446.952 294.395L446.585 294.41L446.506 294.4L445.995 294.277L445.455 294.019L444.994 293.672L444.667 293.286L444.504 292.914L444.494 292.711L444.514 292.627L444.147 292.533L444.117 292.672L444.122 292.914L444.216 293.246L444.4 293.568L444.737 293.95L445.163 294.281L445.747 294.589L446.357 294.762L446.461 294.777Z" fill="white"/>
<path d="M399.081 444.409C402.188 444.815 405.256 445.008 408.264 444.983C420.058 444.889 430.038 440.397 434.969 432.972C439.028 426.86 439.35 419.223 435.911 410.887L435.559 411.03C438.948 419.247 438.636 426.761 434.652 432.764C429.795 440.085 419.924 444.513 408.259 444.607C384.219 444.8 356.602 430.709 341.101 410.332C332.587 399.143 329.559 388.831 332.097 379.682L331.73 379.583C329.158 388.85 332.211 399.277 340.799 410.565C348.148 420.228 358.797 428.98 370.78 435.211C380.146 440.08 389.774 443.2 399.076 444.419L399.081 444.409Z" fill="white"/>
<path d="M519.258 224.731C522.107 225.102 524.932 225.29 527.712 225.285C539.09 225.251 548.719 220.971 553.471 213.834C557.356 207.994 557.653 200.698 554.333 192.724L553.986 192.867C557.252 200.718 556.965 207.895 553.154 213.626C548.476 220.659 538.961 224.879 527.707 224.909C504.703 224.973 478.32 211.466 463.547 192.06C455.396 181.347 452.482 171.49 454.885 162.758L454.518 162.659C452.08 171.51 455.019 181.475 463.245 192.288C476.298 209.44 498.39 222.006 519.253 224.735L519.258 224.731Z" fill="white"/>
<path d="M408.873 595.027C441.322 599.266 480.168 597.919 508.588 576.646C522.836 565.982 531.845 550.87 534.635 532.945C537.132 516.932 534.769 499.145 527.796 481.507L527.444 481.646C539.298 511.652 540.512 552.282 508.356 576.344C480.035 597.538 441.287 598.88 408.917 594.65C402.569 593.823 396.474 592.778 390.745 591.629C326.967 578.825 264.953 544.173 220.606 496.56C197.746 472.017 161.541 423.66 175.892 375.487L175.531 375.378C161.125 423.73 197.414 472.215 220.329 496.817C264.73 544.486 326.814 579.177 390.671 591.995C396.405 593.144 402.515 594.195 408.868 595.022L408.873 595.027Z" fill="white"/>
<path d="M588.641 261.066C590.856 261.353 593.061 261.616 595.266 261.844C616.446 264.048 637.394 262.116 655.848 256.262C675.16 250.135 690.601 239.981 700.493 226.9C715.602 206.924 717.386 180.822 705.642 151.425L705.29 151.564C716.98 180.832 715.216 206.805 700.19 226.672C680.72 252.413 639.549 266.074 595.306 261.467C593.086 261.235 590.851 260.972 588.626 260.685C516.904 251.309 444.271 211.248 397.669 155.016C375.423 128.175 351.354 87.7832 363.029 47.807L362.668 47.703C350.948 87.8426 375.076 128.349 397.381 155.259C420.846 183.575 451.595 208.455 486.294 227.207C519.104 244.939 554.343 256.584 588.641 261.066Z" fill="white"/>
<path d="M460.049 678.724C469.257 679.927 478.429 680.848 487.557 681.487C521.374 683.845 552.282 681.705 579.414 675.123C612.581 667.079 639.406 652.467 659.149 631.684C678.158 611.669 688.689 586.666 690.448 557.369C691.925 532.762 687.271 505.54 676.612 476.455L676.255 476.584C692.722 521.533 703.08 584.888 658.871 631.422C613.493 679.189 540.676 684.806 487.577 681.101C478.509 680.467 469.395 679.551 460.282 678.362C325.838 660.793 188.554 583.427 104.315 476.153C67.5642 429.356 27.9495 358.528 47.9402 286.852L47.5736 286.748C38.8419 318.061 40.7101 351.915 53.1337 387.374C63.2975 416.384 80.414 446.331 104.017 476.386C148.003 532.395 207.152 581.287 275.073 617.766C334.664 649.773 398.07 670.615 460.049 678.719L460.049 678.724Z" fill="white"/>
<path d="M623.364 387.979C646.412 390.99 668.257 391.961 688.579 390.856C722.004 389.044 751.678 381.589 776.768 368.701C793.85 359.929 807.934 348.567 818.638 334.941C828.638 322.207 835.744 307.422 839.758 291.008C847.172 260.7 844.005 225.488 830.605 189.182L830.249 189.311C859.675 269.051 839.615 335.986 776.59 368.36C736.078 389.167 684.778 395.636 623.815 387.667C615.187 386.537 606.376 385.121 597.367 383.417C472.358 359.746 354.932 291.914 275.207 197.31C234.631 149.162 190.66 76.1682 211.632 1.87721L211.27 1.7732C202.127 34.1662 204.699 69.3726 218.917 106.427C230.448 136.477 249.289 167.136 274.919 197.553C294.732 221.065 317.304 243.3 342.008 263.642C366.24 283.598 392.614 301.805 420.39 317.759C447.967 333.599 476.987 347.255 506.631 358.335C536.449 369.479 566.95 378.043 597.298 383.788C606.139 385.462 614.831 386.859 623.359 387.974L623.364 387.979Z" fill="white"/>
<path d="M538.297 657.311C546.261 658.352 554.185 659.213 562.064 659.897C605.247 663.641 644.688 661.898 679.292 654.706C721.667 645.905 756.748 628.881 783.552 604.111C811.071 578.686 826.75 545.986 830.164 506.922C831.656 489.824 830.774 471.458 827.528 452.339C824.57 434.884 819.639 416.716 812.874 398.335L812.518 398.464C830.809 448.173 851.339 540.959 783.295 603.833C722.069 660.402 629.212 665.34 562.094 659.516C554.051 658.817 545.973 657.94 537.886 656.88C459.276 646.608 378.773 619.396 298.181 575.824C209.213 527.724 136.431 468.53 81.8607 399.881C20.4713 322.662 -6.46214 249.788 1.79878 183.278C3.00793 173.56 5.45592 164.229 7.82467 155.209L7.45801 155.115C5.0843 164.149 2.63129 173.491 1.42213 183.234C-3.09734 219.619 3.12685 258.55 19.9212 298.932C33.6035 331.831 54.3425 365.873 81.5633 400.118C109.567 435.34 142.982 468.6 180.878 498.967C216.176 527.254 255.583 553.223 298.002 576.155C340.273 599.009 383.282 617.627 425.831 631.496C463.647 643.824 501.373 652.472 538.292 657.301L538.297 657.311Z" fill="white"/>
<path d="M601.704 544.956C641.363 550.142 678.252 550.761 711.558 546.784C757.601 541.291 796.536 526.972 827.291 504.217C860.622 479.556 880.543 446.152 886.495 404.943C891.554 369.91 886.143 329.468 870.84 287.991L870.483 288.12C904.315 379.816 888.487 458.466 827.063 503.91C761.54 552.386 670.779 553.594 601.411 544.525C596.476 543.881 591.664 543.183 586.961 542.45C421.852 516.615 259.785 425.538 153.439 298.814C102.065 237.594 46.196 144.104 71.8064 46.3706L71.4396 46.2765C60.2946 88.8085 63.6247 134.238 81.3457 181.302C95.9299 220.045 120.088 259.659 153.147 299.056C179.496 330.454 209.695 360.118 242.907 387.216C275.564 413.868 311.11 438.029 348.559 459.03C385.909 479.977 425.068 497.734 464.945 511.8C505.303 526.035 546.335 536.476 586.906 542.821C591.877 543.599 596.818 544.307 601.704 544.946L601.704 544.956Z" fill="white"/>
<path d="M602.72 540.003C604.593 540.246 606.456 540.483 608.324 540.706C678.525 549.176 775.728 547.398 840.135 490.839C868.987 465.504 885.682 432.784 889.76 393.585C891.554 376.324 890.875 357.775 887.733 338.443C884.849 320.691 879.879 302.192 872.971 283.464L872.614 283.593C891.163 333.866 911.58 427.603 839.888 490.557C775.584 547.026 678.495 548.795 608.369 540.335C606.456 540.102 604.533 539.864 602.62 539.612C520.234 528.844 436.59 500.057 353.881 454.003C274.617 409.866 208.094 356.091 156.16 294.167C110.643 239.897 58.4757 157.2 68.4562 71.4678C69.6505 61.2 72.2026 51.4673 74.6704 42.0515L74.3038 41.9574C71.8359 51.3831 69.2788 61.1258 68.0796 71.4232C63.7088 108.982 70.8745 149.211 89.3835 191C104.414 224.934 126.783 259.724 155.872 294.41C182.374 326.011 213.193 355.927 247.471 383.342C279.835 409.222 315.575 433.106 353.698 454.335C394.185 476.876 435.633 495.559 476.888 509.854C519.06 524.465 561.365 534.604 602.725 540.008L602.72 540.003Z" fill="white"/>
<path d="M537.688 658.748C577.53 663.958 614.544 664.588 647.914 660.615C694.085 655.122 733.13 640.753 763.958 617.915C797.285 593.224 817.221 559.8 823.207 518.571C828.301 483.508 822.92 443.037 807.657 401.54L807.3 401.669C841.047 493.39 825.165 572.094 763.731 617.608C698.104 666.227 606.991 667.416 537.356 658.312C532.445 657.668 527.653 656.98 522.97 656.247C358.435 630.545 196.959 539.79 91.0139 413.482C39.491 352.049 -16.5414 258.278 9.15313 160.405L8.78639 160.311C-2.40821 202.962 0.931822 248.505 18.7074 295.683C33.3213 334.466 57.5541 374.179 90.7216 413.73C116.932 444.978 147.007 474.519 180.115 501.528C212.663 528.086 248.1 552.168 285.445 573.109C322.691 593.996 361.726 611.699 401.46 625.726C441.684 639.921 482.547 650.318 522.91 656.623C527.876 657.401 532.807 658.104 537.688 658.743L537.688 658.748Z" fill="white"/>
<path d="M621.352 381.416C623.097 381.644 624.831 381.862 626.57 382.07C660.724 386.136 692.098 385.784 719.829 381.015C753.963 375.14 782.264 362.56 803.95 343.609C825.932 324.396 838.599 299.413 841.597 269.343C844.099 244.216 839.62 215.206 828.643 185.443L828.286 185.572C842.484 224.057 858.163 295.728 803.697 343.327C754.201 386.582 680.08 388.068 626.615 381.698C624.89 381.495 623.151 381.277 621.427 381.049C492.379 364.184 360.987 291.354 277.392 190.094C245.335 151.262 194.907 74.9894 217.331 0.455715L216.969 0.346747C207.667 31.2638 209.902 65.3557 223.614 101.667C234.631 130.85 252.629 160.682 277.105 190.331C318.721 240.749 372.98 285.143 434.002 318.715C493.697 351.554 558.362 373.184 621.357 381.421L621.352 381.416Z" fill="white"/>
<path d="M462.626 676.217C485.912 679.263 507.994 680.214 528.525 679.055C561.905 677.168 591.54 669.65 616.6 656.712C633.667 647.901 647.755 636.509 658.469 622.853C668.489 610.089 675.616 595.279 679.664 578.845C687.137 548.478 684.05 513.212 670.729 476.851L670.373 476.98C699.605 556.774 679.436 623.839 616.426 656.375C570.186 680.249 509.946 685.44 437.372 671.799C314.38 648.688 194.213 579.256 115.93 486.069C75.4879 437.93 31.7106 364.927 52.8064 290.497L52.4446 290.393C43.2619 322.796 45.7546 358.017 59.8531 395.071C71.3153 425.191 90.087 455.885 115.643 486.312C135.381 509.809 157.884 532.024 182.518 552.346C206.686 572.282 232.995 590.46 260.717 606.389C288.24 622.204 317.2 635.82 346.795 646.86C376.558 657.965 407.01 666.484 437.308 672.176C445.891 673.79 454.34 675.138 462.631 676.222L462.626 676.217Z" fill="white"/>
<path d="M587.139 256.326C589.265 256.603 591.386 256.851 593.502 257.074C614.013 259.214 634.321 257.346 652.225 251.675C670.987 245.732 685.973 235.885 695.562 223.2C710.166 203.883 711.865 178.647 700.483 150.227L700.131 150.365C711.464 178.657 709.779 203.764 695.259 222.972C676.389 247.936 636.462 261.175 593.542 256.698C591.396 256.475 589.235 256.222 587.089 255.94C516.071 246.658 444.756 206.578 399.631 150.256C379.551 125.194 357.92 87.4414 368.906 49.9517L368.545 49.8477C363.733 66.2721 364.813 84.2814 371.756 103.375C377.365 118.799 386.642 134.654 399.338 150.499C422.01 178.801 452.036 203.69 486.17 222.477C518.465 240.253 553.238 251.898 587.144 256.331L587.139 256.326Z" fill="white"/>
<path d="M406.459 588.91C408.818 589.217 411.167 589.489 413.516 589.732C434.676 591.891 455.599 589.92 474.033 584.026C493.301 577.859 508.727 567.681 518.643 554.585C533.827 534.53 535.68 508.358 524 478.907L523.648 479.046C535.274 508.368 533.441 534.411 518.341 554.357C498.831 580.133 457.7 593.873 413.556 589.36C339.807 581.827 264.26 541.137 216.404 483.181C194.243 456.346 170.297 415.949 182.042 375.888L181.68 375.784C169.886 416.008 193.896 456.524 216.112 483.424C239.477 511.721 270.132 536.566 304.762 555.278C337.359 572.891 372.37 584.452 406.459 588.91Z" fill="white"/>
<path d="M516.448 223.69C519.02 224.027 521.563 224.196 524.06 224.191C534.358 224.171 543.407 220.159 547.678 213.715C551.182 208.43 551.435 201.828 548.402 194.626L548.055 194.774C551.038 201.857 550.8 208.336 547.366 213.512C543.164 219.852 534.234 223.799 524.06 223.814C503.217 223.849 479.361 211.6 466.045 194.021C458.681 184.299 456.035 175.363 458.191 167.453L457.824 167.354C455.639 175.378 458.305 184.427 465.743 194.249C472.062 202.585 481.264 210.168 491.661 215.597C499.872 219.881 508.311 222.625 516.443 223.69L516.448 223.69Z" fill="white"/>
<path d="M400.8 438.569C403.675 438.946 406.519 439.134 409.324 439.124C420.687 439.074 430.316 434.78 435.068 427.638C438.963 421.788 439.275 414.478 435.97 406.493L435.623 406.637C438.879 414.497 438.577 421.689 434.756 427.43C430.068 434.468 420.563 438.703 409.324 438.748C406.539 438.757 403.704 438.569 400.845 438.198C380.121 435.488 358.212 423.012 345.268 405.958C337.136 395.25 334.237 385.383 336.656 376.641L336.289 376.542C333.841 385.403 336.76 395.379 344.966 406.186C357.969 423.314 379.987 435.85 400.805 438.574L400.8 438.569Z" fill="white"/>
<path d="M171.467 414.973C186.998 417.004 202.88 417.776 218.728 417.217C240.686 416.439 262.847 413.269 284.588 407.796C306.977 402.159 328.35 394.215 348.113 384.185C391.122 362.356 424.785 331.38 445.46 294.613C450.286 286.074 454.3 277.287 457.393 268.491C463.889 250.016 466.382 231.199 464.796 212.561C463.3 194.958 458.205 177.795 449.662 161.549C433.165 130.186 404.641 104.044 369.352 87.9417C328.994 69.5212 282.055 62.1461 233.615 66.5989C186.933 70.8932 141.625 85.7673 102.595 109.616C85.6666 119.958 70.0913 132.341 56.295 146.418C41.7802 161.237 29.9413 177.245 21.1105 194.002C1.14461 231.893 -2.03188 271.23 11.918 307.759C19.3216 327.145 30.8135 344.54 46.0816 359.464C60.081 373.149 77.2223 384.749 97.0247 393.947C119.463 404.363 144.94 411.506 171.467 414.973ZM297.427 68.0799C322.552 71.3638 346.814 78.0702 369.199 88.2834C431.941 116.917 486.189 185.477 457.041 268.362C453.954 277.139 449.949 285.906 445.133 294.425C405.26 365.338 316.387 413.388 218.713 416.84C203.485 417.38 187.736 416.657 172.022 414.601C104.25 405.745 36.8841 372.089 12.2748 307.63C-18.0135 228.307 37.9644 149.548 102.793 109.938C161.596 74.0137 232.396 59.5804 297.427 68.0799Z" fill="white"/>
<path d="M171.968 413.779C175.555 414.25 179.163 414.641 182.781 414.963C204.749 416.895 227.306 416.335 249.834 413.299C272.57 410.233 294.816 404.71 315.951 396.874C360.779 380.252 398.754 353.887 425.766 320.622C432.179 312.722 437.878 304.49 442.709 296.149C452.427 279.383 458.696 261.641 461.352 243.418C463.919 225.786 463.047 208.133 458.76 190.951C454.504 173.887 447.011 157.81 436.495 143.173C425.761 128.23 412.173 115.223 396.117 104.51C360.343 80.6458 315.713 67.5896 267.045 66.7574C244.448 66.3711 221.429 68.6099 198.629 73.4143C176.279 78.1247 154.668 85.1779 134.4 94.3807C61.3399 127.556 -6.46706 198.266 6.74444 281.453C9.91104 301.384 17.4187 319.918 29.0593 336.536C39.7385 351.782 53.847 365.373 70.9883 376.943C99.2399 396.007 134.751 408.915 171.978 413.779L171.968 413.779ZM297.596 69.2835C333.717 74.0038 367.519 85.8911 395.899 104.827C461.605 148.661 481.15 229.045 442.377 295.961C437.561 304.282 431.872 312.499 425.469 320.384C372.266 385.898 277.02 422.873 182.81 414.591C179.232 414.279 175.64 413.883 172.042 413.413C97.1833 403.63 19.6091 360.103 7.10626 281.398C-6.07551 198.405 61.6124 127.844 134.543 94.7274C187.34 70.7545 244.923 62.3987 297.596 69.2835Z" fill="white"/>
<path d="M137.636 460.561C140.342 460.913 143.072 461.205 145.832 461.433C180.323 464.261 218.322 458.282 258.774 443.676C297.923 429.535 334.718 408.905 368.139 382.357C402.039 355.427 428.279 325.511 446.134 293.444C450.52 285.485 454.261 277.6 457.244 270.002C464.42 251.75 467.909 233.161 467.334 216.246C466.665 196.562 460.684 179.41 449.548 165.259C439.023 151.881 424.429 141.702 406.167 135.011C390.691 129.339 372.97 126.259 353.49 125.852C317.651 125.11 278.998 133.099 238.605 149.607C199.268 165.68 163.157 187.825 131.273 215.429C98.3036 243.973 73.947 274.727 58.8871 306.837C50.641 324.416 45.7103 341.662 44.2286 358.107C42.4892 377.389 45.6409 394.848 53.5946 409.995C61.91 425.83 75.1067 438.401 92.8029 447.351C105.727 453.889 121.089 458.406 137.631 460.566L137.636 460.561ZM445.802 293.256C427.977 325.278 401.767 355.16 367.906 382.06C334.52 408.583 297.76 429.193 258.651 443.319C218.253 457.911 180.303 463.879 145.867 461.056C120.495 458.976 74.8093 449.555 53.9365 409.812C34.2085 372.248 48.7877 329.27 59.234 306.991C74.2692 274.93 98.591 244.216 131.526 215.706C163.38 188.132 199.456 166.007 238.754 149.949C279.097 133.465 317.701 125.481 353.485 126.224C378.114 126.734 423.314 132.514 449.251 165.487C469.876 191.699 472.661 229.743 456.893 269.858C453.914 277.441 450.183 285.316 445.802 293.256Z" fill="white"/>
<path d="M138.552 459.387C164.861 462.824 194.431 460.472 226.741 452.339C265.053 442.695 302.621 425.929 338.4 402.506C374.541 378.845 404.329 351.37 426.931 320.84C432.501 313.316 437.64 305.545 442.209 297.739C451.897 281.022 458.731 264.568 462.517 248.837C467.031 230.09 467.17 212.432 462.938 196.349C458.166 178.236 447.759 163.035 432.005 151.168C418.065 140.667 400.369 133.282 380.829 129.805C348.172 123.995 311.016 127.254 270.395 139.488C231.885 151.088 194.808 169.464 160.188 194.101C124.741 219.332 96.3805 247.98 75.8943 279.254C53.2325 313.841 43.1033 346.457 45.7744 376.2C47.5435 395.874 55.7549 413.73 69.5164 427.831C82.391 441.021 99.7255 450.684 119.647 455.776C125.742 457.331 132.046 458.54 138.547 459.387L138.552 459.387ZM441.887 297.546C437.328 305.337 432.194 313.098 426.634 320.612C404.056 351.103 374.303 378.553 338.202 402.189C302.452 425.592 264.924 442.338 226.657 451.972C186.423 462.101 150.456 463.255 119.751 455.41C77.7872 444.686 49.5902 414.324 46.1609 376.165C43.4948 346.511 53.6091 313.975 76.2213 279.462C96.6828 248.228 125.014 219.614 160.421 194.413C195.006 169.796 232.049 151.44 270.519 139.85C311.085 127.631 348.187 124.376 380.78 130.176C423.056 137.695 453.641 162.47 462.586 196.444C472.373 233.616 456.739 271.938 441.897 297.546L441.887 297.546Z" fill="white"/>
<path d="M155.278 523.133C170.129 525.074 189.644 521.008 213.5 510.978C240.766 499.517 265.306 483.598 272.179 478.996C345.065 430.159 406.841 364.263 446.129 293.439C450.862 284.876 454.816 276.961 458.216 269.244C468.702 245.459 479.406 215.161 469.063 191.773C457.249 165.056 424.32 168.805 405.746 173.422C371.85 181.842 336.418 200.064 300.431 227.583C272.362 249.045 244.046 275.886 213.862 309.641C182.285 344.951 158.865 378.325 142.269 411.669C129.647 437.024 117.526 466.45 123.294 492.459C126.426 506.585 133.691 516.02 144.886 520.503C148.047 521.771 151.511 522.648 155.278 523.138L155.278 523.133ZM445.802 293.256C406.544 364.026 344.808 429.882 271.971 478.684C265.108 483.285 240.587 499.185 213.357 510.631C183.549 523.163 160.56 526.367 145.024 520.146C133.954 515.713 126.768 506.372 123.661 492.369C117.918 466.475 130.014 437.128 142.606 411.833C159.187 378.518 182.588 345.174 214.145 309.889C282.606 233.339 345.308 188.816 405.84 173.783C424.3 169.197 457.016 165.457 468.721 191.921C479.004 215.176 468.325 245.375 457.874 269.085C454.479 276.792 450.53 284.697 445.802 293.246L445.802 293.256Z" fill="white"/>
<path d="M155.887 519.225C165.793 520.518 177.83 519.497 191.577 516.129C208.535 511.979 228.396 504.078 244.705 495.004C313.81 456.554 378.52 395.582 426.911 323.316C432.57 314.866 437.833 306.402 442.551 298.16C446.099 291.944 458.23 269.655 465.445 243.879C472.448 218.856 472.23 199.911 464.796 187.563C458.002 176.275 445.138 170.836 426.559 171.406C410.102 171.906 392.569 175.898 374.447 183.268C358.579 189.722 341.789 198.96 324.539 210.723C291.867 233.012 262.278 261.027 240.146 282.939C219.779 303.108 189.941 333.916 166.07 368.449C154.113 385.745 144.558 402.689 137.665 418.816C129.85 437.098 125.202 454.919 123.849 471.784C122.229 491.978 127.298 506 138.919 513.469C143.528 516.431 149.226 518.353 155.887 519.225ZM442.224 297.971C437.511 306.203 432.253 314.663 426.599 323.103C378.238 395.319 313.577 456.252 244.522 494.673C219.655 508.511 165.619 530.181 139.127 513.152C127.63 505.762 122.62 491.854 124.231 471.814C129.984 400.193 193.296 329.869 240.419 283.206C291.719 232.408 359.238 173.838 426.579 171.782C445.014 171.218 457.764 176.597 464.479 187.756C471.853 200.01 472.056 218.856 465.084 243.775C457.883 269.506 445.767 291.76 442.224 297.971Z" fill="white"/>
<path d="M229.843 587.478C233.382 587.939 239.442 584.155 248.273 575.972C269.319 556.482 287.164 532.91 304.425 510.121L306.883 506.872C358.638 438.579 405.419 366.893 445.906 293.831C450.4 285.723 454.424 278.248 458.205 270.982C459.761 267.996 461.897 264.315 464.375 260.051C474.301 242.963 487.889 219.56 485.223 205.161C484.524 201.382 483.067 199.138 480.892 198.489C475.054 196.746 465.257 206.979 459.41 213.091C458.562 213.977 457.764 214.81 457.085 215.493C405.463 267.609 364.258 331.662 324.405 393.605L322.805 396.092C296.892 436.365 276.53 470.531 258.724 503.608C256.574 507.605 254.269 511.696 251.831 516.03C241.484 534.406 229.749 555.239 226.647 575.15C225.592 581.921 226.231 585.829 228.605 587.092C228.976 587.29 229.383 587.419 229.834 587.473L229.843 587.478ZM480.109 198.712C480.342 198.742 480.57 198.791 480.788 198.856C482.815 199.46 484.182 201.605 484.856 205.235C487.498 219.495 473.389 243.79 464.053 259.863C461.575 264.127 459.434 267.817 457.878 270.809C454.097 278.075 450.073 285.544 445.584 293.652C405.102 366.705 358.336 438.366 306.585 506.649L304.127 509.898C286.877 532.677 269.037 556.234 248.02 575.7C238.194 584.799 231.905 588.419 228.793 586.765C226.612 585.606 226.018 581.718 227.029 575.219C230.121 555.372 241.836 534.574 252.168 516.228C254.606 511.894 256.911 507.803 259.066 503.801C276.867 470.729 297.224 436.573 323.132 396.31L324.732 393.823C364.575 331.895 405.771 267.862 457.363 215.77C458.042 215.082 458.845 214.245 459.692 213.363C465.252 207.548 474.415 197.974 480.114 198.722L480.109 198.712Z" fill="white"/>
<path d="M230.488 585.457C232.361 585.7 234.908 585.101 238.189 583.649C254.225 576.552 269.196 556.229 281.233 539.894C284.469 535.501 287.526 531.35 290.326 527.838C338.167 467.792 383.55 400.762 429.067 322.92C434.176 314.183 438.814 306.08 443.245 298.14C444.409 296.05 445.584 293.955 446.763 291.854C459.633 268.877 472.943 245.122 480.907 220.154C483.236 212.843 485.238 203.591 481.521 201.03C478.94 199.252 474.098 201.154 467.135 206.686C448.77 221.278 433.666 240.942 419.062 259.957C416.901 262.77 414.671 265.677 412.496 268.476C390.111 297.278 366.86 329.854 341.413 368.062C338.851 371.911 336.269 375.774 333.682 379.652C295.48 436.875 255.974 496.049 232.232 559.652L231.697 561.073C228.57 569.394 224.288 580.787 228.119 584.397C228.734 584.977 229.526 585.333 230.498 585.457L230.488 585.457ZM442.913 297.962C438.482 305.896 433.849 314 428.74 322.732C383.233 400.554 337.86 467.569 290.029 527.605C287.224 531.127 284.166 535.278 280.926 539.676C268.918 555.972 253.977 576.254 238.035 583.308C233.278 585.413 230.027 585.685 228.372 584.125C224.725 580.683 229.13 568.964 232.044 561.207L232.579 559.786C256.306 496.223 295.797 437.068 333.99 379.865C336.576 375.987 339.158 372.124 341.72 368.275C367.162 330.072 390.409 297.506 412.788 268.709C414.963 265.91 417.198 262.998 419.359 260.189C433.948 241.19 449.038 221.546 467.368 206.984C474.088 201.644 478.91 199.693 481.303 201.347C484.054 203.244 483.781 209.881 480.54 220.045C472.592 244.979 459.291 268.719 446.426 291.676C445.247 293.781 444.072 295.876 442.908 297.967L442.913 297.962Z" fill="white"/>
<path d="M337.369 644.285C338.127 644.384 338.93 644.389 339.777 644.305C359.114 642.358 379.655 603.551 390.686 582.703C392.658 578.979 394.358 575.764 395.716 573.392C410.751 547.071 425.632 517.452 441.208 482.845C457.665 446.276 470.991 413.824 481.947 383.62C495.194 347.101 505.169 313.489 512.449 280.864C512.677 279.848 513.014 278.471 513.44 276.723C516.835 262.849 524.788 230.367 517.072 217.752C515.516 215.211 513.381 213.601 510.719 212.967C493.841 208.96 471.085 249.09 461.362 266.227C460.049 268.54 459.013 270.363 458.235 271.661C453.899 278.867 449.543 286.456 444.924 294.851C413.665 351.613 385.388 415.953 360.883 486.084C359.506 490.027 347.161 525.654 337.964 562.168C326.987 605.745 324.95 632.308 331.908 641.13C333.34 642.947 335.174 643.998 337.369 644.285ZM509.619 213.145C509.961 213.19 510.298 213.249 510.63 213.329C513.187 213.938 515.249 215.488 516.75 217.945C524.387 230.427 516.458 262.805 513.073 276.634C512.647 278.382 512.305 279.764 512.082 280.784C494.762 358.424 463.141 433.2 440.866 482.691C425.295 517.288 410.419 546.898 395.389 573.208C394.031 575.586 392.326 578.805 390.354 582.53C379.353 603.318 358.876 642.006 339.743 643.933C336.586 644.25 334.054 643.23 332.21 640.892C315.074 619.168 359.352 491.626 361.245 486.208C385.74 416.097 414.012 351.777 445.261 295.034C449.875 286.644 454.226 279.061 458.562 271.859C459.345 270.556 460.381 268.729 461.694 266.415C471.179 249.699 493.132 210.996 509.624 213.15L509.619 213.145Z" fill="white"/>
<path d="M337.171 641.962C340.68 642.423 345.14 640.471 350.482 636.137C372.529 618.247 387.827 588.895 401.326 562.995C403.417 558.988 405.389 555.199 407.376 551.474C422.461 523.187 437.001 492.563 451.828 457.847C481.194 389.088 508.272 321.707 516.993 253.399L517.083 252.705C518.336 242.943 520.938 222.625 513.287 217.048C510.437 214.973 506.418 215.127 501.334 217.509C479.931 227.534 463.206 260.12 450.99 283.92C448.537 288.699 446.223 293.212 444.107 297.07C440.559 303.539 436.922 310.379 433.294 317.397C402.114 377.785 375.378 441.858 353.832 507.843L353.222 509.71C341.993 544.084 330.387 579.628 328.375 615.463C327.919 623.621 328.157 637.816 334.911 641.264C335.615 641.625 336.368 641.853 337.171 641.962ZM509.729 216.053C510.982 216.216 512.092 216.652 513.059 217.355C520.532 222.799 517.945 242.968 516.706 252.661L516.617 253.354C507.905 321.617 480.833 388.964 451.481 457.703C436.659 492.409 422.124 523.024 407.044 551.301C405.057 555.026 403.085 558.815 400.994 562.827C387.51 588.692 372.232 618.009 350.244 635.85C343.807 641.075 338.707 642.784 335.085 640.937C328.524 637.583 328.301 623.556 328.752 615.493C330.759 579.707 342.36 544.183 353.579 509.834L354.189 507.962C375.73 441.997 402.456 377.939 433.631 317.571C437.254 310.552 440.891 303.712 444.439 297.248C446.555 293.385 448.874 288.868 451.327 284.088C463.518 260.343 480.208 227.821 501.492 217.851C504.689 216.355 507.444 215.756 509.729 216.053Z" fill="white"/>
<path d="M451.743 679.402C452.958 679.561 454.196 679.679 455.455 679.764C484.653 681.636 511.621 661.774 535.611 620.723C550.532 595.19 564.155 561.589 576.093 520.854C597.833 446.692 603.874 374.586 593.576 312.33C590.003 290.74 585.182 273.548 578.829 259.769C569.611 239.773 557.143 227.143 541.766 222.229C509.154 211.808 479.559 242.2 460.47 269.531C455.51 276.634 450.713 284.395 445.797 293.256C413.957 351.029 394.601 422.303 389.824 499.363C386.613 551.167 386.404 670.863 451.743 679.402ZM533.986 220.867C536.523 221.199 539.075 221.764 541.652 222.586C567.723 230.912 584.582 260.289 593.205 312.39C603.497 374.586 597.457 446.638 575.736 520.746C553.902 595.235 515.318 683.221 455.485 679.382C386.766 674.984 386.94 552.034 390.205 499.383C394.978 422.383 414.324 351.158 446.134 293.434C451.04 284.583 455.837 276.837 460.787 269.744C478.285 244.681 504.644 217.029 533.986 220.867Z" fill="white"/>
<path d="M450.792 678.129C458.984 679.199 467.879 677.792 477.413 673.904C505.05 662.636 529.006 636.246 548.605 595.477C561.91 567.805 573.155 533.817 582.981 491.577C603.279 404.344 603.398 331.633 583.328 275.46C576.742 257.025 557.287 215.027 518.936 223.146C503.296 226.454 488.167 236.445 473.969 252.839C460.887 267.941 450.485 286.312 443.8 298.818C440.063 305.847 436.456 313.222 433.076 320.736C418.839 352.386 407.887 386.527 400.528 422.199C393.337 457.059 389.705 492.736 389.725 528.24C389.73 537.383 390.344 569.85 397.976 603.709C405.716 638.054 417.738 660.907 433.7 671.621C438.978 675.162 444.687 677.337 450.782 678.134L450.792 678.129ZM533.738 222.838C562.183 226.558 577.332 259.783 582.982 275.589C603.022 331.692 602.903 404.334 582.62 491.493C572.798 533.703 561.564 567.661 548.268 595.314C528.708 635.998 504.822 662.324 477.275 673.558C460.763 680.289 446.178 679.531 433.923 671.304C418.041 660.645 406.073 637.871 398.357 603.62C390.736 569.796 390.121 537.368 390.116 528.235C390.067 455.687 405.047 383.986 433.433 320.889C436.807 313.385 440.415 306.015 444.147 298.997C460.882 267.693 484.52 230.823 519.025 223.522C524.278 222.408 529.184 222.244 533.738 222.838Z" fill="white"/>
<path d="M555.959 686.208C565.805 687.495 575.821 687.218 585.91 685.366C604.528 681.953 621.575 673.681 636.566 660.779C649.896 649.307 661.7 634.121 671.646 615.631C693.897 574.283 700.899 528.69 703.089 505.198C707.306 460.016 703.466 414.056 691.979 372.292C685.75 349.642 677.335 328.621 666.963 309.819C655.828 289.626 642.384 271.918 627.011 257.183C602.006 233.215 571.484 221.273 541.077 223.552C510.695 225.83 482.334 242.175 461.218 269.571C455.797 276.604 450.604 284.573 445.792 293.251C425.38 330.231 413.685 375.125 411.98 423.091C410.384 467.98 417.401 514.059 432.273 556.348C444.999 592.54 465.426 626.538 488.315 649.624C502.181 663.607 516.993 673.82 532.345 679.982C540.076 683.082 547.965 685.163 555.959 686.208ZM561.306 224.493C584.686 227.549 607.378 238.876 626.759 257.45C693.812 321.716 709.962 427.549 702.717 505.158C700.527 528.626 693.535 574.159 671.314 615.448C649.971 655.107 621.213 678.506 585.841 684.989C551.068 691.364 518.346 679.372 488.583 649.352C465.733 626.305 445.341 592.362 432.63 556.219C401.048 466.415 406.227 365.715 446.124 293.429C450.931 284.767 456.109 276.812 461.521 269.793C482.572 242.482 510.838 226.192 541.112 223.918C547.856 223.413 554.611 223.611 561.306 224.483L561.306 224.493Z" fill="white"/>
<path d="M558.164 684.365C558.347 684.39 558.531 684.415 558.714 684.434C575.732 686.554 592.729 683.691 609.246 675.925C626.789 667.678 642.299 655.187 655.347 638.797C667.033 624.116 676.845 606.201 684.506 585.551C701.811 538.908 703.813 490.779 703.471 466.237C702.851 422.308 694.556 377.632 680.105 340.449C671.79 319.052 661.453 299.963 649.381 283.717C636.135 265.89 620.688 251.358 603.478 240.521C590.692 232.472 577.377 227.341 563.893 225.27C551.241 223.324 538.441 224.062 525.844 227.455C509.332 231.903 493.648 240.674 479.237 253.518C465.555 265.712 453.493 281.384 444.345 298.848C439.82 307.511 435.712 316.793 432.139 326.442C417.134 366.913 410.712 412.957 413.566 459.585C416.391 505.797 428.185 550.791 447.675 589.702C463.88 622.055 487.79 650.189 513.267 666.886C527.955 676.51 543.064 682.394 558.179 684.37L558.164 684.365ZM561.712 225.389C575.875 227.242 589.88 232.418 603.265 240.843C675.155 286.099 701.964 386.953 703.079 466.247C704.194 545.56 680.091 642.205 609.077 675.583C577.892 690.239 544.829 687.124 513.455 666.564C488.033 649.907 464.172 621.828 447.992 589.529C407.936 509.561 401.99 408.801 432.471 326.57C436.039 316.942 440.143 307.675 444.662 299.021C463.776 262.532 493.395 236.578 525.923 227.816C537.777 224.622 549.799 223.829 561.707 225.384L561.712 225.389Z" fill="white"/>
<path d="M629.192 663.344C646.363 665.588 663.435 665.023 680.105 661.645C719.081 653.745 751.193 630.322 772.962 593.907C792.309 561.544 802.245 520.973 800.941 479.665C799.499 433.998 786.466 387.959 763.259 346.526C739.582 304.252 706.761 269.556 668.346 246.202C634.435 225.582 595.697 215.855 559.274 218.812C519.634 222.031 485.763 239.758 461.312 270.086C455.4 277.421 450.034 285.485 445.37 294.054C425.157 331.033 417.381 375.799 422.892 423.512C427.853 466.495 443.691 510.914 467.482 548.587C490.793 585.492 522.86 617.182 557.792 637.816C576.975 649.149 596.733 657.014 616.511 661.185C620.738 662.076 624.97 662.799 629.192 663.349L629.192 663.344ZM593.378 220.02C620.183 223.522 646.14 233.131 668.152 246.519C745.603 293.613 797.577 385.131 800.57 479.675C802.948 554.892 766.243 643.799 680.036 661.274C663.013 664.721 646.14 665.098 629.687 662.948C562.713 654.196 502.686 603.61 467.804 548.384C427.986 485.336 398.308 380.945 445.707 294.232C450.361 285.683 455.713 277.639 461.615 270.319C496.958 226.479 546.459 213.888 593.383 220.025L593.378 220.02Z" fill="white"/>
<path d="M630.55 661.675C655.739 664.969 681.562 662.27 706.667 651.482C743.15 635.8 770.534 605.641 785.862 564.263C799.197 528.259 802.785 485.574 795.956 444.072C792.309 421.892 785.956 399.821 777.081 378.469C768.121 356.923 756.788 336.586 743.393 318.031C714.918 278.585 678.43 249.02 637.874 232.532C601.718 217.831 562.743 215.904 528.123 227.098C510.65 232.75 494.743 241.531 480.833 253.206C466.338 265.375 454.345 280.428 445.192 297.957C440.722 306.481 436.842 315.674 433.656 325.288C420.206 365.883 419.096 411.892 430.449 458.337C435.767 480.091 443.701 501.508 454.023 521.984C464.212 542.187 476.501 561.044 490.555 578.023C525.071 619.723 576.321 654.587 630.55 661.675ZM595.816 221.724C609.756 223.547 623.83 227.227 637.726 232.878C717.867 265.46 779.826 348.384 795.58 444.132C808.484 522.563 785.951 616.989 706.514 651.135C681.483 661.893 655.719 664.583 630.594 661.299C576.465 654.226 525.309 619.416 490.843 577.78C429.909 504.168 407.599 405.101 434.008 325.407C437.184 315.812 441.059 306.639 445.519 298.135C474.742 242.205 533.956 213.636 595.816 221.724Z" fill="white"/>
<path d="M654.421 615.146C662.35 616.181 670.274 616.825 678.168 617.073C700.745 617.781 722.619 615.205 743.18 609.42C783.711 598.018 817.944 573.847 839.58 541.35C861.603 508.274 870.706 466.693 865.215 424.265C862.47 403.056 856.28 381.867 846.82 361.292C837.806 341.687 826.002 322.999 811.735 305.753C796.482 287.308 778.686 270.804 758.849 256.703C739.072 242.641 717.644 231.234 695.165 222.799C673.896 214.819 652.042 209.668 630.223 207.489C607.393 205.21 584.993 206.236 563.645 210.54C521.988 218.94 485.615 240.184 461.223 270.358C454.979 278.085 449.434 286.456 444.746 295.232C426.158 329.968 420.751 372.317 429.513 414.477C433.923 435.701 441.694 456.633 452.601 476.698C463.047 495.916 476.179 514.004 491.641 530.463C508.138 548.027 526.974 563.461 547.633 576.334C568.387 589.266 590.554 599.346 613.523 606.3C627.061 610.396 640.753 613.353 654.431 615.141L654.421 615.146ZM637.562 208.683C656.735 211.189 676.022 216.023 695.032 223.155C740.459 240.199 780.713 268.843 811.442 305.995C840.978 341.707 859.442 382.624 864.839 424.314C870.314 466.653 861.231 508.14 839.263 541.142C817.677 573.56 783.518 597.682 743.076 609.059C702.678 620.421 657.914 619.346 613.627 605.943C567.381 591.946 525.294 565.759 491.913 530.211C460.024 496.253 438.572 456.207 429.885 414.408C421.138 372.332 426.535 330.072 445.078 295.416C449.756 286.659 455.287 278.308 461.516 270.601C485.853 240.496 522.147 219.297 563.719 210.916C587.531 206.117 612.452 205.399 637.562 208.683Z" fill="white"/>
<path d="M654.327 613.561C672.915 615.993 691.379 616.231 709.323 614.264C731.043 611.887 751.505 606.32 770.143 597.716C807.562 580.445 836.681 550.776 852.132 514.183C859.903 495.782 864.204 475.787 864.913 454.746C865.587 434.78 863.035 414.443 857.321 394.299C851.35 373.243 842.102 352.723 829.832 333.307C818.033 314.629 803.652 297.288 787.081 281.755C769.553 265.326 749.944 251.2 728.794 239.773C707.371 228.193 684.783 219.614 661.661 214.265C640.317 209.326 618.835 207.261 597.818 208.113C575.682 209.014 554.537 213.155 534.967 220.421C496.081 234.864 464.519 261.903 446.099 296.545C441.485 305.208 437.64 314.411 434.672 323.906C428.7 343.005 426.237 363.446 427.357 384.655C428.413 404.69 432.62 424.884 439.85 444.686C454.945 486.015 482.141 523.658 518.49 553.55C536.89 568.681 557.089 581.396 578.512 591.337C600.395 601.49 623.176 608.563 646.219 612.362C648.925 612.808 651.626 613.209 654.327 613.561ZM637.418 210.253C645.431 211.303 653.494 212.759 661.577 214.626C707.906 225.34 751.218 248.649 786.823 282.028C820.917 313.985 845.17 352.847 856.954 394.398C868.704 435.825 866.865 478.313 851.781 514.034C836.364 550.538 807.314 580.138 769.984 597.369C733.437 614.24 690.661 619.297 646.284 611.986C600.361 604.423 556.256 584.11 518.733 553.252C482.433 523.4 455.282 485.812 440.207 444.548C425.316 403.774 423.477 360.97 435.033 324.01C437.997 314.539 441.832 305.352 446.436 296.713C464.811 262.151 496.299 235.177 535.101 220.768C566.519 209.099 601.49 205.552 637.423 210.248L637.418 210.253Z" fill="white"/>
<path d="M624.797 551.99C625.53 552.084 626.254 552.178 626.987 552.267C650.224 555.125 673.792 555.174 697.034 552.415C720.478 549.632 743.165 544.035 764.469 535.778C803.752 520.557 838.059 494.896 861.073 463.528C886.722 428.559 896.708 388.905 889.944 348.854C883.06 308.096 860.28 271.195 824.064 242.136C791.987 216.399 750.613 197.92 707.569 190.099C685.824 186.151 663.371 184.7 640.833 185.789C617.799 186.904 595.296 190.644 573.948 196.914C527.777 210.466 489.203 235.256 462.398 268.605C456.204 276.312 450.619 284.603 445.797 293.256C435.95 311.152 429.939 330.221 427.932 349.934C426.029 368.632 427.744 387.622 433.022 406.374C443.26 442.725 466.581 476.381 498.688 501.141C533.828 528.24 577.397 545.803 624.792 551.999L624.797 551.99ZM692.648 188.147C697.599 188.796 702.544 189.564 707.505 190.465C787.26 204.958 874.482 259.565 889.572 348.914C904.597 437.896 835.185 507.972 764.33 535.426C675.16 569.979 570.984 556.398 498.921 500.834C429.919 447.628 408.214 362.346 446.129 293.434C450.936 284.801 456.511 276.525 462.691 268.833C512.34 207.073 601.372 176.215 692.648 188.147Z" fill="white"/>
<path d="M625.797 550.608C638.414 552.257 651.224 553.079 664.133 553.044C711.89 552.926 757.739 541.093 796.724 518.814C832.3 498.487 860.517 468.194 876.177 433.517C893.12 395.998 894.359 356.334 879.755 318.814C864.526 279.68 834.714 246.479 793.543 222.799C756.688 201.6 711.989 188.92 667.677 187.092C623.552 185.269 578.169 193.942 539.893 211.511C497.141 231.135 464.38 261.101 445.157 298.17C440.712 306.852 437.124 315.708 434.483 324.495C423.135 362.277 427.664 401.704 447.571 438.515C465.604 471.859 495.248 500.899 531.042 520.285C559.968 535.951 592.194 546.219 625.792 550.608L625.797 550.608ZM691.756 189.549C767.169 199.406 849.129 241.16 879.403 318.953C912.694 404.492 859.784 482.349 796.536 518.487C717.311 563.753 613.175 564.328 531.225 519.948C466.996 485.163 409.443 409.198 434.845 324.604C437.476 315.842 441.059 307.006 445.494 298.343C490.486 211.595 593.294 184.398 667.662 187.469C675.566 187.796 683.629 188.489 691.756 189.549Z" fill="white"/>
</g>
<defs>
<clipPath id="clip0_31_139">
<rect width="892" height="687" fill="white" transform="matrix(-1 -8.74228e-08 -8.74228e-08 1 892 6.10352e-05)"/>
</clipPath>
</defs>
</svg>
